<svg width="892" height="892" viewBox="0 0 892 892" fill="none" xmlns="http://www.w3.org/2000/svg">
<g clip-path="url(#clip0_179_4932)">
<path d="M776.569 404.966C776.253 410.781 775.928 416.596 775.612 422.411C764.298 424.045 755.133 425.987 748.777 427.486C731.007 431.675 717.986 434.375 699.891 434.899C687.909 435.251 679.665 434.24 674.744 428.407C672.396 425.626 671.448 422.51 671.023 420.271C676.035 414.898 681.046 409.526 686.058 404.153C694.645 402.745 701.579 402.501 706.022 402.51C730.429 402.537 742.005 409.986 764.488 407.278C769.843 406.636 774.095 405.616 776.569 404.966Z" fill="#FC6454"/>
<path d="M564.633 784.042C587.035 784.042 609.356 783.961 631.749 783.88C631.586 783.13 631.334 782.137 630.584 781.225C628.923 779.401 626.024 779.645 623.695 779.564C620.047 779.564 616.561 777.568 612.904 777.74C608.507 777.993 601.536 775.004 589.924 761.144C588.019 758.823 586.023 756.25 583.784 753.261C579.721 753.676 575.658 754.173 571.585 754.669C570.755 760.475 569.509 764.629 568.262 767.527C567.685 768.773 567.098 769.848 566.601 770.679C566.267 771.257 565.608 772.259 565.021 773.749C563.477 777.821 563.973 781.55 564.633 784.042Z" fill="#FC6454"/>
<path d="M564.633 784.043C587.035 784.043 609.356 783.962 631.749 783.881C631.586 783.131 631.334 782.138 630.584 781.226C628.923 779.402 626.024 779.646 623.695 779.565C620.047 779.565 616.561 777.569 612.904 777.741C608.507 777.994 601.536 775.005 589.924 761.145C589.012 761.397 588.516 761.813 588.344 762.309C588.01 763.303 587.179 768.612 585.771 768.693C582.863 768.612 578.222 768.359 574.321 768.025C571.748 767.863 569.509 767.691 568.262 767.528C567.685 768.774 567.098 769.849 566.601 770.68C566.267 771.258 565.608 772.26 565.021 773.75C563.477 777.822 563.973 781.551 564.633 784.043Z" fill="#210B04"/>
<path d="M605.2 783.97H624.776C627.286 783.988 629.787 784.016 632.297 784.034C631.232 781.83 629.516 779.167 626.726 776.9C617.272 769.243 604.27 773.406 602.906 773.866C603.665 777.234 604.432 780.602 605.2 783.97Z" fill="#210B04"/>
<path d="M696.947 381.507C697.841 383.954 698.789 386.572 699.809 389.218C700.143 390.121 700.55 391.132 700.956 392.134C704.992 402.6 710.518 415.954 717.597 431.368L740.893 422.302C737.399 407.557 733.923 392.73 730.446 377.895C729.02 371.971 727.611 365.967 726.193 359.971C714.798 345.524 703.421 330.987 692.035 316.458C691.15 317.135 689.922 318.255 688.694 319.889C682.807 327.546 681.895 340.54 696.947 381.507Z" fill="#FC6454"/>
<path d="M696.941 381.506C697.835 383.953 698.783 386.572 699.804 389.218C700.138 390.121 700.544 391.132 700.951 392.134C710.784 387.385 720.617 382.644 730.45 377.895C722.396 378.075 714.332 378.346 706.359 378.545C703.217 379.556 700.093 380.486 696.941 381.506Z" fill="#210B04"/>
<path d="M682.721 390.536C699.461 386.103 716.202 381.669 732.943 377.236C729.521 361.651 726.107 346.066 722.685 330.481C721.376 319.528 711.778 311.438 701.087 311.943C690.91 312.422 682.369 320.567 681.402 331.014C681.854 350.852 682.287 370.698 682.721 390.536Z" fill="url(#paint0_linear_179_4932)"/>
<path d="M634.371 623.67C628.628 631.959 617.468 647.797 610.353 645.422C601.811 642.569 604.122 615.173 604.501 611.037C606.244 587.832 610.506 558.576 620.402 525.925C629.947 494.448 642.082 468.543 653.107 448.678C661.839 467.008 670.57 485.329 679.302 503.658C667.952 567.109 648.358 603.498 634.371 623.67Z" fill="#FC6454"/>
<path d="M585.825 764.303C580.561 763.698 575.288 763.093 570.023 762.488C570.737 758.118 571.82 751.129 572.859 742.524C578.096 699.164 574.114 684.573 580.118 662.658C582.963 652.274 589.058 637.285 603.974 620.824C614.286 621.267 624.607 621.709 634.919 622.143C628.146 637.691 621.483 654.116 615.072 671.39C602.918 704.085 593.374 735.255 585.825 764.303Z" fill="#FC6454"/>
<path d="M630.453 382.056C631.943 386.453 633.523 390.688 635.266 394.832C634.769 405.532 634.354 414.824 633.939 425.614C635.844 451.583 642.733 472.495 651.447 485.85C658.336 496.469 666.382 502.446 673.93 502.446C681.145 502.527 689.615 497.137 696.332 489.751C700.567 485.191 704.044 479.881 706.373 474.572C707.204 472.667 707.701 471.168 712.676 449.849C715.827 436.242 717.489 429.442 718.238 426.12C718.238 426.12 725.868 391.112 725.037 335.852C724.956 331.373 724.703 323.075 720.64 313.368C719.891 311.625 719.565 310.795 718.897 309.639C714.662 302.253 707.367 298.108 701.145 295.869C696.414 294.126 692.269 293.377 690.608 293.133C689.028 292.88 685.714 292.474 682.228 292.058C678.165 291.724 674.598 291.562 673.352 291.48C671.366 291.48 668.792 291.815 665.551 292.97C659.158 296.537 647.709 304.176 638.255 317.946C630.372 329.395 627.139 340.511 625.722 347.319C625.469 353.54 625.306 359.68 625.062 365.902C626.552 370.606 628.376 375.916 630.453 382.056Z" fill="#FC6454"/>
<path d="M688.562 490.537C688.562 512.442 673.889 530.194 655.794 530.194C637.698 530.194 623.025 512.442 623.025 490.537C623.025 468.631 637.698 450.879 655.794 450.879C673.889 450.879 688.562 468.64 688.562 490.537Z" fill="#FC6454"/>
<path d="M720.642 606.622C719.007 615.471 715.287 635.534 707.612 636.293C698.646 637.178 689.562 611.227 688.217 607.308C676.578 588.156 655.539 457.382 658.871 441.174C675.043 450.501 691.224 459.838 707.395 469.165C727.793 539.171 725.084 582.612 720.642 606.622Z" fill="#FC6454"/>
<path d="M732.587 757.099C727.512 757.523 722.438 757.939 717.363 758.363C716.532 754.255 715.142 747.898 713.083 740.232C702.419 700.628 690.753 688.231 687.06 664.375C685.408 653.738 684.848 637.557 691.728 616.446C701.327 612.627 710.916 608.816 720.505 605.006C720.776 622.144 721.427 639.842 722.519 658.063C724.623 693.116 728.144 726.191 732.587 757.099Z" fill="#FC6454"/>
<path d="M700.041 286.388C699.959 284.989 699.959 283.589 700.041 282.19C700.122 276.122 701.052 270.758 702.298 266.406C703.074 263.453 703.932 260.889 704.79 258.866C704.871 258.478 705.025 258.09 705.178 257.774L672.672 254.975C669.638 271.381 666.532 287.797 663.498 304.122L704.555 307.779C702.921 303.499 701.061 297.431 700.357 290.045C700.194 288.871 700.113 287.625 700.041 286.388Z" fill="#FC6454"/>
<path d="M700.039 282.19C700.12 276.122 701.05 270.759 702.296 266.407C703.073 263.454 703.931 260.89 704.789 258.867L692.192 257.774C686.748 259.409 685.348 261.892 684.96 263.066C682.54 269.359 691.172 280.168 700.039 282.19Z" fill="#210B04"/>
<path d="M717.71 232.626L717.646 233.33C717.403 236.012 717.195 237.664 716.996 238.974C716.644 241.294 716.373 241.674 716.301 243.145C716.184 245.529 716.68 246.288 716.743 248.455C716.798 250.531 716.4 252.039 715.877 253.981C713.15 264.013 711.777 269.078 708.138 272.094C698.721 279.923 678.801 270.279 672.67 263.218C669.754 259.859 667.912 255.958 667.912 255.958C666.837 253.629 666.169 251.425 665.754 249.71C664.896 245.529 664.219 240.211 664.472 234.053C664.896 223.587 667.84 215.298 670.214 210.07C673.637 208.21 683.253 203.542 696.03 204.941C707.696 206.224 715.561 211.858 718.649 214.341C718.604 218.486 718.432 223.479 717.999 229.141C717.917 230.278 717.818 231.434 717.71 232.626Z" fill="#FC6454"/>
<path d="M683.763 238.46C683.393 238.46 683.023 238.27 682.815 237.936C682.481 237.404 682.635 236.708 683.159 236.374C684.648 235.426 687.7 233.909 691.682 234.234C693.687 234.415 695.673 235.074 697.425 236.14C697.958 236.465 698.129 237.16 697.804 237.693C697.479 238.225 696.775 238.379 696.251 238.072C694.789 237.178 693.136 236.636 691.475 236.483C688.179 236.158 685.615 237.476 684.368 238.28C684.179 238.406 683.971 238.46 683.763 238.46Z" fill="#210B04"/>
<path d="M689.696 237.304C689.56 238.821 690.581 240.158 691.971 240.275C693.362 240.393 694.599 239.264 694.734 237.747C694.87 236.23 693.849 234.894 692.459 234.776C691.068 234.65 689.831 235.787 689.696 237.304Z" fill="#210B04"/>
<path d="M706.07 239.661C705.7 239.661 705.33 239.48 705.122 239.137C704.788 238.613 704.941 237.918 705.465 237.575C706.946 236.627 710.025 235.056 713.989 235.435C716.003 235.615 717.989 236.275 719.732 237.34C720.265 237.665 720.436 238.36 720.111 238.884C719.786 239.417 719.082 239.588 718.567 239.254C717.556 238.64 715.903 237.864 713.79 237.674C710.44 237.358 707.93 238.667 706.684 239.471C706.495 239.607 706.278 239.661 706.07 239.661Z" fill="#210B04"/>
<path d="M712.002 238.506C711.867 240.023 712.887 241.359 714.278 241.476C715.668 241.603 716.905 240.465 717.041 238.948C717.176 237.431 716.156 236.095 714.765 235.977C713.375 235.851 712.138 236.98 712.002 238.506Z" fill="#210B04"/>
<path d="M685.842 230.723C685.842 230.723 687.024 230.118 688.225 229.856C690.185 229.423 694.474 229.296 700.054 229.748C700.262 229.332 700.767 228.204 700.578 226.741C700.415 225.495 699.837 224.628 699.548 224.258C695.973 224.989 693.318 225.242 691.431 225.323C690.726 225.359 688.614 225.432 686.266 226.47C685.137 226.967 684.686 227.4 684.469 227.617C682.934 229.152 682.97 231.373 683.024 232.123C683.72 231.716 684.677 231.211 685.842 230.723Z" fill="#210B04"/>
<path d="M717.71 232.627L717.647 233.332C715.407 233.404 712.391 233.711 708.861 234.307C708.626 233.901 708.039 232.826 708.093 231.345C708.139 230.099 708.653 229.187 708.888 228.799C712.518 229.214 715.182 229.241 717.078 229.16C717.285 229.151 717.583 229.133 717.99 229.151C717.917 230.28 717.818 231.435 717.71 232.627Z" fill="#210B04"/>
<path d="M704.387 253.972C704.612 254.162 706.111 255.336 708.098 254.966C709.38 254.731 710.193 253.972 710.491 253.656L704.387 253.972Z" fill="#210B04"/>
<path d="M703.641 267.221C703.036 267.221 702.53 266.733 702.512 266.119C702.494 265.496 702.991 264.981 703.614 264.963L706.919 264.873C707.56 264.873 708.056 265.361 708.074 265.975C708.092 266.598 707.596 267.121 706.973 267.13L703.668 267.221H703.641Z" fill="#210B04"/>
<path d="M597.378 608.671C591.572 621.312 585.947 635.624 581.134 651.534C569.368 690.37 566.443 725.441 566.614 752.656C575.256 754.561 583.897 756.457 592.538 758.362C614.344 698.063 631.51 653.873 643.871 623.019C651.104 604.969 661.442 579.632 670.318 543.685C676.206 519.847 679.393 499.666 681.208 485.608C666.941 475.133 652.675 464.65 638.408 454.176C635.284 456.713 630.58 461.083 626.76 467.63C618.877 481.129 619.834 495.143 619.997 499.089C620.584 513.355 616.755 542.656 597.378 608.671Z" fill="#6AA7AD"/>
<path d="M687.257 617.313C683.997 629.774 681.18 646.163 681.722 665.368C682.833 704.611 697.388 734.191 706.508 749.56C715.763 748.919 725.018 748.286 734.274 747.645C730.59 701.55 726.897 655.454 723.213 609.367C727.547 581.457 729.389 542.657 717.677 499.433C714.707 488.462 711.176 478.367 707.384 469.166C691.221 483.523 675.067 497.871 658.904 512.228C668.358 547.253 677.812 582.288 687.257 617.313Z" fill="#6AA7AD"/>
<path d="M644.745 504.614C665.946 506.339 687.147 508.072 708.358 509.797C708.042 496.253 707.717 482.699 707.401 469.155C684.258 463.53 661.115 457.913 637.973 452.297C640.221 469.742 642.487 487.178 644.745 504.614Z" fill="#6AA7AD"/>
<path d="M610.484 477.11C622.557 480.451 636.273 483.548 651.442 485.851C667.84 488.343 682.91 489.445 696.247 489.752C706.206 488.09 714.414 484.858 721.141 481.454C729.936 411.43 732.428 357.253 729.439 333.189C726.703 310.624 717.827 303.319 714.586 300.999C709.52 297.432 704.301 296.267 701.141 295.852C700.798 298.028 699.29 305.866 693.538 308.773C686.052 312.556 672.788 307.283 665.546 292.944C636.273 293.405 616.182 309.649 615.342 325.46C615.234 327.573 615.08 336.765 625.717 347.293C622.53 361.469 619.658 376.567 617.284 392.531C612.733 423.159 610.818 451.566 610.484 477.11Z" fill="url(#paint1_linear_179_4932)"/>
<path d="M576.639 743.933C576.016 743.933 575.511 743.428 575.511 742.814C575.429 724.646 577.118 706.425 580.549 688.664C586.12 659.742 594.879 639.191 601.922 622.685L603.954 617.917C618.238 584.12 630.546 547.307 640.55 508.489C640.695 507.938 641.236 507.559 641.796 507.649C649.282 508.678 656.198 505.608 658.221 500.407C659.25 497.762 658.781 495.026 658.203 493.211C658.013 492.615 658.347 491.983 658.934 491.793C659.539 491.631 660.162 491.938 660.352 492.534C661.336 495.64 661.327 498.647 660.325 501.238C658.013 507.161 650.573 510.746 642.483 510.006C632.496 548.58 620.234 585.176 606.03 618.802L603.999 623.579C597.001 639.986 588.296 660.419 582.77 689.097C579.375 706.723 577.696 724.791 577.777 742.814C577.768 743.428 577.262 743.933 576.639 743.933Z" fill="#C1DCE0"/>
<path d="M681.213 531.324C680.59 531.324 680.084 530.818 680.084 530.195V496.669C680.084 496.046 680.59 495.54 681.213 495.54C681.836 495.54 682.341 496.046 682.341 496.669V530.195C682.341 530.818 681.836 531.324 681.213 531.324Z" fill="#C1DCE0"/>
<path d="M671.624 544.806C671.398 544.806 671.173 544.743 670.974 544.598C670.459 544.237 670.342 543.533 670.703 543.027L680.302 529.546C680.663 529.022 681.367 528.914 681.873 529.275C682.387 529.636 682.505 530.341 682.144 530.846L672.554 544.327C672.319 544.643 671.976 544.806 671.624 544.806Z" fill="#C1DCE0"/>
<path d="M623.922 378.022C624.734 380.496 625.592 383.151 626.531 385.823C626.531 385.823 627.037 387.268 627.579 388.776C628.987 392.686 635.714 409.128 645.159 431.431C655.101 426.899 665.033 422.357 674.966 417.824C668.627 406.88 662.008 392.722 657.521 375.512C655.868 369.164 654.685 363.114 653.855 357.452C642.938 342.635 632.03 327.745 621.132 312.847C620.22 313.497 618.965 314.58 617.682 316.161C611.533 323.628 610.206 336.594 623.922 378.022Z" fill="#FC6454"/>
<path d="M623.928 378.02C624.74 380.494 625.598 383.149 626.537 385.821C626.844 386.742 627.214 387.754 627.585 388.774C637.571 384.35 647.549 379.925 657.536 375.501C649.481 375.419 641.409 375.428 633.436 375.365C630.257 376.277 627.097 377.108 623.928 378.02Z" fill="#210B04"/>
<path d="M609.41 386.59C626.286 382.698 643.162 378.815 660.039 374.924C657.131 359.239 654.215 343.546 651.307 327.862C650.35 316.873 641.032 308.476 630.332 308.629C620.137 308.773 611.342 316.638 610.033 327.049C609.826 346.896 609.618 366.743 609.41 386.59Z" fill="url(#paint2_linear_179_4932)"/>
<path d="M696.215 257.232C701.064 261.503 705.217 261.892 707.15 261.865C709.082 261.837 712.414 261.359 712.567 260.257C712.694 259.372 710.843 258.045 709.1 258.063C708.089 258.072 707.357 258.533 707.15 258.65C705.759 259.445 702.852 259.688 696.215 257.232Z" fill="white"/>
<path d="M662.98 226.885C662.456 238.163 662.185 243.806 664.271 249.964C666.971 257.955 671.766 263.644 672.669 263.22C673.581 262.795 672.326 255.355 670.745 246.073C670.511 244.673 670.077 242.208 671.441 240.872C672.894 239.445 675.034 240.926 676.795 240.005C682.339 237.124 677.229 225.205 682.33 220.645C686.944 216.519 693.987 223.752 710.62 221.738C720.308 220.564 723.378 217.458 724.679 215.11C725.6 213.449 725.834 211.787 725.889 210.614C724.318 207.643 721.735 203.941 717.934 203.354C715.767 203.02 714.06 203.823 713.094 204.221C705.31 207.39 699.306 202.749 688.028 203.011C682.908 203.128 674.348 203.327 668.118 209.656C664.172 214.144 663.323 219.652 662.98 226.885Z" fill="#682C23"/>
<path d="M710.521 784.042C732.923 784.042 755.244 783.961 777.646 783.88C777.484 783.13 777.231 782.137 776.482 781.225C774.82 779.401 771.922 779.645 769.592 779.564C765.944 779.564 762.459 777.568 758.802 777.74C754.404 777.993 747.434 775.004 735.822 761.144C733.916 758.823 731.921 756.25 729.682 753.261C725.618 753.676 721.546 754.173 717.483 754.669C716.652 760.475 715.406 764.629 714.16 767.527C713.582 768.773 712.995 769.848 712.498 770.679C712.164 771.257 711.505 772.259 710.918 773.749C709.356 777.821 709.853 781.55 710.521 784.042Z" fill="#FC6454"/>
<path d="M710.521 784.043C732.923 784.043 755.244 783.962 777.646 783.881C777.484 783.131 777.231 782.138 776.482 781.226C774.82 779.402 771.922 779.646 769.592 779.565C765.944 779.565 762.459 777.569 758.802 777.741C754.404 777.994 747.434 775.005 735.822 761.145C734.91 761.397 734.413 761.813 734.241 762.309C733.907 763.303 733.077 768.612 731.668 768.693C728.761 768.612 724.119 768.359 720.219 768.025C717.645 767.863 715.406 767.691 714.16 767.528C713.582 768.774 712.995 769.849 712.498 770.68C712.164 771.258 711.505 772.26 710.918 773.75C709.356 777.822 709.853 781.551 710.521 784.043Z" fill="#210B04"/>
<path d="M751.088 783.97H770.664C773.175 783.988 775.676 784.016 778.186 784.034C777.12 781.83 775.405 779.167 772.615 776.9C763.161 769.243 750.158 773.406 748.795 773.866C749.553 777.234 750.321 780.602 751.088 783.97Z" fill="#210B04"/>
<path d="M774.455 514.788L777.498 514.384L770.993 465.422L767.95 465.826L774.455 514.788Z" fill="#E94057"/>
<path d="M769.673 517.374L772.717 516.97L766.212 468.008L763.169 468.412L769.673 517.374Z" fill="#E94057"/>
<path d="M762.947 528.053L766.016 527.943L764.257 478.582L761.189 478.691L762.947 528.053Z" fill="#E94057"/>
<path d="M753.055 512.751L756.107 513.085L761.481 463.985L758.429 463.651L753.055 512.751Z" fill="#E94057"/>
<path d="M741.011 511.425L743.934 512.366L759.072 465.35L756.15 464.41L741.011 511.425Z" fill="#E94057"/>
<path d="M723.531 297.604C723.613 297.938 723.694 298.263 723.784 298.597C734.737 340.666 745.771 382.644 756.724 424.631C765.6 426.04 774.566 427.448 783.442 428.776C799.623 417.074 820.111 399.818 840.03 375.592C858.45 353.19 870.974 331.456 879.272 313.947C879.941 312.62 880.6 311.293 881.178 310.047C877.358 300.918 873.548 291.708 869.728 282.588C821.023 287.563 772.318 292.629 723.531 297.604Z" fill="#FFC392"/>
<path d="M738.742 491.739C744.846 483.324 750.959 474.917 757.063 466.502C757.171 468.75 757.984 481.491 768.82 491.044C779.203 500.2 791.294 499.812 793.714 499.685C790.599 475.441 787.493 451.188 784.377 426.943C775.158 426.185 765.939 425.426 756.72 424.668C750.724 447.025 744.729 469.382 738.742 491.739Z" fill="#FFC392"/>
<path d="M723.531 297.605C723.613 297.939 723.694 298.264 723.784 298.598C724.534 298.932 725.355 299.347 726.357 299.925C731.748 303.077 737.057 305.316 742.123 306.977C742.872 307.311 743.532 307.474 744.2 307.636C744.696 307.889 745.112 307.971 745.527 308.052C748.597 308.964 751.505 309.623 754.403 310.129C755.153 310.291 755.812 310.372 756.48 310.463C757.311 310.625 758.223 310.797 759.053 310.959C764.697 311.709 769.925 312.043 774.647 312.368C777.717 312.621 780.453 312.865 783.027 313.027C784.101 313.108 785.185 313.28 786.097 313.361C795.885 314.273 802.521 315.266 807.75 316.097C808.833 316.26 809.826 316.431 810.738 316.594C817.538 317.84 822.188 318.752 829.736 319.167C830.73 319.248 831.813 319.248 832.888 319.33C835.38 319.411 838.116 319.411 841.267 319.411C844.996 319.33 848.482 319.248 851.723 319.077C852.969 318.996 854.125 318.914 855.29 318.743C862.008 318.246 867.317 317.415 871.633 316.422C872.211 316.26 872.798 316.178 873.295 316.007C875.615 315.339 877.611 314.68 879.272 313.93C879.941 312.603 880.6 311.275 881.178 310.029C880.103 307.375 878.938 304.639 877.855 301.984C877.105 300.241 876.365 298.499 875.615 296.756C875.281 295.844 874.866 294.851 874.451 293.939C873.539 291.618 872.545 289.379 871.543 287.049C871.381 286.471 871.128 285.975 870.875 285.388C870.541 284.476 870.125 283.645 869.8 282.733C868.554 282.652 867.561 282.814 866.73 282.896C864.654 283.058 862.748 283.311 860.753 283.474C859.841 283.555 858.848 283.636 857.936 283.808C856.861 283.889 856.112 283.97 855.281 284.06C854.532 284.142 853.791 284.223 853.042 284.313C846.071 284.972 839.1 285.722 832.129 286.471C830.802 286.553 829.556 286.724 828.31 286.805C827.976 286.887 827.317 286.887 827.317 286.887C821.592 287.546 815.786 288.133 809.98 288.711C807.741 288.963 805.501 289.126 803.262 289.37C801.6 289.532 799.858 289.785 798.115 289.948C796.788 290.029 795.46 290.201 794.133 290.363C786.584 291.112 779.036 291.853 771.397 292.684C768.823 292.936 766.25 293.18 763.686 293.433C754.394 294.426 745.103 295.338 735.721 296.341C731.667 296.774 727.595 297.189 723.531 297.605Z" fill="#C1DCE0"/>
<path d="M829.771 267.642C830.313 270.64 832.986 274.333 836.399 275.498C837.979 276.031 839.026 275.796 842.385 276.744C845.112 277.521 845.762 278.054 846.891 278.333C851.225 279.408 857.961 275.543 859.74 270.351C862.214 263.11 855.063 253.231 846.232 252.437C837.04 251.615 828.543 260.888 829.771 267.642Z" fill="#F76F6F"/>
<path d="M831.293 264.826C826.706 267.219 826.128 280.086 832.295 286.759C833.054 287.581 836.259 291.039 840.783 291.048C843.347 291.057 845.289 289.956 847.465 288.719C849.144 287.77 852.025 286.136 854.174 282.867C854.625 282.19 858.869 275.608 856.431 271.779C854.788 269.197 851.691 270.343 843.537 268.258C835.022 266.091 833.614 263.616 831.293 264.826Z" fill="#F76F6F"/>
<path d="M839.652 273.414C839.914 275.301 846.515 276.222 851.68 275.518C855.924 274.94 861.323 272.981 861.215 271.184C861.116 269.531 856.366 268.285 852.7 268.195C846.172 268.033 839.381 271.41 839.652 273.414Z" fill="#FFA1A1"/>
<path d="M852.835 261.377C855.192 264.474 855.273 266.46 856.979 266.668C859.58 266.984 861.955 265.124 862.271 262.524C862.56 260.113 859.923 258.415 858.126 257.232C853.341 254.09 847.038 253.864 846.559 255.183C846.207 256.158 849.458 256.934 852.835 261.377Z" fill="#FFA1A1"/>
<path d="M831.451 262.362C832.905 267.328 851.515 266.082 851.614 265.188C851.659 264.71 846.359 265.215 841.718 261.387C838.711 258.904 838.259 256.475 836.282 256.421C833.826 256.358 830.774 260.051 831.451 262.362Z" fill="#FFA1A1"/>
<path d="M837.292 254.703C835.847 252.843 825.472 254.802 824.551 261.051C823.901 265.439 828.262 269.539 832.109 270.523C834.881 271.236 837.725 270.396 837.734 269.972C837.743 269.466 833.707 270.044 832.407 268.103C830.077 264.626 838.917 256.789 837.292 254.703Z" fill="#FFA1A1"/>
<path d="M857.867 266.343C856.359 268.898 846.698 265.359 846.526 265.964C846.4 266.388 850.887 268.799 856.531 268.79C857.208 268.79 864.025 268.781 864.657 266.406C865.47 263.345 855.556 257.819 854.598 258.884C853.831 259.742 859.104 264.239 857.867 266.343Z" fill="#FFA1A1"/>
<path d="M835.656 254.605C835.331 257.485 840.848 260.339 844.614 261.341C848.252 262.307 851.359 261.82 851.377 261.603C851.395 261.377 848.027 261.449 844.361 259.427C844.063 259.264 840.686 257.368 841.011 256.366C841.237 255.67 843.232 255.445 844.857 255.986C846.736 256.619 846.943 257.973 848.523 258.759C850.943 259.969 854.799 258.975 855.232 257.467C855.864 255.228 849.598 249.81 843.187 250.271C840.036 250.497 835.927 252.212 835.656 254.605Z" fill="#FFA1A1"/>
<path d="M832.665 287.148C830.796 288.322 833.134 298.11 836.9 298.534C837.478 298.597 838.074 298.444 839.446 297.532C844.918 293.902 847.889 288.231 847.275 287.726C846.914 287.428 845.388 289.035 844.467 288.457C843.97 288.141 844.15 287.509 843.726 287.274C842.922 286.832 841.694 288.782 840.006 289.378C836.882 290.48 834.028 286.29 832.665 287.148Z" fill="#E94057"/>
<path d="M847.028 294.163C848.762 297.956 853.385 298.823 854.09 298.94C853.25 297.667 852.004 295.716 850.622 293.233C848.455 289.333 847.886 287.608 847.281 287.725C846.451 287.879 845.755 291.373 847.028 294.163Z" fill="#E94057"/>
<path d="M828.51 287.427C824.772 289.278 824.058 293.928 823.959 294.632C825.196 293.756 827.119 292.438 829.557 290.984C833.386 288.691 835.092 288.077 834.957 287.472C834.776 286.641 831.255 286.063 828.51 287.427Z" fill="#E94057"/>
<path d="M840.715 292.719C841.158 296.872 845.266 299.157 845.889 299.491C845.492 298.019 844.932 295.771 844.408 292.981C843.587 288.592 843.605 286.777 842.991 286.696C842.16 286.57 840.399 289.667 840.715 292.719Z" fill="#E94057"/>
<path d="M829.738 319.175C830.732 319.256 831.815 319.256 832.89 319.337L837.784 298.344L838.036 297.188L835.048 296.438L834.885 297.269C834.876 297.359 829.738 319.175 829.738 319.175Z" fill="#E94057"/>
<path d="M799.443 284.169C800.346 287.076 803.443 290.426 806.964 291.167C808.599 291.51 809.601 291.14 813.059 291.681C815.858 292.124 816.572 292.575 817.727 292.72C822.161 293.261 828.382 288.62 829.529 283.257C831.118 275.771 822.829 266.823 813.971 267.094C804.734 267.383 797.411 277.604 799.443 284.169Z" fill="#F76F6F"/>
<path d="M800.611 281.189C796.34 284.115 797.315 296.964 804.241 302.842C805.09 303.564 808.692 306.616 813.189 306.083C815.735 305.785 817.532 304.458 819.537 302.968C821.09 301.821 823.754 299.862 825.496 296.359C825.857 295.636 829.28 288.584 826.408 285.081C824.467 282.715 821.532 284.223 813.18 283.139C804.467 281.993 802.769 279.708 800.611 281.189Z" fill="#F76F6F"/>
<path d="M809.948 288.701C810.436 290.543 817.1 290.661 822.138 289.351C826.283 288.268 831.411 285.676 831.077 283.907C830.779 282.272 825.922 281.613 822.265 281.965C815.772 282.579 809.443 286.751 809.948 288.701Z" fill="#FFA1A1"/>
<path d="M821.593 275.174C824.302 277.964 824.618 279.923 826.343 279.923C828.97 279.923 831.092 277.792 831.092 275.174C831.092 272.745 828.266 271.382 826.343 270.424C821.214 267.878 814.929 268.411 814.613 269.774C814.379 270.786 817.701 271.165 821.593 275.174Z" fill="#FFA1A1"/>
<path d="M800.482 278.724C802.523 283.483 820.853 280.007 820.835 279.113C820.826 278.634 815.616 279.763 810.559 276.521C807.272 274.417 806.532 272.061 804.564 272.241C802.117 272.467 799.534 276.503 800.482 278.724Z" fill="#FFA1A1"/>
<path d="M805.369 270.417C803.707 268.746 793.648 271.943 793.477 278.254C793.359 282.688 798.181 286.237 802.118 286.751C804.962 287.121 807.68 285.957 807.635 285.532C807.581 285.027 803.644 286.092 802.118 284.313C799.391 281.135 807.229 272.295 805.369 270.417Z" fill="#FFA1A1"/>
<path d="M827.194 279.5C826.012 282.218 815.989 279.87 815.889 280.484C815.817 280.917 820.558 282.778 826.165 282.091C826.833 282.01 833.605 281.179 833.939 278.75C834.382 275.617 823.872 271.319 823.05 272.493C822.391 273.432 828.161 277.27 827.194 279.5Z" fill="#FFA1A1"/>
<path d="M803.721 270.507C803.739 273.405 809.563 275.582 813.427 276.114C817.157 276.638 820.182 275.78 820.173 275.564C820.164 275.338 816.823 275.816 812.949 274.245C812.633 274.119 809.048 272.647 809.256 271.609C809.4 270.895 811.351 270.426 813.03 270.769C814.972 271.175 815.342 272.493 817.003 273.08C819.549 273.992 823.261 272.548 823.504 270.986C823.866 268.683 816.994 264.06 810.683 265.288C807.576 265.911 803.703 268.105 803.721 270.507Z" fill="#FFA1A1"/>
<path d="M804.649 303.175C802.942 304.566 806.427 314.002 810.22 313.975C810.807 313.975 811.376 313.74 812.631 312.675C817.633 308.413 819.89 302.426 819.222 301.993C818.825 301.74 817.507 303.519 816.522 303.049C815.99 302.796 816.089 302.146 815.646 301.966C814.798 301.622 813.813 303.708 812.206 304.503C809.236 305.984 805.904 302.164 804.649 303.175Z" fill="#E94057"/>
<path d="M819.763 308.423C821.939 311.981 826.634 312.288 827.348 312.315C826.363 311.159 824.882 309.362 823.221 307.068C820.602 303.457 819.835 301.813 819.239 301.994C818.435 302.256 818.164 305.804 819.763 308.423Z" fill="#E94057"/>
<path d="M800.561 303.952C797.067 306.236 796.922 310.941 796.904 311.654C798.033 310.634 799.776 309.099 802.024 307.356C805.555 304.62 807.171 303.807 806.963 303.221C806.692 302.426 803.126 302.272 800.561 303.952Z" fill="#E94057"/>
<path d="M813.324 307.744C814.254 311.807 818.606 313.586 819.274 313.848C818.705 312.439 817.875 310.272 817.026 307.554C815.69 303.301 815.482 301.496 814.859 301.486C814.019 301.459 812.638 304.746 813.324 307.744Z" fill="#E94057"/>
<path d="M807.75 316.105C808.834 316.268 809.827 316.439 810.739 316.602C810.82 316.602 811.073 313.703 811.073 313.703L811.235 312.457L808.165 312.123L808.084 313.035L807.75 316.105Z" fill="#E94057"/>
<path d="M767.811 279.905C769.31 282.56 773.039 285.179 776.642 285.152C778.313 285.143 779.216 284.574 782.71 284.366C785.536 284.203 786.331 284.501 787.487 284.393C791.929 283.987 797.031 278.127 797.013 272.646C796.986 264.998 786.981 258 778.385 260.14C769.428 262.388 764.434 273.928 767.811 279.905Z" fill="#F76F6F"/>
<path d="M768.32 276.745C764.762 280.511 768.437 292.854 776.456 297.134C777.44 297.658 781.602 299.879 785.882 298.407C788.302 297.576 789.783 295.897 791.435 294.019C792.709 292.574 794.894 290.082 795.869 286.299C796.068 285.513 797.919 277.901 794.37 275.084C791.977 273.188 789.422 275.283 781.033 275.987C772.257 276.718 770.117 274.849 768.32 276.745Z" fill="#F76F6F"/>
<path d="M779.024 282.117C779.891 283.815 786.429 282.524 791.07 280.167C794.889 278.235 799.35 274.614 798.655 272.952C798.013 271.426 793.128 271.806 789.625 272.916C783.422 274.903 778.112 280.32 779.024 282.117Z" fill="#FFA1A1"/>
<path d="M787.542 266.433C790.784 268.591 791.506 270.433 793.195 270.072C795.759 269.512 797.384 266.983 796.834 264.419C796.319 262.044 793.267 261.313 791.181 260.78C785.628 259.372 779.596 261.232 779.578 262.631C779.578 263.67 782.892 263.345 787.542 266.433Z" fill="#FFA1A1"/>
<path d="M767.662 274.369C770.669 278.586 787.843 271.308 787.635 270.441C787.527 269.972 782.678 272.184 777.044 270.089C773.387 268.725 772.159 266.576 770.28 267.172C767.933 267.913 766.262 272.401 767.662 274.369Z" fill="#FFA1A1"/>
<path d="M770.682 265.224C768.705 263.941 759.549 269.197 760.723 275.4C761.544 279.761 767.007 282.199 770.962 281.874C773.815 281.63 776.226 279.915 776.091 279.517C775.937 279.03 772.308 280.908 770.447 279.49C767.107 276.962 772.894 266.659 770.682 265.224Z" fill="#FFA1A1"/>
<path d="M793.93 269.475C793.344 272.382 783.05 272.202 783.086 272.834C783.113 273.267 788.134 274.089 793.461 272.229C794.102 272.003 800.54 269.764 800.359 267.317C800.125 264.156 788.946 262.188 788.395 263.506C787.953 264.554 794.409 267.082 793.93 269.475Z" fill="#FFA1A1"/>
<path d="M769.094 265.656C769.726 268.483 775.875 269.376 779.767 269.079C783.523 268.799 786.295 267.318 786.241 267.119C786.187 266.902 783.027 268.076 778.9 267.363C778.566 267.309 774.755 266.622 774.728 265.566C774.71 264.835 776.525 263.968 778.241 263.95C780.218 263.932 780.859 265.142 782.62 265.367C785.302 265.72 788.625 263.516 788.535 261.945C788.399 259.625 780.706 256.555 774.801 259.092C771.893 260.338 768.57 263.309 769.094 265.656Z" fill="#FFA1A1"/>
<path d="M776.926 297.387C775.544 299.111 780.962 307.59 784.664 306.759C785.233 306.633 785.747 306.29 786.741 304.981C790.732 299.762 791.671 293.432 790.93 293.152C790.488 292.989 789.576 295.003 788.519 294.759C787.951 294.624 787.905 293.965 787.427 293.883C786.524 293.73 786 295.978 784.601 297.089C782 299.157 777.937 296.132 776.926 297.387Z" fill="#E94057"/>
<path d="M792.797 299.319C795.677 302.335 800.327 301.639 801.032 301.522C799.822 300.601 797.998 299.156 795.885 297.269C792.562 294.298 791.46 292.854 790.919 293.161C790.187 293.567 790.684 297.097 792.797 299.319Z" fill="#E94057"/>
<path d="M773.097 299.011C770.171 301.981 771.02 306.605 771.155 307.309C772.04 306.072 773.422 304.203 775.246 302.027C778.117 298.604 779.526 297.467 779.201 296.934C778.758 296.221 775.246 296.826 773.097 299.011Z" fill="#E94057"/>
<path d="M786.359 300.013C788.129 303.788 792.761 304.6 793.466 304.718C792.608 303.462 791.344 301.512 789.935 299.047C787.723 295.173 787.145 293.449 786.531 293.566C785.709 293.729 785.059 297.232 786.359 300.013Z" fill="#E94057"/>
<path d="M782.199 305.404L782.281 306.235L783.03 313.034C784.104 313.116 785.188 313.287 786.1 313.368L785.441 306.479L785.278 305.07L782.199 305.404Z" fill="#E94057"/>
<path d="M735.292 289.055C736.791 291.709 740.52 294.328 744.123 294.301C745.784 294.292 746.696 293.723 750.19 293.515C753.017 293.353 753.811 293.651 754.967 293.542C759.41 293.136 764.511 287.276 764.493 281.795C764.466 274.147 754.461 267.149 745.865 269.289C736.908 271.529 731.915 283.068 735.292 289.055Z" fill="#F76F6F"/>
<path d="M735.806 285.895C732.249 289.66 735.924 302.003 743.942 306.283C744.926 306.807 749.089 309.028 753.369 307.557C755.789 306.726 757.269 305.046 758.922 303.168C760.195 301.724 762.38 299.24 763.346 295.448C763.545 294.662 765.405 287.051 761.847 284.233C759.455 282.337 756.899 284.432 748.511 285.136C739.743 285.868 737.603 283.99 735.806 285.895Z" fill="#F76F6F"/>
<path d="M746.521 291.267C747.387 292.964 753.925 291.673 758.566 289.316C762.385 287.384 766.846 283.763 766.151 282.102C765.51 280.576 760.625 280.955 757.121 282.066C750.909 284.052 745.609 289.47 746.521 291.267Z" fill="#FFA1A1"/>
<path d="M755.038 275.582C758.28 277.74 759.002 279.582 760.691 279.221C763.255 278.661 764.88 276.133 764.33 273.568C763.815 271.194 760.763 270.462 758.677 269.93C753.124 268.521 747.092 270.381 747.074 271.781C747.065 272.819 750.388 272.485 755.038 275.582Z" fill="#FFA1A1"/>
<path d="M735.148 283.51C738.155 287.726 755.329 280.458 755.122 279.582C755.013 279.112 750.164 281.324 744.53 279.23C740.873 277.866 739.645 275.717 737.767 276.313C735.419 277.062 733.749 281.55 735.148 283.51Z" fill="#FFA1A1"/>
<path d="M738.169 274.363C736.191 273.081 727.035 278.336 728.209 284.539C729.031 288.901 734.494 291.339 738.448 291.014C741.302 290.77 743.713 289.063 743.577 288.657C743.415 288.169 739.794 290.047 737.925 288.63C734.593 286.111 740.381 275.808 738.169 274.363Z" fill="#FFA1A1"/>
<path d="M761.417 278.624C760.83 281.532 750.545 281.351 750.572 281.983C750.59 282.416 755.62 283.238 760.947 281.378C761.588 281.152 768.026 278.913 767.846 276.466C767.611 273.306 756.432 271.337 755.882 272.656C755.439 273.703 761.895 276.231 761.417 278.624Z" fill="#FFA1A1"/>
<path d="M736.592 274.806C737.224 277.632 743.373 278.526 747.265 278.228C751.021 277.948 753.793 276.467 753.739 276.26C753.685 276.043 750.524 277.217 746.398 276.503C746.064 276.449 742.253 275.763 742.235 274.707C742.226 273.975 744.032 273.108 745.748 273.09C747.725 273.072 748.366 274.282 750.127 274.508C752.809 274.86 756.132 272.657 756.041 271.086C755.906 268.765 748.213 265.695 742.308 268.232C739.382 269.488 736.059 272.458 736.592 274.806Z" fill="#FFA1A1"/>
<path d="M744.188 307.646C744.684 307.899 745.099 307.98 745.515 308.061C748.585 308.973 751.492 309.632 754.391 310.138C755.14 310.301 755.799 310.382 756.468 310.472C756.883 309.723 757.217 308.982 757.461 308.233C757.876 307.068 758.21 306.075 758.373 305.163C758.535 304.413 758.626 303.917 758.626 303.501C758.626 302.842 758.544 302.427 758.373 302.337C757.958 302.174 757.046 304.161 755.962 303.917C755.384 303.754 755.384 303.086 754.887 303.005C754.228 303.167 753.813 303.998 753.226 304.829C752.892 305.325 752.567 305.822 752.061 306.237C750.481 307.483 748.323 306.815 746.671 306.49C745.677 306.237 744.847 306.075 744.431 306.571C744.269 306.815 744.188 307.149 744.188 307.646Z" fill="#E94057"/>
<path d="M760.289 308.459C763.169 311.475 767.819 310.78 768.524 310.663C767.314 309.742 765.49 308.297 763.377 306.41C760.054 303.439 758.952 301.994 758.411 302.301C757.67 302.708 758.167 306.247 760.289 308.459Z" fill="#E94057"/>
<path d="M742.119 306.978C742.869 307.312 743.528 307.475 744.196 307.637C744.693 307.89 745.108 307.971 745.523 308.053C745.776 307.8 745.939 307.556 746.191 307.303C746.444 306.969 746.607 306.725 746.688 306.473C746.435 305.723 745.279 305.723 743.781 306.22C743.284 306.4 742.706 306.653 742.119 306.978Z" fill="#E94057"/>
<path d="M753.234 304.828C753.072 305.659 753.072 306.571 753.316 307.564C753.397 308.061 753.568 308.639 753.812 309.144C753.975 309.478 754.146 309.803 754.39 310.137C755.14 310.3 755.799 310.381 756.467 310.472C757.298 310.634 758.21 310.806 759.04 310.968C758.544 310.137 758.047 309.225 757.46 308.232C756.964 307.32 756.548 306.571 756.214 305.912C755.383 304.503 754.968 303.501 754.634 303.094C754.381 302.842 754.219 302.679 754.056 302.76C753.65 302.833 753.316 303.663 753.234 304.828Z" fill="#E94057"/>
<path d="M857.696 281.515C857.506 284.558 859.222 288.783 862.256 290.725C863.655 291.619 864.739 291.637 867.773 293.361C870.238 294.761 870.735 295.438 871.773 295.98C875.728 298.057 883.186 295.908 886.157 291.294C890.292 284.856 885.696 273.551 877.317 270.679C868.576 267.681 858.12 274.661 857.696 281.515Z" fill="#F76F6F"/>
<path d="M859.838 279.14C854.808 280.368 851.178 292.729 855.585 300.675C856.127 301.651 858.411 305.777 862.808 306.87C865.291 307.484 867.45 306.879 869.851 306.202C871.711 305.678 874.89 304.784 877.77 302.129C878.366 301.578 884.055 296.197 882.601 291.899C881.626 289 878.339 289.38 870.917 285.407C863.161 281.253 862.384 278.517 859.838 279.14Z" fill="#F76F6F"/>
<path d="M865.911 289.471C865.712 291.367 871.907 293.832 877.08 294.383C881.333 294.834 887.049 294.22 887.365 292.45C887.663 290.816 883.347 288.477 879.807 287.52C873.523 285.805 866.119 287.466 865.911 289.471Z" fill="#FFA1A1"/>
<path d="M881.589 280.928C883.142 284.494 882.744 286.445 884.352 287.05C886.808 287.98 889.553 286.743 890.474 284.287C891.331 282.011 889.173 279.745 887.711 278.165C883.819 273.966 877.742 272.25 876.966 273.415C876.397 274.282 879.367 275.808 881.589 280.928Z" fill="#FFA1A1"/>
<path d="M860.59 276.792C860.816 281.966 879.191 285.199 879.489 284.35C879.651 283.898 874.378 283.113 870.784 278.291C868.455 275.158 868.599 272.693 866.694 272.169C864.328 271.519 860.49 274.372 860.59 276.792Z" fill="#FFA1A1"/>
<path d="M868.09 270.743C867.133 268.594 856.587 268.025 854.203 273.868C852.523 277.976 855.783 282.996 859.286 284.865C861.815 286.22 864.767 286.084 864.876 285.678C865.002 285.182 860.948 284.784 860.144 282.59C858.708 278.662 869.165 273.163 868.09 270.743Z" fill="#FFA1A1"/>
<path d="M885.3 286.959C883.232 289.09 874.681 283.338 874.374 283.889C874.157 284.268 877.932 287.681 883.413 289.027C884.072 289.189 890.69 290.806 891.864 288.657C893.381 285.875 885.074 278.146 883.891 278.95C882.952 279.582 886.997 285.207 885.3 286.959Z" fill="#FFA1A1"/>
<path d="M866.528 270.255C865.526 272.973 870.203 277.063 873.626 278.932C876.93 280.738 880.064 281.009 880.127 280.801C880.199 280.585 876.903 279.853 873.833 277.018C873.581 276.792 870.754 274.147 871.314 273.244C871.702 272.621 873.698 272.873 875.143 273.794C876.813 274.851 876.696 276.223 878.041 277.361C880.1 279.113 884.082 279.068 884.858 277.704C886.014 275.682 881.219 268.928 874.881 267.844C871.757 267.311 867.359 267.997 866.528 270.255Z" fill="#FFA1A1"/>
<path d="M855.858 301.145C853.763 301.841 853.7 311.909 857.258 313.218C857.808 313.417 858.422 313.408 859.967 312.848C866.152 310.635 870.387 305.832 869.908 305.191C869.628 304.811 867.759 306.012 867.01 305.227C866.603 304.802 866.928 304.224 866.567 303.899C865.89 303.276 864.237 304.884 862.45 305.055C859.154 305.389 857.384 300.631 855.858 301.145Z" fill="#E94057"/>
<path d="M868.129 311.383C868.906 315.483 873.186 317.424 873.845 317.704C873.33 316.268 872.59 314.074 871.84 311.338C870.666 307.031 870.531 305.225 869.908 305.189C869.068 305.144 867.56 308.376 868.129 311.383Z" fill="#E94057"/>
<path d="M851.746 300.422C847.673 301.325 845.867 305.669 845.605 306.337C847.023 305.777 849.199 304.964 851.908 304.134C856.17 302.824 857.976 302.635 857.994 302.012C858.021 301.163 854.743 299.754 851.746 300.422Z" fill="#E94057"/>
<path d="M862.342 308.477C861.774 312.613 865.223 315.809 865.756 316.288C865.719 314.762 865.71 312.441 865.873 309.606C866.126 305.154 866.568 303.393 865.99 303.159C865.205 302.852 862.758 305.434 862.342 308.477Z" fill="#E94057"/>
<path d="M851.717 319.094C852.963 319.013 854.119 318.932 855.283 318.76L858.019 313.37L858.679 312.123L855.943 310.715L855.609 311.464L851.717 319.094Z" fill="#E94057"/>
<path d="M772.796 422.861C771.875 422.635 771.532 422.003 771.712 421.407L773.266 416.215C773.446 415.628 774.051 415.276 774.674 415.466C775.27 415.646 775.613 416.269 775.424 416.874L773.87 422.066C773.726 422.545 773.284 422.861 772.796 422.861Z" fill="#210B04"/>
<path d="M782.823 425.796C782.543 425.796 782.263 425.697 782.047 425.489C781.595 425.065 781.577 424.351 782.002 423.891L790.823 414.554C791.248 414.103 791.961 414.076 792.422 414.509C792.873 414.933 792.891 415.647 792.467 416.107L783.645 425.444C783.428 425.679 783.121 425.796 782.823 425.796Z" fill="#210B04"/>
<path d="M783.438 429.904C783.248 429.886 758.85 425.778 758.85 425.778C758.236 425.679 757.821 425.092 757.929 424.478C758.029 423.864 758.597 423.439 759.23 423.557L783.627 427.665C784.241 427.764 784.657 428.351 784.548 428.965C784.449 429.516 783.979 429.904 783.438 429.904Z" fill="#210B04"/>
<path d="M769.049 414.977C768.624 420.792 768.209 426.616 767.785 432.431C754.277 434.138 743.333 436.142 735.739 437.686C714.52 441.993 698.962 444.783 677.372 445.433C662.808 445.867 653.534 445.334 647.421 439.104C645.633 437.289 642.5 433.298 641.688 425.496C648.153 421.921 654.618 418.345 661.083 414.769C671.34 413.306 679.611 413.017 684.912 412.99C714.023 412.846 727.784 420.223 754.629 417.37C761.013 416.692 766.105 415.645 769.049 414.977Z" fill="#FC6454"/>
<path d="M761.449 433.453C769.44 434.022 777.441 434.6 785.432 435.169C787.581 434.112 790.262 432.478 792.872 429.95C798.931 424.053 800.746 417.028 801.342 413.877C797.947 412.306 793.341 410.916 788.375 411.972C784.475 412.803 782.253 414.744 780.772 413.706C777.901 411.683 782.018 402.464 780.429 401.606C779.273 400.983 775.364 405.019 766.217 418.428C764.628 423.43 763.038 428.442 761.449 433.453Z" fill="#FC6454"/>
<path d="M754.87 418.645C754.798 418.645 727.908 416.974 727.908 416.974C727.285 416.938 726.815 416.396 726.852 415.773C726.888 415.177 727.384 414.717 727.98 414.717C728.052 414.717 754.942 416.387 754.942 416.387C755.565 416.423 756.035 416.965 755.999 417.588C755.963 418.184 755.457 418.645 754.87 418.645Z" fill="#210B04"/>
</g>
<defs>
<linearGradient id="paint0_linear_179_4932" x1="707.173" y1="311.921" x2="707.173" y2="390.536" gradientUnits="userSpaceOnUse">
<stop stop-color="#F65F51"/>
<stop offset="1" stop-color="#FB4967"/>
</linearGradient>
<linearGradient id="paint1_linear_179_4932" x1="670.565" y1="292.944" x2="670.565" y2="489.752" gradientUnits="userSpaceOnUse">
<stop stop-color="#F65F51"/>
<stop offset="1" stop-color="#FB4967"/>
</linearGradient>
<linearGradient id="paint2_linear_179_4932" x1="634.724" y1="308.627" x2="634.724" y2="386.59" gradientUnits="userSpaceOnUse">
<stop stop-color="#F65F51"/>
<stop offset="1" stop-color="#FB4967"/>
</linearGradient>
<clipPath id="clip0_179_4932">
<rect width="892" height="892" fill="white"/>
</clipPath>
</defs>
</svg>
