<svg width="892" height="892" viewBox="0 0 892 892" fill="none" xmlns="http://www.w3.org/2000/svg">
<path d="M90.4109 778.379C101.039 778.298 111.666 778.217 122.285 778.136C123.053 777.016 123.847 775.418 123.504 773.756C122.98 771.255 120.281 770.786 116.931 768.402C109.879 763.381 107.639 755.399 107.188 753.81C106.547 751.526 106.357 749.575 106.294 748.356C105.571 748.194 104.777 748.076 103.928 748.049C99.1244 747.896 95.4855 750.614 93.9595 751.932C92.8037 758.289 91.8014 762.776 90.8894 766.208C90.3928 768.095 89.5079 771.282 89.9143 775.454C90.0407 776.691 90.2484 777.702 90.4109 778.379Z" fill="#FC6454"/>
<path d="M122.411 778.379C111.747 778.379 101.074 778.379 90.4011 778.379C89.6426 777.403 88.7035 775.895 88.532 773.954C88.3604 772.04 89.0015 770.685 89.7419 768.717C90.4372 766.848 91.3131 764.193 92.0354 760.789C92.6585 761.403 97.9407 766.396 104.866 765.132C107.819 764.591 109.932 763.128 111.088 762.153C113.986 765.674 116.803 767.299 118.925 768.13C120.56 768.771 121.995 769.024 123.314 770.469C123.449 770.613 126.113 773.611 124.822 776.284C124.208 777.575 122.962 778.162 122.411 778.379Z" fill="#210B04"/>
<path d="M59.3676 338.544C64.4512 366.67 108.795 395.511 146.394 384.359C175.415 375.763 195.686 344.476 189.916 333.126C185.98 325.379 170.936 328.927 163.243 316.069C159.767 310.263 159.415 303.807 153.907 301.721C149.744 300.15 147.053 302.742 143.532 301.026C138.701 298.669 138.566 291.22 137.482 285.296C134.042 266.443 118.303 248.176 104.299 244.853C102.384 244.402 98.0682 243.752 89.4359 242.433C82.3207 241.35 78.745 240.808 78.0317 241.052C69.0924 244.05 73.4447 267.978 68.4243 298.967C63.9095 326.76 57.2637 326.932 59.3676 338.544Z" fill="#FFC392"/>
<path d="M41.4707 349.82C82.5099 349.576 123.558 349.333 164.606 349.089C163.767 344.944 161.924 339.328 157.365 334.912C148.696 326.524 139.152 331.599 127.441 323.481C125.852 322.379 116.434 315.643 113.815 303.372C112.109 295.381 114.05 288.654 115.251 285.395C111.35 288.645 107.449 291.887 103.549 295.137C99.8104 295.399 96.0632 295.661 92.3159 295.923C91.6839 295.977 91.0789 296.031 90.4468 296.058C89.7696 312.402 84.5866 319.806 79.6746 323.481C70.4374 330.389 59.3491 326.181 49.7598 334.912C44.7033 339.49 42.5272 345.414 41.4707 349.82Z" fill="#FC6454"/>
<path d="M66.7666 347.112C66.5047 347.103 65.8907 347.13 65.367 347.545C64.6266 348.132 64.3647 349.261 64.753 350.345C92.284 350.345 119.806 350.345 147.337 350.345C147.662 349.478 147.445 348.53 146.813 347.979C146.136 347.392 145.287 347.518 145.152 347.545C134.19 344.674 125.63 344.746 119.779 345.36C115.002 345.866 113.765 346.552 108.492 346.805C99.1103 347.256 95.0109 345.478 87.3629 344.972C82.6315 344.656 75.5974 344.764 66.7666 347.112Z" fill="white"/>
<path d="M101.361 329.279C100.223 330.705 98.39 331.382 96.6382 331.03C94.1551 330.525 93.207 328.222 93.1348 328.06L101.361 329.279Z" fill="#210B04"/>
<path d="M92.6141 333.567C92.0092 333.847 91.0791 334.254 89.9053 334.615C85.9684 335.834 82.6636 335.599 80.3701 335.4C72.0358 334.696 64.3337 333.531 61.7422 333.125C67.7197 333.333 73.6973 333.531 79.6748 333.739L92.6141 333.567Z" fill="#210B04"/>
<path d="M100.213 333.567C100.818 333.847 101.748 334.254 102.922 334.615C106.859 335.834 110.154 335.599 112.457 335.4C120.791 334.696 128.493 333.531 131.094 333.125C125.116 333.333 119.139 333.531 113.161 333.739L100.213 333.567Z" fill="#210B04"/>
<path d="M102.753 610.242C112.686 609.132 122.609 608.021 132.542 606.91C139.395 592.409 146.601 574.16 152.082 552.517C157.03 532.995 159.404 515.306 160.47 500.443C142.853 503.73 124.821 506.204 106.374 507.748C105.832 507.793 105.282 507.839 104.74 507.884C103.629 516.119 102.717 524.679 102.04 533.546C99.909 561.564 100.595 587.325 102.753 610.242Z" fill="#FC6454"/>
<path d="M102.289 613.012C101.593 622.033 108.799 629.473 116.962 630.123C123.237 630.629 129.44 627.062 132.664 621.075C132.574 618.692 132.51 616.245 132.492 613.744C132.474 611.414 132.483 609.138 132.529 606.908C132.122 606.222 127.644 598.854 119.4 598.339C111.481 597.843 102.993 603.847 102.289 613.012Z" fill="#FC6454"/>
<path d="M93.0449 755.932C97.3339 755.201 101.614 754.478 105.903 753.747C106.056 750.975 106.373 746.65 107.095 741.395C112.639 700.852 131.032 686.098 134.527 654.169C135.357 646.585 135.637 635.37 132.414 621.302C122.346 618.9 112.278 616.507 102.21 614.105C99.3656 643.795 98.562 666.955 98.3814 683.127C98.2821 692.075 98.2821 707.182 96.4129 727.886C95.3565 739.679 94.0382 749.377 93.0449 755.932Z" fill="#FC6454"/>
<path d="M102.452 612.273C92.5737 610.801 82.6864 609.329 72.8081 607.857C66.4784 593.121 59.95 574.62 55.2547 552.795C51.0199 533.111 49.2862 515.341 48.7715 500.451C66.2617 504.379 84.1943 507.503 102.56 509.724C103.102 509.788 103.644 509.851 104.186 509.914C104.989 518.176 105.594 526.772 105.946 535.657C107.066 563.721 105.45 589.437 102.452 612.273Z" fill="#FC6454"/>
<path d="M102.81 615.055C103.171 624.093 95.704 631.263 87.5233 631.624C81.2297 631.895 75.1619 628.111 72.1641 622.007C72.3447 619.633 72.4891 617.186 72.5974 614.684C72.7058 612.355 72.769 610.079 72.8142 607.858C73.2476 607.181 77.9971 599.984 86.2501 599.768C94.178 599.56 102.44 605.872 102.81 615.055Z" fill="#FC6454"/>
<path d="M106.849 758.216C102.596 757.331 98.3345 756.446 94.0816 755.561C94.0274 752.789 93.8649 748.446 93.3412 743.173C89.2779 702.459 71.4265 687.045 69.1059 655.009C68.5551 647.397 68.6816 636.182 72.4198 622.24C82.569 620.209 92.7181 618.177 102.858 616.146C104.619 645.925 104.583 669.095 104.168 685.257C103.942 694.197 103.391 709.294 104.502 730.053C105.134 741.891 106.1 751.633 106.849 758.216Z" fill="#FC6454"/>
<path d="M62.6401 456.648C67.3535 448.539 72.5635 442.101 77.2408 437.18C75.2724 423.112 73.3039 409.044 71.3355 394.976C70.3152 394.958 63.4618 394.732 58.8929 389.098C54.974 384.267 55.3443 378.687 55.4346 377.341C55.6422 374.298 56.6264 372.059 57.3398 370.425C59.0193 366.596 61.2857 363.933 62.8658 362.352C62.0622 358.172 61.2586 353.991 60.455 349.81C62.7485 347.111 66.1436 343.914 70.9202 341.539C86.0988 333.973 101.955 341.287 104.501 342.515C107.291 341.287 123.147 333.973 138.325 341.539C143.102 343.914 146.497 347.111 148.791 349.81C147.987 353.991 135.048 421.333 131.996 437.171C136.673 442.092 141.883 448.53 146.597 456.639C156.529 473.732 159.5 490.084 160.466 500.441C151.346 504.197 139.806 507.953 126.154 510.175C118.659 511.394 111.707 511.953 105.467 512.125C105.187 508.54 104.049 508.54 103.761 512.125C97.5211 511.953 90.5684 511.394 83.0739 510.175C69.4303 507.953 57.8815 504.197 48.7617 500.441C49.7369 490.084 52.7076 473.732 62.6401 456.648Z" fill="#FC6454"/>
<path d="M89.4082 307.471C89.968 307.552 90.5369 307.597 91.1148 307.597C96.8937 307.597 101.571 303.435 101.571 298.297C101.571 295.308 99.9908 292.654 97.5347 290.956C94.5821 292.654 91.8191 293.845 89.3359 294.721C89.8055 299.769 89.7784 303.977 89.4082 307.471Z" fill="#210B04"/>
<path d="M72.8523 280.744C72.9877 285.159 74.6762 288.283 76.8524 292.292C77.2406 293.006 81.9089 301.484 86.8932 303.065C88.6449 303.615 90.4328 303.697 90.4328 303.697C91.6427 303.742 92.7985 303.615 93.9543 303.372C95.3268 303.083 106.072 300.076 113.612 291.444C122.957 280.744 130.289 258.125 118.56 245.032C111.327 236.959 100.176 236.237 95.7512 236.21C95.2726 236.228 94.7218 236.255 94.1168 236.309C94.1168 236.309 91.7782 236.517 89.6291 237.014C81.8547 238.829 77.7824 243.361 77.7824 243.361C73.8546 247.732 73.0419 253.709 73.0238 258.477C73.0238 259.398 73.0509 260.274 73.087 261.086C73.1322 262.007 73.1864 262.838 73.2406 263.56C73.3941 265.709 73.7011 267.109 73.7011 270.251C73.7011 275.85 72.7439 277.258 72.8523 280.744Z" fill="#FC6454"/>
<path d="M127.561 272.167C127.561 276.393 125.033 279.824 121.908 279.824C118.784 279.824 116.256 276.393 116.256 272.167C116.256 267.941 118.784 264.51 121.908 264.51C125.033 264.51 127.561 267.932 127.561 272.167Z" fill="#FC6454"/>
<path d="M121.905 280.954C120.813 280.954 119.72 280.61 118.754 279.96C118.239 279.608 118.104 278.913 118.447 278.389C118.799 277.874 119.495 277.739 120.018 278.082C121.96 279.382 124.343 278.452 125.59 275.942C125.869 275.382 126.565 275.166 127.097 275.436C127.657 275.716 127.883 276.394 127.603 276.944C126.348 279.455 124.226 280.954 121.905 280.954Z" fill="#210B04"/>
<path d="M126.994 276.609C126.028 276.338 125.721 275.688 125.929 275.101C126.2 274.352 126.353 273.548 126.398 272.717C126.435 272.094 126.886 271.634 127.59 271.652C128.213 271.688 128.692 272.221 128.656 272.844C128.602 273.891 128.394 274.903 128.051 275.86C127.897 276.32 127.455 276.609 126.994 276.609Z" fill="#210B04"/>
<path d="M127.517 272.465C126.939 272.465 126.433 272.013 126.397 271.426C126.081 267.499 123.137 264.672 120.492 265.973C119.932 266.243 119.255 266.009 118.984 265.44C118.713 264.88 118.957 264.203 119.517 263.932C120.284 263.562 121.088 263.372 121.909 263.372C125.395 263.372 128.302 266.758 128.655 271.246C128.7 271.869 128.239 272.411 127.616 272.456C127.58 272.465 127.553 272.465 127.517 272.465Z" fill="#210B04"/>
<path d="M120.733 276.953C119.731 276.637 119.451 275.978 119.685 275.4L122.512 268.384C122.737 267.806 123.388 267.517 123.983 267.761C124.561 267.986 124.841 268.655 124.607 269.232L121.78 276.248C121.609 276.691 121.184 276.953 120.733 276.953Z" fill="#210B04"/>
<path d="M122.155 272.844C121.775 272.844 121.405 272.654 121.197 272.311L119.843 270.099C119.518 269.566 119.68 268.871 120.213 268.546C120.746 268.23 121.441 268.392 121.766 268.916L123.121 271.128C123.446 271.661 123.274 272.356 122.75 272.681C122.552 272.79 122.353 272.844 122.155 272.844Z" fill="#210B04"/>
<path d="M97.5636 270.045C97.6358 271.39 98.9902 272.446 100.588 272.401C102.187 272.356 103.415 271.218 103.342 269.864C103.27 268.51 101.916 267.462 100.318 267.507C98.7194 267.552 97.4913 268.69 97.5636 270.045Z" fill="#210B04"/>
<path d="M73.7999 269.919C73.8721 271.264 75.2266 272.32 76.8248 272.275C78.414 272.23 79.651 271.092 79.5788 269.738C79.5066 268.393 78.1521 267.336 76.5539 267.381C74.9557 267.435 73.7277 268.564 73.7999 269.919Z" fill="#210B04"/>
<path d="M108.136 268.509C102.782 265.881 100.263 266.161 98.9806 267.172C97.7525 268.148 97.5178 269.926 96.9128 269.818C96.2807 269.71 95.7299 267.633 96.5336 266.17C97.0934 265.15 98.1318 264.752 98.4839 264.617C102.204 263.199 107.658 268.075 108.136 268.509Z" fill="#D82E2E"/>
<path d="M96.8745 270.767C96.5855 270.767 96.3056 270.658 96.0979 270.451L94.1295 268.564C93.678 268.139 93.66 267.426 94.0934 266.965C94.5178 266.523 95.2401 266.496 95.6916 266.929L96.5765 267.778C96.6939 267.625 96.8113 267.48 96.9467 267.345C99.2131 265.024 103.854 265.196 108.775 267.751C109.335 268.04 109.543 268.717 109.254 269.277C108.974 269.846 108.297 270.053 107.737 269.756C103.827 267.724 100.062 267.372 98.5811 268.907C98.3102 269.196 98.1025 269.539 97.958 269.981C97.8406 270.351 97.5336 270.631 97.1634 270.722C97.0551 270.758 96.9648 270.767 96.8745 270.767Z" fill="#210B04"/>
<path d="M83.9944 270.288C79.5519 266.306 77.0416 265.9 75.5427 266.523C74.098 267.128 73.3937 268.78 72.8339 268.519C72.256 268.239 72.2831 266.099 73.4479 264.898C74.2606 264.067 75.3712 263.968 75.7504 263.932C79.7144 263.579 83.6513 269.738 83.9944 270.288Z" fill="#D82E2E"/>
<path d="M84.0252 271.688C83.7452 271.688 83.4653 271.588 83.2576 271.381C80.0522 268.374 76.5306 267.028 74.6615 268.094C74.3274 268.284 74.0385 268.572 73.7766 268.952C73.569 269.277 73.271 269.548 72.8105 269.448C72.4222 269.439 72.0701 269.232 71.8714 268.888L70.4899 266.541C70.1739 266.008 70.3454 265.313 70.8872 264.997C71.429 264.672 72.1152 264.861 72.4313 265.394L73.0543 266.451C73.2078 266.333 73.3613 266.234 73.5328 266.134C76.323 264.509 80.7384 265.927 84.8017 269.719C85.2532 270.144 85.2803 270.857 84.8559 271.317C84.6301 271.57 84.3322 271.688 84.0252 271.688Z" fill="#210B04"/>
<path d="M111.765 262.036C109.643 261.584 106.681 261.169 103.151 261.322C100.126 261.458 97.5883 261.963 95.7012 262.487C95.7012 262.081 95.7373 261.62 95.8547 261.105C96.1346 259.877 96.7486 258.956 97.2091 258.397C99.62 258.315 101.625 258.37 103.087 258.451C106.654 258.64 107.638 258.966 108.279 259.245C110.067 260.013 111.16 261.223 111.765 262.036Z" fill="#210B04"/>
<path d="M95.8541 258.37C95.6464 258.749 95.3755 259.309 95.1859 260.013C94.8609 261.25 94.897 262.46 95.0324 262.478C95.1859 262.496 95.5471 261.024 95.6554 260.591C95.818 259.95 95.9173 259.39 96.2965 258.64C96.3868 258.451 96.4771 258.306 96.5313 258.207L95.8541 258.37Z" fill="#210B04"/>
<path d="M73.0137 258.479C73.0137 259.4 73.0408 260.275 73.0769 261.088C73.9618 261.133 74.8918 261.215 75.867 261.35C78.8738 261.756 81.3479 262.488 83.1809 263.174C83.217 262.777 83.2261 262.307 83.1538 261.783C82.9823 260.528 82.4585 259.571 82.0522 258.966C79.6594 258.668 77.6639 258.551 76.1921 258.488C74.7744 258.433 73.7631 258.442 73.0137 258.479Z" fill="#210B04"/>
<path d="M83.3987 259.057C83.5702 259.454 83.796 260.032 83.9133 260.754C84.13 262.009 83.9766 263.219 83.8411 263.219C83.6876 263.219 83.4619 261.73 83.3896 261.287C83.2903 260.637 83.2361 260.068 82.9291 259.283C82.8569 259.093 82.7756 258.93 82.7305 258.831L83.3987 259.057Z" fill="#210B04"/>
<path d="M87.9413 279.976C87.1197 279.515 86.307 279.407 85.4853 279.389C84.6636 279.407 83.851 279.506 83.0293 279.976C83.851 280.436 84.6636 280.544 85.4853 280.563C86.307 280.544 87.1287 280.436 87.9413 279.976Z" fill="#210B04"/>
<path d="M80.9697 286.343C80.753 286.569 81.2858 287.995 82.2971 288.338C83.2993 288.672 83.8772 287.652 85.4303 287.742C86.1978 287.788 86.4145 288.077 87.155 288.293C89.8819 289.088 93.0873 287.481 93.0151 286.957C92.988 286.794 92.663 286.849 91.8774 286.596C89.4846 285.837 88.9789 284.185 87.6787 284.347C87.489 284.374 86.7306 284.483 86.1617 284.438C85.8818 284.42 85.6109 284.374 85.6109 284.374C84.5725 284.221 84.5273 284.031 84.13 284.095C83.3535 284.356 82.27 285.937 82.27 285.937C82.1075 286.072 81.8636 286.244 81.5386 286.298C81.1955 286.361 81.042 286.262 80.9697 286.343Z" fill="#D82E2E"/>
<path d="M80.9982 286.5C80.7815 286.274 81.3639 286.514 82.3752 286.171C83.3774 285.837 83.9553 286.858 85.5084 286.767C86.2759 286.722 86.4926 286.433 87.2331 286.217C89.96 285.422 92.5 287 93 287C92.9729 287.162 92.5 287.5 91.9555 287.914C89.5627 288.673 89.057 290.325 87.7568 290.162C87.5671 290.135 86.8087 290.027 86.2398 290.072C85.9599 290.09 85.689 290.135 85.689 290.135C84.6506 290.289 84.6054 290.478 84.2081 290.415C83.4316 290.153 81.7312 288.361 81.7312 288.361C81.5686 288.225 80.5 286.5 81.567 286.545C81.2239 286.482 81.0704 286.581 80.9982 286.5Z" fill="#D82E2E"/>
<path d="M161.861 427.799C167.955 424.304 174.059 420.81 180.154 417.316C179.008 402.597 176.362 385.432 170.854 366.813C168.615 359.238 166.131 352.186 163.531 345.675C158.483 342.587 152.352 342.316 147.549 345.052C142.862 347.725 141.192 352.258 140.768 353.558C147.802 378.308 154.827 403.049 161.861 427.799Z" fill="#FC6454"/>
<path d="M214.218 500.451C216.512 499.078 218.814 497.706 221.108 496.333C216.512 477.994 208.06 455.014 191.816 432.224C187.915 426.752 183.915 421.776 179.924 417.262C173.847 420.576 167.77 423.889 161.693 427.203C164.637 434.129 167.689 439.339 169.811 442.68C183.075 463.538 196.61 468.64 209.116 490.283C211.69 494.744 213.378 498.491 214.218 500.451Z" fill="#FC6454"/>
<path d="M213.914 500.234C216.84 508.884 218.934 513.092 220.19 512.857C221.111 512.686 221.58 510.139 221.607 505.218C230.221 506.166 238.836 507.114 247.45 508.062C249.111 508.694 250.637 508.442 250.98 507.782C251.36 507.069 250.592 505.444 248.642 504.478C239.323 501.236 230.014 497.995 220.704 494.753C218.438 496.577 216.18 498.401 213.914 500.234Z" fill="#FC6454"/>
<path d="M58.6499 427.195C52.0132 424.874 45.3765 422.562 38.7398 420.242C37.0964 405.506 36.5456 388.142 38.6134 368.891C39.3357 362.173 40.3199 355.807 41.4667 349.812C45.3223 344.168 51.8777 341.577 57.5302 343.229C62.7493 344.755 65.2233 349.315 65.7561 350.344C63.3904 375.961 61.0246 401.578 58.6499 427.195Z" fill="#FC6454"/>
<path d="M34.243 512.732C31.6155 512.226 28.9879 511.729 26.3603 511.224C24.5724 492.496 24.744 468.063 31.9495 440.965C33.936 433.498 36.2566 426.59 38.7397 420.242C45.3403 422.147 51.9409 424.044 58.5415 425.949C58.1442 433.461 57.0606 439.403 56.2028 443.277C50.8754 467.412 39.8955 476.839 35.5614 501.454C34.6674 506.51 34.3604 510.61 34.243 512.732Z" fill="#FC6454"/>
<path d="M34.2419 512.731C33.5466 522.374 32.5895 527.232 31.3705 527.295C30.5037 527.34 29.5014 524.957 28.3637 520.126C20.1468 522.88 11.93 525.634 3.72214 528.397C2.23227 529.372 0.688223 529.444 0.209658 528.866C-0.305024 528.243 0.0922626 526.492 1.79884 525.146C10.2144 519.999 18.6209 514.853 27.0364 509.715C29.4292 510.717 31.8401 511.728 34.2419 512.731Z" fill="#FC6454"/>
<path d="M58.6429 566.872C87.8625 568.714 117.082 570.565 146.292 572.407C151.069 564.578 168.261 534.329 161.336 494.798C155.99 464.306 139.168 444.684 131.99 437.172C113.741 437.172 95.4924 437.172 77.2347 437.172C69.8305 444.829 54.5255 462.789 48.3493 490.509C39.9699 528.208 54.1914 558.267 58.6429 566.872Z" fill="#FFA1A1"/>
<path d="M106 632C105.377 632 104.871 631.494 104.871 630.871L103.23 569.762C103.23 569.139 103.727 568.634 104.359 568.634C104.982 568.634 105.488 569.139 105.488 569.762L107.129 630.871C107.138 631.485 106.632 631.991 106 632Z" fill="#210B04"/>
<path d="M104.361 734.461C103.72 734.443 103.224 733.937 103.233 733.305L105.183 630.143C105.192 629.529 105.698 629.032 106.312 629.032C106.953 629.041 107.449 629.556 107.44 630.179L105.49 733.359C105.481 733.973 104.975 734.461 104.361 734.461Z" fill="#210B04"/>
<path d="M72.3603 442.563C76.4868 445.588 83.8549 450.057 93.9319 451.583C115.052 454.789 130.962 442.482 134.032 439.999C138.149 415.935 142.267 391.88 146.393 367.817C140.073 353.035 133.752 338.254 127.431 323.473C114.889 340.024 96.6317 345.929 84.7669 339.924C82.5998 338.832 77.1008 335.536 73.4168 326.633C68.2068 337.631 63.0057 348.629 57.7957 359.627C55.2765 363.898 52.4683 370.2 52.6128 377.776C52.8205 388.747 59.0689 395.239 64.0171 404.738C68.2519 412.856 72.5048 425.01 72.3603 442.563Z" fill="#8E3B32"/>
<path d="M141.548 372.856C151.742 369.957 161.946 367.068 172.14 364.169C169.196 356.088 166.262 348.006 163.327 339.925C161.855 337.054 158.623 331.771 152.438 327.735C141.557 320.647 129.936 322.922 127.426 323.473C132.139 339.934 136.844 356.395 141.548 372.856Z" fill="#8E3B32"/>
<path d="M36.1523 365.333C43.7552 366.633 51.3671 367.924 58.9699 369.225C63.7917 355.03 68.6045 340.827 73.4262 326.632C71.521 326.235 62.2838 324.492 53.1369 330.199C44.3873 335.662 41.7687 344.159 41.2089 346.145C39.5204 352.547 37.8318 358.94 36.1523 365.333Z" fill="#8E3B32"/>
<path d="M70.4513 400.53C67.4354 400.53 64.4557 400.042 61.5934 399.067C61.0064 398.869 60.6814 398.227 60.8891 397.641C61.0877 397.054 61.7378 396.72 62.3157 396.936C65.2503 397.929 68.3384 398.39 71.4175 398.264C74.1895 398.164 76.9165 397.604 79.526 396.611C80.1039 396.358 80.754 396.683 80.9797 397.261C81.2055 397.839 80.9075 398.498 80.3296 398.715C77.4853 399.799 74.5146 400.404 71.4987 400.521C71.1466 400.53 70.8035 400.53 70.4513 400.53Z" fill="#210B04"/>
<path d="M111.257 398.119C108.575 398.119 105.875 397.875 103.229 397.387C98.9042 396.593 94.7326 395.157 90.8138 393.126C90.263 392.837 90.0462 392.159 90.3352 391.609C90.6241 391.058 91.3104 390.85 91.8521 391.13C95.5633 393.053 99.5363 394.417 103.636 395.166C106.579 395.708 109.577 395.934 112.557 395.843C113.144 395.934 113.704 396.313 113.722 396.936C113.74 397.559 113.252 398.083 112.629 398.101C112.178 398.11 111.717 398.119 111.257 398.119Z" fill="#210B04"/>
<path d="M78.0232 241.06C77.3821 241.764 75.5492 243.76 75.6936 246.288C75.9284 250.478 81.3732 253.195 82.6915 253.846C85.915 255.453 88.2898 255.435 90.6014 255.922C98.123 257.512 103.107 262.469 105.645 264.997C115.387 274.704 111.441 284.934 119.604 288.654C122.873 290.144 127.342 290.253 129.717 288.067C132.435 285.566 131.695 280.717 130.927 276.663C127.324 257.683 125.528 248.193 120.038 243.128C106.755 230.902 84.1272 234.396 78.0232 241.06Z" fill="#FFC392"/>
<path d="M109.345 783.698C98.7175 783.617 88.0898 783.536 77.471 783.454C76.7035 782.335 75.909 780.737 76.2521 779.075C76.8751 776.077 80.8029 774.759 82.8255 773.721C86.5457 771.806 90.8167 767.228 93.1282 755.445C94.1125 754.199 95.1328 753.639 95.8281 753.377C99.1148 752.122 103.584 754.027 106.862 758.217C107.241 764.303 108.099 768.61 108.867 771.535C109.309 773.233 110.266 776.493 109.842 780.782C109.706 782.01 109.508 783.021 109.345 783.698Z" fill="#FC6454"/>
<path d="M77.3324 783.698C87.9962 783.698 98.6691 783.698 109.342 783.698C110.1 782.723 111.04 781.215 111.211 779.273C111.383 777.359 110.742 776.005 110.001 774.036C109.306 772.167 108.43 769.513 107.708 766.108C107.085 766.722 101.802 771.716 94.8767 770.452C91.9241 769.91 89.8112 768.447 88.6554 767.472C85.7569 770.993 82.9307 772.619 80.8178 773.449C79.1834 774.09 77.7477 774.343 76.4294 775.788C76.294 775.933 73.6302 778.93 74.9124 781.603C75.5355 782.894 76.7906 783.481 77.3324 783.698Z" fill="#210B04"/>
</svg>
