<svg width="892" height="892" viewBox="0 0 892 892" fill="none" xmlns="http://www.w3.org/2000/svg">
<path d="M849.383 448.391C847.658 450.441 845.934 452.482 844.209 454.531C826.845 447.055 805.518 435.019 785.635 415.334C780.858 410.603 776.587 405.853 772.776 401.194C770.004 395.442 771.684 389.049 775.919 386.322C780.127 383.614 785.174 385.591 785.725 385.817C792.208 389.474 796.813 393.058 799.495 395.298C818.222 410.91 820.597 425.736 840.173 441.728C844.164 444.969 847.595 447.245 849.383 448.391Z" fill="#FC6454"/>
<path d="M735.678 437.656C730.73 443.742 725.782 449.819 720.833 455.905C739.245 470.018 757.656 484.131 776.076 498.244C778.062 495.003 780.672 490.064 782.406 483.644C784.645 475.318 784.284 468.682 783.868 460.528C783.354 450.469 783.417 440.374 782.406 430.351C781.105 417.439 781.692 396.906 790.433 363.921L763.426 328.146C761.683 326.774 755.425 321.51 753.448 312.083C753.177 310.801 753.015 309.564 752.933 308.381C752.419 301.085 754.992 295.577 755.886 293.834C754.044 293.654 751.452 293.157 748.717 291.73C742.333 288.407 739.795 282.475 739.082 280.588C731.452 300.317 726.007 316.859 722.314 328.878C716.933 346.35 716.508 349.989 716.472 353.212C716.273 370.811 724.87 379.895 730.829 400.419C733.24 408.78 735.895 421.304 735.678 437.656Z" fill="#FC6454"/>
<path d="M779.231 394.332C788.77 394.332 796.504 386.598 796.504 377.059C796.504 367.519 788.77 359.785 779.231 359.785C769.691 359.785 761.957 367.519 761.957 377.059C761.957 386.598 769.691 394.332 779.231 394.332Z" fill="#FC6454"/>
<path d="M742.491 518.685C761.711 518.685 777.291 501.472 777.291 480.238C777.291 459.004 761.711 441.79 742.491 441.79C723.272 441.79 707.691 459.004 707.691 480.238C707.691 501.472 723.272 518.685 742.491 518.685Z" fill="#FC6454"/>
<path d="M782.13 489.313C775.656 510.307 765.29 536.276 748.197 563.491C747.204 565.062 746.292 566.561 745.289 568.051C740.314 575.762 735.248 582.823 730.273 589.207C727.122 593.27 723.971 597.09 720.901 600.656C710.779 596.34 700.575 592.024 690.453 587.627C691.031 583.979 691.943 578.832 692.945 572.611C694.525 563.067 695.853 555.437 696.927 549.297C700.16 530.633 701.406 525.567 703.564 519.924C705.975 513.115 710.201 503.499 717.831 492.627C734.923 491.797 752.016 490.885 769.019 489.973C773.416 489.729 777.732 489.557 782.13 489.313Z" fill="#FC6454"/>
<path d="M633.268 716.756C637.8 718.968 642.324 721.172 646.857 723.384C656.51 701.216 669.079 676.385 685.503 650.335C697.296 631.644 709.314 615.111 720.872 600.673C710.723 596.338 700.583 591.995 690.442 587.661C685.296 592.004 678.713 598.09 671.842 606.072C665.702 613.206 657.494 622.732 651.652 635.4C642.135 656.06 647.76 665.875 638.098 701.117C636.274 707.799 634.496 713.217 633.268 716.756Z" fill="#FC6454"/>
<path d="M779.231 565.143C778.238 570.705 777.155 576.096 775.999 581.243C773.678 591.699 770.933 601.234 768.035 609.948C757.001 609.785 745.967 609.614 734.933 609.451C734.102 605.803 732.937 600.738 731.528 594.598C731.113 592.692 730.698 590.859 730.282 589.207C725.135 566.561 723.068 556.43 722.065 549.793C721.569 546.642 721.406 544.321 721.316 541.829C720.982 534.614 721.316 524.077 724.223 511.129C739.158 504.077 754.174 497.025 769.028 489.973C773.507 487.896 777.904 485.738 782.383 483.67C784.369 505.494 784.703 533.45 779.231 565.143Z" fill="#FC6454"/>
<path d="M731.051 750.591C736.081 750.916 741.11 751.241 746.14 751.566C746.654 727.385 748.858 699.646 754.167 669.316C757.977 647.546 762.826 627.69 768.036 609.938C757.002 609.775 745.977 609.613 734.943 609.45C731.828 615.428 728.053 623.554 724.722 633.541C721.751 642.471 717.769 654.399 717.182 668.341C716.216 691.068 725.146 698.012 729.589 734.283C730.437 741.164 730.844 746.852 731.051 750.591Z" fill="#FC6454"/>
<path d="M750.476 306.149C751.243 306.997 752.074 307.738 752.923 308.379C752.408 301.083 754.981 295.575 755.875 293.832C753.483 293.128 751.09 292.433 748.706 291.729C748.543 291.846 748.381 291.981 748.227 292.117C745.04 295.024 746.051 301.3 750.476 306.149Z" fill="#210B04"/>
<path d="M740.347 289.471C745.421 293.363 749.99 296.289 753.629 298.429C754.487 298.934 759.435 301.779 765.584 302.664C767.237 302.907 769.006 303.007 770.424 301.905C772.456 300.325 772.374 297.86 772.365 297.643C772.636 297.147 772.925 296.993 773.133 296.939C773.81 296.758 774.406 297.481 775.3 297.147C776.085 296.785 776.916 296 776.826 295.088C776.772 294.528 776.392 294.14 776.212 293.977C776.438 293.959 778.117 293.788 778.903 292.424C779.219 291.792 779.219 291.241 779.029 290.745C778.767 290.094 778.496 289.3 778.261 288.388C776.754 282.537 778.207 276.731 779.643 274.609C779.806 274.365 780.492 273.381 781.232 271.927C781.467 271.467 781.702 270.952 781.936 270.374C783.517 266.419 783.463 262.943 783.408 260.938C783.282 255.873 781.792 251.809 780.555 249.209C779.164 246.058 776.41 241.154 771.164 237.389C761.665 230.563 744.256 228.522 734.703 238.59C725.005 248.812 727.967 266.672 733.132 273.065C733.927 274.049 736.509 276.902 738.387 281.553C739.66 284.74 740.139 287.584 740.347 289.471Z" fill="#FC6454"/>
<path d="M776.925 287.223C777.359 286.979 778.009 286.681 778.831 286.582C779.697 286.483 780.013 286.772 780.781 286.564C781.07 286.483 781.738 286.257 782.271 285.625C782.361 285.525 782.957 284.785 782.948 283.819C782.93 282.636 781.991 281.769 781.639 281.408C780.835 280.595 779.824 278.907 778.975 274.997C778.135 276.938 777.305 278.871 776.465 280.812C776.627 282.952 776.772 285.083 776.925 287.223Z" fill="#FC6454"/>
<path d="M768.009 272.731C767.611 272.731 767.223 272.523 767.015 272.144C766.717 271.593 766.925 270.916 767.467 270.618C768.83 269.878 771.043 268.984 773.851 268.957C775.557 268.939 777.444 269.282 779.142 269.968C779.72 270.203 780 270.862 779.765 271.44C779.53 272.018 778.862 272.289 778.293 272.063C776.903 271.503 775.458 271.214 773.986 271.214C771.53 271.241 769.679 271.982 768.541 272.596C768.379 272.686 768.189 272.731 768.009 272.731Z" fill="#210B04"/>
<path d="M773.823 272.325C773.471 273.959 774.076 275.476 775.186 275.72C776.297 275.964 777.48 274.835 777.841 273.201C778.193 271.566 777.588 270.049 776.477 269.806C775.358 269.562 774.175 270.69 773.823 272.325Z" fill="#210B04"/>
<path d="M777.052 290.085C775.942 290.347 774.055 290.862 771.418 291.837C771.608 292.063 773.612 294.383 776.204 293.977C776.339 293.959 778.56 293.57 779.084 291.999C779.256 291.476 779.301 290.636 778.831 290.212C778.353 289.787 777.576 289.959 777.052 290.085Z" fill="#D82E2E"/>
<path d="M777.855 261.616C778.009 261.643 779.12 261.833 779.734 262.88C780.248 263.747 780.068 264.614 780.022 264.813L777.855 261.616Z" fill="#210B04"/>
<path d="M777.545 261.579C777.762 261.985 778.078 262.545 778.494 263.177C779.171 264.197 779.396 264.351 779.333 264.531C779.099 265.199 775.821 264.143 772.281 264.333C769.762 264.468 767.721 265.199 766.34 265.831C766.566 265.308 766.836 264.856 767.116 264.477C770.033 260.64 776.516 261.443 777.545 261.579Z" fill="#210B04"/>
<path d="M747.616 267.42C746.668 271.773 748.51 275.872 751.725 276.576C754.939 277.272 758.316 274.31 759.255 269.958C760.203 265.606 758.361 261.506 755.147 260.802C751.932 260.098 748.564 263.059 747.616 267.42Z" fill="#FC6454"/>
<path d="M752.667 277.805C752.269 277.805 751.872 277.759 751.484 277.678C749.118 277.163 747.276 275.159 746.563 272.324C746.409 271.719 746.77 271.105 747.375 270.951C747.971 270.771 748.594 271.168 748.748 271.764C749.253 273.759 750.445 275.141 751.962 275.466C752.649 275.61 753.362 275.547 754.075 275.258C754.653 275.032 755.312 275.303 755.547 275.89C755.773 276.468 755.493 277.127 754.915 277.362C754.184 277.651 753.425 277.805 752.667 277.805Z" fill="#210B04"/>
<path d="M747.448 272.09C746.888 272.09 746.4 271.674 746.328 271.105C746.192 270.067 746.211 268.983 746.382 267.882C746.472 267.277 747.104 266.843 747.673 266.934C748.287 267.024 748.712 267.602 748.612 268.216C748.477 269.11 748.459 269.977 748.567 270.807C748.648 271.421 748.206 271.99 747.592 272.072C747.547 272.09 747.493 272.09 747.448 272.09Z" fill="#210B04"/>
<path d="M747.833 267.7C746.912 267.475 746.569 266.843 746.75 266.247C748.104 261.732 751.842 258.906 755.382 259.691C756.221 259.872 757.007 260.242 757.702 260.784C758.19 261.172 758.28 261.876 757.892 262.373C757.504 262.861 756.79 262.942 756.303 262.563C755.878 262.229 755.409 262.003 754.894 261.894C752.546 261.416 749.91 263.583 748.899 266.897C748.763 267.393 748.321 267.7 747.833 267.7Z" fill="#210B04"/>
<path d="M753.825 273.851C753.283 273.851 752.804 273.463 752.714 272.912L751.369 265.057C751.26 264.443 751.676 263.865 752.29 263.756C752.886 263.63 753.491 264.063 753.59 264.677L754.935 272.533C755.044 273.147 754.629 273.725 754.015 273.833C753.96 273.842 753.888 273.851 753.825 273.851Z" fill="#210B04"/>
<path d="M753.288 269.291C753.008 269.291 752.728 269.183 752.503 268.975C752.051 268.542 752.033 267.828 752.466 267.377L754.363 265.399C754.796 264.939 755.509 264.948 755.961 265.363C756.412 265.797 756.43 266.51 755.997 266.961L754.101 268.939C753.884 269.183 753.586 269.291 753.288 269.291Z" fill="#210B04"/>
<path d="M779.23 565.143C778.237 570.705 777.153 576.096 775.997 581.243C766.291 579.581 758.823 576.43 753.017 573.198C750.028 571.455 747.455 569.712 745.297 568.051C736.005 560.665 732.854 553.694 722.064 549.793C721.405 549.459 720.655 549.296 719.906 549.044C711.445 546.551 703.897 547.301 696.926 549.296C700.158 530.632 701.404 525.567 703.562 519.923C705.973 513.115 710.199 503.499 717.829 492.627C734.922 491.796 752.015 490.884 769.017 489.973C773.496 487.896 777.893 485.738 782.372 483.67C784.368 505.494 784.702 533.45 779.23 565.143Z" fill="#210B04"/>
<path d="M784.139 428.166C767.128 426.08 750.116 423.985 733.104 421.9C730.486 409.601 727.876 397.303 725.258 385.014C739.163 382.91 753.078 380.797 766.983 378.693C772.365 370.54 777.737 362.386 783.119 354.232C785.927 356.273 790.722 360.327 794.099 367.045C795.02 368.878 796.916 373.231 797.404 379.037C798.153 387.94 794.966 393.511 791.182 403.75C789.051 409.511 786.361 417.737 784.139 428.166Z" fill="#FFA1A1"/>
<path d="M820.909 572.277C787.508 579.284 767.002 573.071 754.37 565.929C737.512 556.394 736.636 546.326 721.322 541.802C694.333 533.838 676.066 558.931 658.431 551.536C648.878 547.527 639.063 533.793 638.377 490.695C670.495 467.038 702.604 443.38 734.722 419.714C750.46 420.554 766.199 421.393 781.946 422.233C788.592 439.913 795.003 459.064 800.863 479.634C810.335 512.926 816.683 544.095 820.909 572.277Z" fill="#FFA1A1"/>
<path d="M730.278 590.336C729.755 590.336 729.285 589.974 729.177 589.433L720.707 548.186C720.581 547.572 720.978 546.976 721.583 546.849C722.215 546.741 722.793 547.12 722.919 547.725L731.389 588.972C731.515 589.586 731.118 590.182 730.513 590.309C730.432 590.327 730.351 590.336 730.278 590.336Z" fill="#210B04"/>
<path d="M675.389 399.893C673.069 399.893 670.64 399.478 668.319 398.367C657.755 393.329 654.649 376.615 659.127 366.141C660.834 362.141 663.191 360.028 666.179 357.355C669.394 354.475 673.394 350.89 678.36 343.36C680.69 339.82 681.972 337.834 683.372 334.673C685.412 330.077 685.918 327.305 686.405 324.623C686.965 321.58 687.489 318.718 690.053 313.779C691.552 310.899 693.132 308.479 694.902 306.384C701.44 298.582 706.731 293.544 707.688 292.704C714.505 286.808 723.67 269.507 734.912 241.281C735.147 240.712 735.815 240.45 736.384 240.649C736.962 240.875 737.242 241.534 737.016 242.121C725.476 271.087 716.365 288.189 709.178 294.42C707.923 295.503 702.622 300.704 696.645 307.829C694.993 309.806 693.494 312.09 692.076 314.817C689.665 319.459 689.187 322.032 688.645 325.021C688.157 327.702 687.606 330.736 685.457 335.576C683.986 338.89 682.604 341.048 680.265 344.597C675.146 352.371 671.019 356.064 667.705 359.035C664.816 361.626 662.73 363.495 661.213 367.026C657.15 376.543 660.084 391.938 669.304 396.336C675.66 399.352 683.064 396.372 685.954 394.954C686.514 394.683 687.191 394.918 687.462 395.469C687.733 396.029 687.507 396.706 686.947 396.977C684.762 398.042 680.301 399.893 675.389 399.893Z" fill="#682C23"/>
<path d="M767.127 411.65C770.369 406.738 773.61 401.826 776.843 396.914C774.595 382.323 770.667 365.401 763.786 347.252C762.007 342.557 760.138 338.087 758.233 333.834C754.928 326.475 745.79 322.782 739.054 327.215C734.44 330.322 733.122 334.972 732.797 336.299C738.937 356.354 747.686 378.025 760.247 400.111C762.495 404.093 764.798 407.939 767.127 411.65Z" fill="#FC6454"/>
<path d="M785.821 319.124C788.457 319.557 791.103 319.991 793.74 320.433C796.187 339.179 796.746 363.658 789.983 390.809C788.358 397.329 786.462 403.424 784.403 409.094C780.882 414.422 774.525 416.236 770.019 413.988C765.54 411.758 764.665 406.403 764.574 405.825C764.412 398.385 765.125 392.597 765.685 389.139C769.532 365.057 781.062 355.441 784.8 330.438C785.55 325.363 785.748 321.255 785.821 319.124Z" fill="#FC6454"/>
<path d="M793.742 320.434C793.39 322.483 791.475 323.865 789.516 323.594C787.701 323.341 786.283 321.716 786.292 319.784C784.008 317.048 780.811 312.388 779.331 305.905C778.69 303.106 777.326 296.027 780.504 288.686C782.067 285.092 783.448 283.35 784.649 283.458C786.843 283.666 788.451 290.004 789.48 302.474C790.898 308.47 792.315 314.447 793.742 320.434Z" fill="#FC6454"/>
<path d="M877.259 462.864C872.022 463.596 861.683 464.237 850.64 459.235C846.369 457.293 842.956 454.955 840.355 452.815C842.965 451.081 845.584 449.347 848.193 447.604C858.92 449.862 869.647 452.128 880.365 454.386C881.187 454.557 883.977 455.234 884.338 456.806C884.754 458.575 882.09 461.275 877.259 462.864Z" fill="#FC6454"/>
<path d="M850.733 459.38C855.239 463.597 857.487 465.71 857.072 466.414C856.503 467.362 851.727 466.234 848.061 463.516C842.634 459.498 840.295 452.482 841.361 451.714C842.011 451.236 844.918 453.953 850.733 459.38Z" fill="#FC6454"/>
<path d="M783.145 248.965C783.597 252.757 781.312 252.369 769.944 270.771C769.944 270.771 762.865 282.23 754.413 292.975C752.842 294.97 752.011 295.783 750.874 296.767C744.562 302.194 741.095 300.081 737.51 305.237C732.39 312.587 736.742 320.208 737.943 335.143C738.837 346.249 736.923 355.685 733.104 374.557C729.32 393.221 727.316 402.647 721.347 407.027C708.29 416.607 688.209 407.713 686.782 407.054C683.432 405.519 676.064 402.024 670.881 393.916C661.942 379.956 666.989 364.091 667.423 362.8C671.721 350.005 679.73 351.062 686.782 335.143C691.17 325.237 688.669 323.468 693.437 314.312C699.568 302.537 704.968 302.727 710.81 293.571C719.957 279.232 710.133 270.726 718.069 254.419C723.966 242.319 736.815 231.944 750.801 231.068C765.42 230.129 781.953 238.987 783.145 248.965Z" fill="#682C23"/>
<path d="M750 381.664C749.566 381.664 749.142 381.411 748.961 380.978L738.361 356.12C738.117 355.551 738.379 354.883 738.956 354.639C739.507 354.395 740.193 354.657 740.428 355.235L751.029 380.093C751.273 380.662 751.002 381.33 750.433 381.574C750.297 381.628 750.144 381.664 750 381.664Z" fill="#210B04"/>
<path d="M771.422 374.286C770.925 374.286 770.474 373.961 770.338 373.465L760.876 339.757C760.704 339.161 761.056 338.538 761.652 338.367C762.266 338.204 762.88 338.556 763.043 339.152L772.505 372.86C772.677 373.455 772.325 374.079 771.729 374.25C771.63 374.268 771.521 374.286 771.422 374.286Z" fill="#210B04"/>
<path d="M769.407 380.399C768.468 380.155 768.143 379.514 768.333 378.918L769.426 375.577C772.098 367.45 775.051 359.279 778.184 351.306C778.41 350.728 779.069 350.43 779.647 350.665C780.225 350.89 780.514 351.549 780.288 352.127C777.173 360.073 774.247 368.2 771.575 376.29L770.491 379.622C770.338 380.101 769.886 380.399 769.407 380.399Z" fill="#210B04"/>
<path d="M776.455 294.238C775.94 294.87 774.875 294.689 774.586 294.635C772.879 294.337 771.795 292.621 771.967 292.396C772.084 292.251 772.707 292.82 773.863 292.748C774.224 292.721 774.215 292.667 774.586 292.639C774.685 292.63 776.364 292.531 776.662 293.299C776.789 293.624 776.644 294.012 776.455 294.238Z" fill="white"/>
<path d="M793.832 780.776C793.335 782.762 791.421 783.593 791.177 783.683H727.374C726.21 783.105 724.638 782.193 723.97 780.532C722.724 777.462 725.216 773.733 726.21 772.234C726.788 771.322 727.284 770.329 727.871 769.083C729.533 765.101 731.022 759.295 731.022 750.581C736.088 750.915 741.144 751.249 746.12 751.574C749.939 757.877 754.165 761.778 757.073 763.936C763.05 768.586 768.856 770.572 774.247 772.234C774.825 772.396 775.493 772.568 776.071 772.73C782.129 774.554 787.439 775.304 791.168 775.638C793.245 776.712 794.328 778.871 793.832 780.776Z" fill="#FC6454"/>
<path d="M793.832 780.776C793.335 782.763 791.421 783.593 791.177 783.684H727.374C726.21 783.106 724.638 782.194 723.97 780.532C722.724 777.462 725.216 773.733 726.21 772.234C726.788 771.322 727.284 770.329 727.871 769.083C732.106 770.492 736.828 774.726 745.795 775.801C749.027 776.216 752.269 775.801 758.824 774.97C765.38 774.14 770.274 773.146 774.256 772.234C774.834 772.397 775.502 772.568 776.08 772.731C782.139 774.555 787.448 775.304 791.177 775.638C793.245 776.713 794.328 778.871 793.832 780.776Z" fill="url(#paint0_linear_179_5083)"/>
<path d="M665.442 774.23C663.781 775.431 661.785 774.835 661.541 774.736L612.791 733.579C612.276 732.388 611.662 730.672 612.222 728.974C613.252 725.823 617.559 724.577 619.283 724.08C620.313 723.755 621.342 723.322 622.588 722.744C626.426 720.776 631.311 717.299 636.936 710.645C640.593 714.166 644.241 717.678 647.835 721.146C646.679 728.424 647.401 734.139 648.232 737.661C649.794 745.065 652.954 750.329 656.006 755.079C656.34 755.584 656.747 756.135 657.081 756.641C660.53 761.941 664.106 765.941 666.742 768.605C667.627 770.754 667.058 773.093 665.442 774.23Z" fill="#FC6454"/>
<path d="M665.442 774.231C663.781 775.432 661.785 774.836 661.541 774.737L612.791 733.581C612.276 732.389 611.662 730.673 612.222 728.976C613.252 725.824 617.559 724.578 619.283 724.082C620.313 723.756 621.342 723.323 622.588 722.745C624.909 726.556 625.793 732.84 631.943 739.441C634.146 741.843 636.891 743.612 642.435 747.206C647.979 750.8 652.358 753.193 655.988 755.071C656.322 755.576 656.729 756.127 657.063 756.633C660.512 761.933 664.088 765.933 666.724 768.597C667.627 770.755 667.058 773.094 665.442 774.231Z" fill="url(#paint1_linear_179_5083)"/>
<defs>
<linearGradient id="paint0_linear_179_5083" x1="758.79" y1="769.083" x2="758.79" y2="783.684" gradientUnits="userSpaceOnUse">
<stop stop-color="#F65F51"/>
<stop offset="1" stop-color="#FB4967"/>
</linearGradient>
<linearGradient id="paint1_linear_179_5083" x1="639.576" y1="722.745" x2="639.576" y2="774.972" gradientUnits="userSpaceOnUse">
<stop stop-color="#F65F51"/>
<stop offset="1" stop-color="#FB4967"/>
</linearGradient>
</defs>
</svg>
