<svg width="892" height="892" viewBox="0 0 892 892" fill="none" xmlns="http://www.w3.org/2000/svg">
<path d="M107.91 412.779H104.984V423.515H107.91V412.779Z" fill="#210B04"/>
<path d="M109.661 411.426H103.223V412.979H109.661V411.426Z" fill="#210B04"/>
<path d="M168.574 371.939C169.224 377.077 169.875 382.233 170.552 387.389C171.599 395.633 172.647 403.877 173.694 412.112L210.227 407.976C206.029 390.992 201.821 374.007 197.622 357.022C192.981 360.273 187.374 363.713 180.791 366.874C176.484 368.95 172.376 370.612 168.574 371.939Z" fill="#FC6454"/>
<path d="M168.574 371.94C169.224 377.078 169.875 382.234 170.552 387.39C177.387 386.433 181.983 377.421 180.818 367.109C176.737 368.554 172.656 370.243 168.574 371.94Z" fill="#210B04"/>
<path d="M169.668 597.117C188.215 585.605 206.762 574.083 225.299 562.57C224.586 533.143 223.873 503.716 223.15 474.289C224.008 470.884 230.609 443.516 223.493 421.773C219.791 410.468 213.552 402.052 213.552 402.052C210.337 397.709 207.114 394.513 204.73 392.382C195.646 395.064 186.563 397.745 177.488 400.418C174.734 402.378 143.826 425.051 147.447 454.541C147.925 458.415 149.072 463.083 151.655 468.221C153.704 483.3 155.781 498.397 157.876 513.522C161.759 541.495 165.686 569.36 169.668 597.117Z" fill="#FC6454"/>
<path d="M191.594 555.519C170.068 559.555 155.313 577.244 158.645 595.032C161.977 612.82 182.131 623.972 203.658 619.944C225.184 615.908 239.938 598.219 236.606 580.431C233.274 562.643 213.12 551.492 191.594 555.519Z" fill="#FC6454"/>
<path d="M75.2219 596.359C55.0048 602.833 40.4763 612.495 41.3883 619.439C42.3635 626.897 61.3977 633.154 88.4592 631.981C124.559 625.217 160.659 618.454 196.759 611.691C195.161 590.436 193.572 569.18 191.974 547.925C179.847 549.297 165.887 551.853 150.817 556.467C116.649 566.941 91.4208 583.501 75.2219 596.359Z" fill="#FC6454"/>
<path d="M171.825 589.398C172.935 611.276 188.493 628.261 206.57 627.34C224.647 626.419 238.399 607.944 237.279 586.066C236.169 564.187 220.611 547.203 202.534 548.124C184.466 549.045 170.714 567.519 171.825 589.398Z" fill="#FC6454"/>
<path d="M6.44922 780.227C28.8063 780.29 51.1633 780.353 73.5294 780.417C74.1795 777.906 74.6943 774.141 73.1502 770.114C72.5723 768.597 71.9042 767.586 71.5611 767.035C69.7913 764.2 67.6963 759.423 66.5677 750.98C62.5134 750.52 58.4591 750.05 54.4049 749.59C39.0457 770.258 30.3683 774.394 25.2124 774.087C21.5826 773.87 18.0881 775.884 14.4492 775.92C12.1106 775.938 9.23934 775.712 7.57791 777.581C6.81943 778.43 6.54854 779.46 6.44922 780.227Z" fill="#FC6454"/>
<path d="M51.1783 768.336C56.8489 768.435 62.5284 768.534 68.1989 768.634C74.8717 748.751 79.1699 731.622 81.9871 718.646C91.2514 675.91 87.5583 663.729 85.5086 658.401C83.8381 654.058 81.5084 649.742 78.8628 640.938C75.3142 629.146 74.1134 618.987 73.6619 612.17C63.8107 605.055 50.1489 606.87 42.7808 615.827C34.9432 625.353 36.4964 640.198 46.7088 648.153C48.0542 655.196 49.255 662.474 50.2573 669.995C55.1152 706.258 54.4199 739.477 51.1783 768.336Z" fill="#FC6454"/>
<path d="M195.826 745.149C197.117 747.903 205.668 765.646 215.059 764.995C224.097 764.372 233.073 746.756 233.795 720.029C231.926 683.351 230.066 646.664 228.197 609.986C206.923 608.722 185.65 607.457 164.367 606.193C164.457 619.078 165.306 633.128 167.32 648.126C172.656 687.775 184.386 720.525 195.826 745.149Z" fill="#FC6454"/>
<path d="M413.819 760.609C406.993 758.099 401.25 756.536 397.214 755.579C385.421 752.762 379.155 752.527 371.462 747.787C367.651 745.439 364.933 742.857 363.245 741.051C362.857 740.663 362.261 740.121 361.43 739.624C358.73 737.999 354.685 737.448 353.412 739.055C352.59 740.094 353.294 741.719 353.349 742.523C353.556 745.855 353.132 751.056 350.125 759.02C350.676 762.171 351.218 765.313 351.768 768.464C381.972 764.961 393.593 765.313 398.243 766.496C402.596 767.607 404.483 767.309 408.239 766.722C410.451 766.379 414.072 765.765 414.668 763.625C414.966 762.532 414.388 761.403 413.819 760.609Z" fill="#FC6454"/>
<path d="M351.877 768.471C352.301 762.918 352.734 757.374 353.159 751.821C332.924 744.832 315.497 740.326 302.35 737.392C259.712 727.865 247.504 731.513 242.123 733.545C237.771 735.197 233.436 737.5 224.624 740.1C212.813 743.577 202.655 744.733 195.828 745.148C188.659 754.954 190.402 768.634 199.323 776.047C208.804 783.939 223.657 782.467 231.667 772.291C238.719 770.981 246.006 769.826 253.527 768.859C289.817 764.2 323.036 765.067 351.877 768.471Z" fill="#FC6454"/>
<path d="M167.063 373.872C173.248 373.204 185.059 370.603 198.458 358.513C199.226 357.826 210.432 347.406 207.858 332.264C206.206 322.539 199.686 315.595 193.158 312.056C179.514 304.661 162.033 310.123 157.311 317.681C156.516 318.954 156.001 320.191 155.667 321.266C153.067 330.476 151.875 334.602 151.776 334.81C151.749 334.864 151.595 335.144 151.595 335.532C151.595 335.785 151.658 335.993 151.713 336.119C151.965 337.365 152.218 338.621 152.471 339.867C151.64 347.966 151.153 351.352 150.855 352.363C150.322 354.377 150.105 355.217 150.358 355.975C150.43 356.201 150.493 356.391 150.394 356.58C150.214 356.941 149.672 356.797 149.455 357.095C149.13 357.546 149.843 358.558 149.97 358.738C150.096 358.919 151.144 360.409 152.363 360.237C152.823 360.174 153.211 359.885 153.211 359.867C153.193 359.822 150.972 360.49 150.936 361.384C150.918 361.745 151.261 362.133 151.351 362.233C151.64 362.558 151.902 362.621 152.038 362.72C152.886 363.352 150.575 368.418 151.144 370.558C151.992 373.718 159.848 374.648 167.063 373.872Z" fill="#FC6454"/>
<path d="M145.89 349.393C145.809 350.712 147.109 351.786 147.597 352.184C148.924 353.276 150.396 353.439 151.001 353.466C151.425 353.204 152.13 352.671 152.319 351.813C152.482 351.109 152.085 350.685 152.003 349.8C151.958 349.231 152.03 348.391 152.626 347.326C152.672 344.554 152.717 341.791 152.762 339.019C151.76 340.599 150.956 341.899 150.405 342.784C148.599 345.737 148.635 345.818 148.048 346.531C146.694 348.193 145.945 348.436 145.89 349.393Z" fill="#FC6454"/>
<path d="M166.72 341.933C166.359 341.933 166.006 341.762 165.79 341.446C165.329 340.778 164.318 339.568 162.62 338.945C159.812 337.915 157.311 339.234 156.832 339.513C156.553 339.685 156.218 339.703 155.911 339.604C155.604 339.495 155.361 339.27 155.234 338.972L154.277 336.669C154.033 336.091 154.304 335.432 154.882 335.188C155.46 334.954 156.119 335.215 156.354 335.793L156.859 337.003C158.295 336.416 160.715 335.829 163.406 336.832C165.681 337.671 167.045 339.279 167.659 340.173C168.011 340.687 167.885 341.392 167.37 341.744C167.171 341.87 166.946 341.933 166.72 341.933Z" fill="#210B04"/>
<path d="M156.216 339.515C156.126 341.041 157.183 342.341 158.582 342.422C159.973 342.504 161.183 341.339 161.273 339.813C161.363 338.287 160.307 336.987 158.907 336.905C157.508 336.824 156.307 337.989 156.216 339.515Z" fill="#210B04"/>
<path d="M172.445 337.24C172.066 336.707 171.452 335.976 170.513 335.353C169.475 334.666 168.536 334.359 168.039 334.314C166.314 334.179 162.025 333.213 155.849 331.687C155.741 331.398 155.406 330.405 155.786 329.24C156.129 328.201 156.833 327.623 157.095 327.425C160.391 328.86 162.928 329.429 164.698 329.682C164.698 329.682 167.19 329.89 169.727 331.308C170.594 331.795 171.037 332.192 171.271 332.454C172.183 333.547 172.418 336.843 172.445 337.24Z" fill="#210B04"/>
<path d="M155.458 360.716C155.26 360.716 155.061 360.662 154.88 360.562L149.815 357.556C149.282 357.24 149.102 356.544 149.418 356.012C149.743 355.47 150.429 355.298 150.962 355.623L156.027 358.63C156.56 358.946 156.74 359.641 156.415 360.174C156.217 360.517 155.837 360.716 155.458 360.716Z" fill="#210B04"/>
<path d="M217.364 622.906C173.002 627.403 128.631 631.899 84.2686 636.387C87.763 646.094 91.1039 658.536 92.3951 673.2C95.1401 704.596 87.0225 729.806 81.1624 743.892C71.0764 743.314 60.9995 742.737 50.9136 742.168C51.4282 711.675 48.0331 687.485 44.6921 670.609C39.753 645.705 33.8477 631.394 41.0623 615.646C46.9586 602.77 58.2546 596.305 73.2165 588.684C95.2124 577.478 126.355 563.13 166.437 549.297C168.505 549.911 170.663 550.453 172.902 550.904C193.363 555.022 211.774 549.613 224.289 544.078C244.136 568.476 247.712 596.504 235.703 611.655C233.256 614.743 228 620.025 217.364 622.906Z" fill="#8E3B32"/>
<path d="M238.787 731.107C251.673 730.321 266.716 730.339 283.384 732.145C308.865 734.899 330.265 740.967 346.645 747.008C345.029 753.807 343.421 760.606 341.805 767.405C329.868 769.5 260.819 781.509 220.81 781.925C213.523 781.997 202.326 781.744 195.229 773.97C187.409 765.401 188.863 752.398 189.694 747.351C176.33 703.332 162.957 659.313 149.594 615.294C177.369 612.296 205.134 609.298 232.909 606.31C234.869 647.909 236.828 689.508 238.787 731.107Z" fill="#8E3B32"/>
<path d="M77.2187 783.134C52.2521 783.306 27.2945 783.477 2.32784 783.649C1.84928 783.252 0.431705 781.978 0.0795539 779.893C-0.326775 777.491 0.84708 774.963 3.05931 773.409C15.7187 769.906 28.378 766.412 41.0464 762.908C42.771 762.818 45.2903 762.917 47.9178 764.073C50.9427 765.409 52.1437 767.269 53.6245 768.353C56.0806 770.159 60.8572 770.935 71.0425 766.141C72.0267 766.854 77.6702 771.071 77.9953 777.951C78.0946 780.019 77.6883 781.798 77.2187 783.134Z" fill="#210B04"/>
<path d="M354.155 735.215C377.821 743.143 401.497 751.08 425.163 759.008C425.488 759.54 426.418 761.202 426.066 763.297C425.669 765.708 423.746 767.712 421.145 768.462C408.034 767.667 394.923 766.872 381.813 766.078C380.151 765.608 377.803 764.687 375.69 762.746C373.262 760.506 372.729 758.348 371.681 756.85C369.939 754.348 365.686 752.064 354.489 753.301C353.794 752.308 349.821 746.493 351.735 739.874C352.313 737.879 353.27 736.325 354.155 735.215Z" fill="#210B04"/>
<path d="M156.69 628.704C156.157 628.704 155.687 628.325 155.579 627.783C155.462 627.169 155.859 626.582 156.473 626.465L229.594 612.46C230.199 612.325 230.795 612.74 230.912 613.354C231.03 613.968 230.633 614.555 230.019 614.672L156.897 628.677C156.834 628.695 156.762 628.704 156.69 628.704Z" fill="#210B04"/>
<path d="M74.2453 735.523C73.541 735.478 73.0714 734.936 73.1256 734.313C74.0827 721.609 74.453 708.742 74.2273 696.073C73.7487 670.294 70.7688 644.361 65.3782 618.988C65.2518 618.419 65.586 617.85 66.1458 617.67L188.18 579.872C185.67 579.34 182.807 578.247 180.107 576.071C173.209 570.491 172.938 562.256 172.947 560.667C172.956 560.034 173.344 559.556 174.085 559.547C174.708 559.547 175.213 560.062 175.204 560.685C175.195 562.093 175.439 569.389 181.525 574.319C186.744 578.536 192.713 578.193 194.419 577.967C194.961 577.895 195.539 578.274 195.656 578.852C195.783 579.421 195.448 579.99 194.889 580.17L67.7892 619.53C73.0715 644.722 76.006 670.447 76.4755 696.028C76.7103 708.769 76.3401 721.708 75.3649 734.476C75.3288 735.072 74.8322 735.523 74.2453 735.523Z" fill="#210B04"/>
<path d="M229.813 546.155C218.987 550.751 201.578 556.331 180.033 555.491C171.591 555.166 164.087 553.911 157.731 552.358C155.329 523.536 151.338 500.926 148.06 485.332C144.457 468.248 141.956 458.117 144.945 444.69C149.008 426.441 161.017 413.737 169.857 406.242C182.192 402.278 194.526 398.323 206.869 394.359C210.445 397.583 215.754 402.946 220.486 410.64C231.872 429.168 231.285 447.2 230.653 483.941C230.445 494.966 230.102 516.303 229.813 546.155Z" fill="#C1DCE0"/>
<path d="M152.375 521.107L176.222 528.503C182.813 511.157 187.653 496.33 191.03 485.233C205.73 437.006 204.087 422.966 197.252 415.281C195.897 413.755 194.561 412.726 193.676 412.121C183.328 427.399 172.98 442.677 162.633 457.955C159.219 479.003 155.797 500.051 152.375 521.107Z" fill="#FC6454"/>
<path d="M124.197 439.065C119.447 442.442 114.707 445.81 109.957 449.188C114.616 459.626 117.867 468.411 119.989 474.588C127.926 497.658 128.955 509.676 139.8 519.889C144.152 523.988 148.576 526.381 151.619 527.762C159.719 536.259 171.123 536.079 175.791 530.832C180.378 525.668 177.389 516.81 177.254 516.43C171.909 508.06 167.141 501.604 163.927 497.423C148.116 476.881 137.587 469.251 128.693 450.515C126.373 445.639 124.964 441.494 124.197 439.065Z" fill="#FC6454"/>
<path d="M182.437 525.414C173.489 512.646 164.541 499.878 155.602 487.12C160.17 466.587 164.739 446.044 169.299 425.511C172.676 411.434 185.724 404.436 194.88 407.533C201.128 409.646 205.661 416.491 206.636 424.473C207.124 431.642 207.196 439.39 206.636 447.634C204.361 481.151 192.595 507.779 182.437 525.414Z" fill="#C1DCE0"/>
<path d="M183.358 524.946C182.391 524.666 182.085 524.025 182.292 523.438L205.056 460.746C205.263 460.168 205.94 459.879 206.5 460.069C207.087 460.285 207.394 460.926 207.178 461.513L184.414 524.205C184.252 524.657 183.818 524.946 183.358 524.946Z" fill="#6AA7AD"/>
<path d="M152.366 481.089C151.499 480.917 151.12 480.312 151.264 479.698L161.459 436.483C161.603 435.878 162.199 435.489 162.813 435.643C163.418 435.787 163.797 436.392 163.653 436.997L153.459 480.213C153.341 480.736 152.881 481.089 152.366 481.089Z" fill="#6AA7AD"/>
<path d="M162.57 437.873C162.218 437.873 161.866 437.701 161.649 437.385L157.676 431.678C157.315 431.164 157.451 430.469 157.956 430.107C158.453 429.755 159.166 429.873 159.527 430.387L163.5 436.094C163.861 436.609 163.726 437.304 163.22 437.665C163.022 437.81 162.796 437.873 162.57 437.873Z" fill="#6AA7AD"/>
<path d="M182.098 512.375C181.755 512.375 181.421 512.221 181.196 511.923L157.692 480.807C157.312 480.311 157.412 479.606 157.908 479.227C158.396 478.848 159.109 478.947 159.488 479.453L182.992 510.569C183.372 511.065 183.272 511.77 182.776 512.149C182.577 512.293 182.333 512.375 182.098 512.375Z" fill="#6AA7AD"/>
<path d="M184.174 506.325C183.849 506.325 183.533 506.189 183.307 505.928L176.472 497.801C176.074 497.322 176.128 496.609 176.607 496.212C177.086 495.815 177.79 495.869 178.196 496.347L185.032 504.474C185.429 504.952 185.375 505.666 184.896 506.063C184.689 506.235 184.427 506.325 184.174 506.325Z" fill="#6AA7AD"/>
<path d="M217.882 545.217C217.025 545.054 216.645 544.449 216.781 543.844L219.634 531.14C219.769 530.535 220.356 530.156 220.989 530.282C221.593 530.418 221.982 531.023 221.846 531.628L218.993 544.332C218.866 544.856 218.397 545.217 217.882 545.217Z" fill="#6AA7AD"/>
<path d="M213.727 545.216C213.059 545.189 212.572 544.666 212.599 544.043L212.861 537.686C212.888 537.063 213.529 536.53 214.034 536.602C214.657 536.629 215.145 537.153 215.118 537.776L214.856 544.133C214.829 544.738 214.332 545.216 213.727 545.216Z" fill="#6AA7AD"/>
<path d="M194.543 550.895C193.965 550.895 193.478 550.462 193.414 549.884L192.123 536.936C192.06 536.313 192.511 535.762 193.134 535.699C193.839 535.645 194.308 536.087 194.372 536.71L195.663 549.658C195.726 550.281 195.274 550.832 194.651 550.895C194.624 550.895 194.579 550.895 194.543 550.895Z" fill="#6AA7AD"/>
<path d="M183.906 552.214C183.491 552.214 183.085 551.979 182.886 551.573L180.294 546.128C180.024 545.559 180.267 544.891 180.827 544.62C181.378 544.358 182.064 544.602 182.335 545.153L184.927 550.598C185.197 551.166 184.954 551.835 184.394 552.106C184.24 552.178 184.069 552.214 183.906 552.214Z" fill="#6AA7AD"/>
<path d="M173.024 550.924C172.446 550.924 171.949 550.481 171.895 549.894L171.372 544.188C171.317 543.565 171.769 543.023 172.392 542.96C173.06 542.897 173.566 543.366 173.62 543.98L174.144 549.687C174.198 550.31 173.746 550.852 173.123 550.915C173.087 550.924 173.051 550.924 173.024 550.924Z" fill="#6AA7AD"/>
<path d="M164.363 551.139C163.74 551.139 163.234 550.634 163.234 550.011V543.293C163.234 542.67 163.74 542.164 164.363 542.164C164.986 542.164 165.492 542.67 165.492 543.293V550.011C165.492 550.634 164.977 551.139 164.363 551.139Z" fill="#6AA7AD"/>
<path d="M209.406 399.064C195.121 404.247 180.828 409.439 166.543 414.622C168.096 409.322 169.658 404.021 171.211 398.721C182.751 395.877 194.291 393.033 205.83 390.197C207.013 393.15 208.205 396.103 209.406 399.064Z" fill="#6AA7AD"/>
<path d="M154.874 304.255C153.736 305.14 150.404 307.758 150.72 310.738C151.199 315.19 159.407 316.309 171.335 325.519C172.68 326.558 173.348 327.072 174.053 327.723C180.897 333.989 181.231 340.319 185.069 340.815C185.448 340.861 185.755 340.842 186.017 340.77C186.983 340.517 187.497 340.039 187.94 339.795C189.231 339.082 191.371 340.355 191.94 340.815C194.026 342.513 193.213 348.265 189.692 354.82C190.902 356.211 194.432 359.985 197.728 359.154C199.489 358.712 200.337 357.168 202.703 353.646C207.317 346.784 208.058 346.793 209.06 344.834C213.43 336.219 206.45 321.736 197.656 313.465C191.777 307.939 185.782 305.844 181.52 304.354C175.913 302.386 163 297.961 154.874 304.255Z" fill="#682C23"/>
<path d="M123.325 437.52H99.1708C97.4281 437.52 96.0195 436.103 96.0195 434.369V422.531C96.0195 420.788 97.4372 419.38 99.1708 419.38H123.325C125.068 419.38 126.476 420.788 126.476 422.531V434.369C126.485 436.112 125.077 437.52 123.325 437.52Z" fill="url(#paint0_linear_179_5452)"/>
<path d="M118.903 422.911C116.393 422.189 114.966 419.615 115.68 417.15L120.61 399.994C121.323 397.529 123.888 396.102 126.353 396.816C128.863 397.538 130.289 400.111 129.576 402.576L124.646 419.733C123.942 422.198 121.368 423.624 118.903 422.911Z" fill="url(#paint1_linear_179_5452)"/>
<path d="M127.695 448.32C122.585 449.512 117.465 450.713 112.354 451.914C97.7083 442.74 89.1936 433.006 91.3517 427.281C91.776 426.162 92.7151 424.898 94.8551 423.778C102.72 426.415 110.584 429.051 118.449 431.688C122.494 425.078 125.176 422.026 126.485 422.523C127.37 422.866 127.632 424.834 127.262 428.446C127.406 435.074 127.551 441.702 127.695 448.32Z" fill="#FC6454"/>
<defs>
<linearGradient id="paint0_linear_179_5452" x1="111.248" y1="419.38" x2="111.248" y2="437.52" gradientUnits="userSpaceOnUse">
<stop stop-color="#F65F51"/>
<stop offset="1" stop-color="#FB4967"/>
</linearGradient>
<linearGradient id="paint1_linear_179_5452" x1="122.628" y1="396.632" x2="122.628" y2="423.095" gradientUnits="userSpaceOnUse">
<stop stop-color="#F65F51"/>
<stop offset="1" stop-color="#FB4967"/>
</linearGradient>
</defs>
</svg>
