<svg width="892" height="892" viewBox="0 0 892 892" fill="none" xmlns="http://www.w3.org/2000/svg">
<path d="M846.581 306.928C850.988 310.531 854.247 309.239 860.189 312.761C866.726 316.635 869.868 322.386 872.667 327.506C873.832 329.628 877.932 337.61 879.801 352.13C881.886 368.365 877.859 375.706 881.092 395.553C882.203 402.361 883.304 403.011 883.033 406.569C881.959 421.016 865.796 430.641 859.701 434.271C826.707 453.919 728.475 443.12 714.533 405.919C713.143 402.216 709.224 391.751 713.396 381.774C717.622 371.679 725.179 373.945 729.432 364.274C734.696 352.319 725.992 342.405 734.191 328.418C734.642 327.642 735.301 326.739 736.565 324.906C746.687 310.233 751.536 309.998 765.731 289.266C787.456 257.518 787.284 245.482 796.187 243.902C810.526 241.356 835.89 269.799 839.285 290.882C839.809 294.097 840.604 302.043 846.581 306.928Z" fill="#210B04"/>
<path d="M744.543 349.086C785.591 348.842 826.63 348.598 867.67 348.355C866.83 344.21 864.988 338.594 860.428 334.178C851.281 325.32 839.787 329.7 830.504 322.747C825.601 319.072 820.409 311.677 819.732 295.324C819.1 295.297 818.486 295.243 817.863 295.189C814.107 294.927 810.359 294.665 806.612 294.403C802.874 294.665 799.126 294.927 795.379 295.189C794.747 295.243 794.142 295.297 793.51 295.324C792.824 311.668 787.65 319.072 782.738 322.747C773.501 329.655 762.413 325.447 752.823 334.178C747.785 338.765 745.599 344.689 744.543 349.086Z" fill="#FC6454"/>
<path d="M795.59 301.141C795.59 306.559 800.529 310.947 806.615 310.947C812.701 310.947 817.64 306.559 817.64 301.141C817.64 295.723 812.701 291.335 806.615 291.335C800.529 291.344 795.59 295.732 795.59 301.141Z" fill="#210B04"/>
<path d="M806.507 235.206C808.909 235.188 810.995 235.314 812.963 235.54C823.798 236.813 831.961 245.996 831.961 256.904V279.053C831.392 281.834 829.126 291.27 820.385 297.988C815.32 301.889 810.164 303.279 807.184 303.83C806.986 303.83 806.805 303.821 806.615 303.812C806.426 303.821 806.236 303.83 806.046 303.83C803.058 303.279 797.911 301.889 792.845 297.988C784.105 291.27 781.838 281.834 781.27 279.053V256.904C781.27 245.996 789.432 236.813 800.267 235.54C802.236 235.314 804.313 235.188 806.507 235.206Z" fill="#FC6454"/>
<path d="M833.362 279.811C836.653 279.811 839.321 276.197 839.321 271.738C839.321 267.28 836.653 263.666 833.362 263.666C830.071 263.666 827.402 267.28 827.402 271.738C827.402 276.197 830.071 279.811 833.362 279.811Z" fill="#FC6454"/>
<path d="M779.866 279.811C783.157 279.811 785.825 276.197 785.825 271.738C785.825 267.28 783.157 263.666 779.866 263.666C776.574 263.666 773.906 267.28 773.906 271.738C773.906 276.197 776.574 279.811 779.866 279.811Z" fill="#FC6454"/>
<path d="M809.204 281.834C808.346 281.346 807.479 281.238 806.621 281.22C805.764 281.238 804.897 281.346 804.039 281.834C804.897 282.321 805.764 282.43 806.621 282.457C807.479 282.43 808.346 282.321 809.204 281.834Z" fill="#210B04"/>
<path d="M769.837 346.387C769.575 346.378 768.961 346.405 768.437 346.83C767.697 347.417 767.435 348.545 767.823 349.629C795.354 349.629 822.876 349.629 850.407 349.629C850.732 348.762 850.516 347.814 849.884 347.263C849.206 346.685 848.358 346.803 848.222 346.83C837.26 343.958 828.7 344.031 822.858 344.645C818.082 345.15 816.845 345.836 811.571 346.089C802.199 346.541 798.09 344.762 790.442 344.256C785.693 343.922 778.668 344.04 769.837 346.387Z" fill="white"/>
<path d="M811.565 329.24C810.427 330.667 808.594 331.344 806.842 330.992C804.359 330.487 803.411 328.184 803.348 328.021L811.565 329.24Z" fill="#210B04"/>
<path d="M802.811 333.522C802.206 333.801 801.276 334.208 800.102 334.569C796.165 335.788 792.86 335.553 790.567 335.355C782.233 334.65 774.53 333.485 771.93 333.079C777.907 333.287 783.885 333.485 789.863 333.693L802.811 333.522Z" fill="#210B04"/>
<path d="M810.41 333.522C811.015 333.801 811.945 334.208 813.119 334.569C817.056 335.788 820.361 335.553 822.654 335.355C830.988 334.65 838.69 333.485 841.282 333.079C835.304 333.287 829.327 333.485 823.349 333.693L810.41 333.522Z" fill="#210B04"/>
<path d="M804.762 563.176C804.68 580.684 804.924 597.777 805.339 614.617C815.299 613.543 825.25 612.459 835.209 611.385C842.099 597.199 849.394 578.942 854.957 557.126C855.453 555.302 855.869 553.478 856.203 551.736C860.853 531.907 862.84 514.236 863.508 499.717C855.788 497.143 827.254 488.43 809.746 503.121C808.419 504.286 807.173 505.532 805.926 507.021C805.511 516.566 805.177 526.272 805.014 536.06V537.966C804.843 546.417 804.762 554.878 804.762 563.176Z" fill="#FC6454"/>
<path d="M804.907 617.38C804.176 626.4 811.345 633.868 819.499 634.554C825.774 635.087 831.996 631.556 835.246 625.578C835.165 623.195 835.12 620.748 835.111 618.246C835.102 615.917 835.129 613.641 835.174 611.42C834.768 610.725 830.325 603.348 822.081 602.788C814.162 602.246 805.647 608.215 804.907 617.38Z" fill="#FC6454"/>
<path d="M794.98 760.218C797.716 759.802 800.452 759.306 803.197 758.89C804.94 758.637 806.43 758.394 807.929 758.141C807.929 757.644 808.01 757.066 808.01 756.398C808.263 753.662 808.588 750.014 809.175 745.779C810.755 734.745 813.238 725.616 816.146 717.571C823.857 696 834.313 681.895 836.968 658.663C837.799 651.114 838.133 639.908 834.972 625.804C824.932 623.312 814.891 620.91 804.859 618.418C803.198 634.68 802.204 649.037 801.626 661.308C801.049 671.512 800.796 680.144 800.714 687.44C800.633 694.158 800.552 704.28 799.64 717.553C799.387 722.032 799.062 726.926 798.556 732.154C797.563 741.942 796.57 750.24 795.567 756.461C795.567 756.705 795.486 756.958 795.486 757.211C795.306 758.312 795.143 759.315 794.98 760.218Z" fill="#FC6454"/>
<path d="M791.241 780.056C791.404 781.049 791.494 781.88 791.657 782.548C802.357 782.882 812.975 782.801 823.603 782.71C824.434 781.636 825.183 779.974 824.849 778.313C824.271 775.405 820.452 774.168 818.294 773.004C814.727 771.098 810.574 766.863 808.091 756.407C806.348 756.57 804.686 756.741 803.025 756.904C802.862 756.904 802.691 756.904 802.528 756.985C800.623 757.148 798.79 757.319 796.885 757.563C796.469 757.563 796.054 757.563 795.639 757.644C795.386 758.475 795.142 759.387 794.971 760.218C793.977 763.866 793.147 767.351 792.235 770.755C791.575 773.247 790.907 776.236 791.241 780.056Z" fill="#FC6454"/>
<path d="M751.42 536.044C751.835 540.694 752.332 545.588 753.162 550.563C753.244 551.394 753.325 552.224 753.496 553.055C757.235 576.451 764.368 595.205 770.508 608.307C780.377 609.797 790.256 611.377 800.125 612.957C802.283 597.607 803.854 581.011 804.36 563.177C804.613 554.545 804.612 545.588 804.278 536.378C804.026 527.249 803.529 518.788 802.789 510.662C802.211 510.58 801.714 510.499 801.127 510.409C785.858 508.332 769.434 504.016 752.259 496.305C751.004 506.752 750.255 520.359 751.42 536.044Z" fill="#FC6454"/>
<path d="M800.444 615.739C800.724 624.778 793.193 631.884 785.012 632.164C778.719 632.381 772.678 628.543 769.734 622.412C769.933 620.037 770.105 617.599 770.24 615.089C770.366 612.759 770.457 610.484 770.511 608.263C770.944 607.595 775.757 600.434 784.019 600.29C791.956 600.172 800.164 606.556 800.444 615.739Z" fill="#FC6454"/>
<path d="M766.343 655.351C767.923 679.496 778.371 694.341 785.016 717.574C787.174 725.122 788.917 733.673 789.829 743.795C790.326 749.023 790.407 753.421 790.497 756.157C792.159 756.491 793.82 756.906 795.473 757.231C795.969 757.313 796.384 757.394 796.881 757.565C798.958 757.981 801.116 758.477 803.184 758.893C803.103 758.396 803.103 757.9 803.021 757.322C802.353 750.432 801.613 741.394 801.116 730.775C800.954 726.043 800.782 721.646 800.782 717.583C800.448 703.56 800.945 692.941 801.197 685.97C801.441 679.081 801.613 670.873 801.613 661.491C801.613 648.715 801.279 633.861 800.448 616.858C790.326 618.764 780.122 620.759 770 622.664C766.099 636.687 765.937 647.803 766.343 655.351Z" fill="#FC6454"/>
<path d="M774.396 778.559C774.062 780.221 774.893 781.792 775.723 782.957C781.033 782.794 786.342 782.713 791.652 782.542C796.961 782.379 802.27 782.289 807.58 782.126C807.742 781.458 807.914 780.465 807.995 779.219C808.248 775.399 807.417 772.501 806.749 770.009C805.665 766.361 804.591 762.794 803.426 758.893C803.345 758.397 803.182 757.9 803.011 757.322C800.184 756.825 797.864 756.654 795.543 756.491C793.882 756.41 792.139 756.238 790.487 756.157C788.329 766.613 784.265 771.011 780.78 772.997C778.712 774.243 774.893 775.661 774.396 778.559Z" fill="#FC6454"/>
<path d="M765.717 455.915C770.43 447.806 775.64 441.368 780.318 436.447C777.275 420.61 774.232 404.763 771.18 388.925C765.329 385.972 761.328 380.085 761.328 373.295C761.328 368.816 763.071 364.735 765.925 361.629C765.121 357.448 764.317 353.267 763.514 349.087C765.807 346.387 769.202 343.19 773.979 340.816C789.157 333.249 805.013 340.563 807.56 341.791C810.35 340.563 826.206 333.249 841.384 340.816C846.161 343.19 849.556 346.387 851.849 349.087C851.046 353.267 850.242 357.448 849.438 361.629C852.301 364.744 854.035 368.825 854.035 373.295C854.035 380.085 850.043 385.972 844.183 388.925C841.14 404.763 838.098 420.601 835.055 436.447C839.732 441.368 844.942 447.806 849.655 455.915C859.588 473.008 862.558 489.36 863.525 499.717C854.405 503.473 842.865 507.23 829.212 509.451C821.718 510.67 814.765 511.23 808.526 511.401C808.246 507.817 807.108 507.817 806.819 511.401C800.58 511.23 793.627 510.67 786.133 509.451C772.489 507.23 760.94 503.473 751.82 499.717C752.805 489.36 755.784 473.008 765.717 455.915Z" fill="#C1DCE0"/>
<path d="M764.531 388.365C757.876 387.056 751.23 385.756 744.576 384.447C743.483 378.939 742.815 372.781 743.005 366.072C743.032 365.006 743.429 361.647 744.088 354.92C744.368 352.112 744.603 349.791 744.756 348.22C745.452 346.92 748.54 341.466 754.707 339.895C758.192 339.01 761.226 339.778 762.825 340.085C767.935 341.078 770.436 343.453 771.095 344.139C768.919 358.884 766.725 373.62 764.531 388.365Z" fill="#FC6454"/>
<path d="M847.791 388.365C854.446 387.056 861.092 385.756 867.746 384.447C868.839 378.939 869.507 372.781 869.317 366.072C869.29 365.006 868.893 361.647 868.234 354.92C867.954 352.112 867.728 349.791 867.566 348.22C866.87 346.92 863.782 341.466 857.615 339.895C854.13 339.01 851.096 339.778 849.498 340.085C844.387 341.078 841.886 343.453 841.227 344.139C843.412 358.884 845.606 373.62 847.791 388.365Z" fill="#FC6454"/>
<path d="M806.268 296.399C804.67 296.399 803.098 296.074 801.6 295.442C801.031 295.198 800.76 294.53 801.004 293.961C801.257 293.392 801.934 293.122 802.485 293.365C803.776 293.925 805.022 294.178 806.557 294.142C808.164 294.097 809.455 293.645 810.25 293.275C810.828 293.004 811.496 293.257 811.749 293.826C812.011 294.395 811.767 295.063 811.198 295.325C810.214 295.785 808.606 296.345 806.62 296.408C806.512 296.399 806.394 296.399 806.268 296.399Z" fill="#210B04"/>
<path d="M806.873 291.794C806.548 291.794 806.223 291.785 805.889 291.767C801.853 291.532 798.801 289.943 796.95 288.643C796.444 288.282 796.327 287.577 796.679 287.072C797.04 286.557 797.736 286.44 798.259 286.792C799.866 287.921 802.521 289.311 806.016 289.51C810.377 289.763 813.718 288.011 815.289 286.945C815.803 286.593 816.508 286.729 816.86 287.252C817.212 287.767 817.068 288.471 816.562 288.815C814.856 289.961 811.433 291.794 806.873 291.794Z" fill="#210B04"/>
<path d="M800.887 289.816C801.745 290.358 803.912 291.568 806.928 291.559C809.745 291.55 811.795 290.484 812.67 289.961C811.415 289.473 809.429 288.877 806.928 288.823C804.282 288.769 802.178 289.347 800.887 289.816Z" fill="white"/>
<path d="M800.227 289.745C800.371 289.88 800.624 290.097 800.985 290.26C802.791 291.081 804.037 289.158 806.52 289.077C809.112 288.986 810.276 291.009 812.57 290.205C813.012 290.052 813.337 289.844 813.554 289.7C813.464 289.239 812.931 286.855 810.719 285.51C809.021 284.481 807.324 284.652 806.511 284.733C805.852 284.797 803.486 285.077 801.707 287.063C800.813 288.065 800.416 289.113 800.227 289.745Z" fill="#D82E2E"/>
<path d="M784.906 258.701C787.164 258.34 790.306 258.051 794.017 258.394C797.195 258.683 799.841 259.351 801.8 259.992C801.819 259.568 801.809 259.071 801.71 258.53C801.475 257.22 800.879 256.227 800.428 255.613C797.9 255.405 795.778 255.36 794.234 255.369C790.468 255.378 789.412 255.685 788.726 255.938C786.793 256.66 785.574 257.879 784.906 258.701Z" fill="#210B04"/>
<path d="M801.833 255.657C802.032 256.063 802.294 256.668 802.456 257.418C802.736 258.736 802.637 260.009 802.492 260.018C802.33 260.027 802.023 258.465 801.933 258.005C801.797 257.318 801.716 256.722 801.355 255.919C801.264 255.72 801.183 255.558 801.129 255.449L801.833 255.657Z" fill="#210B04"/>
<path d="M828.441 258.068C826.183 257.707 823.041 257.418 819.33 257.761C816.152 258.059 813.506 258.727 811.547 259.36C811.529 258.935 811.537 258.448 811.637 257.897C811.871 256.587 812.467 255.594 812.919 254.98C815.447 254.773 817.56 254.727 819.113 254.736C822.878 254.745 823.935 255.052 824.621 255.305C826.554 256.028 827.773 257.247 828.441 258.068Z" fill="#210B04"/>
<path d="M811.504 255.016C811.306 255.423 811.044 256.028 810.881 256.777C810.601 258.095 810.701 259.369 810.845 259.378C811.008 259.387 811.314 257.824 811.405 257.364C811.54 256.678 811.622 256.082 811.983 255.278C812.073 255.079 812.154 254.917 812.209 254.809L811.504 255.016Z" fill="#210B04"/>
<path d="M802.474 292.083C802.356 292.526 804.388 293.844 806.609 293.826C808.46 293.808 810.212 292.869 810.14 292.454C810.122 292.363 810.013 292.183 806.609 292.029C803.9 291.894 802.546 291.84 802.474 292.083Z" fill="#D82E2E"/>
<path d="M814.219 361.557C827.339 357.187 840.459 352.816 853.579 348.437C855.52 343.037 857.452 337.647 859.393 332.247C857.642 331.127 854.969 329.583 851.502 328.229C848.17 326.929 845.723 326.423 842.978 325.755C839.664 324.951 834.942 323.669 829.181 321.646C824.187 334.956 819.203 348.256 814.219 361.557Z" fill="#C1DCE0"/>
<path d="M800.91 359.742C787.744 355.85 774.589 351.958 761.424 348.067C759.5 342.405 757.568 336.753 755.645 331.091C757.649 330.071 760.521 328.762 764.105 327.642C769.974 325.809 772.782 326.035 777.577 324.066C779.699 323.19 782.489 321.773 785.514 319.38C790.652 332.834 795.781 346.288 800.91 359.742Z" fill="#C1DCE0"/>
<path d="M805.009 537.947C804.847 546.408 804.766 554.878 804.766 563.167C828.739 563.42 847.078 556.196 856.207 551.717C855.457 546.408 854.717 541.18 853.886 536.033H805.018L805.009 537.947Z" fill="#210B04"/>
<path d="M750.828 536.042C751.578 540.855 752.318 545.667 753.067 550.561C762.277 555.293 780.03 562.76 803.597 563.176H804.346C804.599 554.543 804.599 545.586 804.265 536.376C804.265 536.042 750.828 536.042 750.828 536.042Z" fill="#210B04"/>
<path d="M741.676 547.8C752.448 550.644 764.484 553.082 777.667 554.608C815.284 558.978 847.565 554.256 870.969 548.486C869.028 526.174 866.4 507.989 864.306 495.311C851.574 417.992 850.68 413.016 850.68 413.016C849.94 408.89 848.26 399.743 848.667 387.743C848.82 383.219 849.163 379.797 849.705 374.776C850.454 367.86 851.692 358.361 853.859 346.947C823.05 347.317 792.241 347.697 761.423 348.067C763.97 354.812 767.076 365.115 767.771 377.882C768.547 392.005 765.911 402.524 764.665 408.474C759.5 433.035 757.116 458.092 752.737 482.796C750.064 497.912 746.191 520.188 741.676 547.8Z" fill="#C1DCE0"/>
<path d="M774.396 778.557C774.062 780.218 774.893 781.789 775.723 782.954C781.033 782.791 786.342 782.71 791.652 782.539C802.352 782.873 812.97 782.791 823.598 782.701C824.429 781.627 825.178 779.965 824.844 778.304C824.266 775.396 820.447 774.159 818.288 772.994C814.722 771.089 810.568 766.854 808.085 756.398C808.248 753.662 808.582 750.014 809.16 745.78C810.74 734.745 813.223 725.617 816.131 717.571H785.015C787.173 725.12 788.916 733.671 789.828 743.793C790.324 749.021 790.405 753.418 790.496 756.154C788.338 766.611 784.274 771.008 780.789 772.994C778.712 774.241 774.893 775.658 774.396 778.557Z" fill="#FFA1A1"/>
<path d="M774.324 783.908H806.93V778.31H774.324V783.908Z" fill="#210B04"/>
<path d="M808.051 782.956H828.973V777.358H808.051V782.956Z" fill="#210B04"/>
<path d="M822.231 773.41C821.4 772.895 817.788 770.773 813.418 771.857C811.513 772.326 810.122 773.247 809.273 773.934L822.231 773.41Z" fill="#210B04"/>
<path d="M803.046 773.673C800.78 772.562 797.421 771.244 793.195 770.693C787.028 769.88 782.007 771.081 779.199 771.993L803.046 773.673Z" fill="#210B04"/>
<path d="M789.119 761.339H805.508V756.165H789.119V761.339Z" fill="#210B04"/>
<path d="M805.504 757.466H809.91V754.224H805.504V757.466Z" fill="#210B04"/>
<path d="M803.039 753.924C802.416 753.924 801.91 753.418 801.91 752.795V717.571C801.91 716.948 802.416 716.442 803.039 716.442C803.662 716.442 804.168 716.948 804.168 717.571V752.795C804.168 753.418 803.662 753.924 803.039 753.924Z" fill="#210B04"/>
<path d="M785.616 292.442C788.217 293.083 790.808 293.734 793.409 294.375C794.348 313.255 792.948 337.707 784.036 364.227C781.896 370.593 779.512 376.525 777.011 382.006C777.038 392.914 767.873 400.869 759.015 399.975C751.882 399.253 745.525 392.86 744.586 384.444C751.394 374.918 756.469 366.638 759.945 360.624C768.415 345.969 778.022 328.046 783.693 303.639C784.849 298.628 785.381 294.555 785.616 292.442Z" fill="#FC6454"/>
<path d="M785.617 292.444C788.217 293.085 790.809 293.736 793.409 294.377C798.367 286.683 800.57 279.993 801.644 275.099C802.24 272.381 802.99 267.929 802.583 267.83C802.204 267.731 800.922 271.487 799.784 275.062C801.301 266.286 801.391 263.297 800.859 263.162C800.254 263.008 798.764 266.421 798.439 266.277C798.096 266.123 799.938 262.385 798.953 261.609C798.421 261.193 797.437 261.952 795.324 262.647C793.545 263.234 792.019 263.432 790.999 263.514C789.554 265.771 788.028 268.652 786.854 272.155C784.001 280.688 784.813 288.255 785.617 292.444Z" fill="#FC6454"/>
<path d="M790.443 340.689C789.621 340.554 789.215 339.967 789.332 339.353C791.852 325.845 792.899 311.84 792.411 297.709C792.393 297.086 792.881 296.562 793.504 296.544C794.145 296.544 794.651 297.023 794.669 297.637C795.156 311.93 794.1 326.107 791.554 339.777C791.454 340.31 790.985 340.689 790.443 340.689Z" fill="#210B04"/>
<path d="M785.422 292.472C784.872 292.472 784.402 292.084 784.312 291.533C783.201 284.815 783.725 277.997 785.793 271.803C785.946 271.343 786.1 270.9 786.262 270.467C786.47 269.88 787.129 269.573 787.716 269.808C788.294 270.024 788.601 270.675 788.375 271.261C788.212 271.668 788.077 272.092 787.924 272.526C785.964 278.368 785.486 284.815 786.533 291.163C786.641 291.777 786.226 292.363 785.612 292.463C785.54 292.463 785.486 292.472 785.422 292.472Z" fill="#210B04"/>
<path d="M801.033 267.569C800.302 267.506 799.851 266.955 799.914 266.332C799.354 267.126 798.83 267.686 797.972 267.307C796.943 266.828 797.259 265.79 797.602 264.67C797.747 264.21 798.026 263.271 798.099 262.684C797.936 262.774 797.683 262.901 797.376 263.063C796.798 263.37 796.5 263.668 796.202 264.002C795.859 264.372 795.471 264.788 794.812 265.068C794.117 265.375 793.286 265.438 792.383 265.239C791.778 265.104 791.39 264.508 791.516 263.903C791.651 263.298 792.248 262.91 792.853 263.036C793.277 263.126 793.638 263.108 793.891 263C794.126 262.901 794.27 262.756 794.541 262.458C794.902 262.079 795.399 261.555 796.284 261.086C797.087 260.661 798.532 259.894 799.616 260.706C800.067 261.059 800.275 261.546 800.329 262.106C800.573 262.016 800.853 262.007 801.115 262.07C802.334 262.386 802.415 263.767 802.135 266.548C802.108 267.135 801.611 267.569 801.033 267.569Z" fill="#210B04"/>
<path d="M794.351 293.997C794.152 293.997 793.945 293.942 793.764 293.834C793.231 293.509 793.069 292.814 793.394 292.281C796.843 286.619 799.245 280.759 800.545 274.854C801.168 271.965 801.584 269.12 801.574 268.317C801.457 268.082 801.421 267.811 801.493 267.549C801.656 266.944 802.198 266.583 802.866 266.736C803.751 266.962 804.527 267.161 802.739 275.342C801.394 281.491 798.884 287.586 795.308 293.455C795.1 293.807 794.73 293.997 794.351 293.997Z" fill="#210B04"/>
<path d="M795.592 283.577C795.429 283.577 795.257 283.541 795.095 283.46C794.526 283.189 794.3 282.512 794.571 281.952L798.355 274.241C798.635 273.69 799.321 273.464 799.862 273.726C800.431 273.997 800.657 274.674 800.386 275.234L796.603 282.945C796.413 283.342 796.007 283.577 795.592 283.577Z" fill="#210B04"/>
<path d="M792.898 280.94C791.905 280.633 791.616 279.983 791.85 279.396L797.512 265.012C797.747 264.434 798.406 264.173 798.975 264.38C799.562 264.606 799.842 265.265 799.607 265.843L793.945 280.227C793.774 280.669 793.349 280.94 792.898 280.94Z" fill="#210B04"/>
<path d="M790.88 277.039C789.959 276.822 789.616 276.19 789.796 275.594L793.273 263.711C793.453 263.115 794.085 262.763 794.672 262.944C795.268 263.125 795.611 263.748 795.44 264.343L791.963 276.226C791.828 276.723 791.368 277.039 790.88 277.039Z" fill="#210B04"/>
<path d="M827.624 290.078C825.024 290.719 822.432 291.369 819.832 292.01C819.317 310.223 820.843 334.648 829.204 361.863C832.798 373.583 837.087 383.931 841.457 392.879C847.381 397.304 855.002 397.918 860.627 394.505C865.873 391.317 867.408 385.827 867.751 384.446C861.593 373.755 856.717 364.743 853.295 358.26C835.976 325.438 832.039 312.011 829.547 301.275C828.391 296.272 827.859 292.191 827.624 290.078Z" fill="#FC6454"/>
<path d="M827.625 290.078C825.024 290.719 822.433 291.369 819.832 292.01C814.875 284.317 812.672 277.626 811.598 272.732C811.002 270.014 810.252 265.563 810.659 265.463C811.038 265.373 812.32 269.129 813.458 272.696C811.941 263.919 811.85 260.931 812.383 260.795C812.988 260.642 814.478 264.055 814.803 263.901C815.146 263.748 813.304 260.01 814.288 259.233C814.821 258.809 815.805 259.576 817.918 260.271C819.688 260.858 821.223 261.057 822.243 261.138C823.688 263.396 825.214 266.276 826.388 269.78C829.241 278.321 828.429 285.888 827.625 290.078Z" fill="#FC6454"/>
<path d="M822.793 338.332C822.251 338.332 821.791 337.953 821.682 337.411C819.136 323.767 818.089 309.582 818.558 295.27C818.576 294.665 819.082 294.178 819.687 294.178C820.346 294.205 820.834 294.72 820.816 295.343C820.337 309.483 821.384 323.497 823.904 336.987C824.021 337.601 823.615 338.188 823.001 338.305C822.937 338.323 822.865 338.332 822.793 338.332Z" fill="#210B04"/>
<path d="M827.821 290.104C827.017 289.987 826.601 289.409 826.71 288.786C827.748 282.438 827.279 275.991 825.319 270.14C825.166 269.707 825.03 269.291 824.868 268.876C824.651 268.289 824.949 267.639 825.527 267.422C826.114 267.196 826.764 267.494 826.981 268.081C827.143 268.515 827.297 268.966 827.45 269.418C829.527 275.621 830.042 282.438 828.931 289.156C828.841 289.716 828.371 290.104 827.821 290.104Z" fill="#210B04"/>
<path d="M812.203 265.211C811.625 265.211 811.138 264.769 811.084 264.191C810.822 261.419 810.903 260.037 812.086 259.712C812.384 259.64 812.655 259.667 812.889 259.748C812.944 259.179 813.151 258.692 813.612 258.349C814.677 257.554 816.122 258.304 816.899 258.701C817.829 259.197 818.325 259.721 818.686 260.109C818.957 260.407 819.102 260.552 819.319 260.642C819.598 260.769 819.96 260.778 820.375 260.678C820.989 260.543 821.594 260.931 821.72 261.536C821.856 262.141 821.477 262.746 820.854 262.881C819.978 263.08 819.147 263.026 818.415 262.71C817.765 262.421 817.377 262.006 817.034 261.644C816.727 261.319 816.438 261.012 815.878 260.705C815.58 260.552 815.328 260.434 815.138 260.353C815.219 260.94 815.49 261.861 815.635 262.313C815.978 263.423 816.294 264.471 815.264 264.94C814.388 265.319 813.865 264.751 813.314 263.893C813.377 264.597 812.917 265.148 812.302 265.202C812.275 265.211 812.239 265.211 812.203 265.211Z" fill="#210B04"/>
<path d="M818.894 291.641C818.515 291.641 818.144 291.451 817.928 291.099C814.334 285.203 811.824 279.108 810.496 272.986C808.691 264.814 809.512 264.597 810.37 264.38C810.993 264.227 811.589 264.597 811.743 265.193C811.815 265.464 811.779 265.735 811.661 265.961C811.652 266.773 812.085 269.753 812.69 272.498C813.973 278.376 816.375 284.236 819.842 289.925C820.167 290.458 820.004 291.153 819.472 291.478C819.3 291.586 819.092 291.641 818.894 291.641Z" fill="#210B04"/>
<path d="M817.639 281.221C817.224 281.221 816.818 280.986 816.628 280.589L812.845 272.878C812.574 272.318 812.8 271.64 813.368 271.37C813.919 271.108 814.614 271.333 814.876 271.884L818.66 279.595C818.931 280.155 818.705 280.833 818.136 281.103C817.974 281.185 817.811 281.221 817.639 281.221Z" fill="#210B04"/>
<path d="M820.342 278.575C819.89 278.575 819.466 278.304 819.294 277.862L813.633 263.478C813.407 262.9 813.687 262.241 814.265 262.015C814.852 261.798 815.493 262.06 815.728 262.647L821.389 277.031C821.615 277.609 821.335 278.268 820.757 278.494C820.613 278.548 820.486 278.575 820.342 278.575Z" fill="#210B04"/>
<path d="M822.35 274.683C821.862 274.683 821.411 274.367 821.266 273.871L817.79 261.997C817.609 261.401 817.961 260.769 818.557 260.597C819.153 260.444 819.794 260.769 819.957 261.365L823.433 273.239C823.614 273.835 823.271 274.467 822.666 274.638C822.557 274.665 822.449 274.683 822.35 274.683Z" fill="#210B04"/>
<path d="M800.676 711.314C800.035 711.296 799.538 710.791 799.547 710.168L800.477 658.636C800.486 658.022 800.992 657.525 801.606 657.525C802.247 657.534 802.743 658.049 802.734 658.672L801.804 710.195C801.795 710.818 801.299 711.314 800.676 711.314Z" fill="#210B04"/>
<path d="M831.962 263.893C830.743 264.245 830.12 256.137 823.095 251.676C815.98 247.171 810.499 251.604 803.167 246.981C798.3 243.911 794.02 237.726 795.555 234.349C797.822 229.328 813.966 228.028 823.908 236.127C835.366 245.473 833.723 263.379 831.962 263.893Z" fill="#210B04"/>
<path d="M804.131 244.553C805.016 255.659 789.422 267.569 782.433 264.463C778.578 262.747 777.332 256.481 777.566 252.49C777.882 246.963 781.169 243.478 782.749 241.799C785.792 238.575 793.097 232.895 798.786 235.64C802.145 237.266 803.878 241.32 804.131 244.553Z" fill="#210B04"/>
<path d="M792.434 223.603C792.434 230.014 797.626 235.206 804.037 235.206C810.448 235.206 815.64 230.014 815.64 223.603C815.64 217.192 810.448 212 804.037 212C797.626 212 792.434 217.201 792.434 223.603Z" fill="#210B04"/>
<path d="M732.765 400.925C726.67 400.925 718.408 399.661 710.959 394.27C703.582 388.943 700.268 384.166 701.135 380.094C701.939 376.202 706.932 373.268 716.873 367.398C718.977 366.161 720.991 364.979 722.309 362.604C723.853 359.814 723.6 356.933 723.474 355.552C722.779 347.777 722.896 336.22 724.467 329.989C726.129 323.47 730.029 319.623 736.783 313.402C747.754 303.289 761.28 295.524 776.974 290.313L777.678 292.453C762.292 297.564 749.045 305.158 738.318 315.054C731.691 321.167 728.16 324.635 726.652 330.54C725.135 336.536 725.036 347.759 725.713 355.272C725.858 356.834 726.165 360.301 724.287 363.696C722.67 366.613 720.268 368.021 718.508 369.06L718.02 369.34C708.945 374.685 703.943 377.638 703.338 380.554C702.887 382.704 704.069 386.505 712.277 392.437C719.889 397.936 728.503 398.875 734.264 398.641L734.354 400.898C733.84 400.916 733.307 400.925 732.765 400.925Z" fill="#210B04"/>
<path d="M851.126 357.322C858.25 360.617 865.383 363.913 872.508 367.209C873.122 363.615 874.991 350.134 866.512 339.019C864.237 336.039 861.7 333.854 859.388 332.265C855.28 334.305 851.171 336.337 847.062 338.378C848.426 344.68 849.771 351.001 851.126 357.322Z" fill="#C1DCE0"/>
<path d="M736.898 364.12C745.919 360.589 754.939 357.049 763.96 353.519C763.689 347.767 763.418 342.006 763.147 336.254C760.646 334.53 758.145 332.814 755.644 331.099C752.655 333.067 748.709 336.2 745.16 340.959C738.307 350.142 737.142 359.776 736.898 364.12Z" fill="#C1DCE0"/>
</svg>
