<svg width="892" height="892" viewBox="0 0 892 892" fill="none" xmlns="http://www.w3.org/2000/svg">
<path d="M108.085 550.476C107.561 550.476 107.11 550.124 106.983 549.6C103.182 532.94 102.134 516.245 103.85 499.965C107.101 469.147 119.155 448.505 130.803 428.532C134.37 422.437 137.729 416.676 140.772 410.717C158.686 375.782 165.63 333.415 161.395 284.8C161.341 284.177 161.801 283.635 162.425 283.581C163.057 283.5 163.589 283.979 163.652 284.611C167.914 333.659 160.889 376.432 142.776 411.755C139.688 417.769 136.32 423.548 132.744 429.67C121.214 449.426 109.286 469.869 106.08 500.199C104.383 516.218 105.43 532.67 109.177 549.094C109.322 549.699 108.934 550.304 108.32 550.449C108.256 550.467 108.166 550.476 108.085 550.476Z" fill="#210B04"/>
<path d="M111.714 526.618C111.145 526.618 110.658 526.194 110.595 525.616C108.807 509.543 108.978 493.407 111.109 477.642C113.764 458.057 118.739 444.585 123.552 431.555C126.035 424.81 128.618 417.839 130.857 410.065C138.216 384.575 140.121 356.637 136.527 327.029C136.446 326.415 136.889 325.847 137.512 325.774C138.099 325.666 138.685 326.136 138.767 326.759C142.396 356.673 140.473 384.909 133.024 410.697C130.758 418.553 128.166 425.56 125.674 432.341C120.681 445.849 115.976 458.617 113.358 477.949C111.254 493.534 111.082 509.489 112.843 525.381C112.915 525.995 112.464 526.555 111.85 526.627C111.796 526.618 111.759 526.618 111.714 526.618Z" fill="#210B04"/>
<path d="M111.356 546.5C110.842 546.5 110.39 546.157 110.264 545.643C103.266 517.173 105.406 494.084 116.639 476.991C124.82 464.558 135.583 458.616 143.447 454.282C144.621 453.632 145.732 453.027 146.752 452.431C176.035 435.492 197.019 398.055 209.128 341.169C209.263 340.555 209.869 340.167 210.464 340.302C211.069 340.429 211.458 341.034 211.331 341.639C199.087 399.184 177.732 437.117 147.881 454.39C146.842 454.986 145.723 455.609 144.531 456.268C136.874 460.485 126.4 466.264 118.526 478.237C107.654 494.77 105.605 517.272 112.449 545.101C112.602 545.706 112.232 546.32 111.627 546.464C111.537 546.491 111.447 546.5 111.356 546.5Z" fill="#210B04"/>
<path d="M30.0703 781.829C52.4274 781.892 74.7844 781.955 97.1505 782.018C97.8006 779.508 98.3154 775.743 96.7713 771.716C96.1934 770.199 95.5253 769.187 95.1822 768.636C93.4124 765.801 91.3174 761.025 90.1887 752.582C86.1345 752.121 82.0804 751.652 78.0261 751.191C62.6669 771.86 53.9805 775.996 48.8337 775.698C45.2038 775.481 41.7092 777.494 38.0703 777.531C35.7317 777.549 32.8604 777.323 31.199 779.192C30.4405 780.032 30.1696 781.061 30.0703 781.829Z" fill="#FC6454"/>
<path d="M70.0142 269.158C69.6892 274.323 69.364 279.515 69.057 284.698C68.5423 292.987 68.0276 301.285 67.5039 309.574L104.173 312.364C103.225 294.892 102.286 277.42 101.338 259.957C96.1637 262.287 90.0145 264.607 82.9625 266.476C78.3484 267.704 73.9963 268.553 70.0142 269.158Z" fill="#FC6454"/>
<path d="M70.012 269.159C69.6869 274.324 69.3617 279.516 69.0547 284.699C75.9532 285.042 82.1567 277.042 82.9423 266.703C78.6623 267.353 74.3371 268.256 70.012 269.159Z" fill="#210B04"/>
<path d="M28.8906 490.554C48.8459 476.658 68.8011 462.771 88.7564 448.874C93.9845 425.894 99.2216 402.905 104.45 379.925C105.922 376.746 117.552 351.093 114.626 328.402C113.109 316.61 108.558 307.174 108.558 307.174C106.21 302.307 103.646 298.56 101.705 296.022C92.2778 296.953 82.8602 297.883 73.4334 298.813C70.3633 300.221 35.7532 316.7 33.7757 346.344C33.5139 350.236 33.7756 355.039 35.3467 360.574C34.534 375.762 33.7397 390.986 32.9631 406.237C31.5455 434.436 30.1818 462.545 28.8906 490.554Z" fill="#FC6454"/>
<path d="M74.3892 526.428C92.4865 526.428 107.157 508.672 107.157 486.77C107.157 464.868 92.4865 447.112 74.3892 447.112C56.2919 447.112 41.6211 464.868 41.6211 486.77C41.6211 508.672 56.2919 526.428 74.3892 526.428Z" fill="#FC6454"/>
<path d="M60.3282 608.669C62.9738 629.726 69.791 645.79 76.7799 646.178C84.2924 646.593 93.9448 629.031 97.7733 602.222C97.7733 565.49 97.7733 528.767 97.7733 492.035C76.5901 489.687 55.4069 487.349 34.2236 485.001C33.3387 497.173 33.2846 511.367 35.0453 527.033C39.0454 562.537 50.6846 590.375 60.3282 608.669Z" fill="#FC6454"/>
<path d="M74.8045 761.639C80.4841 761.738 86.1544 761.837 91.825 761.928C98.4978 742.045 102.796 724.916 105.613 711.94C114.877 669.203 111.184 657.023 109.135 651.695C107.464 647.352 105.134 643.036 102.489 634.223C98.9402 622.431 97.7394 612.272 97.2879 605.455C88.3035 617.446 79.3191 629.447 70.3438 641.438C71.6891 648.481 72.8901 655.759 73.8924 663.28C78.7413 699.561 78.0461 732.78 74.8045 761.639Z" fill="#FC6454"/>
<path d="M56.0102 255.975C55.6761 256.472 56.3445 257.465 56.5071 257.637C56.5883 257.799 57.5001 259.045 58.5837 259.217C58.0058 259.47 57.5092 259.876 57.4189 260.291C57.4189 260.707 57.7532 261.041 57.8344 261.203C58.0782 261.537 58.331 261.537 58.4936 261.7C59.3243 262.278 56.9133 267.343 57.5002 269.501C58.2496 272.653 66.1325 273.736 73.347 273.068C79.153 272.49 90.1871 270.332 102.964 259.876C103.713 259.298 104.291 258.801 104.959 258.215C105.79 257.555 117.158 247.343 114.829 232.164C113.339 222.376 106.946 215.324 100.472 211.676C87.0358 204.128 69.5276 209.266 64.6336 216.652C63.7216 217.979 63.1438 219.225 62.8097 220.3C60.0737 229.428 58.8274 233.573 58.6559 233.745C58.6559 233.826 58.4936 234.079 58.4936 234.494C58.4936 234.747 58.5749 234.909 58.5749 235.072C58.8277 236.318 59.0713 237.564 59.3241 238.801C58.3309 246.937 57.8343 250.251 57.5002 251.244C56.9223 253.321 56.6695 254.151 56.9223 254.892C57.0036 255.145 57.0849 255.307 56.9223 255.47C56.7598 255.813 56.2631 255.731 56.0102 255.975Z" fill="#FC6454"/>
<path d="M52.565 248.246C52.4567 249.565 53.748 250.657 54.2175 251.064C55.5268 252.183 56.9986 252.364 57.5945 252.409C58.0189 252.156 58.7321 251.632 58.9398 250.784C59.1114 250.079 58.723 249.655 58.6598 248.77C58.6237 248.201 58.7052 247.361 59.3192 246.305C59.4095 243.533 59.4998 240.77 59.5901 238.007C58.5608 239.569 57.73 240.851 57.1702 241.736C55.3101 244.653 55.3462 244.743 54.7593 245.438C53.3958 247.054 52.6463 247.28 52.565 248.246Z" fill="#FC6454"/>
<path d="M72.4577 239.027C72.0965 239.027 71.7353 238.846 71.5186 238.521C71.0761 237.853 70.0828 236.625 68.3943 235.975C65.6042 234.909 63.0758 236.173 62.5883 236.435C62.2993 236.589 61.9472 236.616 61.6582 236.507C61.3603 236.39 61.1075 236.155 60.9991 235.857L60.0782 233.555C59.8524 232.977 60.1324 232.318 60.7012 232.083C61.2791 231.848 61.9472 232.128 62.173 232.715L62.6607 233.934C64.1054 233.383 66.5432 232.832 69.2069 233.871C71.4733 234.756 72.8009 236.381 73.4059 237.284C73.749 237.808 73.6045 238.503 73.0898 238.846C72.8912 238.972 72.6654 239.027 72.4577 239.027Z" fill="#210B04"/>
<path d="M63.0676 238.54C62.9503 240.057 63.9888 241.375 65.3793 241.484C66.7699 241.592 67.9979 240.445 68.1153 238.919C68.2327 237.403 67.1942 236.084 65.8037 235.976C64.4041 235.867 63.176 237.014 63.0676 238.54Z" fill="#210B04"/>
<path d="M77.4348 235.072C77.4348 235.072 76.3782 234.269 75.2405 233.799C73.3894 233.023 69.1909 232.129 63.6287 231.587C63.4933 231.135 63.2042 229.944 63.6466 228.535C64.0258 227.334 64.7483 226.594 65.1005 226.269C68.4865 227.623 71.0601 228.345 72.9021 228.77C73.5883 228.923 75.6559 229.384 77.7778 230.819C78.7982 231.506 79.1684 232.02 79.34 232.264C80.577 234.052 80.1436 236.228 79.963 236.96C79.349 236.427 78.5002 235.759 77.4348 235.072Z" fill="#8E3B32"/>
<path d="M59.0035 254.839C58.5449 254.642 58.0586 254.495 57.5562 254.401C57.1207 254.315 56.7053 254.595 56.6317 255.014C56.5665 255.43 56.8347 255.84 57.2989 255.925C57.7487 256.009 58.2016 256.17 58.5839 256.347C59.7376 256.894 60.4636 257.749 60.8546 258.367C61.0992 258.734 61.5954 258.859 61.9722 258.637C62.3431 258.412 62.447 257.939 62.2167 257.571C61.6968 256.778 60.7609 255.671 59.2512 254.951C59.1762 254.913 59.0928 254.877 59.0035 254.839Z" fill="#210B04"/>
<path d="M69.7255 742.387C78.9356 746.595 88.1457 750.803 97.3649 755.001C105.275 736.825 117.428 701.429 110.9 658.25C108.616 643.107 104.498 630.096 100.128 619.486C99.2069 589.066 98.2859 558.645 97.3649 528.216C99.9293 524.198 112.598 503.439 106.259 477.614C102.34 461.659 93.0489 451.447 88.4709 447.022C69.229 456.115 49.9871 465.199 30.7452 474.292C28.2079 497.633 27.4945 532.559 38.6008 572.461C44.3436 593.102 51.9735 610.457 59.3416 624.317C64.9218 647.026 69.4728 674.277 70.4028 705.213C70.8001 718.405 70.493 730.82 69.7255 742.387Z" fill="#E94057"/>
<path d="M13.0079 511.63C16.7642 510.664 22.6244 508.858 29.1979 505.39C37.6856 500.912 43.0854 495.9 44.819 494.347C51.7266 488.108 65.7945 477.345 97.2714 457.498C102.951 411.321 108.188 377.081 113.786 350.182C116.261 338.29 121.751 313.712 108.802 300.881C106.238 298.344 103.547 296.854 101.714 296.005C88.9733 297.639 76.2327 299.283 63.492 300.926C53.7311 308.52 40.9725 320.782 33.153 339.04C26.4801 354.625 29.3785 360.647 26.3626 392.684C22.498 433.813 16.015 441.452 13.7035 483.286C13.0353 495.304 12.9718 505.183 13.0079 511.63Z" fill="#C1DCE0"/>
<path d="M74.4336 356.458C78.4156 377.37 82.3976 398.274 86.4609 419.267L111.436 418.021C111.518 404.333 111.355 392.305 110.94 382.346C110.777 379.61 110.696 376.955 110.606 374.544C110.525 373.795 110.525 373.054 110.443 372.305C107.626 321.938 101.315 309.333 92.1948 304.439C90.4521 303.527 88.7906 302.949 87.7974 302.696C83.3097 320.611 78.831 338.534 74.4336 356.458Z" fill="#FC6454"/>
<path d="M100.001 506.836C104.39 511.648 111.821 511.964 116.381 507.838C120.589 504.028 121.329 497.346 117.835 492.47C116.968 491.287 115.586 489.192 114.566 486.321C112.823 481.445 113.121 477.183 113.266 475.341C114.675 457.805 119.063 443.557 116.381 429.362C115.153 422.888 112.959 417.85 111.37 414.689C103.089 415.565 94.8184 416.441 86.5383 417.317C86.3487 426.022 87.0801 432.92 87.7031 437.317C91.1434 461.48 100.137 471.9 100.606 494.547C100.715 499.937 100.308 504.298 100.001 506.836Z" fill="#FC6454"/>
<path d="M78.9141 378.859C89.5328 380.023 100.242 381.179 110.942 382.344C110.779 379.608 110.698 376.953 110.608 374.543C110.111 374.38 109.524 374.208 108.946 374.046C98.9143 375.617 88.9549 377.278 78.9141 378.859Z" fill="#210B04"/>
<path d="M71.7792 379.229C87.4545 378.886 103.121 378.543 118.796 378.191C114.922 357.215 111.04 336.249 107.166 315.273C105.775 305.774 97.351 298.884 88.0325 299.372C79.1565 299.833 71.7162 306.876 70.75 315.968C71.0841 337.052 71.4361 358.145 71.7792 379.229Z" fill="#C1DCE0"/>
<path d="M95.9796 741.612C95.167 741.485 94.7515 740.889 94.8689 740.284C98.0111 723.011 99.4017 705.412 98.9953 687.967C98.5168 667.389 95.6544 652.797 92.3406 635.912C90.6611 627.388 88.9366 618.576 87.2571 607.912C83.3744 583.27 81.2885 557.635 81.0267 531.712C78.4533 530.502 75.9973 529.03 73.7128 527.323C63.0128 519.368 58.2543 508.163 56.1594 500.162C55.9969 499.557 56.3671 498.943 56.972 498.781C57.5138 498.645 58.1911 498.98 58.3446 499.585C60.3492 507.233 64.8818 517.942 75.0581 525.508C77.4148 527.251 79.9521 528.75 82.6158 529.951C83.0131 530.131 83.275 530.529 83.275 530.971C83.4917 557.021 85.5866 582.792 89.4784 607.551C91.1488 618.169 92.8823 626.964 94.5437 635.461C97.8756 652.454 100.765 667.127 101.244 687.904C101.65 705.494 100.25 723.255 97.081 740.682C96.9998 741.232 96.5214 741.612 95.9796 741.612Z" fill="#6AA7AD"/>
<path d="M74.2727 217.979L67.6361 218.891C70.047 219.559 73.2795 220.796 76.8462 222.792C77.8394 223.288 84.6476 227.189 90.0383 233.907C100.323 246.603 96.8375 258.883 101.325 259.957C101.822 260.039 102.4 260.039 102.987 259.876C103.736 259.298 104.314 258.801 104.982 258.215C105.813 257.555 117.181 247.343 114.852 232.164C113.362 222.376 106.969 215.324 100.495 211.676C87.0587 204.128 69.5502 209.266 64.6562 216.652C66.8053 217.817 70.1191 218.313 74.2727 217.979Z" fill="#8E3B32"/>
<path d="M107.652 230.459C108.347 230.224 116.438 227.353 116.898 222.107C117.006 220.834 115.842 218.576 113.512 214.052C111.074 209.321 110.18 208.517 109.124 208.102C106.866 207.226 105.765 208.851 103.679 207.84C101.079 206.585 100.708 202.901 99.2725 203.172C98.4147 203.334 98.2252 204.499 97.4577 204.472C96.2116 204.427 95.9948 201.303 94.6043 201.104C93.4305 200.942 92.8797 203.054 91.2634 203.027C90.1708 203.009 90.0353 202.043 88.7261 201.953C87.3355 201.863 86.6131 202.892 85.9539 202.486C85.3399 202.115 85.8457 201.122 85.3039 200.481C84.6447 199.695 82.911 200.011 77.9809 201.556C73.412 202.991 73.2043 203.253 71.8318 203.316C68.5902 203.452 66.4412 202.097 66.071 202.729C65.5924 203.551 69.1049 206.043 68.6083 206.928C68.1749 207.696 65.4931 206.007 62.8475 206.729C59.2989 207.705 56.003 212.951 57.3845 217.032C58.9195 221.565 65.4298 222.197 67.5336 222.396C77.132 223.317 84.4821 215.858 86.1796 214.043L107.652 230.459Z" fill="#8E3B32"/>
<path d="M30.0722 784.221H92.0058C94.9855 783.924 96.43 782.804 97.1524 782.018C100.692 778.172 99.0669 769.124 92.0058 760.104C87.3194 767.454 85.044 768.673 83.8341 768.266C81.8024 767.598 82.7415 762.361 78.7776 758.677C77.1884 757.196 75.4094 756.519 74.1994 756.176C62.9848 762.37 53.6211 766.686 47.0657 769.521C37.6569 773.585 28.2031 777.088 28.4379 781.377C28.5011 782.623 29.3589 783.589 30.0722 784.221Z" fill="#210B04"/>
<path d="M115.287 185.384C128.434 176.806 147.459 181.257 163.739 194.892C180.019 181.257 199.045 176.806 212.192 185.384C230.242 197.158 230.377 228.933 212.489 256.365C202.774 271.255 189.744 281.756 176.976 286.397C172.931 288.32 168.453 289.16 163.739 289.043C159.026 289.16 154.547 288.32 150.502 286.397C137.734 281.756 124.704 271.255 114.989 256.365C97.1102 228.933 97.2368 197.158 115.287 185.384Z" fill="url(#paint0_linear_179_5520)"/>
<path d="M158.961 294.063C157.128 297.593 156.568 298.234 156.884 298.957C157.281 299.86 159.16 301.169 169.462 299.219C169.002 297.882 168.36 296.112 167.521 294.063C165.471 289.115 164.424 286.64 163.241 286.649C162.211 286.649 161.95 288.311 158.961 294.063Z" fill="url(#paint1_linear_179_5520)"/>
<path d="M198.813 230.894C192.755 251.463 180.592 260.818 182.045 262.181C184.041 264.06 210.19 249.513 211.951 227.093C212.899 214.993 206.534 203.192 203.825 203.589C201.242 203.959 203.437 215.183 198.813 230.894Z" fill="#FFA1A1"/>
<path d="M174.308 268.78C188.954 263.118 206.634 271.426 219.736 288.148C238.499 278.198 258.03 277.791 269.109 288.916C284.324 304.185 277.85 335.291 254.653 358.407C242.057 370.958 227.131 378.516 213.677 380.412C209.325 381.45 204.765 381.342 200.178 380.249C195.546 379.383 191.338 377.631 187.781 374.913C176.259 367.716 165.694 354.741 159.283 338.154C147.473 307.607 154.2 276.545 174.308 268.78Z" fill="#FFA1A1"/>
<path d="M194.448 384.16C191.92 387.23 191.243 387.735 191.406 388.512C191.604 389.478 193.175 391.149 203.649 391.374C203.478 389.966 203.225 388.106 202.819 385.929C201.843 380.665 201.329 378.029 200.173 377.794C199.162 377.595 198.566 379.157 194.448 384.16Z" fill="#FFA1A1"/>
<path d="M246.544 330.65C236.35 349.513 222.498 356.132 223.645 357.775C225.207 360.023 253.813 351.229 260.187 329.666C263.628 318.018 259.853 305.16 257.126 304.979C254.526 304.808 254.336 316.239 246.544 330.65Z" fill="white"/>
<path d="M86.2037 277.774C97.2558 268.799 114.827 271.011 130.8 281.774C144.2 267.941 160.932 262.126 173.609 268.618C191 277.53 194.124 306.181 180.58 332.61C173.23 346.958 162.467 357.658 151.388 363.058C147.92 365.171 143.956 366.354 139.703 366.697C135.46 367.248 131.342 366.913 127.514 365.559C115.559 362.579 102.818 354.335 92.6507 341.829C73.9144 318.777 71.0341 290.099 86.2037 277.774Z" fill="url(#paint2_linear_179_5520)"/>
<path d="M135.869 371.662C134.55 375.021 134.108 375.644 134.46 376.276C134.902 377.052 136.726 378.054 145.828 375.319C145.286 374.154 144.546 372.619 143.589 370.858C141.277 366.587 140.094 364.456 139.029 364.582C138.099 364.682 138.018 366.199 135.869 371.662Z" fill="url(#paint3_linear_179_5520)"/>
<path d="M165.827 310.931C162.305 330.056 152.219 339.636 153.664 340.728C155.641 342.227 177.854 326.642 177.321 306.254C177.032 295.247 170.179 285.215 167.768 285.82C165.474 286.407 168.517 296.321 165.827 310.931Z" fill="#FFA1A1"/>
<defs>
<linearGradient id="paint0_linear_179_5520" x1="163.741" y1="181" x2="163.741" y2="289.053" gradientUnits="userSpaceOnUse">
<stop stop-color="#F65F51"/>
<stop offset="1" stop-color="#FB4967"/>
</linearGradient>
<linearGradient id="paint1_linear_179_5520" x1="163.132" y1="286.649" x2="163.132" y2="300.231" gradientUnits="userSpaceOnUse">
<stop stop-color="#F65F51"/>
<stop offset="1" stop-color="#FB4967"/>
</linearGradient>
<linearGradient id="paint2_linear_179_5520" x1="132.738" y1="265.965" x2="132.738" y2="366.95" gradientUnits="userSpaceOnUse">
<stop stop-color="#F65F51"/>
<stop offset="1" stop-color="#FB4967"/>
</linearGradient>
<linearGradient id="paint3_linear_179_5520" x1="140.086" y1="364.577" x2="140.086" y2="377.114" gradientUnits="userSpaceOnUse">
<stop stop-color="#F65F51"/>
<stop offset="1" stop-color="#FB4967"/>
</linearGradient>
</defs>
</svg>
