<svg width="892" height="892" viewBox="0 0 892 892" fill="none" xmlns="http://www.w3.org/2000/svg">
<g clip-path="url(#clip0_179_5245)">
<path d="M754.664 775.182H717.399C709.769 774.903 705.823 774.018 705.57 772.51C705.462 771.823 706.103 771.02 707.512 770.081C712.442 770.307 720.37 770.243 727.765 768.076C729.526 767.562 731.043 767.11 732.912 766.081C737.472 763.579 738.248 760.916 741.86 758.902C743.53 757.972 746.158 756.979 750.122 757.123C751.061 757.611 751.801 758.171 752.388 758.74C757.806 763.959 755.025 773.964 754.664 775.182Z" fill="#FC6454"/>
<path d="M777.724 543.81C777.724 554.113 769.959 562.456 760.387 562.456C750.816 562.456 743.051 554.104 743.051 543.81C743.051 533.507 750.807 525.164 760.387 525.164C769.968 525.164 777.724 533.507 777.724 543.81Z" fill="#8E3B32"/>
<path d="M815.212 548.406C815.212 556.938 808.783 563.855 800.846 563.855C792.91 563.855 786.48 556.938 786.48 548.406C786.48 539.873 792.91 532.956 800.846 532.956C808.783 532.956 815.212 539.873 815.212 548.406Z" fill="#8E3B32"/>
<path d="M847.875 744.917C845.437 745.504 842.999 746.091 840.561 746.678C831.613 731.382 822.222 710.434 818.177 684.528C817.201 678.306 816.624 672.347 816.344 666.704C822.854 665.71 829.364 664.708 835.884 663.715C838.014 669.548 839.17 674.297 839.784 677.115C844.832 700.302 838.963 712.555 844.651 734.777C845.834 739.436 847.161 743.057 847.875 744.917Z" fill="#FC6454"/>
<path d="M811.539 597.952C812.704 611.713 813.95 625.556 815.115 639.326C815.973 649.592 816.821 659.777 817.76 670.044C820.695 668.951 823.81 667.877 827.088 666.857C830.194 665.89 833.192 665.051 836.081 664.31C836.768 659.985 837.147 656.328 837.355 653.574C837.662 649.628 837.68 646.36 837.824 642.666C837.905 640.563 837.905 638.549 837.905 636.364C837.905 629.754 837.589 622.829 836.894 615.524C836.199 608.138 835.178 601.212 833.941 594.765C829.842 591.027 824.244 589.681 819.323 591.343C814.519 592.968 812.171 596.833 811.539 597.952Z" fill="#FC6454"/>
<path d="M815.121 639.325C822.661 640.418 830.282 641.582 837.83 642.666C837.912 640.562 837.912 638.548 837.912 636.363C837.216 636.21 836.512 635.975 835.808 635.74C828.963 636.995 822.038 638.16 815.121 639.325Z" fill="#210B04"/>
<path d="M810.796 639.479C820.845 639.1 830.886 638.721 840.927 638.341C838.796 623.705 836.665 609.068 834.525 594.44C830.119 586.178 820.746 583.234 814.353 586.503C809.893 588.778 807.148 593.952 807.066 599.623C808.312 612.905 809.549 626.188 810.796 639.479Z" fill="#FFA1A1"/>
<path d="M833.519 745.061C825.392 749.124 808.48 756.194 786.177 755.535C760.298 754.776 741.815 744.04 734.203 739.002C735.323 731.896 737.779 721.765 743.549 710.785C751.134 696.356 760.967 687.109 767.269 682.044C760.154 665.727 753.165 648.309 746.519 629.808C742.546 618.765 738.926 607.957 735.603 597.419C737.77 586.999 742.528 584.417 744.027 583.532C748.605 580.859 752.732 581.482 759.739 582.358C771.712 583.866 771.621 578.195 788.931 576.886C792.416 576.624 797.59 576.263 803.739 577.003C810.313 582.195 818.584 580.299 824.923 584.516C828.074 588.904 828.408 594.701 827.839 599.857C827.677 601.311 827.451 602.719 827.189 604.029C823.884 617.185 823.415 640.111 820.995 658.829C819.108 673.457 816.236 683.904 820.995 694.712C821.41 695.669 821.636 696.039 822.494 697.981C824.58 702.667 828.164 711.57 830.665 723.083C832.661 732.257 833.293 739.968 833.519 745.061Z" fill="#FC6454"/>
<path d="M830.811 619.867C830.811 627.326 824.77 633.366 817.312 633.366C809.853 633.366 803.812 627.326 803.812 619.867C803.812 612.409 809.853 606.368 817.312 606.368C824.77 606.368 830.811 612.409 830.811 619.867Z" fill="#FC6454"/>
<path d="M788.858 619.867C788.858 627.326 782.817 633.366 775.359 633.366C767.9 633.366 761.859 627.326 761.859 619.867C761.859 612.409 767.9 606.368 775.359 606.368C782.808 606.368 788.858 612.409 788.858 619.867Z" fill="#FC6454"/>
<path d="M775.354 634.485C770.089 634.485 765.204 631.64 762.604 627.044C762.297 626.494 762.487 625.807 763.028 625.509C763.561 625.184 764.256 625.383 764.563 625.934C766.757 629.817 770.893 632.227 775.345 632.227C781.25 632.227 786.352 628.029 787.48 622.25C787.598 621.645 788.194 621.284 788.799 621.356C789.413 621.482 789.81 622.069 789.693 622.683C788.365 629.528 782.333 634.485 775.354 634.485Z" fill="#210B04"/>
<path d="M832.107 600.01C830.689 599.965 829.272 599.929 827.854 599.883C797.127 598.971 766.399 598.05 735.672 597.129C736.331 593.184 738.001 587.802 742.399 583.838C749.83 577.147 758.499 580.678 765.704 575.693C770.246 572.551 774.725 565.698 774.571 549.454C774.67 544.081 774.77 538.709 774.869 533.336C777.758 536.957 782.345 541.742 789.099 545.616C792.016 547.287 794.752 548.469 797.199 549.336C796.738 554.33 796.766 558.483 797.127 561.941C798.003 570.33 800.883 574.637 803.736 577.021C810.31 582.213 818.581 580.317 824.92 584.533C825.904 585.183 826.834 585.978 827.71 586.971C831.403 591.17 832.044 596.57 832.107 600.01Z" fill="#FC6454"/>
<path d="M797.143 561.943C796.593 562.024 796.033 562.069 795.455 562.069C789.748 562.069 785.125 557.952 785.125 552.877C785.125 549.924 786.687 547.306 789.116 545.617C792.033 547.288 794.769 548.47 797.216 549.337C796.755 554.34 796.782 558.484 797.143 561.943Z" fill="#210B04"/>
<path d="M813.527 535.503C813.374 539.855 811.658 542.97 809.563 546.934C809.175 547.63 804.588 556.036 799.613 557.589C797.906 558.131 796.119 558.212 796.119 558.212C794.954 558.294 793.789 558.131 792.696 557.905C791.297 557.589 780.723 554.637 773.256 546.086C764.001 535.512 756.768 513.191 768.353 500.279C775.504 492.27 786.547 491.565 790.909 491.565C791.378 491.565 791.92 491.565 792.543 491.647C792.543 491.647 794.8 491.8 796.895 492.351C804.597 494.139 808.633 498.572 808.633 498.572C812.525 502.925 813.302 508.839 813.302 513.579C813.383 514.284 813.302 514.979 813.302 515.683V516.153C813.22 517.011 813.148 517.787 813.148 518.482C812.995 520.658 812.679 522.058 812.679 525.173C812.679 530.672 813.609 532.072 813.527 535.503Z" fill="#FC6454"/>
<path d="M759.438 527.052C759.438 531.233 761.939 534.619 765.018 534.619C768.097 534.619 770.598 531.233 770.598 527.052C770.598 522.871 768.097 519.485 765.018 519.485C761.939 519.494 759.438 522.88 759.438 527.052Z" fill="#FC6454"/>
<path d="M766.176 531.801C765.733 531.801 765.309 531.54 765.128 531.097L762.329 524.171C762.094 523.585 762.374 522.934 762.952 522.7C763.521 522.483 764.189 522.745 764.424 523.323L767.223 530.257C767.458 530.835 767.178 531.494 766.6 531.729C766.456 531.783 766.311 531.801 766.176 531.801Z" fill="#210B04"/>
<path d="M764.786 527.739C764.587 527.739 764.379 527.685 764.19 527.568C763.657 527.243 763.494 526.547 763.82 526.015L765.156 523.829C765.481 523.297 766.176 523.125 766.709 523.459C767.242 523.784 767.404 524.48 767.079 525.012L765.743 527.197C765.535 527.55 765.165 527.739 764.786 527.739Z" fill="#210B04"/>
<path d="M788.67 524.252C788.589 525.742 787.099 526.907 785.338 526.853C783.577 526.798 782.223 525.543 782.304 524.054C782.386 522.564 783.875 521.399 785.636 521.453C787.388 521.516 788.751 522.762 788.67 524.252Z" fill="#210B04"/>
<path d="M779.312 524.506C784.604 521.905 787.096 522.185 788.36 523.188C789.57 524.145 789.805 525.906 790.401 525.806C791.033 525.698 791.575 523.648 790.78 522.203C790.229 521.192 789.2 520.804 788.848 520.668C785.173 519.26 779.782 524.073 779.312 524.506Z" fill="#D82E2E"/>
<path d="M812.362 523.267C812.687 524.721 811.558 526.247 809.852 526.671C808.145 527.096 806.502 526.256 806.177 524.802C805.852 523.349 806.981 521.823 808.687 521.398C810.394 520.974 812.046 521.814 812.362 523.267Z" fill="#210B04"/>
<path d="M802.473 525.208C806.861 521.281 809.335 520.874 810.825 521.488C812.252 522.084 812.956 523.719 813.498 523.457C814.076 523.186 814.039 521.064 812.884 519.881C812.08 519.059 810.988 518.96 810.608 518.924C806.708 518.572 802.816 524.658 802.473 525.208Z" fill="#D82E2E"/>
<path d="M778.156 520.288C780.251 519.846 783.186 519.43 786.671 519.584C789.66 519.71 792.161 520.216 794.03 520.731C794.03 520.333 793.994 519.873 793.877 519.367C793.597 518.148 792.992 517.245 792.54 516.694C790.166 516.613 788.179 516.676 786.734 516.749C783.213 516.929 782.238 517.263 781.606 517.534C779.836 518.293 778.743 519.494 778.156 520.288Z" fill="#8E3B32"/>
<path d="M793.875 516.667C794.083 517.037 794.345 517.597 794.534 518.292C794.859 519.511 794.814 520.712 794.688 520.73C794.534 520.748 794.173 519.295 794.074 518.87C793.911 518.238 793.812 517.678 793.442 516.938C793.352 516.757 793.261 516.604 793.207 516.514L793.875 516.667Z" fill="#8E3B32"/>
<path d="M813.285 515.665V516.135C813.204 516.992 813.132 517.769 813.132 518.464C812.744 518.383 812.274 518.464 811.886 518.545C808.933 518.934 806.441 519.71 804.653 520.333C804.653 519.945 804.572 519.476 804.653 519.015C804.888 517.769 805.358 516.758 805.746 516.216C808.157 515.9 810.098 515.746 811.579 515.746C812.274 515.665 812.825 515.665 813.285 515.665Z" fill="#8E3B32"/>
<path d="M804.447 516.288C804.276 516.676 804.059 517.254 803.932 517.967C803.716 519.213 803.869 520.405 804.005 520.405C804.158 520.414 804.384 518.933 804.447 518.5C804.547 517.85 804.592 517.29 804.899 516.523C804.971 516.333 805.043 516.179 805.097 516.08L804.447 516.288Z" fill="#8E3B32"/>
<path d="M798.59 534.771C799.403 534.311 800.206 534.211 801.01 534.193C801.822 534.211 802.626 534.311 803.439 534.771C802.626 535.232 801.822 535.331 801.01 535.349C800.206 535.331 799.403 535.232 798.59 534.771Z" fill="#210B04"/>
<path d="M805.358 542.231C805.241 543.215 802.225 543.82 799.787 543.811C796.672 543.802 793.638 542.781 793.692 542.321C793.71 542.158 794.089 542.213 794.803 541.96C797.105 541.138 797.539 538.998 798.848 539.106C799.083 539.124 799.715 539.251 800.347 539.197C800.618 539.179 800.898 539.133 800.898 539.133C801.918 538.98 801.963 538.799 802.361 538.863C803.128 539.124 804.202 540.677 804.202 540.677C805.051 541.942 805.394 541.896 805.358 542.231Z" fill="#D82E2E"/>
<path d="M787.324 581.581C788.137 582.918 789.446 583.559 790.701 583.225C792.48 582.746 793.157 580.597 793.202 580.435L787.324 581.581Z" fill="#210B04"/>
<path d="M794.457 585.6C794.827 585.862 795.405 586.241 796.127 586.584C798.556 587.731 800.588 587.505 802.006 587.324C807.153 586.665 811.902 585.573 813.5 585.193C809.816 585.383 806.123 585.573 802.439 585.771L794.457 585.6Z" fill="#210B04"/>
<path d="M787.322 585.6C786.754 585.862 785.878 586.241 784.785 586.584C781.101 587.731 778.004 587.505 775.846 587.324C768.035 586.665 760.812 585.573 758.383 585.193C763.981 585.383 769.588 585.573 775.187 585.771L787.322 585.6Z" fill="#210B04"/>
<path d="M881.362 730.876C878.427 739.246 875.493 747.608 872.558 755.978C854.003 759.445 829.406 761.82 801.017 758.434C788.611 756.953 777.378 754.606 767.473 751.924C774.362 737.106 781.261 722.298 788.15 707.48C806.498 709.648 827.347 713.467 849.831 720.068C861.163 723.39 871.682 727.065 881.362 730.876Z" fill="#FC6454"/>
<path d="M844.51 747.87C840.618 747.355 836.735 746.84 832.844 746.326V724.212C837.656 722.587 842.478 720.953 847.3 719.318C846.37 728.845 845.44 738.353 844.51 747.87Z" fill="#210B04"/>
<path d="M835.759 755.283H758.476C748.543 747.499 744.038 734.885 747.053 723.49C750.738 709.566 765.022 699.76 780.833 701.376C803.19 706.722 825.547 712.067 847.904 717.413C843.859 730.036 839.814 742.659 835.759 755.283Z" fill="#6AA7AD"/>
<path d="M879.171 771.438C871.478 772.25 864.516 766.481 862.972 759.32C861.798 753.884 863.83 748.087 868.236 744.132C865.726 741.794 865.618 739.997 865.654 739.284C865.853 735.41 872.002 731.473 881.356 730.868C882.142 731.455 893.862 740.512 892.336 753.83C891.686 759.528 888.129 770.499 879.171 771.438Z" fill="#FC6454"/>
<path d="M751.684 773.877C750.637 770.662 749.598 767.448 748.551 764.233C754.23 762.626 763.215 759.971 774.095 756.224C807.703 744.639 817.888 736.91 836.146 736.693C843.74 736.603 855.09 737.777 869.104 744.477C871.614 753.479 874.124 762.472 876.634 771.475C854.061 770.409 829.934 770.084 804.425 770.843C786.05 771.385 768.452 772.441 751.684 773.877Z" fill="#FC6454"/>
<path d="M862.641 741.061C862.46 741.043 845.367 738.361 845.367 738.361C844.753 738.271 844.329 737.693 844.428 737.07C844.528 736.465 845.079 735.959 845.72 736.131L862.822 738.812C863.436 738.903 863.86 739.481 863.761 740.104C863.67 740.663 863.192 741.061 862.641 741.061Z" fill="#210B04"/>
<path d="M865.235 742.894C865.045 742.894 864.837 742.839 864.657 742.731L861.352 740.79C860.81 740.474 860.639 739.787 860.955 739.246C861.271 738.695 861.957 738.532 862.499 738.848L865.804 740.799C866.345 741.115 866.517 741.801 866.201 742.343C865.993 742.704 865.614 742.894 865.235 742.894Z" fill="#210B04"/>
<path d="M867.823 740.103C864.888 748.474 861.954 756.835 859.019 765.205C840.463 768.673 815.867 771.047 787.478 767.67C775.072 766.19 763.839 763.842 753.934 761.16C760.823 746.343 767.722 731.525 774.611 716.717C792.959 718.884 813.808 722.703 836.292 729.304C847.615 732.627 858.134 736.293 867.823 740.103Z" fill="#FC6454"/>
<path d="M830.975 757.106C827.083 756.591 823.2 756.077 819.309 755.562V733.449C824.13 731.823 828.943 730.189 833.765 728.555C832.835 738.081 831.905 747.589 830.975 757.106Z" fill="#210B04"/>
<path d="M822.224 764.519H744.941C735.008 756.735 730.502 744.121 733.518 732.726C737.202 718.802 751.487 708.996 767.298 710.613C789.655 715.958 812.012 721.304 834.369 726.649C830.324 739.272 826.27 751.896 822.224 764.519Z" fill="#6AA7AD"/>
<path d="M865.64 780.674C857.947 781.487 850.985 775.717 849.441 768.557C848.267 763.121 850.299 757.324 854.705 753.369C852.195 751.03 852.087 749.233 852.123 748.52C852.331 744.646 858.471 740.709 867.825 740.104C868.611 740.691 880.331 749.757 878.805 763.067C878.164 768.764 874.606 779.735 865.64 780.674Z" fill="#FC6454"/>
<path d="M738.157 783.113C737.109 779.898 736.071 776.684 735.023 773.47C740.703 771.862 749.687 769.208 760.568 765.46C794.176 753.875 804.361 746.146 822.619 745.929C830.213 745.839 841.563 747.013 855.577 753.713C858.087 762.715 860.597 771.709 863.107 780.711C840.533 779.646 816.407 779.321 790.898 780.079C772.523 780.621 754.915 781.677 738.157 783.113Z" fill="#FC6454"/>
<path d="M849.102 750.297C848.93 750.279 831.829 747.597 831.829 747.597C831.215 747.506 830.79 746.929 830.889 746.306C830.989 745.692 831.558 745.204 832.181 745.367L849.283 748.048C849.897 748.139 850.321 748.717 850.222 749.34C850.131 749.899 849.644 750.297 849.102 750.297Z" fill="#210B04"/>
<path d="M849.107 750.298C848.728 750.298 848.358 750.108 848.141 749.747C847.816 749.205 847.987 748.519 848.529 748.194L851.852 746.19C852.376 745.874 853.08 746.036 853.396 746.578C853.721 747.12 853.549 747.806 853.017 748.131L849.694 750.135C849.504 750.244 849.306 750.298 849.107 750.298Z" fill="#210B04"/>
<path d="M851.69 752.14C851.491 752.14 851.292 752.086 851.112 751.978L847.807 750.018C847.274 749.702 847.094 749.016 847.41 748.474C847.726 747.914 848.421 747.761 848.954 748.077L852.259 750.036C852.791 750.352 852.972 751.039 852.656 751.581C852.448 751.942 852.078 752.14 851.69 752.14Z" fill="#210B04"/>
<path d="M876.641 772.602C876.433 772.602 876.225 772.548 876.045 772.421C875.512 772.096 875.358 771.401 875.692 770.868C877.309 768.304 879.936 762.976 879.431 756.051C879.051 750.904 877.101 746.931 875.449 744.43L845.019 733.161C844.441 732.953 844.134 732.294 844.351 731.716C844.559 731.129 845.218 730.849 845.805 731.048L876.577 742.443C876.794 742.524 876.984 742.669 877.119 742.867C878.961 745.576 881.255 750.037 881.679 755.897C882.23 763.455 879.367 769.27 877.607 772.069C877.381 772.412 877.011 772.602 876.641 772.602Z" fill="#210B04"/>
<path d="M831.448 715.633C798.527 722.974 765.605 730.324 732.684 737.674C732.846 731.191 734.002 720.139 739.943 708.121C748.431 690.965 761.668 682.007 767.501 678.54C784.468 679.461 801.443 680.373 818.41 681.294C822.762 692.734 827.105 704.184 831.448 715.633Z" fill="#6AA7AD"/>
<path d="M833.761 729.693C833.445 729.648 786.175 715.823 786.175 715.823C785.579 715.643 785.236 715.02 785.407 714.424C785.588 713.828 786.202 713.494 786.807 713.656L834.068 727.48C834.664 727.661 835.007 728.284 834.835 728.88C834.7 729.377 834.248 729.693 833.761 729.693Z" fill="#C1DCE0"/>
<path d="M794.2 717.086C793.189 716.761 792.918 716.102 793.162 715.524L807.094 681.98C807.329 681.402 807.998 681.113 808.566 681.375C809.144 681.609 809.415 682.277 809.171 682.846L795.239 716.391C795.067 716.825 794.643 717.086 794.2 717.086Z" fill="#C1DCE0"/>
<path d="M798.396 688.726C798.315 688.726 765.429 686.297 765.429 686.297C764.806 686.243 764.337 685.71 764.391 685.087C764.436 684.464 764.924 684.067 765.601 684.04L798.486 686.469C799.109 686.523 799.579 687.056 799.525 687.679C799.48 688.284 798.983 688.726 798.396 688.726Z" fill="#C1DCE0"/>
<path d="M810.13 690.35C809.597 690.35 809.128 689.98 809.02 689.438C808.893 688.833 809.29 688.229 809.905 688.12L818.762 686.341C819.404 686.197 819.972 686.612 820.09 687.226C820.216 687.831 819.819 688.436 819.205 688.545L810.356 690.323C810.284 690.341 810.202 690.35 810.13 690.35Z" fill="#C1DCE0"/>
<path d="M826.591 743.985C826.464 743.976 741.09 734.739 741.09 734.739C740.765 734.702 740.476 734.531 740.296 734.269C740.106 733.998 740.043 733.673 740.115 733.348L746.914 705.32C747.05 704.788 747.537 704.453 748.079 704.453C752.413 704.751 756.693 703.894 760.504 702.124C767.33 698.946 770.915 693.564 772.45 690.647C772.748 690.088 773.434 689.898 773.976 690.169C774.527 690.449 774.743 691.135 774.454 691.686C772.784 694.864 768.883 700.715 761.461 704.174C757.596 705.98 753.298 706.964 748.901 706.747L742.625 732.617L826.726 741.727C827.34 741.791 827.792 742.341 827.728 742.973C827.647 743.551 827.16 743.985 826.591 743.985Z" fill="#C1DCE0"/>
<path d="M807.321 619C806.879 619 806.455 618.738 806.274 618.296L802.771 609.618C802.536 609.041 802.816 608.381 803.394 608.147C803.972 607.912 804.631 608.192 804.865 608.77L808.369 617.447C808.604 618.025 808.324 618.684 807.746 618.919C807.601 618.973 807.466 619 807.321 619Z" fill="#210B04"/>
<path d="M818.574 683.876C800.001 683.099 781.427 682.323 762.853 681.546C753.237 651.703 743.62 621.852 734.004 592.009C735.539 589.454 737.859 586.348 741.291 583.504C750.808 575.63 761.986 575.558 765.697 575.693C789.102 606.457 803.486 620.398 808.85 617.527C813.202 615.197 811.604 601.779 804.064 577.282C807.658 577.102 823.459 576.668 830.719 586.908C833.879 591.368 836.236 599.007 833.879 600.885C832.561 601.942 829.997 600.994 827.848 599.883C829.021 604.073 830.195 608.262 831.369 612.461C831.884 614.556 832.281 617.184 832.182 620.209C831.911 628.209 828.29 634.051 826.349 636.733C823.757 652.444 821.166 668.164 818.574 683.876Z" fill="#FFA1A1"/>
<path d="M756.995 595.531C755.83 609.292 754.584 623.135 753.419 636.905C752.562 647.171 751.713 657.357 750.774 667.623C744.552 665.528 738.331 663.343 732.11 661.248C731.333 654.792 730.864 647.794 730.71 640.255C730.629 638.151 730.629 636.137 730.629 633.952C730.629 627.342 730.945 620.417 731.64 613.112C732.335 605.726 733.347 598.8 734.593 592.353C738.71 588.624 744.309 587.297 749.212 588.931C754.042 590.556 756.372 594.448 756.995 595.531Z" fill="#FC6454"/>
<path d="M814.559 620.11C816.067 622.115 817.575 624.119 819.083 626.124C808.609 640.418 793.141 657.375 770.983 671.407C765.664 674.775 760.427 677.683 755.371 680.184C748.662 682.459 741.357 680.798 736.689 675.94C731.009 670.035 731.975 662.233 732.12 661.231C736.364 661.971 740.607 662.712 744.86 663.452C749.366 659.172 753.258 656.219 755.596 654.54C774.856 640.68 788.437 641.185 806.55 627.117C810.342 624.156 813.132 621.501 814.559 620.11Z" fill="#FC6454"/>
<path d="M753.419 636.904C745.88 637.997 738.259 639.161 730.71 640.245C730.629 638.141 730.629 636.128 730.629 633.942C731.333 633.789 732.028 633.554 732.733 633.319C739.577 634.574 746.494 635.739 753.419 636.904Z" fill="#210B04"/>
<path d="M757.741 637.059C747.7 636.679 737.65 636.3 727.609 635.921C729.74 621.284 731.871 606.647 734.011 592.02C738.418 583.767 747.79 580.814 754.183 584.083C758.644 586.358 761.389 591.532 761.47 597.202C760.224 610.485 758.978 623.767 757.741 637.059Z" fill="#FFA1A1"/>
<path d="M765.516 521.056C767.954 522.971 768.658 525.4 769.083 525.264C769.642 525.084 767.421 521.084 768.595 517.652C769.164 516.009 770.509 514.483 783.178 509.553C787.828 507.738 789.968 508.361 792.902 506.311C795.693 504.352 797.318 501.815 798.248 499.991C799.629 501.824 801.887 504.496 805.21 507.115C808.343 509.589 811.557 512.126 813.246 511.169C815.35 509.986 814.808 503.566 812.334 498.853C808.009 490.618 798.203 488.415 795.647 487.837C793.544 487.367 781.056 484.55 771.024 492.857C764.107 498.582 762.428 506.221 762.112 507.765C761.091 512.84 761.832 517.065 762.428 519.404C763.249 519.684 764.378 520.163 765.516 521.056Z" fill="#8E3B32"/>
<path d="M756.571 556.533C751.722 556.533 747.171 554.98 743.659 552.064C740.499 549.427 738.666 546.05 738.629 542.79C738.566 537.156 743.876 531.386 751.244 529.057C751.858 528.885 752.481 529.21 752.661 529.788C752.851 530.384 752.517 531.025 751.921 531.206C745.573 533.21 740.824 538.167 740.878 542.754C740.905 545.31 742.485 548.145 745.095 550.321C749.032 553.599 754.503 554.908 760.129 553.96C760.734 553.879 761.33 554.267 761.429 554.881C761.537 555.495 761.122 556.082 760.508 556.19C759.199 556.416 757.871 556.533 756.571 556.533Z" fill="#8E3B32"/>
<path d="M779.348 515.142C775.709 515.142 771.889 514.212 768.35 512.325C767.799 512.036 767.591 511.35 767.88 510.799C768.169 510.239 768.864 510.049 769.406 510.329C777.054 514.411 786.02 513.526 790.761 508.261C794.021 504.632 794.337 499.972 794.237 497.525C794.21 496.911 794.698 496.379 795.321 496.352C795.971 496.352 796.468 496.83 796.495 497.435C796.612 500.234 796.242 505.553 792.44 509.778C789.262 513.309 784.476 515.142 779.348 515.142Z" fill="#8E3B32"/>
<path d="M809.966 531.73C815.447 531.73 819.89 529.272 819.89 526.24C819.89 523.208 815.447 520.75 809.966 520.75C804.486 520.75 800.043 523.208 800.043 526.24C800.043 529.272 804.486 531.73 809.966 531.73Z" fill="#210B04"/>
<path d="M788.08 532.541C793.56 532.541 798.003 530.083 798.003 527.051C798.003 524.019 793.56 521.562 788.08 521.562C782.599 521.562 778.156 524.019 778.156 527.051C778.156 530.083 782.599 532.541 788.08 532.541Z" fill="#210B04"/>
<path d="M802.482 527.368H795.863C795.24 527.368 794.734 526.862 794.734 526.239C794.734 525.616 795.24 525.11 795.863 525.11H802.482C803.105 525.11 803.61 525.616 803.61 526.239C803.61 526.871 803.105 527.368 802.482 527.368Z" fill="#210B04"/>
<path d="M777.928 526C777.757 526 777.569 525.968 777.407 525.897L764.547 520.506C764.034 520.287 763.847 519.799 764.137 519.414C764.427 519.023 765.068 518.888 765.597 519.1L778.457 524.492C778.969 524.71 779.149 525.198 778.867 525.583C778.662 525.852 778.303 526 777.928 526Z" fill="#210B04"/>
<path d="M738.147 783.11C726.373 783.11 714.589 783.11 702.815 783.11C695.176 782.83 691.239 781.946 690.986 780.438C690.869 779.751 691.519 778.948 692.928 778.009C697.849 778.225 705.786 778.171 713.181 776.004C714.942 775.489 716.458 775.038 718.328 774.009C722.896 771.507 723.664 768.844 727.276 766.83C728.946 765.9 731.574 764.907 735.538 765.051C736.513 765.521 737.253 766.099 737.804 766.667C742.861 771.896 738.373 782.587 738.147 783.11Z" fill="#FC6454"/>
<path d="M740.193 770.435C739.66 770.435 739.182 770.055 739.083 769.513C738.965 768.899 739.372 768.304 739.986 768.195L765.304 763.455C765.927 763.364 766.505 763.744 766.623 764.358C766.74 764.972 766.334 765.568 765.72 765.676L740.401 770.417C740.329 770.426 740.265 770.435 740.193 770.435Z" fill="#210B04"/>
<path d="M740.195 770.432C739.807 770.432 739.437 770.243 739.229 769.872L736.99 766.116C736.674 765.583 736.845 764.888 737.387 764.572C737.911 764.247 738.615 764.419 738.931 764.969L741.162 768.726C741.478 769.258 741.306 769.954 740.773 770.27C740.593 770.378 740.394 770.432 740.195 770.432Z" fill="#210B04"/>
<path d="M832.187 646.811H829.46C828.837 646.811 828.331 646.305 828.331 645.682V617.51C826.119 617.32 821.586 616.481 817.541 612.914C813.288 609.167 811.933 604.607 811.5 602.214L812.8 578.927C812.836 578.331 813.333 577.861 813.929 577.861H847.546C848.142 577.861 848.638 578.322 848.674 578.918L850.155 601.844C849.677 604.544 848.259 609.158 843.934 612.923C840.042 616.291 835.798 617.248 833.315 617.492V645.682C833.315 646.305 832.81 646.811 832.187 646.811ZM830.588 644.553H831.058V616.417C831.058 615.794 831.564 615.289 832.187 615.289H832.692C834.706 615.144 838.769 614.422 842.453 611.216C846.182 607.975 847.464 604.011 847.898 601.853L846.489 580.128H815.003L813.739 602.088C814.101 603.921 815.292 607.939 819.031 611.234C822.859 614.602 827.175 615.198 828.855 615.298H829.451C830.074 615.298 830.579 615.803 830.579 616.426V644.553H830.588Z" fill="#C1DCE0"/>
<path d="M830.818 649.186C817.184 649.186 817.184 647.796 817.184 646.866C817.184 645.936 817.184 644.545 830.818 644.545C844.453 644.545 844.453 645.936 844.453 646.866C844.453 647.796 844.453 649.186 830.818 649.186ZM826.836 646.874C829.247 646.947 832.389 646.947 834.8 646.874C832.371 646.802 829.274 646.802 826.836 646.874Z" fill="#C1DCE0"/>
<path d="M846.908 604.039C847.937 606.684 839.81 614.802 830.546 614.856C821.553 614.901 813.471 607.334 814.401 604.671C814.79 603.569 816.614 603.605 830.808 603.352C844.74 603.09 846.492 602.982 846.908 604.039Z" fill="url(#paint0_linear_179_5245)"/>
<path d="M835.831 626.195C835.587 633.654 835.461 637.383 834.197 638.593C829.591 642.972 810.909 630.177 806.539 627.116C807.74 625.337 811.984 619.513 820.12 616.967C827.497 614.665 833.7 616.416 835.831 617.13C835.903 619.26 835.957 622.403 835.831 626.195Z" fill="#FC6454"/>
<path d="M664.409 810.788H633.953C598.34 810.788 569.473 781.921 569.473 746.308V711.852H728.898V746.308C728.898 781.921 700.022 810.788 664.409 810.788Z" fill="#FFC392"/>
<path d="M625.971 735.201C624.77 730.677 614.955 690.406 639.894 667.227C643.488 663.877 654.432 653.674 666.342 656.419C683.29 660.31 693.024 688.23 690.568 725.91L681.556 725.332C683.904 689.394 674.423 667.543 664.319 665.222C659.533 664.148 653.384 667.019 646.052 673.845C624.607 693.774 634.278 731.291 634.702 732.88L625.971 735.201Z" fill="#FFC392"/>
<path d="M647.146 713.9L572.67 704.274C569.826 703.904 567.794 701.277 568.165 698.423C568.535 695.57 571.162 693.548 574.016 693.918L648.491 703.543C651.345 703.913 653.367 706.541 653.006 709.394C652.627 712.239 649.99 714.261 647.146 713.9Z" fill="#FFC392"/>
<path d="M723.212 686.369L653.567 714.46C650.903 715.534 647.842 714.234 646.768 711.57C645.693 708.906 646.994 705.845 649.657 704.771L719.302 676.68C721.966 675.606 725.027 676.906 726.101 679.57C727.176 682.233 725.876 685.294 723.212 686.369Z" fill="#FFC392"/>
<path d="M728.893 723.906H574.777C574.154 723.906 573.648 723.4 573.648 722.777C573.648 722.154 574.154 721.648 574.777 721.648H728.893C729.516 721.648 730.022 722.154 730.022 722.777C730.022 723.4 729.516 723.906 728.893 723.906Z" fill="#210B04"/>
<path d="M659.984 712.981H623.207C622.584 712.981 622.078 712.475 622.078 711.852C622.078 711.229 622.584 710.724 623.207 710.724H659.984C660.607 710.724 661.113 711.229 661.113 711.852C661.113 712.475 660.607 712.981 659.984 712.981Z" fill="#210B04"/>
<path d="M646.13 712.347C645.552 712.347 645.055 711.896 645.01 711.309C644.938 710.424 644.983 709.069 645.615 707.598C646.301 705.999 647.538 704.654 649.118 703.787C649.66 703.48 650.346 703.688 650.644 704.23C650.942 704.78 650.744 705.467 650.202 705.765C649.543 706.126 648.351 706.966 647.692 708.492C647.249 709.53 647.213 710.505 647.267 711.137C647.322 711.751 646.861 712.302 646.238 712.356C646.193 712.347 646.166 712.347 646.13 712.347Z" fill="#210B04"/>
<path d="M716.691 749.432C700.817 742.948 684.934 736.474 669.061 729.991C665.169 723.427 661.286 716.871 657.395 710.307C681.223 710.821 705.052 711.336 728.89 711.851C724.827 724.375 720.755 736.899 716.691 749.432Z" fill="url(#paint1_linear_179_5245)"/>
<path d="M625.412 711.083C605.944 720.89 586.468 730.705 567 740.511C569.591 730.443 572.183 720.366 574.774 710.298C591.651 710.56 608.527 710.831 625.412 711.083Z" fill="url(#paint2_linear_179_5245)"/>
<path d="M698.702 725.938C698.702 727.283 697.618 728.367 696.273 728.367C694.927 728.367 693.844 727.274 693.844 725.938C693.844 724.592 694.927 723.509 696.273 723.509C697.618 723.509 698.702 724.592 698.702 725.938Z" fill="white"/>
<path d="M676.835 717.107C676.835 718.452 675.751 719.536 674.406 719.536C673.06 719.536 671.977 718.452 671.977 717.107C671.977 715.761 673.06 714.678 674.406 714.678C675.751 714.678 676.835 715.77 676.835 717.107Z" fill="white"/>
<path d="M590.323 718.362C590.323 719.707 589.239 720.791 587.894 720.791C586.548 720.791 585.465 719.707 585.465 718.362C585.465 717.016 586.548 715.933 587.894 715.933C589.23 715.933 590.323 717.016 590.323 718.362Z" fill="white"/>
<path d="M577.924 728.446C577.924 729.792 576.841 730.875 575.495 730.875C574.15 730.875 573.066 729.792 573.066 728.446C573.066 727.101 574.15 726.018 575.495 726.018C576.841 726.018 577.924 727.11 577.924 728.446Z" fill="white"/>
<path d="M711.764 716.673C711.764 718.018 710.681 719.102 709.335 719.102C707.99 719.102 706.906 718.018 706.906 716.673C706.906 715.328 707.99 714.244 709.335 714.244C710.681 714.244 711.764 715.328 711.764 716.673Z" fill="white"/>
<path d="M709.335 737.539C710.677 737.539 711.764 736.452 711.764 735.111C711.764 733.769 710.677 732.682 709.335 732.682C707.994 732.682 706.906 733.769 706.906 735.111C706.906 736.452 707.994 737.539 709.335 737.539Z" fill="white"/>
</g>
<defs>
<linearGradient id="paint0_linear_179_5245" x1="830.662" y1="603.176" x2="830.662" y2="614.856" gradientUnits="userSpaceOnUse">
<stop stop-color="#F65F51"/>
<stop offset="1" stop-color="#FB4967"/>
</linearGradient>
<linearGradient id="paint1_linear_179_5245" x1="693.142" y1="710.307" x2="693.142" y2="749.432" gradientUnits="userSpaceOnUse">
<stop stop-color="#F65F51"/>
<stop offset="1" stop-color="#FB4967"/>
</linearGradient>
<linearGradient id="paint2_linear_179_5245" x1="596.206" y1="710.298" x2="596.206" y2="740.511" gradientUnits="userSpaceOnUse">
<stop stop-color="#F65F51"/>
<stop offset="1" stop-color="#FB4967"/>
</linearGradient>
<clipPath id="clip0_179_5245">
<rect width="892" height="892" fill="white"/>
</clipPath>
</defs>
</svg>
