<svg width="892" height="892" viewBox="0 0 892 892" fill="none" xmlns="http://www.w3.org/2000/svg">
<path d="M10 763.308C30.9575 763.371 51.915 763.425 72.8725 763.488C73.4865 761.132 73.9651 757.61 72.5204 753.827C71.9786 752.4 71.3556 751.452 71.0305 750.937C69.3691 748.283 67.4097 743.804 66.3532 735.894C62.5518 735.461 58.7504 735.027 54.958 734.585C40.565 753.953 32.4203 757.836 27.5986 757.547C24.1945 757.348 20.9257 759.236 17.5126 759.263C15.3274 759.281 12.6276 759.073 11.0654 760.816C10.3521 761.628 10.0993 762.595 10 763.308Z" fill="#FC6454"/>
<path d="M106.259 614.961C91.9295 601.164 77.4913 593.471 72.1639 597.318C66.4392 601.435 69.7531 619.927 82.7556 641.725C104.39 668.497 126.034 695.27 147.669 722.051C166.649 744.065 193.936 744.074 203.462 733.239C211.164 724.471 209.837 705.681 198.144 689.735C191.597 680.299 183.272 669.933 172.78 659.576C148.951 636.054 124.066 622.609 106.259 614.961Z" fill="#FC6454"/>
<path d="M51.9273 744.382C57.2456 744.472 62.564 744.563 67.8824 744.653C74.1399 726.016 78.167 709.961 80.8036 697.799C89.49 657.735 86.0227 646.321 84.0995 641.328C82.2574 636.551 79.7111 632.804 77.8691 624.958C75.1783 613.49 76.1174 603.368 77.3906 596.46C74.8442 596.208 65.7063 595.594 57.6881 601.688C49.0378 608.262 45.1551 620.027 47.7286 631.721C48.9927 638.321 50.1123 645.148 51.0514 652.191C55.6113 686.205 54.9702 717.339 51.9273 744.382Z" fill="#FC6454"/>
<path d="M144.851 722.215C126.711 700.345 108.562 678.476 90.4123 656.597C87.8208 676.688 85.2294 696.778 82.638 716.869C71.6219 718.81 60.6059 720.761 49.5899 722.702C48.7592 692.95 46.6463 669.708 44.7321 653.202C43.3686 641.5 41.4904 627.892 48.1362 613.102C50.6915 607.404 56.1724 595.205 68.0643 591.955C79.4505 588.849 146.531 633.644 168.671 646.881C160.734 671.992 152.788 697.103 144.851 722.215Z" fill="#210B04"/>
<path d="M142.719 550.872C143.685 555.631 144.651 560.398 145.635 565.175C147.179 572.805 148.732 580.435 150.277 588.074L184.146 581.681C179.044 566.096 173.943 550.511 168.841 534.926C164.724 538.285 159.721 541.888 153.789 545.301C149.906 547.531 146.177 549.364 142.719 550.872Z" fill="#FC6454"/>
<path d="M142.719 550.87C143.685 555.629 144.651 560.397 145.635 565.173C151.956 563.81 155.631 555.06 153.834 545.507C150.105 547.132 146.412 549.001 142.719 550.87Z" fill="#210B04"/>
<path d="M203.348 708.951C198.526 714.702 193.623 720.463 188.801 726.215C179.004 737.953 169.207 749.62 159.329 761.286C156.295 747.443 153.261 733.601 150.227 719.759C147.663 707.786 145.089 695.885 142.525 683.912C139.491 669.988 136.538 655.992 133.586 641.997C133.116 641.292 132.728 640.597 132.421 639.893C131.175 628.615 130.633 618.583 134.127 606.529C136.62 598.05 140.43 591.133 144.078 585.761C146.796 582.727 149.207 580.397 150.841 578.844C151.925 577.833 152.71 577.21 153.017 576.903C160.331 574.104 167.555 571.377 174.869 568.659C175.88 568.271 176.891 567.882 177.903 567.494C180.313 569.282 183.501 572.081 186.842 575.892C186.842 575.892 193.217 583.359 197.497 593.626C205.659 613.454 201.388 639.505 200.765 642.773C201.632 664.859 202.49 686.946 203.348 708.951Z" fill="#FC6454"/>
<path d="M166.881 713.519C146.555 716.391 132 732.337 134.365 749.132C136.74 765.927 155.142 777.223 175.468 774.351C195.793 771.48 210.349 755.543 207.983 738.739C205.608 721.935 187.206 710.648 166.881 713.519Z" fill="#FC6454"/>
<path d="M58.5035 746.532C39.3067 751.743 25.293 760.176 25.8438 766.723C26.4398 773.748 44.0112 780.402 69.3932 780.447C103.48 775.635 137.566 770.822 171.652 766.009C171.056 746.036 170.451 726.072 169.856 706.107C158.442 706.884 145.268 708.69 130.956 712.374C98.5314 720.726 74.2239 735.182 58.5035 746.532Z" fill="#FC6454"/>
<path d="M197.735 711.695C184.832 695.731 163.675 691.433 150.483 702.088C137.291 712.752 137.056 734.341 149.96 750.305C162.863 766.269 184.019 770.568 197.211 759.913C210.403 749.249 210.638 727.668 197.735 711.695Z" fill="#FC6454"/>
<path d="M175.968 512.053C175.887 515.475 175.111 515.863 173.711 523.872C173.169 526.906 172.853 529.164 172.618 530.951C172.149 531.882 171.761 532.351 171.688 532.505C170.596 534.139 169.431 535.692 168.348 537.092C159.95 547.665 151.471 551.792 146.65 553.579C140.275 555.99 132.889 556.92 131.408 554.202C130.396 552.415 131.408 547.277 130.478 546.889C130.324 546.807 130.089 546.807 129.701 546.582C129.62 546.5 129.232 546.265 129.159 545.958C129.078 545.489 129.629 544.947 130.089 544.559C129.078 544.875 127.832 543.864 127.679 543.701C127.525 543.62 126.667 542.843 126.821 542.383C126.974 542.067 127.516 542.067 127.597 541.688C127.597 541.534 127.516 541.299 127.363 541.146C126.974 540.523 126.974 539.665 127.056 538.112C127.056 536.794 126.74 533.597 125.656 526.057C125.114 524.965 124.645 523.881 124.103 522.789C124.022 522.708 123.949 522.473 123.868 522.247C123.787 521.931 123.868 521.624 123.868 521.552C123.949 521.398 124.022 517.353 124.338 508.414C124.419 507.321 124.572 506.084 125.033 504.757C127.913 496.666 142.379 487.881 156.293 491.456C163.056 493.163 170.524 498.066 174.262 506.463C175.111 508.396 175.661 510.265 175.968 512.053Z" fill="#FC6454"/>
<path d="M121.838 536.18C122.064 537.399 123.491 538.076 124.024 538.329C125.477 539.015 126.859 538.834 127.41 538.726C127.735 538.392 128.249 537.742 128.231 536.92C128.213 536.243 127.762 535.954 127.491 535.159C127.319 534.654 127.193 533.877 127.491 532.766C126.904 530.238 126.308 527.71 125.721 525.182C125.17 526.852 124.728 528.216 124.439 529.146C123.473 532.243 123.518 532.306 123.157 533.082C122.299 534.897 121.676 535.286 121.838 536.18Z" fill="#FC6454"/>
<path d="M128.818 525.064C128.403 525.037 128.105 524.875 127.915 524.613L126.516 522.744C126.137 522.247 126.236 521.543 126.733 521.164C127.238 520.775 127.943 520.875 128.313 521.38L129.017 522.319C130.191 521.48 132.241 520.351 134.922 520.694C136.62 520.875 138.236 521.597 139.582 522.771C140.051 523.177 140.096 523.89 139.681 524.36C139.275 524.829 138.561 524.893 138.092 524.468C137.396 523.863 136.25 523.105 134.679 522.933C131.907 522.671 129.974 524.387 129.613 524.739C129.396 524.947 129.107 525.064 128.818 525.064Z" fill="#210B04"/>
<path d="M128.977 524.838C129.239 526.246 130.503 527.185 131.785 526.941C133.067 526.698 133.898 525.361 133.636 523.962C133.374 522.553 132.11 521.614 130.828 521.858C129.537 522.102 128.706 523.438 128.977 524.838Z" fill="#210B04"/>
<path d="M139.943 517.769C139.943 517.769 138.787 517.318 137.64 517.173C135.771 516.939 131.762 517.2 126.597 518.112C126.362 517.742 125.793 516.74 125.838 515.349C125.875 514.166 126.344 513.318 126.579 512.938C129.974 513.3 132.484 513.309 134.254 513.218C134.913 513.182 136.891 513.074 139.175 513.832C140.268 514.194 140.737 514.564 140.954 514.744C142.525 516.045 142.678 518.121 142.706 518.826C142.01 518.51 141.08 518.13 139.943 517.769Z" fill="#210B04"/>
<path d="M128.084 539.954C127.793 540.036 127.563 540.148 127.4 540.242C127.166 540.382 127.093 540.754 127.238 541.07C127.379 541.387 127.668 541.529 127.923 541.405C128.179 541.242 128.888 540.927 129.797 541.241C130.739 541.558 131.348 542.366 131.562 542.7C131.748 542.989 132.068 543.069 132.263 542.86C132.466 542.665 132.476 542.268 132.288 541.986C131.927 541.432 131.137 540.435 129.914 540.022C129.184 539.774 128.558 539.822 128.084 539.954Z" fill="#210B04"/>
<path d="M56.6241 685.997H53.8972C53.2742 685.997 52.7685 685.492 52.7685 684.869V656.697C50.2132 656.471 45.8881 655.541 41.9783 652.091C37.7344 648.353 36.3709 643.793 35.9375 641.401L37.2468 618.113C37.2829 617.517 37.7796 617.048 38.3755 617.048H71.9834C72.5793 617.048 73.0759 617.508 73.103 618.104L74.5929 641.021C74.1053 643.73 72.6695 648.344 68.3715 652.1C65.4369 654.656 61.6807 656.272 57.7528 656.678V684.869C57.7528 685.492 57.2381 685.997 56.6241 685.997ZM55.0169 683.74H55.4863V655.604C55.4863 654.981 55.992 654.475 56.615 654.475H57.1117C59.1434 654.313 63.2247 653.572 66.8817 650.394C70.5928 647.17 71.884 643.197 72.3265 641.021L70.9178 619.314H39.4319L38.1677 641.274C38.5379 643.107 39.7298 647.116 43.459 650.412C47.116 653.626 51.1883 654.349 53.2922 654.484H53.8792C54.5022 654.484 55.0078 654.99 55.0078 655.613V683.74H55.0169Z" fill="#C1DCE0"/>
<path d="M55.2479 688.381C41.6134 688.381 41.6133 686.991 41.6133 686.061C41.6133 685.131 41.6134 683.74 55.2479 683.74C68.8825 683.74 68.8825 685.131 68.8825 686.061C68.8825 686.982 68.8825 688.381 55.2479 688.381ZM51.2658 686.061C53.7038 686.133 56.7919 686.133 59.2299 686.061C56.8281 685.989 53.6767 685.989 51.2658 686.061Z" fill="#C1DCE0"/>
<path d="M70.5002 643C71.5295 645.646 64.244 653.979 54.9797 654.033C45.9863 654.087 39.0679 645.663 39.998 643C40.3862 641.889 41.0473 642.782 55.2417 642.52C69.1832 642.267 70.0848 641.953 70.5002 643Z" fill="url(#paint0_linear_179_5567)"/>
<path d="M193.454 776.654C147.277 778.595 101.109 780.546 54.932 782.487C39.0852 788.582 22.4708 779.029 19.455 765.475C16.8093 753.62 24.8185 739.814 38.8955 735.823C74.535 725.773 110.184 715.732 145.823 705.691C164.857 702.955 183.901 700.228 202.935 697.492C205.156 700.409 218.357 718.323 213.96 742.468C210.339 762.36 197.093 773.719 193.454 776.654Z" fill="#210B04"/>
<path d="M216.647 712.148C211.744 716.582 203.274 722.957 191.373 725.756C190.516 725.99 189.667 726.144 188.809 726.225C173.648 729.178 160.113 724.907 150.235 719.769C141.368 715.263 135.463 710.053 134.216 708.961C136.086 684.545 135.074 664.942 133.675 651.253C133.286 647.289 132.817 643.479 132.429 639.903C131.183 628.625 130.641 618.593 134.135 606.539C136.627 598.06 140.438 591.144 144.086 585.771C145.639 583.441 147.192 581.491 148.591 579.784C147.941 583.071 148.483 584.128 149.052 584.498C151.725 586.268 159.192 575.992 174.876 568.66C176.718 567.802 178.253 567.179 179.229 566.791C183.969 570.132 190.579 575.658 196.105 584.055C207.771 601.943 206.444 620.679 206.606 637.32C206.769 655.217 208.638 680.491 216.647 712.148Z" fill="#6AA7AD"/>
<path d="M175.971 511.738C175.89 515.467 175.114 515.855 173.714 523.864C173.172 526.898 172.856 529.156 172.621 530.944C172.152 534.519 171.926 535.919 170.599 536.623C170.364 536.75 169.163 537.553 168.341 537.093C167.222 536.461 168.188 534.257 167.682 532.009C166.68 527.558 161.055 528.217 158.933 523.558C157.172 519.675 159.89 516.659 157.687 514.149C156.179 512.433 153.632 512.433 151.935 512.442C134.761 512.478 128.07 514.293 124.25 510.618C122.562 508.993 121.442 506.311 122.065 504.207C122.643 502.212 124.593 501.39 126.733 500.18C134.95 495.53 134.445 491.656 140.187 489.634C143.212 488.559 145.804 488.993 151.005 489.579C158.544 490.437 167.411 491.449 172.314 498.365C175.899 503.494 175.971 509.797 175.971 511.738Z" fill="#8E3B32"/>
<path d="M174.375 520.432C157.526 516.207 140.677 511.981 123.828 507.746C122.753 506.229 121.679 504.712 120.613 503.195C133.553 485.651 155.314 482.996 166.42 492.17C173.761 498.229 176.407 509.426 174.375 520.432Z" fill="#210B04"/>
<path d="M132.508 507.629H94.5478C93.076 507.629 91.875 506.437 91.875 504.956C91.875 503.484 93.076 502.283 94.5478 502.283H132.508C133.98 502.283 135.181 503.484 135.181 504.956C135.181 506.428 133.98 507.629 132.508 507.629Z" fill="#210B04"/>
<path d="M163.38 523.395C162.973 527.838 159.994 531.188 156.716 530.89C153.438 530.592 151.108 526.754 151.515 522.312C151.921 517.869 154.901 514.519 158.179 514.817C161.456 515.115 163.786 518.953 163.38 523.395Z" fill="#FC6454"/>
<path d="M157.139 532.035C156.967 532.035 156.796 532.026 156.633 532.008C155.469 531.9 154.394 531.457 153.446 530.681C152.967 530.284 152.895 529.57 153.292 529.092C153.69 528.604 154.394 528.55 154.882 528.929C155.478 529.417 156.128 529.697 156.841 529.769C158.322 529.904 159.938 528.947 161.013 527.204C161.329 526.672 162.033 526.5 162.566 526.834C163.098 527.159 163.261 527.855 162.936 528.387C161.5 530.708 159.369 532.035 157.139 532.035Z" fill="#210B04"/>
<path d="M162.496 527.954C162.334 527.954 162.18 527.918 162.027 527.846C161.458 527.593 161.214 526.916 161.467 526.356C161.819 525.58 162.063 524.74 162.198 523.873C162.289 523.268 162.803 522.799 163.48 522.925C164.094 523.024 164.519 523.593 164.428 524.216C164.266 525.3 163.959 526.338 163.516 527.304C163.336 527.711 162.921 527.954 162.496 527.954Z" fill="#210B04"/>
<path d="M163.429 523.647C162.797 523.638 162.292 523.124 162.301 522.501C162.337 519.042 160.486 516.162 158.084 515.927C157.533 515.864 157.045 515.963 156.549 516.144C155.944 516.334 155.312 516.072 155.095 515.494C154.869 514.916 155.167 514.257 155.745 514.031C156.558 513.724 157.452 513.634 158.283 513.679C161.921 514.013 164.612 517.823 164.558 522.528C164.549 523.16 164.052 523.647 163.429 523.647Z" fill="#210B04"/>
<path d="M155.867 527.719C155.686 527.719 155.515 527.674 155.352 527.593C154.801 527.313 154.585 526.626 154.864 526.076L158.503 518.987C158.792 518.419 159.451 518.22 160.02 518.491C160.58 518.771 160.788 519.457 160.508 520.008L156.869 527.096C156.67 527.493 156.282 527.719 155.867 527.719Z" fill="#210B04"/>
<path d="M157.742 523.53C157.327 523.53 156.929 523.304 156.731 522.906L155.521 520.459C155.241 519.891 155.476 519.222 156.035 518.942C156.595 518.672 157.272 518.897 157.543 519.457L158.753 521.904C159.033 522.473 158.798 523.141 158.239 523.421C158.085 523.493 157.913 523.53 157.742 523.53Z" fill="#210B04"/>
<path d="M84.7341 667.098C84.0749 672.515 83.4158 677.933 82.7656 683.351C92.9419 686.71 101.077 690.006 106.703 692.426C127.706 701.482 136.681 708.353 150.604 707.279C156.194 706.846 160.645 705.293 163.517 704.055C165.151 696.426 166.776 688.796 168.411 681.175C160.708 678.466 154.352 677.111 150.252 676.389C127.724 672.407 115.823 677.391 95.5153 671.215C90.6665 669.743 86.9012 668.1 84.7341 667.098Z" fill="#FC6454"/>
<path d="M162.104 689.355H185.508C186.601 672 186.809 657.381 186.763 646.51C186.538 599.249 181.174 587.141 172.921 582.156C171.287 581.163 169.797 580.621 168.84 580.314C163.819 596.866 158.79 613.417 153.77 629.959C156.551 649.761 159.323 669.553 162.104 689.355Z" fill="#FC6454"/>
<path d="M192.811 681.32C179.448 682.377 166.084 683.424 152.711 684.481C149.687 653.112 146.662 621.744 143.637 590.375C150.996 580.154 162.915 574.682 174.581 576.334C186.437 578.014 193.353 586.384 194.997 588.488C194.265 619.432 193.543 650.376 192.811 681.32Z" fill="#6AA7AD"/>
<path d="M155.812 714.189C150.828 713.783 145.446 713.033 139.776 711.76C118.8 707.056 102.99 697.349 92.6328 689.403C93.5899 683.344 94.5561 677.276 95.5132 671.218C117.554 669.827 139.604 668.436 161.645 667.046C172.029 671.804 182.422 676.563 192.806 681.322C192.86 684.762 192.508 693.069 186.919 700.825C176.336 715.525 157.067 714.288 155.812 714.189Z" fill="#6AA7AD"/>
<path d="M153.761 674.493C153.337 674.493 152.93 674.258 152.741 673.852L150.068 668.199C149.797 667.63 150.041 666.953 150.601 666.691C151.17 666.456 151.847 666.673 152.1 667.233L154.772 672.886C155.043 673.454 154.799 674.132 154.24 674.393C154.086 674.457 153.923 674.493 153.761 674.493Z" fill="#C1DCE0"/>
<path d="M157.668 671.667C157.451 671.667 157.234 671.603 157.036 671.477L152.629 668.506C152.114 668.163 151.979 667.459 152.322 666.935C152.674 666.43 153.37 666.285 153.884 666.637L158.291 669.608C158.805 669.951 158.941 670.655 158.598 671.179C158.39 671.486 158.029 671.667 157.668 671.667Z" fill="#C1DCE0"/>
<path d="M158.972 666.559C158.918 666.559 155.423 666.387 155.423 666.387C154.8 666.351 154.322 665.818 154.349 665.204C154.385 664.581 154.918 664.157 155.532 664.13L159.026 664.301C159.649 664.338 160.128 664.87 160.101 665.484C160.065 666.089 159.568 666.559 158.972 666.559Z" fill="#C1DCE0"/>
<path d="M150.59 663.676C150.012 663.676 149.524 663.233 149.461 662.656L142.915 594.736C142.86 594.122 143.312 593.562 143.926 593.508C144.603 593.372 145.1 593.905 145.163 594.519L151.709 662.439C151.763 663.053 151.312 663.613 150.698 663.667C150.662 663.676 150.626 663.676 150.59 663.676Z" fill="#C1DCE0"/>
<path d="M98.6853 672.146C98.0984 672.146 97.5928 671.686 97.5566 671.09C97.5205 670.476 97.99 669.934 98.613 669.889L149.359 666.684C149.982 666.72 150.515 667.126 150.551 667.74C150.587 668.354 150.117 668.896 149.494 668.941L98.7484 672.146C98.7484 672.146 98.7124 672.146 98.6853 672.146Z" fill="#C1DCE0"/>
<path d="M156.097 715.786C137.207 715.786 113.767 706.91 91.9514 690.305C91.4547 689.925 91.3554 689.221 91.7346 688.715C92.1139 688.21 92.8182 688.147 93.3148 688.508C126.634 713.881 163.582 720.96 181.172 705.357C186.274 700.833 189.732 694.242 191.457 685.763C191.583 685.158 192.206 684.761 192.784 684.878C193.389 685.004 193.786 685.591 193.669 686.196C191.845 695.172 188.152 702.187 182.671 707.045C176.016 712.933 166.779 715.786 156.097 715.786Z" fill="#C1DCE0"/>
<path d="M192.86 680.319C192.2 680.301 191.713 679.777 191.731 679.154L193.871 612.579C193.898 611.965 194.395 611.469 195.036 611.487C195.659 611.505 196.146 612.029 196.128 612.652L193.988 679.226C193.97 679.831 193.465 680.319 192.86 680.319Z" fill="#C1DCE0"/>
<path d="M83.6047 683.631C74.214 682.936 64.8142 682.24 55.4235 681.545C50.4934 679.405 47.0532 674.881 46.5114 669.716C45.8703 663.558 49.446 657.49 55.4235 654.809C62.2589 658.574 67.4237 658.881 71.2974 657.888C73.3561 657.364 74.1689 656.696 75.8304 656.596C79.5866 656.362 84.4174 659.179 90.4401 669.482C88.1646 674.204 85.8892 678.917 83.6047 683.631Z" fill="#FC6454"/>
<defs>
<linearGradient id="paint0_linear_179_5567" x1="55.2557" y1="642.271" x2="55.2557" y2="654.033" gradientUnits="userSpaceOnUse">
<stop stop-color="#F65F51"/>
<stop offset="1" stop-color="#FB4967"/>
</linearGradient>
</defs>
</svg>
