<svg width="236" height="80" viewBox="0 0 236 80" fill="none" xmlns="http://www.w3.org/2000/svg">
<g clip-path="url(#clip0_79_10245)">
<path d="M216.387 0.823741H19.6253C18.9081 0.823741 18.1994 0.823741 17.4841 0.827652C16.8853 0.831564 16.2913 0.842928 15.6868 0.852492C14.3734 0.867947 13.0631 0.98349 11.7674 1.19812C10.4734 1.41741 9.21997 1.83086 8.04946 2.42445C6.88039 3.02307 5.81218 3.80092 4.88357 4.72977C3.9501 5.65602 3.17197 6.72662 2.57911 7.90043C1.98462 9.07191 1.5724 10.3273 1.35669 11.6231C1.13892 12.9173 1.02174 14.2265 1.00619 15.5388C0.988044 16.1385 0.986127 16.7401 0.976562 17.3399V62.5486C0.986127 63.1559 0.988044 63.7443 1.00619 64.3518C1.02174 65.664 1.13893 66.9731 1.35669 68.2673C1.57181 69.5639 1.98405 70.8199 2.57911 71.9918C3.1717 73.1618 3.94994 74.2281 4.88357 75.1492C5.80866 76.0822 6.87756 76.8606 8.04946 77.4546C9.21996 78.0498 10.4733 78.4657 11.7674 78.6884C13.0634 78.9013 14.3735 79.0169 15.6868 79.0342C16.2913 79.0475 16.8853 79.0551 17.4841 79.0551C18.1994 79.059 18.9081 79.059 19.6253 79.059H216.387C217.09 79.059 217.804 79.059 218.507 79.0551C219.103 79.0551 219.715 79.0475 220.311 79.0342C221.621 79.0178 222.929 78.9022 224.222 78.6884C225.521 78.4641 226.778 78.0483 227.954 77.4546C229.125 76.8602 230.193 76.0819 231.118 75.1492C232.049 74.2245 232.829 73.159 233.429 71.9918C234.019 70.8191 234.428 69.5631 234.64 68.2673C234.858 66.9729 234.979 65.6641 235.003 64.3518C235.01 63.7443 235.01 63.1559 235.01 62.5486C235.025 61.8381 235.025 61.1314 235.025 60.4093V19.4753C235.025 18.759 235.025 18.0485 235.01 17.3399C235.01 16.7401 235.01 16.1385 235.003 15.5387C234.979 14.2263 234.858 12.9174 234.64 11.623C234.427 10.3279 234.019 9.07268 233.429 7.90036C232.221 5.54758 230.307 3.63244 227.954 2.42428C226.778 1.83213 225.52 1.4188 224.222 1.19794C222.929 0.982368 221.621 0.866785 220.311 0.852218C219.715 0.842674 219.103 0.831212 218.507 0.827398C217.804 0.823486 217.09 0.823741 216.387 0.823741Z" fill="#A6A6A6"/>
<path d="M17.4932 77.3474C16.8973 77.3474 16.3157 77.3398 15.7245 77.3265C14.4997 77.3105 13.2777 77.2039 12.0687 77.0075C10.9413 76.8133 9.84915 76.4521 8.82829 75.9359C7.81679 75.4238 6.89422 74.7525 6.09592 73.9475C5.28607 73.152 4.61183 72.2293 4.09993 71.2161C3.58238 70.1963 3.22421 69.1032 3.03788 67.9748C2.83667 66.7624 2.72781 65.5364 2.71223 64.3075C2.69983 63.895 2.68359 62.5216 2.68359 62.5216V17.3397C2.68359 17.3397 2.70088 15.9873 2.71233 15.59C2.72724 14.3631 2.83547 13.139 3.03608 11.9285C3.22275 10.797 3.5812 9.70077 4.09903 8.67761C4.60905 7.66508 5.27955 6.74174 6.08452 5.94339C6.88859 5.13745 7.81411 4.46264 8.82733 3.94356C9.84585 3.42893 10.9359 3.0703 12.061 2.87968C13.2741 2.68128 14.5003 2.57402 15.7293 2.55879L17.4941 2.53491H218.497L220.283 2.55975C221.501 2.57422 222.716 2.68053 223.918 2.87776C225.055 3.07078 226.156 3.43191 227.186 3.94929C229.216 4.99538 230.868 6.65041 231.91 8.68239C232.419 9.69848 232.772 10.7858 232.956 11.9075C233.159 13.128 233.273 14.3616 233.296 15.5986C233.302 16.1525 233.302 16.7475 233.302 17.3397C233.317 18.0731 233.317 18.7712 233.317 19.4751V60.4091C233.317 61.1197 233.317 61.813 233.302 62.512C233.302 63.1481 233.302 63.7308 233.294 64.3304C233.272 65.5454 233.16 66.757 232.96 67.9557C232.778 69.0921 232.421 70.1938 231.904 71.222C231.388 72.2242 230.718 73.1389 229.918 73.9322C229.119 74.7416 228.194 75.4168 227.18 75.9321C226.153 76.4524 225.053 76.8149 223.918 77.0075C222.709 77.2049 221.487 77.3116 220.262 77.3265C219.689 77.3398 219.089 77.3474 218.507 77.3474L216.387 77.3513L17.4932 77.3474Z" fill="black"/>
<path d="M49.4223 40.5293C49.4433 38.8968 49.8769 37.2961 50.6828 35.8762C51.4887 34.4563 52.6406 33.2634 54.0314 32.4083C53.1479 31.1465 51.9823 30.108 50.6272 29.3754C49.2721 28.6428 47.7649 28.2363 46.2252 28.1882C42.9408 27.8434 39.7567 30.1535 38.083 30.1535C36.377 30.1535 33.8001 28.2224 31.0252 28.2795C29.2304 28.3375 27.4811 28.8594 25.948 29.7944C24.4148 30.7294 23.15 32.0457 22.2767 33.6149C18.4941 40.164 21.3156 49.789 24.9391 55.0828C26.752 57.675 28.8708 60.5706 31.6431 60.4679C34.3561 60.3554 35.3693 58.738 38.644 58.738C41.8883 58.738 42.839 60.4679 45.6676 60.4026C48.5787 60.3554 50.4128 57.7989 52.1621 55.1821C53.4647 53.335 54.467 51.2936 55.132 49.1335C53.4407 48.4182 51.9974 47.2208 50.9821 45.6908C49.9667 44.1607 49.4242 42.3656 49.4223 40.5293Z" fill="white"/>
<path d="M44.0794 24.7066C45.6666 22.8011 46.4486 20.352 46.2592 17.8793C43.8343 18.134 41.5943 19.293 39.9856 21.1253C39.1991 22.0205 38.5966 23.0619 38.2128 24.19C37.829 25.318 37.6713 26.5107 37.7486 27.6998C38.9616 27.7123 40.1615 27.4494 41.2581 26.9309C42.3547 26.4125 43.3193 25.6519 44.0794 24.7066Z" fill="white"/>
<path d="M83.7151 53.9055H74.4571L72.2338 60.4703H68.3125L77.0815 36.1822H81.1556L89.9246 60.4703H85.9364L83.7151 53.9055ZM75.4159 50.8762H82.7544L79.1368 40.222H79.0355L75.4159 50.8762Z" fill="white"/>
<path d="M108.862 51.6173C108.862 57.1201 105.917 60.6556 101.472 60.6556C100.346 60.7145 99.2265 60.4551 98.2411 59.9072C97.2558 59.3593 96.4446 58.545 95.9006 57.5575H95.8164V66.3284H92.1816V42.7623H95.7V45.7076H95.7668C96.3359 44.7249 97.1608 43.9148 98.1536 43.3635C99.1465 42.8122 100.27 42.5405 101.405 42.5771C105.9 42.5771 108.862 46.1297 108.862 51.6173ZM105.126 51.6173C105.126 48.0322 103.273 45.6752 100.446 45.6752C97.6692 45.6752 95.8012 48.0818 95.8012 51.6173C95.8012 55.1853 97.6692 57.5747 100.446 57.5747C103.273 57.5747 105.126 55.2349 105.126 51.6173Z" fill="white"/>
<path d="M128.352 51.6173C128.352 57.1201 125.407 60.6556 120.962 60.6556C119.836 60.7145 118.717 60.4551 117.731 59.9072C116.746 59.3593 115.935 58.545 115.391 57.5575H115.307V66.3284H111.672V42.7623H115.19V45.7076H115.257C115.826 44.7248 116.651 43.9147 117.644 43.3635C118.637 42.8122 119.76 42.5404 120.895 42.5771C125.39 42.5771 128.352 46.1297 128.352 51.6173ZM124.616 51.6173C124.616 48.0322 122.764 45.6751 119.937 45.6751C117.159 45.6751 115.291 48.0818 115.291 51.6173C115.291 55.1852 117.159 57.5747 119.937 57.5747C122.764 57.5747 124.616 55.2349 124.616 51.6173Z" fill="white"/>
<path d="M141.234 53.703C141.503 56.1116 143.843 57.693 147.04 57.693C150.104 57.693 152.308 56.1115 152.308 53.9398C152.308 52.0545 150.979 50.9257 147.831 50.1522L144.683 49.3939C140.223 48.3166 138.153 46.2308 138.153 42.8462C138.153 38.6556 141.805 35.7772 146.99 35.7772C152.123 35.7772 155.641 38.6556 155.759 42.8462H152.09C151.87 40.4224 149.867 38.9593 146.939 38.9593C144.011 38.9593 142.007 40.4396 142.007 42.5941C142.007 44.3112 143.287 45.3217 146.417 46.0951L149.093 46.7522C154.077 47.9307 156.147 49.9325 156.147 53.4851C156.147 58.0291 152.528 60.875 146.771 60.875C141.384 60.875 137.748 58.0959 137.513 53.7028L141.234 53.703Z" fill="white"/>
<path d="M163.992 38.5717V42.7623H167.36V45.6407H163.992V55.4029C163.992 56.9195 164.667 57.6262 166.147 57.6262C166.547 57.6193 166.946 57.5912 167.343 57.5421V60.4034C166.677 60.5277 166.001 60.584 165.324 60.5715C161.739 60.5715 160.34 59.2249 160.34 55.7906V45.6407H157.766V42.7623H160.34V38.5717H163.992Z" fill="white"/>
<path d="M169.31 51.6172C169.31 46.0457 172.591 42.5446 177.708 42.5446C182.842 42.5446 186.108 46.0456 186.108 51.6172C186.108 57.2041 182.859 60.6899 177.708 60.6899C172.558 60.6899 169.31 57.2041 169.31 51.6172ZM182.405 51.6172C182.405 47.7953 180.653 45.5395 177.708 45.5395C174.763 45.5395 173.013 47.8125 173.013 51.6172C173.013 55.4545 174.763 57.6931 177.708 57.6931C180.653 57.6931 182.405 55.4545 182.405 51.6172Z" fill="white"/>
<path d="M189.105 42.7624H192.572V45.7764H192.656C192.891 44.835 193.442 44.0031 194.218 43.4205C194.994 42.8379 195.946 42.54 196.916 42.5771C197.335 42.5756 197.752 42.6211 198.161 42.7127V46.1125C197.632 45.951 197.081 45.8768 196.528 45.8929C196 45.8715 195.473 45.9646 194.985 46.1658C194.496 46.367 194.057 46.6716 193.697 47.0587C193.337 47.4457 193.065 47.9061 192.9 48.4081C192.735 48.9101 192.68 49.4419 192.74 49.967V60.4703H189.105L189.105 42.7624Z" fill="white"/>
<path d="M214.919 55.2693C214.43 58.4838 211.299 60.6899 207.294 60.6899C202.143 60.6899 198.945 57.2385 198.945 51.7013C198.945 46.1469 202.16 42.5446 207.141 42.5446C212.041 42.5446 215.121 45.91 215.121 51.2792V52.5245H202.615V52.7442C202.557 53.3959 202.638 54.0524 202.854 54.6701C203.069 55.2879 203.414 55.8527 203.864 56.3271C204.315 56.8015 204.861 57.1746 205.467 57.4216C206.073 57.6687 206.724 57.784 207.378 57.7599C208.237 57.8404 209.099 57.6415 209.836 57.1927C210.573 56.744 211.145 56.0694 211.468 55.2692L214.919 55.2693ZM202.632 49.9842H211.485C211.517 49.3982 211.429 48.8118 211.224 48.2618C211.019 47.7118 210.703 47.21 210.295 46.788C209.887 46.366 209.396 46.0328 208.854 45.8094C208.311 45.586 207.728 45.4772 207.141 45.4898C206.549 45.4863 205.963 45.6 205.415 45.8245C204.867 46.0489 204.369 46.3796 203.95 46.7974C203.531 47.2152 203.198 47.712 202.972 48.2589C202.746 48.8059 202.63 49.3922 202.632 49.9842Z" fill="white"/>
<path d="M74.9596 17.9003C75.7216 17.8456 76.4863 17.9608 77.1985 18.2374C77.9106 18.514 78.5525 18.9453 79.0778 19.5C79.6032 20.0547 79.9988 20.7191 80.2363 21.4453C80.4737 22.1715 80.547 22.9413 80.451 23.6992C80.451 27.4276 78.4359 29.5708 74.9596 29.5708H70.7441V17.9003H74.9596ZM72.5568 27.9203H74.7571C75.3017 27.9529 75.8466 27.8636 76.3523 27.659C76.8579 27.4544 77.3116 27.1396 77.6803 26.7375C78.049 26.3354 78.3233 25.8562 78.4834 25.3348C78.6436 24.8133 78.6854 24.2627 78.6058 23.723C78.6796 23.1854 78.6335 22.6382 78.471 22.1206C78.3084 21.6029 78.0333 21.1277 77.6655 20.7288C77.2977 20.3299 76.8462 20.0174 76.3434 19.8135C75.8405 19.6096 75.2989 19.5195 74.7571 19.5495H72.5568V27.9203Z" fill="white"/>
<path d="M82.4991 25.1632C82.4438 24.5844 82.51 24.0004 82.6935 23.4487C82.8771 22.8971 83.1739 22.3898 83.5649 21.9596C83.956 21.5293 84.4327 21.1855 84.9644 20.9503C85.4961 20.715 86.0711 20.5935 86.6525 20.5935C87.2339 20.5935 87.809 20.715 88.3407 20.9503C88.8724 21.1855 89.349 21.5293 89.7401 21.9596C90.1312 22.3898 90.428 22.8971 90.6115 23.4487C90.7951 24.0004 90.8613 24.5844 90.8059 25.1632C90.8623 25.7426 90.7969 26.3273 90.6139 26.8799C90.4308 27.4325 90.1342 27.9407 89.743 28.3718C89.3518 28.8029 88.8748 29.1474 88.3426 29.3831C87.8103 29.6189 87.2346 29.7407 86.6525 29.7407C86.0704 29.7407 85.4947 29.6189 84.9625 29.3831C84.4302 29.1474 83.9532 28.8029 83.5621 28.3718C83.1709 27.9407 82.8743 27.4325 82.6912 26.8799C82.5081 26.3273 82.4427 25.7426 82.4991 25.1632ZM89.0181 25.1632C89.0181 23.2541 88.1605 22.1377 86.6554 22.1377C85.1445 22.1377 84.2946 23.2541 84.2946 25.1632C84.2946 27.0876 85.1446 28.1954 86.6554 28.1954C88.1605 28.1954 89.0181 27.0799 89.0181 25.1632Z" fill="white"/>
<path d="M101.848 29.5706H100.045L98.2243 23.0841H98.0867L96.2741 29.5706H94.4882L92.0605 20.7634H93.8235L95.4012 27.4838H95.5311L97.3418 20.7634H99.0093L100.82 27.4838H100.958L102.528 20.7634H104.266L101.848 29.5706Z" fill="white"/>
<path d="M106.308 20.7634H107.981V22.1625H108.111C108.331 21.66 108.703 21.2387 109.174 20.9575C109.645 20.6762 110.192 20.5489 110.739 20.5934C111.167 20.5612 111.598 20.6258 111.998 20.7824C112.398 20.9391 112.758 21.1838 113.051 21.4984C113.343 21.813 113.562 22.1894 113.689 22.5998C113.817 23.0102 113.85 23.444 113.787 23.8691V29.5705H112.049V24.3056C112.049 22.8902 111.434 22.1864 110.149 22.1864C109.858 22.1728 109.567 22.2223 109.297 22.3315C109.027 22.4407 108.784 22.607 108.584 22.819C108.385 23.031 108.233 23.2837 108.14 23.5597C108.047 23.8357 108.015 24.1286 108.046 24.4183V29.5706H106.308L106.308 20.7634Z" fill="white"/>
<path d="M116.557 17.3253H118.295V29.5706H116.557V17.3253Z" fill="white"/>
<path d="M120.711 25.1632C120.656 24.5844 120.722 24.0004 120.906 23.4487C121.089 22.897 121.386 22.3897 121.777 21.9595C122.168 21.5292 122.645 21.1854 123.177 20.9502C123.708 20.7149 124.283 20.5934 124.865 20.5934C125.446 20.5934 126.021 20.7149 126.553 20.9502C127.085 21.1854 127.562 21.5292 127.953 21.9595C128.344 22.3897 128.641 22.897 128.824 23.4487C129.008 24.0004 129.074 24.5844 129.019 25.1632C129.075 25.7426 129.01 26.3274 128.826 26.88C128.643 27.4326 128.347 27.9407 127.955 28.3718C127.564 28.8029 127.087 29.1474 126.555 29.3831C126.023 29.6189 125.447 29.7407 124.865 29.7407C124.283 29.7407 123.707 29.6189 123.175 29.3831C122.643 29.1474 122.165 28.8029 121.774 28.3718C121.383 27.9407 121.086 27.4326 120.903 26.88C120.72 26.3274 120.655 25.7426 120.711 25.1632ZM127.23 25.1632C127.23 23.2542 126.372 22.1377 124.867 22.1377C123.356 22.1377 122.507 23.2542 122.507 25.1632C122.507 27.0876 123.356 28.1954 124.867 28.1954C126.372 28.1954 127.23 27.08 127.23 25.1632Z" fill="white"/>
<path d="M130.848 27.0799C130.848 25.4945 132.028 24.5806 134.123 24.4507L136.509 24.3132V23.553C136.509 22.6228 135.894 22.0975 134.706 22.0975C133.736 22.0975 133.063 22.4538 132.87 23.0764H131.188C131.365 21.5637 132.788 20.5934 134.786 20.5934C136.994 20.5934 138.24 21.6926 138.24 23.553V29.5706H136.566V28.3329H136.429C136.15 28.7768 135.758 29.1388 135.293 29.3817C134.828 29.6247 134.307 29.7399 133.783 29.7157C133.414 29.7541 133.04 29.7147 132.686 29.5999C132.333 29.4851 132.007 29.2975 131.731 29.0491C131.454 28.8008 131.233 28.4972 131.081 28.1581C130.928 27.8189 130.849 27.4516 130.848 27.0799ZM136.509 26.3273V25.591L134.358 25.7285C133.145 25.8097 132.595 26.2223 132.595 26.9987C132.595 27.7913 133.283 28.2526 134.228 28.2526C134.506 28.2807 134.785 28.2527 135.051 28.1704C135.317 28.088 135.564 27.953 135.777 27.7734C135.99 27.5938 136.164 27.3732 136.29 27.1248C136.416 26.8763 136.49 26.6051 136.509 26.3273Z" fill="white"/>
<path d="M140.525 25.1632C140.525 22.3803 141.956 20.6173 144.181 20.6173C144.732 20.5919 145.278 20.7238 145.756 20.9974C146.234 21.271 146.625 21.6751 146.882 22.1624H147.012V17.3253H148.75V29.5706H147.084V28.1791H146.947C146.67 28.6632 146.266 29.0622 145.778 29.3331C145.291 29.604 144.739 29.7363 144.181 29.7157C141.941 29.7158 140.525 27.9528 140.525 25.1632ZM142.321 25.1632C142.321 27.0312 143.201 28.1553 144.674 28.1553C146.139 28.1553 147.044 27.015 147.044 25.1708C147.044 23.3353 146.13 22.1788 144.674 22.1788C143.211 22.1788 142.321 23.3105 142.321 25.1632Z" fill="white"/>
<path d="M155.942 25.1632C155.886 24.5844 155.952 24.0004 156.136 23.4487C156.319 22.8971 156.616 22.3898 157.007 21.9596C157.398 21.5293 157.875 21.1855 158.407 20.9503C158.938 20.715 159.513 20.5935 160.095 20.5935C160.676 20.5935 161.251 20.715 161.783 20.9503C162.315 21.1855 162.791 21.5293 163.182 21.9596C163.574 22.3898 163.87 22.8971 164.054 23.4487C164.237 24.0004 164.304 24.5844 164.248 25.1632C164.305 25.7426 164.239 26.3273 164.056 26.8799C163.873 27.4325 163.577 27.9407 163.185 28.3718C162.794 28.8029 162.317 29.1474 161.785 29.3831C161.253 29.6189 160.677 29.7407 160.095 29.7407C159.513 29.7407 158.937 29.6189 158.405 29.3831C157.873 29.1474 157.396 28.8029 157.004 28.3718C156.613 27.9407 156.317 27.4325 156.134 26.8799C155.951 26.3273 155.885 25.7426 155.942 25.1632ZM162.46 25.1632C162.46 23.2541 161.603 22.1377 160.098 22.1377C158.587 22.1377 157.737 23.2541 157.737 25.1632C157.737 27.0876 158.587 28.1954 160.098 28.1954C161.603 28.1954 162.46 27.0799 162.46 25.1632Z" fill="white"/>
<path d="M166.579 20.7634H168.252V22.1625H168.382C168.603 21.66 168.974 21.2387 169.445 20.9575C169.916 20.6762 170.464 20.5489 171.01 20.5934C171.439 20.5612 171.869 20.6258 172.269 20.7824C172.67 20.9391 173.029 21.1838 173.322 21.4984C173.615 21.813 173.833 22.1894 173.961 22.5998C174.088 23.0102 174.122 23.444 174.059 23.8691V29.5705H172.321V24.3056C172.321 22.8902 171.706 22.1864 170.42 22.1864C170.129 22.1728 169.839 22.2223 169.569 22.3315C169.299 22.4407 169.056 22.607 168.856 22.819C168.656 23.031 168.505 23.2837 168.412 23.5597C168.319 23.8357 168.286 24.1286 168.317 24.4183V29.5706H166.579V20.7634Z" fill="white"/>
<path d="M183.881 18.5707V20.8035H185.79V22.2676H183.881V26.7963C183.881 27.7188 184.261 28.1228 185.127 28.1228C185.348 28.1221 185.57 28.1087 185.79 28.0827V29.5305C185.477 29.5863 185.161 29.616 184.844 29.6193C182.911 29.6193 182.141 28.9393 182.141 27.2413V22.2675H180.743V20.8034H182.141V18.5707H183.881Z" fill="white"/>
<path d="M188.163 17.3253H189.886V22.1787H190.023C190.255 21.6715 190.636 21.2479 191.117 20.9656C191.597 20.6833 192.153 20.556 192.709 20.601C193.135 20.5779 193.561 20.649 193.957 20.8095C194.353 20.97 194.708 21.2158 194.998 21.5294C195.287 21.843 195.504 22.2166 195.633 22.6237C195.762 23.0308 195.799 23.4613 195.742 23.8844V29.5706H194.002V24.3132C194.002 22.9064 193.347 22.194 192.119 22.194C191.82 22.1695 191.52 22.2106 191.238 22.3143C190.957 22.4181 190.702 22.5821 190.491 22.7947C190.28 23.0074 190.117 23.2637 190.016 23.5456C189.914 23.8275 189.875 24.1283 189.901 24.4268V29.5706H188.163L188.163 17.3253Z" fill="white"/>
<path d="M205.877 27.1927C205.641 27.9976 205.129 28.6938 204.432 29.1596C203.734 29.6254 202.895 29.8311 202.061 29.7406C201.481 29.756 200.904 29.6448 200.371 29.415C199.838 29.1851 199.362 28.842 198.975 28.4095C198.587 27.9769 198.299 27.4654 198.13 26.9102C197.96 26.3551 197.913 25.7698 197.993 25.1948C197.915 24.618 197.963 24.0314 198.132 23.4746C198.301 22.9178 198.588 22.4039 198.973 21.9675C199.358 21.5312 199.832 21.1828 200.364 20.9457C200.895 20.7086 201.471 20.5885 202.053 20.5935C204.504 20.5935 205.982 22.2677 205.982 25.0333V25.6398H199.763V25.7372C199.736 26.0604 199.777 26.3857 199.883 26.6923C199.988 26.9989 200.157 27.28 200.378 27.5175C200.599 27.7551 200.867 27.9439 201.165 28.0718C201.463 28.1997 201.784 28.2639 202.109 28.2603C202.525 28.3102 202.946 28.2354 203.319 28.0452C203.692 27.8551 204 27.5583 204.204 27.1926L205.877 27.1927ZM199.763 24.3543H204.212C204.234 24.0588 204.193 23.7618 204.094 23.4827C203.994 23.2036 203.837 22.9484 203.633 22.7335C203.429 22.5186 203.182 22.3488 202.908 22.2351C202.635 22.1213 202.34 22.066 202.044 22.0728C201.743 22.069 201.445 22.1255 201.166 22.2388C200.888 22.3521 200.635 22.5201 200.422 22.7327C200.21 22.9453 200.042 23.1984 199.929 23.4769C199.816 23.7554 199.759 24.0537 199.763 24.3543Z" fill="white"/>
</g>
<defs>
<clipPath id="clip0_79_10245">
<rect width="234.049" height="78.2353" fill="white" transform="translate(0.975586 0.823547)"/>
</clipPath>
</defs>
</svg>
