<svg width="572" height="209" viewBox="0 0 572 209" fill="none" xmlns="http://www.w3.org/2000/svg">
<path d="M312.143 93.661C308.321 93.661 304.64 94.258 301.179 95.351C298.69 71.728 278.715 53.317 254.433 53.317C247.867 53.317 241.62 54.672 235.943 57.103C236.007 56.026 236.107 54.959 236.107 53.866C236.107 24.117 211.99 0 182.241 0C158.229 0 137.906 15.72 130.952 37.423C126.925 35.886 122.573 35.008 118.006 35.008C102.485 35.008 89.272 44.75 84.053 58.439C78.62 55.208 72.296 53.318 65.515 53.318C45.432 53.318 29.152 69.598 29.152 89.68C29.152 94.521 30.117 99.132 31.835 103.356C13.269 110.182 0 127.971 0 148.905C0 175.73 21.746 197.476 48.571 197.476C63.329 197.476 76.523 190.871 85.431 180.483C96.999 190.337 111.986 196.298 128.373 196.298C136.35 196.298 143.997 194.887 151.08 192.304C161.65 202.119 175.801 208.13 191.363 208.13C212.807 208.13 231.588 196.733 241.981 179.666C247.585 183.195 254.199 185.268 261.311 185.268C276.711 185.268 289.844 175.68 295.145 162.16C300.22 164.85 305.999 166.387 312.143 166.387C332.226 166.387 348.506 150.107 348.506 130.024C348.506 109.941 332.226 93.661 312.143 93.661Z" fill="#FFACB0"/>
<path d="M539.444 78.9518C534.926 78.9518 530.627 79.8704 526.72 81.5219C523.727 63.3234 507.749 49.4283 488.478 49.4283C480.257 49.4283 472.64 51.9637 466.369 56.2761C456.948 39.4209 438.783 28 417.911 28C388.068 28 363.759 51.3425 362.644 80.549C357.289 77.652 351.144 76.0035 344.608 76.0035C323.838 76.0035 307 92.6345 307 113.149C307 133.664 323.838 150.295 344.608 150.295C344.68 150.295 344.75 150.29 344.822 150.29C347.027 173.171 366.532 191.07 390.276 191.07C407.525 191.07 422.535 181.623 430.304 167.683C434.186 169.482 438.504 170.516 443.076 170.516C450.716 170.516 457.672 167.687 462.986 163.061C469.605 171.186 479.741 176.397 491.12 176.397C511.063 176.397 527.23 160.429 527.23 140.731C527.23 140.674 527.222 140.618 527.221 140.561C530.995 142.082 535.116 142.935 539.444 142.935C557.332 142.935 571.833 128.613 571.833 110.945C571.833 93.2746 557.332 78.9518 539.444 78.9518ZM462.985 118.398C462.359 117.853 461.709 117.337 461.038 116.844C461.362 116.445 461.685 116.045 461.998 115.637C462.623 116.215 463.262 116.777 463.924 117.313C463.607 117.673 463.287 118.027 462.985 118.398Z" fill="white"/>
</svg>
