<svg width="1012" height="547" viewBox="0 0 1012 547" fill="none" xmlns="http://www.w3.org/2000/svg">
<path d="M-84.4856 405.262C-80.1016 405.24 -75.8325 405.707 -71.7065 406.569C-59.6376 376.675 -33.2466 354.085 -0.997559 347.342C-3.03955 344.415 -4.75464 341.243 -6.07666 337.872C-12.4567 341.253 -19.7227 343.187 -27.4467 343.187C-52.6957 343.187 -73.1636 322.719 -73.1636 297.471C-73.1636 272.222 -52.6957 251.755 -27.4467 251.755C-22.6416 251.755 -18.0126 252.505 -13.6626 253.88C-10.5336 224.181 14.5794 201.033 45.1084 201.033C53.3634 201.033 61.2173 202.736 68.3544 205.793C68.2734 204.44 68.1484 203.097 68.1484 201.723C68.1484 164.321 98.4695 134 135.871 134C166.059 134 191.61 153.764 200.353 181.049C205.416 179.117 210.887 178.013 216.629 178.013C236.143 178.013 252.755 190.262 259.315 207.471C266.146 203.408 274.097 201.033 282.621 201.033C307.87 201.033 328.338 221.501 328.338 246.749C328.338 252.835 327.124 258.632 324.965 263.943C347.945 272.392 364.459 294.203 364.965 319.991C367.371 319.644 369.831 319.461 372.333 319.461C390.541 319.461 406.537 328.995 415.604 343.37C425.113 338.947 435.729 336.49 446.909 336.49C474.896 336.49 499.264 351.903 512.028 374.696C522.436 369.322 534.23 366.252 546.748 366.191C557.594 366.138 567.919 368.354 577.29 372.372C584.587 333.156 618.87 303.371 660.232 303.171C707.068 302.944 745.22 340.729 745.447 387.564C745.453 388.832 745.419 390.09 745.37 391.344C746.397 391.275 747.416 391.178 748.459 391.173C770.567 391.066 789.348 405.509 795.732 425.513C807.246 416.142 821.955 410.555 837.956 410.643C874.602 410.844 904.156 440.724 903.955 477.371C923.125 477.476 939.301 490.115 944.749 507.467C951.626 503.039 959.801 500.466 968.577 500.514C992.597 500.646 1012.05 520.231 1011.91 544.329C1011.86 553.876 1008.66 562.712 1003.38 569.843L746.241 568.431C745.877 568.22 745.519 568.001 745.161 567.781C739.321 571.015 732.611 572.873 725.465 572.908C723.383 572.918 721.353 572.723 719.353 572.434C717.136 592.132 700.495 607.494 680.188 607.592C666.332 607.659 654.119 600.596 646.982 589.859C641.469 593.828 634.73 596.204 627.419 596.239C615.838 596.295 605.597 590.518 599.456 581.673C588.291 591.483 573.683 597.473 557.654 597.551C540.664 597.633 525.205 591.059 513.713 580.294C507.144 585.219 499.021 588.19 490.18 588.232C470.726 588.326 454.49 574.384 451.042 555.916H216.206C213.393 556.33 210.516 556.551 207.59 556.565C204.476 556.58 201.418 556.354 198.429 555.916H54.8354C43.4274 555.916 33.4394 549.844 27.9254 540.756C25.1834 541.001 22.4134 541.147 19.6094 541.16C-6.45465 541.286 -30.1707 531.201 -47.8016 514.686C-57.8796 522.242 -70.3406 526.799 -83.9045 526.864C-117.484 527.027 -144.838 499.937 -145 466.357C-145.156 432.778 -118.066 405.425 -84.4856 405.262ZM278.5 370.719C279.812 370.631 278.167 374.726 279.5 374.719C280.604 374.714 279.5 376.719 279.737 377.251C277.266 376.179 274.874 374.961 272.586 373.584C273.5 372.719 278.55 369.452 278.5 370.719Z" fill="#FFACB0"/>
<path d="M480.143 93.661C476.321 93.661 472.64 94.258 469.179 95.351C466.69 71.728 446.715 53.317 422.433 53.317C415.867 53.317 409.62 54.672 403.943 57.103C404.007 56.026 404.107 54.959 404.107 53.866C404.107 24.117 379.99 0 350.241 0C326.229 0 305.906 15.72 298.952 37.423C294.925 35.886 290.573 35.008 286.006 35.008C270.485 35.008 257.272 44.75 252.053 58.439C246.62 55.208 240.296 53.318 233.515 53.318C213.432 53.318 197.152 69.598 197.152 89.68C197.152 94.521 198.117 99.132 199.835 103.356C181.269 110.182 168 127.971 168 148.905C168 175.73 189.746 197.476 216.571 197.476C231.329 197.476 244.523 190.871 253.431 180.483C264.999 190.337 279.986 196.298 296.373 196.298C304.35 196.298 311.997 194.887 319.08 192.304C329.65 202.119 343.801 208.13 359.363 208.13C380.807 208.13 399.588 196.733 409.981 179.666C415.585 183.195 422.199 185.268 429.311 185.268C444.711 185.268 457.844 175.68 463.145 162.16C468.22 164.85 473.999 166.387 480.143 166.387C500.226 166.387 516.506 150.107 516.506 130.024C516.506 109.941 500.226 93.661 480.143 93.661Z" fill="white"/>
</svg>
