<svg width="1011" height="612" viewBox="0 0 1011 612" fill="none" xmlns="http://www.w3.org/2000/svg">
<path d="M1096.4 479.262C1092.02 479.24 1087.75 479.707 1083.62 480.569C1071.55 450.675 1045.16 428.085 1012.91 421.342C1014.95 418.415 1016.67 415.243 1017.99 411.872C1024.37 415.253 1031.64 417.187 1039.36 417.187C1064.61 417.187 1085.08 396.719 1085.08 371.471C1085.08 346.222 1064.61 325.755 1039.36 325.755C1034.56 325.755 1029.93 326.505 1025.58 327.88C1022.45 298.181 997.335 275.033 966.806 275.033C958.551 275.033 950.697 276.736 943.56 279.793C943.641 278.44 943.766 277.097 943.766 275.723C943.766 238.321 913.445 208 876.043 208C845.855 208 820.304 227.764 811.561 255.049C806.498 253.117 801.027 252.013 795.285 252.013C775.771 252.013 759.159 264.262 752.599 281.471C745.768 277.408 737.817 275.033 729.293 275.033C704.044 275.033 683.576 295.501 683.576 320.749C683.576 326.835 684.79 332.632 686.949 337.943C663.969 346.392 647.455 368.203 646.949 393.991C644.543 393.644 642.083 393.461 639.581 393.461C621.373 393.461 605.377 402.995 596.31 417.37C586.801 412.947 576.185 410.49 565.005 410.49C537.018 410.49 512.65 425.903 499.886 448.696C489.478 443.322 477.684 440.252 465.166 440.191C454.32 440.138 443.995 442.354 434.624 446.372C427.327 407.156 393.044 377.371 351.682 377.171C304.846 376.944 266.694 414.729 266.467 461.564C266.461 462.832 266.495 464.09 266.544 465.344C265.517 465.275 264.498 465.178 263.455 465.173C241.347 465.066 222.566 479.509 216.182 499.513C204.668 490.142 189.959 484.555 173.958 484.643C137.312 484.844 107.758 514.724 107.959 551.371C88.7887 551.476 72.6127 564.115 67.1647 581.467C60.2877 577.039 52.1127 574.466 43.3367 574.514C19.3167 574.646 -0.131332 594.231 0.000667992 618.329C0.052668 627.876 3.25768 636.712 8.53268 643.843L265.673 642.431C266.037 642.22 266.395 642.001 266.753 641.781C272.593 645.015 279.303 646.873 286.449 646.908C288.531 646.918 290.561 646.723 292.561 646.434C294.778 666.132 311.419 681.494 331.726 681.592C345.582 681.659 357.795 674.596 364.932 663.859C370.445 667.828 377.184 670.204 384.495 670.239C396.076 670.295 406.317 664.518 412.458 655.673C423.623 665.483 438.231 671.473 454.26 671.551C471.25 671.633 486.709 665.059 498.201 654.294C504.77 659.219 512.893 662.19 521.734 662.232C541.188 662.326 557.424 648.384 560.872 629.916H795.708C798.521 630.33 801.398 630.551 804.324 630.565C807.438 630.58 810.496 630.354 813.485 629.916H957.079C968.487 629.916 978.475 623.844 983.989 614.756C986.731 615.001 989.501 615.147 992.305 615.16C1018.37 615.286 1042.08 605.201 1059.72 588.686C1069.79 596.242 1082.25 600.799 1095.82 600.864C1129.4 601.027 1156.75 573.937 1156.91 540.357C1157.07 506.778 1129.98 479.425 1096.4 479.262ZM733 445.534C731.688 445.446 732.833 447.541 731.5 447.534C730.396 447.529 728.5 449.034 732.177 451.251C734.648 450.179 737.04 448.961 739.328 447.584C736.5 445.034 732.95 444.267 733 445.534Z" fill="#F8CACD"/>
<path d="M912.143 93.661C908.321 93.661 904.64 94.258 901.179 95.351C898.69 71.728 878.715 53.317 854.433 53.317C847.867 53.317 841.62 54.672 835.943 57.103C836.007 56.026 836.107 54.959 836.107 53.866C836.107 24.117 811.99 0 782.241 0C758.229 0 737.906 15.72 730.952 37.423C726.925 35.886 722.573 35.008 718.006 35.008C702.485 35.008 689.272 44.75 684.053 58.439C678.62 55.208 672.296 53.318 665.515 53.318C645.432 53.318 629.152 69.598 629.152 89.68C629.152 94.521 630.117 99.132 631.835 103.356C613.269 110.182 600 127.971 600 148.905C600 175.73 621.746 197.476 648.571 197.476C663.329 197.476 676.523 190.871 685.431 180.483C696.999 190.337 711.986 196.298 728.373 196.298C736.35 196.298 743.997 194.887 751.08 192.304C761.65 202.119 775.801 208.13 791.363 208.13C812.807 208.13 831.588 196.733 841.981 179.666C847.585 183.195 854.199 185.268 861.311 185.268C876.711 185.268 889.844 175.68 895.145 162.16C900.22 164.85 905.999 166.387 912.143 166.387C932.226 166.387 948.506 150.107 948.506 130.024C948.506 109.941 932.226 93.661 912.143 93.661Z" fill="white"/>
</svg>
