<svg width="774" height="424" viewBox="0 0 774 424" fill="none" xmlns="http://www.w3.org/2000/svg">
<path d="M465.444 50.9518C460.926 50.9518 456.627 51.8704 452.72 53.5219C449.727 35.3234 433.749 21.4283 414.478 21.4283C406.257 21.4283 398.64 23.9637 392.369 28.2761C382.948 11.4209 364.783 0 343.911 0C314.068 0 289.759 23.3425 288.644 52.549C283.289 49.652 277.144 48.0035 270.608 48.0035C249.838 48.0035 233 64.6345 233 85.1492C233 105.664 249.838 122.295 270.608 122.295C270.68 122.295 270.75 122.29 270.822 122.29C273.027 145.171 292.532 163.07 316.276 163.07C333.525 163.07 348.535 153.623 356.304 139.683C360.186 141.482 364.504 142.516 369.076 142.516C376.716 142.516 383.672 139.687 388.986 135.061C395.605 143.186 405.741 148.397 417.12 148.397C437.063 148.397 453.23 132.429 453.23 112.731C453.23 112.674 453.222 112.618 453.221 112.561C456.995 114.082 461.116 114.935 465.444 114.935C483.332 114.935 497.833 100.613 497.833 82.9446C497.833 65.2746 483.332 50.9518 465.444 50.9518ZM388.985 90.3979C388.359 89.8527 387.709 89.3371 387.038 88.8442C387.362 88.4452 387.685 88.0452 387.998 87.6373C388.623 88.2151 389.262 88.7771 389.924 89.3134C389.607 89.6729 389.287 90.0265 388.985 90.3979Z" fill="white"/>
<path d="M773.731 215.594C773.731 202.397 762.899 191.698 749.537 191.698C749.054 191.698 748.575 191.716 748.099 191.743C744.304 180.283 733.397 172 720.526 172C710.781 172 702.165 176.751 696.904 184.03C694.673 182.443 691.943 181.498 688.983 181.498C681.482 181.498 675.401 187.504 675.401 194.913C675.401 194.938 675.405 194.96 675.405 194.985C662.88 195.891 653 206.207 653 218.809C653 232.007 663.832 242.706 677.194 242.706C681.63 242.706 685.783 241.522 689.357 239.463C691.377 250.943 701.507 259.676 713.708 259.676C722.284 259.676 729.838 255.361 734.272 248.812C736.353 250.092 738.801 250.843 741.432 250.843C748.434 250.843 754.194 245.609 754.931 238.887C765.695 236.465 773.731 226.959 773.731 215.594Z" fill="white"/>
<path d="M232.444 310.952C227.926 310.952 223.627 311.87 219.72 313.522C216.727 295.323 200.749 281.428 181.478 281.428C173.257 281.428 165.64 283.964 159.369 288.276C149.948 271.421 131.783 260 110.911 260C81.068 260 56.7589 283.342 55.6439 312.549C50.2889 309.652 44.144 308.004 37.608 308.004C16.838 308.004 0 324.635 0 345.149C0 365.664 16.838 382.295 37.608 382.295C37.68 382.295 37.75 382.29 37.822 382.29C40.027 405.171 59.532 423.07 83.276 423.07C100.525 423.07 115.535 413.623 123.304 399.683C127.186 401.482 131.504 402.516 136.076 402.516C143.716 402.516 150.672 399.687 155.986 395.061C162.605 403.186 172.741 408.397 184.12 408.397C204.063 408.397 220.23 392.429 220.23 372.731C220.23 372.674 220.222 372.618 220.221 372.561C223.995 374.082 228.116 374.935 232.444 374.935C250.332 374.935 264.833 360.613 264.833 342.945C264.833 325.275 250.332 310.952 232.444 310.952ZM155.985 350.398C155.359 349.853 154.709 349.337 154.038 348.844C154.362 348.445 154.685 348.045 154.998 347.637C155.623 348.215 156.262 348.777 156.924 349.313C156.607 349.673 156.287 350.027 155.985 350.398Z" fill="white"/>
</svg>
