<svg width="227" height="164" viewBox="0 0 227 164" fill="none" xmlns="http://www.w3.org/2000/svg">
<path d="M232.444 50.9518C227.926 50.9518 223.627 51.8704 219.72 53.5219C216.727 35.3234 200.749 21.4283 181.478 21.4283C173.257 21.4283 165.64 23.9637 159.369 28.2761C149.948 11.4209 131.783 0 110.911 0C81.068 0 56.7589 23.3425 55.6439 52.549C50.2889 49.652 44.144 48.0035 37.608 48.0035C16.838 48.0035 0 64.6345 0 85.1492C0 105.664 16.838 122.295 37.608 122.295C37.68 122.295 37.75 122.29 37.822 122.29C40.027 145.171 59.532 163.07 83.276 163.07C100.525 163.07 115.535 153.623 123.304 139.683C127.186 141.482 131.504 142.516 136.076 142.516C143.716 142.516 150.672 139.687 155.986 135.061C162.605 143.186 172.741 148.397 184.12 148.397C204.063 148.397 220.23 132.429 220.23 112.731C220.23 112.674 220.222 112.618 220.221 112.561C223.995 114.082 228.116 114.935 232.444 114.935C250.332 114.935 264.833 100.613 264.833 82.9446C264.833 65.2746 250.332 50.9518 232.444 50.9518ZM155.985 90.3979C155.359 89.8527 154.709 89.3371 154.038 88.8442C154.362 88.4452 154.685 88.0452 154.998 87.6373C155.623 88.2151 156.262 88.7771 156.924 89.3134C156.607 89.6729 156.287 90.0265 155.985 90.3979Z" fill="white"/>
</svg>
