<svg width="273" height="553" viewBox="0 0 273 553" fill="none" xmlns="http://www.w3.org/2000/svg">
<path d="M237.383 217.391C235.658 219.441 233.934 221.482 232.209 223.531C214.845 216.055 193.518 204.019 173.635 184.334C168.858 179.603 164.587 174.853 160.776 170.194C158.004 164.442 159.684 158.049 163.919 155.322C168.127 152.614 173.174 154.591 173.725 154.817C180.208 158.474 184.813 162.058 187.495 164.298C206.222 179.91 208.597 194.736 228.173 210.728C232.164 213.969 235.595 216.245 237.383 217.391Z" fill="#FC6454"/>
<path d="M123.678 206.656C118.73 212.742 113.782 218.819 108.833 224.905C127.245 239.018 145.656 253.131 164.076 267.244C166.062 264.002 168.672 259.063 170.406 252.643C172.645 244.318 172.284 237.681 171.868 229.528C171.354 219.469 171.417 209.374 170.406 199.351C169.105 186.439 169.692 165.906 178.433 132.921L151.426 97.1459C149.683 95.7734 143.425 90.5092 141.448 81.0824C141.177 79.8002 141.015 78.5631 140.933 77.3803C140.419 70.0844 142.992 64.5764 143.886 62.8337C142.044 62.6531 139.452 62.1565 136.717 60.7298C130.333 57.407 127.795 51.4746 127.082 49.5874C119.452 69.3169 114.007 85.859 110.314 97.8773C104.933 115.349 104.508 118.988 104.472 122.212C104.273 139.81 112.87 148.894 118.829 169.418C121.24 177.779 123.895 190.303 123.678 206.656Z" fill="#FC6454"/>
<path d="M167.231 163.332C176.77 163.332 184.504 155.598 184.504 146.059C184.504 136.519 176.77 128.785 167.231 128.785C157.691 128.785 149.957 136.519 149.957 146.059C149.957 155.598 157.691 163.332 167.231 163.332Z" fill="#FC6454"/>
<path d="M130.491 287.685C149.711 287.685 165.291 270.471 165.291 249.237C165.291 228.003 149.711 210.79 130.491 210.79C111.272 210.79 95.6914 228.003 95.6914 249.237C95.6914 270.471 111.272 287.685 130.491 287.685Z" fill="#FC6454"/>
<path d="M170.132 258.313C163.658 279.307 153.292 305.276 136.199 332.491C135.206 334.062 134.294 335.561 133.291 337.051C128.316 344.762 123.25 351.823 118.275 358.207C115.124 362.27 111.973 366.09 108.903 369.656C98.7805 365.34 88.5772 361.024 78.4551 356.627C79.033 352.979 79.945 347.832 80.9472 341.611C82.5274 332.067 83.8547 324.437 84.9292 318.297C88.1618 299.633 89.4078 294.567 91.5659 288.924C93.9768 282.115 98.2026 272.499 105.833 261.627C122.925 260.797 140.018 259.885 157.021 258.973C161.418 258.729 165.734 258.557 170.132 258.313Z" fill="#FC6454"/>
<path d="M21.2676 485.757C25.8004 487.969 30.3242 490.172 34.857 492.384C44.5096 470.217 57.0787 445.386 73.5034 419.336C85.2959 400.644 97.3141 384.111 108.872 369.673C98.7228 365.339 88.5826 360.996 78.4425 356.662C73.2957 361.005 66.7132 367.091 59.8417 375.073C53.7016 382.206 45.4937 391.732 39.6516 404.401C30.1345 425.06 35.76 434.875 26.0984 470.118C24.2744 476.799 22.4956 482.217 21.2676 485.757Z" fill="#FC6454"/>
<path d="M167.229 334.143C166.236 339.705 165.153 345.096 163.997 350.243C161.676 360.699 158.931 370.234 156.033 378.948C144.999 378.785 133.965 378.614 122.931 378.451C122.1 374.803 120.935 369.738 119.526 363.598C119.111 361.692 118.696 359.859 118.28 358.207C113.134 335.561 111.066 325.43 110.063 318.793C109.567 315.642 109.404 313.321 109.314 310.829C108.98 303.614 109.314 293.077 112.222 280.129C127.156 273.077 142.172 266.025 157.026 258.973C161.505 256.896 165.902 254.738 170.381 252.67C172.367 274.494 172.701 302.45 167.229 334.143Z" fill="#FC6454"/>
<path d="M119.051 519.591C124.081 519.916 129.11 520.241 134.14 520.566C134.654 496.385 136.858 468.647 142.167 438.316C145.977 416.546 150.826 396.69 156.036 378.938C145.002 378.776 133.977 378.613 122.943 378.451C119.828 384.428 116.053 392.555 112.722 402.541C109.751 411.472 105.769 423.4 105.182 437.341C104.216 460.068 113.146 467.012 117.589 503.284C118.437 510.164 118.844 515.853 119.051 519.591Z" fill="#FC6454"/>
<path d="M138.478 75.1491C139.245 75.9979 140.076 76.7383 140.925 77.3794C140.41 70.0836 142.983 64.5756 143.877 62.8329C141.485 62.1286 139.092 61.4333 136.708 60.729C136.545 60.8464 136.383 60.9818 136.229 61.1173C133.042 64.0248 134.053 70.3003 138.478 75.1491Z" fill="#210B04"/>
<path d="M128.349 58.4709C133.423 62.3627 137.992 65.2882 141.631 67.4282C142.489 67.9339 147.437 70.7782 153.586 71.6631C155.238 71.9069 157.008 72.0062 158.426 70.9046C160.458 69.3244 160.376 66.8594 160.367 66.6427C160.638 66.146 160.927 65.9925 161.135 65.9383C161.812 65.7578 162.408 66.4801 163.302 66.146C164.087 65.7849 164.918 64.9993 164.828 64.0873C164.774 63.5275 164.394 63.1392 164.214 62.9767C164.44 62.9586 166.119 62.787 166.905 61.4236C167.221 60.7915 167.221 60.2407 167.031 59.7441C166.769 59.094 166.498 58.2994 166.263 57.3874C164.756 51.5363 166.209 45.7303 167.645 43.6084C167.807 43.3646 168.494 42.3803 169.234 40.9266C169.469 40.4661 169.704 39.9514 169.938 39.3735C171.519 35.4186 171.465 31.9422 171.41 29.9377C171.284 24.8721 169.794 20.8088 168.557 18.2083C167.166 15.057 164.412 10.154 159.166 6.38868C149.667 -0.437639 132.258 -2.47832 122.705 7.5896C113.007 17.811 115.969 35.6714 121.134 42.0643C121.928 43.0485 124.511 45.9018 126.389 50.552C127.662 53.7395 128.141 56.5838 128.349 58.4709Z" fill="#FC6454"/>
<path d="M164.929 56.2221C165.363 55.9783 166.013 55.6803 166.834 55.581C167.701 55.4817 168.017 55.7706 168.785 55.5629C169.074 55.4816 169.742 55.2559 170.275 54.6238C170.365 54.5245 170.961 53.7841 170.952 52.8179C170.934 51.6351 169.995 50.7682 169.643 50.4071C168.839 49.5944 167.828 47.9059 166.979 43.9961C166.139 45.9374 165.308 47.8698 164.469 49.8111C164.631 51.9511 164.776 54.0821 164.929 56.2221Z" fill="#FC6454"/>
<path d="M156.009 41.7316C155.611 41.7316 155.223 41.5239 155.015 41.1446C154.717 40.5938 154.925 39.9166 155.467 39.6187C156.83 38.8782 159.043 37.9843 161.851 37.9572C163.557 37.9392 165.444 38.2823 167.142 38.9685C167.72 39.2033 168 39.8624 167.765 40.4403C167.53 41.0182 166.862 41.2891 166.293 41.0634C164.903 40.5035 163.458 40.2146 161.986 40.2146C159.53 40.2417 157.679 40.9821 156.541 41.5961C156.379 41.6864 156.189 41.7316 156.009 41.7316Z" fill="#210B04"/>
<path d="M161.823 41.3248C161.471 42.9591 162.076 44.4761 163.186 44.7199C164.297 44.9637 165.48 43.835 165.841 42.2007C166.193 40.5663 165.588 39.0494 164.477 38.8056C163.358 38.5618 162.175 39.6905 161.823 41.3248Z" fill="#210B04"/>
<path d="M161.964 63.5741C161.314 63.5741 160.483 63.4297 159.689 62.8789C158.975 62.3732 158.587 61.7411 158.388 61.2987C158.136 60.7298 158.379 60.0617 158.957 59.8088C159.535 59.5379 160.194 59.7998 160.447 60.3777C160.519 60.5312 160.673 60.8111 160.989 61.0368C161.531 61.4161 162.163 61.3348 162.416 61.2716C163.012 61.1362 163.626 61.5244 163.752 62.1384C163.887 62.7434 163.499 63.3484 162.885 63.4748C162.696 63.52 162.361 63.5741 161.964 63.5741Z" fill="#210B04"/>
<path d="M165.052 59.0851C163.942 59.3469 162.055 59.8616 159.418 60.8368C159.608 61.0625 161.612 63.3831 164.204 62.9768C164.339 62.9588 166.56 62.5705 167.084 60.9993C167.256 60.4756 167.301 59.6359 166.831 59.2115C166.353 58.7871 165.576 58.9587 165.052 59.0851Z" fill="#D82E2E"/>
<path d="M165.857 30.6162C166.011 30.6433 167.121 30.8329 167.735 31.8803C168.25 32.7472 168.07 33.614 168.024 33.8126L165.857 30.6162Z" fill="#210B04"/>
<path d="M165.545 30.5791C165.762 30.9854 166.078 31.5452 166.494 32.1773C167.171 33.1976 167.396 33.3511 167.333 33.5317C167.099 34.1999 163.821 33.1434 160.281 33.3331C157.762 33.4685 155.721 34.1999 154.34 34.832C154.566 34.3083 154.836 33.8568 155.116 33.4775C158.033 29.64 164.516 30.4436 165.545 30.5791Z" fill="#210B04"/>
<path d="M161.03 66.8231C160.596 66.7328 158.718 65.9563 158.718 65.9563C158.14 65.7216 157.869 65.0624 158.113 64.4845C158.348 63.9066 159.016 63.6267 159.585 63.8795L161.463 64.6561C162.041 64.8908 162.312 65.55 162.068 66.1279C161.896 66.5703 161.472 66.8231 161.03 66.8231Z" fill="#210B04"/>
<path d="M135.616 36.421C134.668 40.7732 136.51 44.8726 139.725 45.5769C142.939 46.2722 146.316 43.3105 147.255 38.9582C148.203 34.606 146.361 30.5066 143.147 29.8023C139.932 29.098 136.564 32.0597 135.616 36.421Z" fill="#FC6454"/>
<path d="M140.667 46.805C140.269 46.805 139.872 46.7599 139.484 46.6786C137.118 46.1639 135.276 44.1594 134.563 41.3241C134.409 40.7191 134.77 40.1051 135.375 39.9516C135.971 39.771 136.594 40.1683 136.748 40.7643C137.253 42.7598 138.445 44.1413 139.962 44.4664C140.649 44.6108 141.362 44.5476 142.075 44.2587C142.653 44.033 143.312 44.3038 143.547 44.8908C143.773 45.4687 143.493 46.1278 142.915 46.3626C142.184 46.6515 141.425 46.805 140.667 46.805Z" fill="#210B04"/>
<path d="M135.448 41.0897C134.888 41.0897 134.4 40.6743 134.328 40.1054C134.192 39.067 134.211 37.9835 134.382 36.8819C134.472 36.2769 135.104 35.8435 135.673 35.9338C136.287 36.0241 136.712 36.602 136.612 37.216C136.477 38.1099 136.459 38.9767 136.567 39.8075C136.648 40.4215 136.206 40.9903 135.592 41.0716C135.547 41.0896 135.493 41.0897 135.448 41.0897Z" fill="#210B04"/>
<path d="M135.833 36.701C134.912 36.4752 134.569 35.8431 134.75 35.2472C136.104 30.7324 139.842 27.9062 143.382 28.6918C144.221 28.8724 145.007 29.2426 145.702 29.7843C146.19 30.1726 146.28 30.8769 145.892 31.3735C145.504 31.8611 144.79 31.9424 144.303 31.5632C143.878 31.2291 143.409 31.0033 142.894 30.895C140.546 30.4164 137.91 32.5835 136.899 35.8973C136.763 36.394 136.321 36.701 135.833 36.701Z" fill="#210B04"/>
<path d="M141.823 42.8519C141.281 42.8519 140.803 42.4636 140.712 41.9128L139.367 34.0571C139.258 33.4431 139.674 32.8652 140.288 32.7569C140.884 32.6304 141.489 33.0638 141.588 33.6779L142.933 41.5335C143.042 42.1476 142.627 42.7254 142.013 42.8338C141.958 42.8428 141.886 42.8519 141.823 42.8519Z" fill="#210B04"/>
<path d="M141.288 38.2915C141.008 38.2915 140.728 38.1832 140.503 37.9755C140.051 37.5421 140.033 36.8287 140.466 36.3773L142.363 34.3998C142.796 33.9393 143.509 33.9483 143.961 34.3637C144.412 34.7971 144.43 35.5104 143.997 35.9619L142.101 37.9394C141.884 38.1832 141.586 38.2915 141.288 38.2915Z" fill="#210B04"/>
<path d="M167.232 334.143C166.239 339.705 165.155 345.096 163.999 350.243C154.293 348.581 146.825 345.43 141.019 342.198C138.03 340.455 135.457 338.712 133.299 337.051C124.007 329.665 120.856 322.694 110.066 318.793C109.407 318.459 108.657 318.296 107.908 318.044C99.4472 315.551 91.8985 316.301 84.9277 318.296C88.1603 299.632 89.4064 294.567 91.5644 288.923C93.9753 282.115 98.2011 272.499 105.831 261.627C122.924 260.796 140.017 259.884 157.019 258.973C161.498 256.896 165.895 254.738 170.374 252.67C172.37 274.494 172.704 302.45 167.232 334.143Z" fill="#210B04"/>
<path d="M172.137 197.166C155.126 195.08 138.114 192.985 121.103 190.899C118.484 178.601 115.874 166.303 113.256 154.014C127.161 151.91 141.076 149.797 154.981 147.693C160.363 139.539 165.735 131.386 171.117 123.232C173.925 125.273 178.72 129.327 182.097 136.045C183.018 137.878 184.914 142.23 185.402 148.036C186.151 156.939 182.964 162.51 179.18 172.75C177.05 178.511 174.359 186.737 172.137 197.166Z" fill="#FFA1A1"/>
<path d="M208.909 341.277C175.508 348.284 155.002 342.071 142.37 334.929C125.512 325.394 124.636 315.326 109.322 310.802C82.3329 302.838 64.0661 327.931 46.4315 320.536C36.8782 316.527 27.0632 302.793 26.377 259.695C58.495 236.038 90.6039 212.38 122.722 188.714C138.46 189.554 154.199 190.393 169.946 191.233C176.592 208.913 183.003 228.064 188.863 248.634C198.335 281.926 204.683 313.095 208.909 341.277Z" fill="#FFA1A1"/>
<path d="M118.276 359.335C117.753 359.335 117.283 358.974 117.175 358.432L108.705 317.185C108.579 316.571 108.976 315.975 109.581 315.849C110.213 315.741 110.791 316.12 110.917 316.725L119.387 357.972C119.513 358.586 119.116 359.182 118.511 359.308C118.43 359.326 118.349 359.335 118.276 359.335Z" fill="#210B04"/>
<path d="M63.3894 168.893C61.0688 168.893 58.6399 168.478 56.3193 167.367C45.7547 162.329 42.6487 145.615 47.1273 135.141C48.8339 131.141 51.1905 129.028 54.1793 126.355C57.3938 123.475 61.3939 119.89 66.3601 112.36C68.6897 108.82 69.972 106.834 71.3715 103.673C73.4122 99.0773 73.9179 96.3052 74.4054 93.6234C74.9653 90.5805 75.489 87.7181 78.0534 82.779C79.5523 79.8986 81.1324 77.4786 82.9022 75.3838C89.4395 67.5823 94.7308 62.5438 95.688 61.7041C102.505 55.8078 111.67 38.5072 122.912 10.281C123.147 9.71211 123.815 9.45026 124.384 9.64891C124.962 9.87464 125.242 10.5338 125.016 11.1207C113.476 40.0874 104.365 57.1893 97.1779 63.4197C95.9228 64.5032 90.6225 69.7042 84.6449 76.8285C82.9925 78.806 81.4937 81.0904 80.076 83.8174C77.6652 88.4585 77.1865 91.032 76.6448 94.0207C76.1572 96.7025 75.6064 99.7364 73.4574 104.576C71.9856 107.89 70.6039 110.048 68.2653 113.597C63.1456 121.371 59.0192 125.064 55.7053 128.035C52.8159 130.626 50.7301 132.495 49.2132 136.026C45.1499 145.543 48.0844 160.938 57.3036 165.336C63.6603 168.352 71.0645 165.372 73.9539 163.954C74.5138 163.683 75.1911 163.918 75.4619 164.469C75.7328 165.029 75.507 165.706 74.9472 165.977C72.7621 167.042 68.3015 168.893 63.3894 168.893Z" fill="#682C23"/>
<path d="M155.125 180.65C158.367 175.738 161.608 170.826 164.841 165.914C162.593 151.322 158.665 134.401 151.784 116.251C150.005 111.556 148.136 107.086 146.231 102.834C142.926 95.4745 133.788 91.7814 127.052 96.2149C122.438 99.3211 121.12 103.971 120.795 105.299C126.935 125.353 135.685 147.024 148.245 169.11C150.493 173.092 152.796 176.939 155.125 180.65Z" fill="#FC6454"/>
<path d="M173.819 88.124C176.455 88.5574 179.101 88.9909 181.738 89.4333C184.185 108.179 184.744 132.658 177.981 159.809C176.356 166.329 174.46 172.424 172.401 178.094C168.88 183.422 162.523 185.236 158.017 182.988C153.538 180.758 152.663 175.403 152.572 174.825C152.41 167.385 153.123 161.597 153.683 158.139C157.53 134.057 169.06 124.441 172.798 99.438C173.548 94.3634 173.747 90.255 173.819 88.124Z" fill="#FC6454"/>
<path d="M181.742 89.4338C181.39 91.4835 179.475 92.865 177.516 92.5941C175.701 92.3413 174.283 90.716 174.292 88.7836C172.008 86.0477 168.811 81.3885 167.331 74.9053C166.69 72.1061 165.326 65.027 168.504 57.686C170.067 54.0922 171.448 52.3495 172.649 52.4579C174.843 52.6656 176.451 59.0043 177.48 71.4741C178.898 77.4697 180.315 83.4472 181.742 89.4338Z" fill="#FC6454"/>
<path d="M265.261 231.864C260.024 232.596 249.685 233.237 238.642 228.235C234.371 226.293 230.958 223.955 228.357 221.815C230.967 220.081 233.585 218.347 236.195 216.604C246.922 218.862 257.649 221.128 268.367 223.386C269.189 223.557 271.979 224.234 272.34 225.806C272.756 227.575 270.092 230.275 265.261 231.864Z" fill="#FC6454"/>
<path d="M238.733 228.38C243.239 232.596 245.487 234.709 245.072 235.414C244.503 236.362 239.727 235.233 236.061 232.515C230.634 228.497 228.295 221.481 229.361 220.714C230.011 220.235 232.918 222.953 238.733 228.38Z" fill="#FC6454"/>
<path d="M171.145 17.965C171.597 21.7574 169.312 21.3691 157.944 39.7713C157.944 39.7713 150.865 51.2298 142.413 61.9749C140.842 63.9704 140.011 64.7831 138.874 65.7673C132.562 71.194 129.095 69.0811 125.51 74.237C120.39 81.587 124.742 89.2079 125.943 104.143C126.837 115.249 124.923 124.685 121.104 143.557C117.32 162.221 115.316 171.647 109.347 176.027C96.2904 185.607 76.2087 176.713 74.7821 176.054C71.4321 174.519 64.0642 171.024 58.8812 162.916C49.942 148.956 54.9894 133.091 55.4228 131.8C59.7209 119.005 67.73 120.062 74.7821 104.143C79.1704 94.2374 76.6694 92.4676 81.437 83.3116C87.568 71.5371 92.9676 71.7268 98.8097 62.5708C107.957 48.232 98.1325 39.7261 106.069 23.4188C111.966 11.3193 124.815 0.94436 138.801 0.0684962C153.42 -0.870574 169.953 7.98739 171.145 17.965Z" fill="#682C23"/>
<path d="M138.002 150.664C137.568 150.664 137.144 150.411 136.963 149.978L126.363 125.12C126.119 124.551 126.381 123.883 126.958 123.639C127.509 123.395 128.195 123.657 128.43 124.235L139.031 149.093C139.275 149.662 139.004 150.33 138.435 150.574C138.299 150.628 138.146 150.664 138.002 150.664Z" fill="#210B04"/>
<path d="M159.42 143.286C158.923 143.286 158.472 142.961 158.337 142.465L148.874 108.757C148.702 108.161 149.054 107.538 149.65 107.367C150.264 107.204 150.878 107.556 151.041 108.152L160.504 141.86C160.675 142.455 160.323 143.079 159.727 143.25C159.628 143.268 159.519 143.286 159.42 143.286Z" fill="#210B04"/>
<path d="M157.409 149.399C156.47 149.155 156.145 148.514 156.335 147.918L157.427 144.577C160.1 136.45 163.053 128.279 166.186 120.306C166.412 119.728 167.071 119.43 167.649 119.665C168.227 119.89 168.516 120.549 168.29 121.127C165.175 129.073 162.249 137.2 159.577 145.29L158.493 148.622C158.34 149.101 157.888 149.399 157.409 149.399Z" fill="#210B04"/>
<path d="M164.453 63.2382C163.938 63.8703 162.873 63.6897 162.584 63.6355C160.877 63.3375 159.793 61.6219 159.965 61.3962C160.082 61.2517 160.706 61.8206 161.861 61.7483C162.222 61.7212 162.213 61.6671 162.584 61.64C162.683 61.6309 164.362 61.5316 164.66 62.2991C164.787 62.6242 164.642 63.0125 164.453 63.2382Z" fill="white"/>
<path d="M181.83 549.775C181.333 551.762 179.419 552.592 179.175 552.683H115.372C114.208 552.105 112.637 551.193 111.968 549.531C110.722 546.461 113.214 542.732 114.208 541.233C114.786 540.321 115.282 539.328 115.869 538.082C117.531 534.1 119.02 528.294 119.02 519.581C124.086 519.915 129.143 520.249 134.118 520.574C137.937 526.876 142.163 530.777 145.071 532.935C151.048 537.585 156.854 539.572 162.245 541.233C162.823 541.396 163.491 541.567 164.069 541.73C170.128 543.554 175.437 544.303 179.166 544.637C181.243 545.712 182.326 547.87 181.83 549.775Z" fill="#FC6454"/>
<path d="M181.83 549.776C181.333 551.762 179.419 552.593 179.175 552.683H115.372C114.208 552.105 112.637 551.193 111.968 549.532C110.722 546.462 113.214 542.733 114.208 541.234C114.786 540.322 115.282 539.329 115.869 538.083C120.104 539.491 124.826 543.726 133.793 544.8C137.025 545.216 140.267 544.8 146.822 543.97C153.378 543.139 158.272 542.146 162.254 541.234C162.832 541.396 163.5 541.568 164.078 541.73C170.137 543.554 175.446 544.304 179.175 544.638C181.243 545.712 182.326 547.871 181.83 549.776Z" fill="url(#paint0_linear_13_24713)"/>
<path d="M53.4421 543.23C51.7807 544.431 49.7851 543.835 49.5413 543.736L0.790898 502.579C0.276216 501.388 -0.337686 499.672 0.222144 497.974C1.25151 494.823 5.55857 493.577 7.28321 493.08C8.31257 492.755 9.34191 492.322 10.588 491.744C14.4255 489.776 19.3105 486.299 24.9359 479.645C28.5929 483.166 32.2408 486.678 35.8346 490.146C34.6788 497.424 35.4011 503.139 36.2318 506.661C37.7939 514.065 40.9543 519.329 44.0063 524.079C44.3404 524.584 44.7467 525.135 45.0808 525.641C48.5301 530.941 52.1057 534.941 54.7423 537.605C55.6272 539.754 55.0584 542.093 53.4421 543.23Z" fill="#FC6454"/>
<path d="M53.4421 543.231C51.7807 544.432 49.7851 543.836 49.5413 543.737L0.790898 502.58C0.276216 501.388 -0.337686 499.673 0.222144 497.975C1.25151 494.824 5.55857 493.578 7.28321 493.081C8.31257 492.756 9.34191 492.323 10.588 491.745C12.9086 495.555 13.7934 501.84 19.9425 508.44C22.1457 510.842 24.8907 512.612 30.4349 516.206C35.979 519.799 40.3584 522.192 43.9882 524.07C44.3223 524.576 44.7285 525.127 45.0626 525.632C48.5119 530.933 52.0877 534.933 54.7243 537.597C55.6272 539.755 55.0584 542.093 53.4421 543.231Z" fill="url(#paint1_linear_13_24713)"/>
<defs>
<linearGradient id="paint0_linear_13_24713" x1="146.788" y1="538.083" x2="146.788" y2="552.683" gradientUnits="userSpaceOnUse">
<stop stop-color="#F65F51"/>
<stop offset="1" stop-color="#FB4967"/>
</linearGradient>
<linearGradient id="paint1_linear_13_24713" x1="27.5764" y1="491.745" x2="27.5764" y2="543.972" gradientUnits="userSpaceOnUse">
<stop stop-color="#F65F51"/>
<stop offset="1" stop-color="#FB4967"/>
</linearGradient>
</defs>
</svg>
