<svg width="252" height="550" viewBox="0 0 252 550" fill="none" xmlns="http://www.w3.org/2000/svg">
<path d="M90.9011 544.1C101.529 544.019 112.157 543.938 122.775 543.857C123.543 542.737 124.337 541.139 123.994 539.477C123.471 536.976 120.771 536.507 117.421 534.123C110.369 529.103 108.129 521.12 107.678 519.531C107.037 517.247 106.847 515.296 106.784 514.077C106.062 513.915 105.267 513.797 104.418 513.77C99.6146 513.617 95.9757 516.335 94.4497 517.653C93.2939 524.01 92.2917 528.497 91.3797 531.929C90.883 533.816 89.9982 537.003 90.4045 541.175C90.5309 542.412 90.7386 543.423 90.9011 544.1Z" fill="#FC6454"/>
<path d="M122.901 544.1C112.237 544.1 101.564 544.1 90.8913 544.1C90.1328 543.125 89.1938 541.617 89.0222 539.675C88.8506 537.761 89.4917 536.407 90.2322 534.438C90.9274 532.569 91.8033 529.914 92.5257 526.51C93.1487 527.124 98.4309 532.118 105.357 530.853C108.309 530.312 110.422 528.849 111.578 527.874C114.476 531.395 117.294 533.021 119.416 533.851C121.05 534.492 122.486 534.745 123.804 536.19C123.939 536.334 126.603 539.332 125.312 542.005C124.698 543.296 123.452 543.883 122.901 544.1Z" fill="#210B04"/>
<path d="M59.8579 104.265C64.9415 132.392 109.285 161.232 146.884 150.081C175.905 141.485 196.177 110.197 190.407 98.8473C186.47 91.0999 171.427 94.6485 163.733 81.7905C160.257 75.9845 159.905 69.5284 154.397 67.4426C150.234 65.8715 147.544 68.4629 144.022 66.7473C139.191 64.3906 139.056 56.9413 137.972 51.0179C134.532 32.1643 118.794 13.8976 104.789 10.5747C102.875 10.1232 98.5584 9.47309 89.9262 8.15478C82.8109 7.07124 79.2352 6.52947 78.5219 6.77327C69.5827 9.77107 73.9349 33.6993 68.9145 64.6886C64.3997 92.4815 57.754 92.653 59.8579 104.265Z" fill="#FFC392"/>
<path d="M41.9609 115.541C83.0001 115.298 124.048 115.054 165.096 114.81C164.257 110.665 162.415 105.049 157.855 100.634C149.186 92.2452 139.642 97.3198 127.931 89.2022C126.342 88.1006 116.924 81.3646 114.305 69.0935C112.599 61.1024 114.54 54.3754 115.741 51.1157C111.84 54.3663 107.94 57.6079 104.039 60.8586C100.301 61.1204 96.5534 61.3823 92.8062 61.6441C92.1741 61.6983 91.5691 61.7525 90.937 61.7796C90.2598 78.123 85.0769 85.5272 80.1648 89.2022C70.9276 96.1098 59.8394 91.9021 50.25 100.634C45.1935 105.212 43.0174 111.135 41.9609 115.541Z" fill="#FC6454"/>
<path d="M67.2568 112.833C66.9949 112.824 66.381 112.851 65.8572 113.267C65.1168 113.853 64.855 114.982 65.2432 116.066C92.7742 116.066 120.296 116.066 147.827 116.066C148.152 115.199 147.936 114.251 147.303 113.7C146.626 113.113 145.778 113.239 145.642 113.267C134.68 110.395 126.12 110.467 120.269 111.081C115.493 111.587 114.255 112.273 108.982 112.526C99.6006 112.978 95.5012 111.199 87.8532 110.693C83.1217 110.377 76.0877 110.485 67.2568 112.833Z" fill="white"/>
<path d="M101.851 94.9997C100.713 96.4264 98.8802 97.1036 97.1285 96.7515C94.6453 96.2458 93.6972 93.9433 93.625 93.7808L101.851 94.9997Z" fill="#210B04"/>
<path d="M93.1044 99.2891C92.4994 99.569 91.5694 99.9754 90.3955 100.337C86.4587 101.556 83.1538 101.321 80.8603 101.122C72.5261 100.418 64.8239 99.253 62.2324 98.8467C68.21 99.0544 74.1875 99.253 80.165 99.4607L93.1044 99.2891Z" fill="#210B04"/>
<path d="M100.703 99.2891C101.308 99.569 102.238 99.9754 103.412 100.337C107.349 101.556 110.645 101.321 112.947 101.122C121.281 100.418 128.984 99.253 131.584 98.8467C125.607 99.0544 119.629 99.253 113.651 99.4607L100.703 99.2891Z" fill="#210B04"/>
<path d="M103.243 375.963C113.176 374.853 123.099 373.742 133.032 372.632C139.885 358.13 147.091 339.882 152.572 318.238C157.52 298.716 159.895 281.027 160.96 266.165C143.344 269.451 125.312 271.925 106.864 273.469C106.323 273.515 105.772 273.56 105.23 273.605C104.119 281.84 103.207 290.4 102.53 299.267C100.399 327.285 101.085 353.047 103.243 375.963Z" fill="#FC6454"/>
<path d="M102.779 378.734C102.084 387.754 109.289 395.195 117.452 395.845C123.727 396.35 129.931 392.784 133.154 386.797C133.064 384.413 133.001 381.966 132.983 379.465C132.965 377.136 132.974 374.86 133.019 372.63C132.612 371.944 128.134 364.576 119.89 364.061C111.971 363.564 103.483 369.569 102.779 378.734Z" fill="#FC6454"/>
<path d="M93.5352 521.654C97.8242 520.922 102.104 520.2 106.393 519.469C106.547 516.697 106.863 512.371 107.585 507.116C113.129 466.574 131.522 451.82 135.017 419.891C135.847 412.306 136.127 401.092 132.904 387.024C122.836 384.622 112.768 382.229 102.7 379.827C99.8558 409.516 99.0522 432.677 98.8716 448.849C98.7723 457.797 98.7723 472.903 96.9032 493.608C95.8467 505.401 94.5284 515.098 93.5352 521.654Z" fill="#FC6454"/>
<path d="M102.942 377.995C93.0639 376.523 83.1766 375.051 73.2983 373.579C66.9686 358.843 60.4403 340.342 55.7449 318.517C51.5101 298.833 49.7764 281.063 49.2617 266.173C66.7519 270.101 84.6845 273.225 103.051 275.446C103.592 275.51 104.134 275.573 104.676 275.636C105.48 283.898 106.084 292.494 106.437 301.379C107.556 329.443 105.94 355.159 102.942 377.995Z" fill="#FC6454"/>
<path d="M103.3 380.777C103.662 389.815 96.1943 396.985 88.0135 397.346C81.7199 397.617 75.6521 393.833 72.6543 387.729C72.8349 385.355 72.9793 382.908 73.0877 380.406C73.196 378.077 73.2593 375.801 73.3044 373.58C73.7378 372.903 78.4873 365.706 86.7403 365.49C94.6682 365.282 102.93 371.594 103.3 380.777Z" fill="#FC6454"/>
<path d="M107.34 523.938C103.087 523.053 98.8247 522.169 94.5718 521.284C94.5176 518.512 94.3551 514.168 93.8314 508.895C89.7681 468.181 71.9168 452.768 69.5962 420.731C69.0454 413.119 69.1718 401.904 72.91 387.963C83.0592 385.931 93.2084 383.9 103.349 381.868C105.109 411.647 105.073 434.817 104.658 450.98C104.432 459.919 103.881 475.016 104.992 495.775C105.624 507.613 106.59 517.356 107.34 523.938Z" fill="#FC6454"/>
<path d="M63.1303 222.369C67.8438 214.26 73.0538 207.822 77.731 202.901C75.7626 188.833 73.7942 174.765 71.8257 160.697C70.8054 160.679 63.952 160.453 59.3831 154.819C55.4643 149.988 55.8345 144.408 55.9248 143.063C56.1325 140.02 57.1167 137.78 57.83 136.146C59.5095 132.317 61.7759 129.654 63.3561 128.074C62.5524 123.893 61.7488 119.712 60.9452 115.532C63.2387 112.832 66.6338 109.635 71.4104 107.261C86.589 99.6938 102.445 107.008 104.991 108.236C107.781 107.008 123.637 99.6938 138.816 107.261C143.592 109.635 146.987 112.832 149.281 115.532C148.477 119.712 135.538 187.054 132.486 202.892C137.163 207.813 142.373 214.251 147.087 222.36C157.019 239.453 159.99 255.805 160.956 266.162C151.836 269.918 140.297 273.675 126.644 275.896C119.149 277.115 112.197 277.675 105.957 277.846C105.677 274.262 104.54 274.262 104.251 277.846C98.0113 277.675 91.0587 277.115 83.5641 275.896C69.9205 273.675 58.3718 269.918 49.252 266.162C50.2271 255.805 53.1979 239.453 63.1303 222.369Z" fill="#FC6454"/>
<path d="M89.8984 73.1925C90.4582 73.2738 91.0271 73.3189 91.605 73.3189C97.3839 73.3189 102.061 69.1563 102.061 64.0185C102.061 61.0297 100.481 58.375 98.025 56.6775C95.0723 58.375 92.3093 59.5669 89.8262 60.4428C90.2957 65.4903 90.2686 69.6981 89.8984 73.1925Z" fill="#210B04"/>
<path d="M73.3425 46.4655C73.478 50.8809 75.1665 54.0051 77.3426 58.0142C77.7309 58.7276 82.3991 67.2063 87.3834 68.7864C89.1351 69.3372 90.923 69.4185 90.923 69.4185C92.133 69.4636 93.2887 69.3372 94.4445 69.0934C95.817 68.8045 106.562 65.7977 114.102 57.1655C123.447 46.4655 130.779 23.8465 119.05 10.7537C111.817 2.68133 100.666 1.95897 96.2414 1.93188C95.7628 1.94994 95.212 1.97703 94.607 2.03121C94.607 2.03121 92.2684 2.23889 90.1194 2.73552C82.3449 4.55045 78.2726 9.08326 78.2726 9.08326C74.3448 13.4535 73.5321 19.4311 73.5141 24.1987C73.5141 25.1197 73.5412 25.9955 73.5773 26.8082C73.6224 27.7292 73.6766 28.5599 73.7308 29.2823C73.8843 31.4313 74.1913 32.8309 74.1913 35.9732C74.1913 41.5715 73.2342 42.9801 73.3425 46.4655Z" fill="#FC6454"/>
<path d="M128.051 37.8875C128.051 42.1133 125.523 45.5445 122.399 45.5445C119.274 45.5445 116.746 42.1133 116.746 37.8875C116.746 33.6617 119.274 30.2305 122.399 30.2305C125.523 30.2305 128.051 33.6527 128.051 37.8875Z" fill="#FC6454"/>
<path d="M122.396 46.6742C121.303 46.6742 120.211 46.3311 119.244 45.681C118.73 45.3288 118.594 44.6336 118.937 44.1098C119.29 43.5952 119.985 43.4597 120.509 43.8028C122.45 45.1031 124.834 44.173 126.08 41.6628C126.36 41.103 127.055 40.8863 127.588 41.1572C128.148 41.4371 128.373 42.1143 128.093 42.6651C126.838 45.1753 124.716 46.6742 122.396 46.6742Z" fill="#210B04"/>
<path d="M127.485 42.3305C126.518 42.0596 126.211 41.4095 126.419 40.8226C126.69 40.0731 126.844 39.2695 126.889 38.4388C126.925 37.8158 127.376 37.3553 128.081 37.3733C128.704 37.4094 129.182 37.9422 129.146 38.5652C129.092 39.6126 128.884 40.624 128.541 41.5811C128.388 42.0416 127.945 42.3305 127.485 42.3305Z" fill="#210B04"/>
<path d="M128.007 38.1857C127.429 38.1857 126.923 37.7343 126.887 37.1474C126.571 33.2195 123.628 30.3933 120.982 31.6935C120.422 31.9644 119.745 31.7296 119.474 31.1608C119.203 30.6009 119.447 29.9237 120.007 29.6529C120.774 29.2826 121.578 29.093 122.4 29.093C125.885 29.093 128.793 32.4791 129.145 36.9668C129.19 37.5898 128.729 38.1316 128.106 38.1767C128.07 38.1857 128.043 38.1857 128.007 38.1857Z" fill="#210B04"/>
<path d="M121.223 42.6732C120.221 42.3572 119.941 41.698 120.176 41.1201L123.002 34.1042C123.228 33.5263 123.878 33.2373 124.474 33.4811C125.052 33.7069 125.332 34.3751 125.097 34.953L122.271 41.9689C122.099 42.4113 121.675 42.6732 121.223 42.6732Z" fill="#210B04"/>
<path d="M122.645 38.5645C122.266 38.5645 121.895 38.3749 121.688 38.0318L120.333 35.8196C120.008 35.2868 120.171 34.5916 120.703 34.2665C121.236 33.9505 121.931 34.113 122.256 34.6367L123.611 36.849C123.936 37.3817 123.764 38.077 123.241 38.402C123.042 38.5104 122.843 38.5645 122.645 38.5645Z" fill="#210B04"/>
<path d="M98.0538 35.7655C98.126 37.1109 99.4805 38.1674 101.079 38.1222C102.677 38.0771 103.905 36.9393 103.833 35.5849C103.76 34.2305 102.406 33.1831 100.808 33.2282C99.2096 33.2734 97.9816 34.4111 98.0538 35.7655Z" fill="#210B04"/>
<path d="M74.2901 35.6395C74.3624 36.9849 75.7168 38.0414 77.315 37.9962C78.9042 37.9511 80.1413 36.8134 80.069 35.4589C79.9968 34.1135 78.6424 33.0571 77.0441 33.1022C75.4459 33.1564 74.2179 34.2851 74.2901 35.6395Z" fill="#210B04"/>
<path d="M108.627 34.2301C103.272 31.6025 100.753 31.8824 99.4708 32.8937C98.2428 33.8689 98.008 35.6478 97.403 35.5394C96.771 35.4311 96.2202 33.3543 97.0238 31.8915C97.5836 30.8711 98.622 30.4738 98.9742 30.3384C102.694 28.9208 108.148 33.7967 108.627 34.2301Z" fill="#D82E2E"/>
<path d="M97.3647 36.488C97.0758 36.488 96.7958 36.3796 96.5882 36.172L94.6197 34.2848C94.1683 33.8604 94.1502 33.1471 94.5836 32.6866C95.008 32.2441 95.7304 32.217 96.1819 32.6505L97.0667 33.4992C97.1841 33.3457 97.3015 33.2013 97.437 33.0658C99.7034 30.7452 104.345 30.9168 109.266 33.4721C109.825 33.7611 110.033 34.4383 109.744 34.9981C109.464 35.567 108.787 35.7747 108.227 35.4767C104.317 33.4451 100.552 33.0929 99.0713 34.6279C98.8004 34.9169 98.5927 35.26 98.4483 35.7024C98.3309 36.0726 98.0239 36.3526 97.6536 36.4429C97.5453 36.479 97.455 36.488 97.3647 36.488Z" fill="#210B04"/>
<path d="M84.4846 36.0093C80.0421 32.0272 77.5319 31.6209 76.033 32.244C74.5883 32.8489 73.884 34.5013 73.3241 34.2395C72.7462 33.9596 72.7733 31.8196 73.9381 30.6186C74.7508 29.7879 75.8614 29.6886 76.2407 29.6525C80.2046 29.3003 84.1415 35.4585 84.4846 36.0093Z" fill="#D82E2E"/>
<path d="M84.5154 37.4086C84.2355 37.4086 83.9555 37.3093 83.7479 37.1016C80.5424 34.0948 77.0209 32.7494 75.1518 33.8148C74.8177 34.0045 74.5287 34.2934 74.2669 34.6726C74.0592 34.9977 73.7612 35.2686 73.3007 35.1693C72.9125 35.1602 72.5603 34.9526 72.3617 34.6094L70.9801 32.2618C70.6641 31.729 70.8357 31.0338 71.3774 30.7177C71.9192 30.3927 72.6055 30.5823 72.9215 31.115L73.5445 32.1715C73.698 32.0541 73.8515 31.9548 74.0231 31.8554C76.8132 30.2301 81.2286 31.6478 85.2919 35.4402C85.7434 35.8645 85.7705 36.5779 85.3461 37.0384C85.1204 37.2912 84.8224 37.4086 84.5154 37.4086Z" fill="#210B04"/>
<path d="M112.255 27.7572C110.133 27.3057 107.171 26.8904 103.641 27.0439C100.616 27.1793 98.0786 27.685 96.1914 28.2087C96.1914 27.8024 96.2275 27.3419 96.3449 26.8272C96.6248 25.5992 97.2388 24.6782 97.6993 24.1183C100.11 24.0371 102.115 24.0912 103.578 24.1725C107.144 24.3621 108.128 24.6872 108.77 24.9671C110.557 25.7346 111.65 26.9446 112.255 27.7572Z" fill="#210B04"/>
<path d="M96.3443 24.0908C96.1366 24.47 95.8658 25.0298 95.6762 25.7341C95.3511 26.9712 95.3872 28.1811 95.5226 28.1992C95.6761 28.2173 96.0373 26.7454 96.1457 26.312C96.3082 25.6709 96.4075 25.1111 96.7868 24.3616C96.8771 24.172 96.9674 24.0275 97.0215 23.9282L96.3443 24.0908Z" fill="#210B04"/>
<path d="M73.5039 24.1998C73.5039 25.1208 73.531 25.9966 73.5671 26.8093C74.452 26.8544 75.3821 26.9357 76.3573 27.0712C79.3641 27.4775 81.8381 28.2089 83.6711 28.8951C83.7073 28.4978 83.7163 28.0283 83.6441 27.5046C83.4725 26.2495 82.9488 25.2923 82.5424 24.6874C80.1496 24.3894 78.1541 24.272 76.6823 24.2088C75.2647 24.1546 74.2534 24.1636 73.5039 24.1998Z" fill="#210B04"/>
<path d="M83.8889 24.7778C84.0605 25.1751 84.2862 25.7529 84.4036 26.4753C84.6203 27.7304 84.4668 28.9403 84.3313 28.9403C84.1778 28.9403 83.9521 27.4505 83.8799 27.008C83.7806 26.3579 83.7264 25.7891 83.4193 25.0035C83.3471 24.8139 83.2659 24.6513 83.2207 24.552L83.8889 24.7778Z" fill="#210B04"/>
<path d="M88.4316 45.6975C87.6099 45.237 86.7972 45.1287 85.9756 45.1106C85.1539 45.1287 84.3412 45.228 83.5195 45.6975C84.3412 46.158 85.1539 46.2664 85.9756 46.2844C86.7972 46.2664 87.6189 46.158 88.4316 45.6975Z" fill="#210B04"/>
<path d="M87.612 55.4777C85.0838 55.4777 82.5465 54.945 80.2349 53.9156C79.666 53.6628 79.4042 53.0036 79.657 52.4348C79.9008 51.8659 80.5961 51.6041 81.1469 51.8569C83.3953 52.8501 85.8693 53.3648 88.2983 53.2023C90.4473 53.112 92.5331 52.5883 94.4835 51.6492C95.0524 51.3874 95.7206 51.6131 95.9914 52.182C96.2623 52.7418 96.0185 53.419 95.4587 53.6899C93.2284 54.7644 90.8536 55.3603 88.3886 55.4687C88.1267 55.4687 87.8649 55.4777 87.612 55.4777Z" fill="#210B04"/>
<path d="M87.5787 59.5603C86.432 59.5242 85.7818 59.4248 85.213 59.2984C84.608 59.163 84.2197 58.567 84.3461 57.9621C84.4816 57.3571 85.0956 56.9688 85.6825 57.0952C86.134 57.1945 86.6577 57.2758 87.2446 57.2939C88.4726 57.3751 89.6374 57.1494 90.7752 56.716C91.3531 56.4722 92.0122 56.7792 92.2289 57.3661C92.4456 57.953 92.1567 58.6031 91.5788 58.8198C90.2875 59.3074 88.9422 59.5603 87.5787 59.5603Z" fill="#210B04"/>
<path d="M82.4831 53.1108C82.1671 53.9054 84.3974 56.1086 86.9888 56.3524C89.3004 56.5781 91.016 55.1605 91.2146 54.9889C92.0363 54.2846 92.4878 53.49 92.7135 53.0024C91.3772 52.9573 89.6164 52.9031 87.5396 52.8399C83.3228 52.7225 82.6276 52.7405 82.4831 53.1108Z" fill="white"/>
<path d="M81.458 52.0648C81.2413 52.2905 81.774 53.7172 82.7853 54.0603C83.7876 54.3944 84.3655 53.3741 85.9186 53.4644C86.6861 53.5095 86.9028 53.7985 87.6432 54.0152C90.3702 54.8098 93.5756 53.2025 93.5034 52.6788C93.4763 52.5163 93.1512 52.5704 92.3657 52.3176C89.9728 51.5591 89.4672 49.9067 88.1669 50.0693C87.9773 50.0964 87.2188 50.2047 86.65 50.1596C86.3701 50.1415 86.0992 50.0964 86.0992 50.0964C85.0608 49.9429 85.0156 49.7532 84.6183 49.8164C83.8418 50.0783 82.7583 51.6585 82.7583 51.6585C82.5957 51.7939 82.3519 51.9655 82.0269 52.0196C81.6837 52.0828 81.5302 51.9835 81.458 52.0648Z" fill="#D82E2E"/>
<path d="M162.351 193.52C168.446 190.026 174.55 186.531 180.645 183.037C179.498 168.319 176.852 151.154 171.344 132.535C169.105 124.959 166.622 117.907 164.021 111.397C158.974 108.308 152.843 108.038 148.039 110.774C143.353 113.446 141.682 117.979 141.258 119.279C148.292 144.029 155.317 168.77 162.351 193.52Z" fill="#FC6454"/>
<path d="M214.708 266.172C217.002 264.799 219.304 263.427 221.598 262.054C217.002 243.715 208.55 220.735 192.306 197.945C188.405 192.473 184.405 187.498 180.414 182.983C174.337 186.297 168.26 189.611 162.184 192.924C165.127 199.85 168.179 205.06 170.301 208.401C183.565 229.259 197.101 234.361 209.607 256.005C212.18 260.465 213.869 264.212 214.708 266.172Z" fill="#FC6454"/>
<path d="M214.404 265.955C217.33 274.605 219.425 278.813 220.68 278.578C221.601 278.407 222.07 275.86 222.097 270.939C230.712 271.887 239.326 272.836 247.94 273.784C249.601 274.416 251.127 274.163 251.471 273.504C251.85 272.79 251.082 271.165 249.132 270.199C239.813 266.957 230.504 263.716 221.194 260.474C218.928 262.298 216.671 264.122 214.404 265.955Z" fill="#FC6454"/>
<path d="M59.1401 192.915C52.5034 190.595 45.8667 188.283 39.23 185.963C37.5866 171.227 37.0358 153.863 39.1036 134.612C39.8259 127.894 40.8102 121.528 41.9569 115.532C45.8125 109.889 52.368 107.298 58.0204 108.95C63.2395 110.476 65.7136 115.036 66.2463 116.065C63.8806 141.682 61.5149 167.299 59.1401 192.915Z" fill="#FC6454"/>
<path d="M34.7333 278.452C32.1057 277.947 29.4781 277.45 26.8505 276.945C25.0627 258.217 25.2342 233.783 32.4398 206.686C34.4263 199.218 36.7468 192.311 39.23 185.963C45.8305 187.868 52.4311 189.765 59.0317 191.67C58.6344 199.182 57.5509 205.124 56.6931 208.997C51.3657 233.133 40.3858 242.56 36.0516 267.175C35.1577 272.231 34.8507 276.331 34.7333 278.452Z" fill="#FC6454"/>
<path d="M34.7322 278.452C34.0369 288.095 33.0797 292.953 31.8608 293.017C30.9939 293.062 29.9916 290.678 28.8539 285.847C20.6371 288.601 12.4202 291.355 4.21237 294.118C2.7225 295.093 1.17846 295.166 0.699892 294.588C0.18521 293.965 0.582497 292.213 2.28908 290.867C10.7046 285.721 19.1111 280.574 27.5266 275.436C29.9194 276.438 32.3303 277.45 34.7322 278.452Z" fill="#FC6454"/>
<path d="M59.1332 332.594C88.3527 334.436 117.572 336.287 146.783 338.129C151.559 330.3 168.752 300.051 161.826 260.52C156.48 230.028 139.658 210.406 132.48 202.894C114.231 202.894 95.9826 202.894 77.7249 202.894C70.3207 210.551 55.0157 228.511 48.8395 256.231C40.4601 293.929 54.6816 323.989 59.1332 332.594Z" fill="#FFA1A1"/>
<path d="M105.113 381.535C104.49 381.535 103.985 381.029 103.985 380.406L103.723 335.484C103.723 334.861 104.219 334.355 104.851 334.355C105.474 334.355 105.98 334.861 105.98 335.484L106.242 380.406C106.251 381.02 105.745 381.526 105.113 381.535Z" fill="#210B04"/>
<path d="M104.851 500.182C104.21 500.164 103.714 499.658 103.723 499.026L105.673 395.864C105.682 395.25 106.188 394.753 106.802 394.753C107.443 394.762 107.94 395.277 107.931 395.9L105.98 499.08C105.971 499.694 105.465 500.182 104.851 500.182Z" fill="#210B04"/>
<path d="M72.8506 208.284C76.9771 211.309 84.3451 215.779 94.4221 217.305C115.542 220.51 131.452 208.203 134.522 205.72C138.64 181.656 142.757 157.601 146.884 133.538C140.563 118.756 134.242 103.975 127.922 89.1938C115.38 105.745 97.1219 111.65 85.2571 105.646C83.09 104.553 77.5911 101.257 73.907 92.3542C68.697 103.352 63.496 114.35 58.2859 125.348C55.7667 129.619 52.9585 135.922 53.103 143.497C53.3107 154.468 59.5591 160.96 64.5073 170.46C68.7421 178.577 72.995 190.731 72.8506 208.284Z" fill="#8E3B32"/>
<path d="M142.038 138.577C152.233 135.678 162.436 132.789 172.63 129.89C169.687 121.809 166.752 113.728 163.817 105.646C162.346 102.775 159.113 97.4925 152.928 93.4563C142.047 86.3681 130.426 88.6436 127.916 89.1944C132.629 105.655 137.334 122.116 142.038 138.577Z" fill="#8E3B32"/>
<path d="M36.6426 131.054C44.2454 132.354 51.8573 133.646 59.4602 134.946C64.2819 120.752 69.0947 106.548 73.9165 92.3537C72.0112 91.9564 62.774 90.2137 53.6271 95.9203C44.8775 101.383 42.259 109.88 41.6991 111.866C40.0106 118.268 38.3221 124.661 36.6426 131.054Z" fill="#8E3B32"/>
<path d="M70.9415 166.251C67.9257 166.251 64.946 165.764 62.0836 164.788C61.4967 164.59 61.1716 163.949 61.3793 163.362C61.5779 162.775 62.228 162.441 62.8059 162.657C65.7405 163.651 68.8287 164.111 71.9077 163.985C74.6798 163.885 77.4067 163.326 80.0162 162.332C80.5941 162.079 81.2442 162.405 81.47 162.982C81.6957 163.56 81.3977 164.22 80.8199 164.436C77.9756 165.52 75.0048 166.125 71.989 166.242C71.6368 166.251 71.2937 166.251 70.9415 166.251Z" fill="#210B04"/>
<path d="M111.747 163.841C109.065 163.841 106.365 163.597 103.72 163.109C99.3944 162.315 95.2228 160.879 91.304 158.847C90.7532 158.558 90.5365 157.881 90.8254 157.33C91.1144 156.779 91.8006 156.572 92.3424 156.852C96.0535 158.775 100.026 160.138 104.126 160.888C107.07 161.43 110.067 161.655 113.047 161.565C113.634 161.655 114.194 162.035 114.212 162.658C114.23 163.281 113.742 163.804 113.119 163.822C112.668 163.832 112.207 163.841 111.747 163.841Z" fill="#210B04"/>
<path d="M78.5135 6.78123C77.8724 7.48553 76.0394 9.48104 76.1839 12.0093C76.4186 16.199 81.8634 18.9169 83.1817 19.567C86.4053 21.1743 88.78 21.1562 91.0916 21.6438C98.6132 23.233 103.597 28.1902 106.135 30.7185C115.878 40.4252 111.932 50.6557 120.094 54.3758C123.363 55.8657 127.833 55.974 130.207 53.7889C132.925 51.2877 132.185 46.4389 131.417 42.3846C127.815 23.4046 126.018 13.9146 120.528 8.84899C107.245 -3.37698 84.6174 0.117447 78.5135 6.78123Z" fill="#FFC392"/>
<path d="M109.835 549.419C99.2077 549.338 88.58 549.257 77.9613 549.175C77.1938 548.056 76.3992 546.457 76.7423 544.796C77.3653 541.798 81.2932 540.48 83.3158 539.442C87.0359 537.527 91.3069 532.949 93.6185 521.166C94.6027 519.92 95.623 519.36 96.3183 519.098C99.605 517.843 104.075 519.748 107.352 523.938C107.732 530.024 108.589 534.331 109.357 537.256C109.799 538.954 110.756 542.214 110.332 546.503C110.197 547.731 109.998 548.742 109.835 549.419Z" fill="#FC6454"/>
<path d="M77.8226 549.419C88.4865 549.419 99.1593 549.419 109.832 549.419C110.591 548.444 111.53 546.936 111.701 544.995C111.873 543.08 111.232 541.726 110.491 539.757C109.796 537.888 108.92 535.234 108.198 531.83C107.575 532.444 102.293 537.437 95.367 536.173C92.4143 535.631 90.3014 534.168 89.1456 533.193C86.2472 536.714 83.4209 538.34 81.308 539.171C79.6737 539.812 78.238 540.064 76.9197 541.509C76.7842 541.654 74.1205 544.651 75.4027 547.324C76.0257 548.615 77.2808 549.202 77.8226 549.419Z" fill="#210B04"/>
</svg>
