<svg width="427" height="483" viewBox="0 0 427 483" fill="none" xmlns="http://www.w3.org/2000/svg">
<path d="M108.457 111.804H105.531V122.54H108.457V111.804Z" fill="#210B04"/>
<path d="M110.208 110.451H103.77V112.004H110.208V110.451Z" fill="#210B04"/>
<path d="M169.121 70.9636C169.771 76.1014 170.421 81.2573 171.099 86.4131C172.146 94.6571 173.193 102.901 174.241 111.136L210.774 107C206.576 90.0159 202.368 73.0314 198.169 56.0469C193.528 59.2975 187.921 62.7377 181.338 65.8981C177.031 67.9749 172.923 69.6363 169.121 70.9636Z" fill="#FC6454"/>
<path d="M169.121 70.9651C169.771 76.1029 170.421 81.2587 171.099 86.4146C177.934 85.4574 182.53 76.446 181.365 66.1343C177.284 67.579 173.202 69.2675 169.121 70.9651Z" fill="#210B04"/>
<path d="M170.215 296.142C188.762 284.629 207.309 273.108 225.846 261.595C225.133 232.168 224.42 202.741 223.697 173.313C224.555 169.909 231.156 142.541 224.04 120.798C220.338 109.493 214.099 101.077 214.099 101.077C210.884 96.7341 207.661 93.5377 205.277 91.4067C196.193 94.0885 187.11 96.7703 178.035 99.443C175.281 101.402 144.373 124.076 147.994 153.566C148.472 157.44 149.619 162.108 152.201 167.246C154.251 182.325 156.328 197.422 158.423 212.547C162.306 240.52 166.233 268.385 170.215 296.142Z" fill="#FC6454"/>
<path d="M192.141 254.544C170.615 258.58 155.86 276.269 159.192 294.057C162.524 311.846 182.678 322.997 204.204 318.97C225.731 314.934 240.485 297.245 237.153 279.457C233.821 261.668 213.667 250.517 192.141 254.544Z" fill="#FC6454"/>
<path d="M75.7687 295.384C55.5516 301.858 41.0232 311.52 41.9352 318.463C42.9104 325.922 61.9446 332.179 89.006 331.005C125.106 324.242 161.206 317.479 197.306 310.716C195.708 289.461 194.119 268.205 192.521 246.95C180.394 248.322 166.434 250.878 151.364 255.492C117.196 265.966 91.9677 282.526 75.7687 295.384Z" fill="#FC6454"/>
<path d="M172.373 288.422C173.484 310.301 189.042 327.286 207.119 326.365C225.196 325.443 238.948 306.969 237.828 285.091C236.718 263.212 221.16 246.228 203.083 247.149C185.015 248.07 171.263 266.544 172.373 288.422Z" fill="#FC6454"/>
<path d="M6.99414 479.252C29.3512 479.315 51.7082 479.378 74.0743 479.442C74.7244 476.931 75.2392 473.166 73.6951 469.139C73.1172 467.622 72.4491 466.611 72.106 466.06C70.3362 463.225 68.2413 458.448 67.1126 450.005C63.0583 449.545 59.0041 449.075 54.9498 448.615C39.5906 469.283 30.9132 473.419 25.7574 473.112C22.1275 472.895 18.6331 474.909 14.9942 474.945C12.6555 474.963 9.78426 474.737 8.12283 476.606C7.36435 477.455 7.09347 478.484 6.99414 479.252Z" fill="#FC6454"/>
<path d="M51.7233 467.361C57.3938 467.46 63.0733 467.559 68.7439 467.659C75.4167 447.776 79.7148 430.647 82.532 417.671C91.7963 374.934 88.1032 362.754 86.0535 357.426C84.383 353.083 82.0534 348.767 79.4077 339.963C75.8591 328.171 74.6583 318.012 74.2068 311.195C64.3556 304.08 50.6938 305.895 43.3257 314.852C35.4881 324.378 37.0413 339.223 47.2537 347.178C48.5991 354.221 49.7999 361.499 50.8022 369.02C55.6601 405.283 54.9649 438.502 51.7233 467.361Z" fill="#FC6454"/>
<path d="M196.373 444.174C197.664 446.928 206.215 464.671 215.606 464.02C224.644 463.397 233.62 445.781 234.342 419.053C232.473 382.376 230.613 345.689 228.744 309.011C207.47 307.747 186.197 306.482 164.914 305.218C165.004 318.103 165.853 332.153 167.867 347.151C173.203 386.8 184.932 419.55 196.373 444.174Z" fill="#FC6454"/>
<path d="M414.364 459.634C407.538 457.123 401.795 455.561 397.759 454.604C385.966 451.787 379.7 451.552 372.007 446.812C368.196 444.464 365.478 441.882 363.79 440.076C363.402 439.687 362.806 439.146 361.975 438.649C359.275 437.024 355.23 436.473 353.957 438.08C353.135 439.119 353.839 440.744 353.894 441.548C354.101 444.879 353.677 450.08 350.67 458.044C351.221 461.196 351.763 464.338 352.313 467.489C382.517 463.986 394.138 464.338 398.788 465.521C403.141 466.632 405.028 466.334 408.784 465.747C410.996 465.404 414.617 464.789 415.213 462.649C415.511 461.557 414.933 460.428 414.364 459.634Z" fill="#FC6454"/>
<path d="M352.425 467.497C352.85 461.943 353.283 456.399 353.708 450.846C333.472 443.857 316.046 439.352 302.899 436.417C260.261 426.891 248.053 430.539 242.672 432.57C238.319 434.223 233.985 436.525 225.172 439.126C213.362 442.602 203.204 443.758 196.377 444.173C189.208 453.979 190.951 467.659 199.872 475.072C209.353 482.964 224.206 481.492 232.215 471.316C239.267 470.007 246.554 468.851 254.076 467.885C290.366 463.226 323.585 464.092 352.425 467.497Z" fill="#FC6454"/>
<path d="M167.608 72.8962C173.793 72.228 185.604 69.6275 199.003 57.537C199.771 56.8507 210.976 46.4307 208.403 31.2882C206.751 21.5634 200.231 14.6197 193.703 11.0801C180.059 3.68492 162.578 9.14779 157.856 16.7055C157.061 17.9787 156.546 19.2157 156.212 20.2902C153.612 29.5003 152.42 33.6268 152.321 33.8345C152.294 33.8887 152.14 34.1686 152.14 34.5568C152.14 34.8097 152.203 35.0174 152.257 35.1438C152.51 36.3898 152.763 37.6449 153.016 38.891C152.185 46.9905 151.698 50.3766 151.4 51.3879C150.867 53.4015 150.65 54.2412 150.903 54.9997C150.975 55.2254 151.038 55.415 150.939 55.6046C150.758 55.9658 150.217 55.8214 150 56.1193C149.675 56.5708 150.388 57.5821 150.515 57.7627C150.641 57.9433 151.689 59.4332 152.908 59.2616C153.368 59.1984 153.756 58.9095 153.756 58.8914C153.738 58.8463 151.517 59.5144 151.481 60.4084C151.463 60.7696 151.806 61.1578 151.896 61.2571C152.185 61.5822 152.447 61.6454 152.583 61.7447C153.431 62.3768 151.12 67.4424 151.689 69.5823C152.537 72.7427 160.393 73.6727 167.608 72.8962Z" fill="#FC6454"/>
<path d="M146.435 48.4179C146.354 49.7362 147.654 50.8107 148.142 51.208C149.469 52.3006 150.941 52.4631 151.546 52.4902C151.97 52.2283 152.675 51.6956 152.864 50.8378C153.027 50.1335 152.63 49.7091 152.548 48.8242C152.503 48.2554 152.575 47.4156 153.171 46.3501C153.216 43.5781 153.262 40.815 153.307 38.043C152.304 39.6231 151.501 40.9234 150.95 41.8083C149.144 44.7609 149.18 44.8422 148.593 45.5555C147.239 47.217 146.489 47.4608 146.435 48.4179Z" fill="#FC6454"/>
<path d="M167.267 40.9583C166.906 40.9583 166.553 40.7867 166.337 40.4707C165.876 39.8025 164.865 38.5926 163.167 37.9695C160.359 36.9401 157.858 38.2585 157.379 38.5384C157.099 38.7099 156.765 38.728 156.458 38.6287C156.151 38.5203 155.908 38.2946 155.781 37.9966L154.824 35.6941C154.58 35.1162 154.851 34.457 155.429 34.2132C156.007 33.9785 156.666 34.2403 156.901 34.8182L157.406 36.0282C158.842 35.4412 161.262 34.8543 163.953 35.8566C166.228 36.6963 167.592 38.3036 168.206 39.1975C168.558 39.7122 168.431 40.4165 167.917 40.7687C167.718 40.8951 167.492 40.9583 167.267 40.9583Z" fill="#210B04"/>
<path d="M156.761 38.5398C156.671 40.0658 157.727 41.366 159.127 41.4473C160.518 41.5286 161.727 40.3638 161.818 38.8378C161.908 37.3118 160.852 36.0115 159.452 35.9303C158.053 35.849 156.852 37.0138 156.761 38.5398Z" fill="#210B04"/>
<path d="M172.99 36.2648C172.611 35.7321 171.997 35.0007 171.058 34.3776C170.02 33.6914 169.08 33.3844 168.584 33.3392C166.859 33.2038 162.57 32.2376 156.394 30.7116C156.286 30.4227 155.951 29.4294 156.331 28.2646C156.674 27.2262 157.378 26.6484 157.64 26.4497C160.936 27.8854 163.473 28.4543 165.243 28.7071C165.243 28.7071 167.735 28.9148 170.272 30.3324C171.139 30.82 171.582 31.2173 171.816 31.4792C172.728 32.5717 172.963 35.8675 172.99 36.2648Z" fill="#210B04"/>
<path d="M156.005 59.7408C155.806 59.7408 155.608 59.6867 155.427 59.5874L150.362 56.5805C149.829 56.2645 149.648 55.5692 149.964 55.0365C150.29 54.4947 150.976 54.3231 151.508 54.6482L156.574 57.655C157.107 57.9711 157.287 58.6663 156.962 59.1991C156.764 59.5422 156.384 59.7408 156.005 59.7408Z" fill="#210B04"/>
<path d="M217.911 321.93C173.548 326.427 129.178 330.924 84.8155 335.411C88.3099 345.118 91.6508 357.561 92.942 372.225C95.687 403.62 87.5694 428.831 81.7092 442.917C71.6233 442.339 61.5464 441.761 51.4604 441.192C51.9751 410.699 48.5799 386.509 45.239 369.633C40.2999 344.73 34.3946 330.418 41.6092 314.671C47.5055 301.794 58.8015 295.329 73.7634 287.708C95.7593 276.503 126.902 262.155 166.984 248.322C169.052 248.936 171.21 249.477 173.449 249.929C193.91 254.046 212.321 248.638 224.836 243.103C244.683 267.5 248.259 295.528 236.25 310.679C233.803 313.768 228.547 319.05 217.911 321.93Z" fill="#8E3B32"/>
<path d="M239.334 430.132C252.219 429.346 267.263 429.364 283.931 431.17C309.412 433.924 330.812 439.992 347.192 446.033C345.576 452.832 343.968 459.631 342.352 466.431C330.415 468.525 261.366 480.535 221.357 480.95C214.07 481.022 202.873 480.77 195.776 472.995C187.956 464.426 189.41 451.424 190.241 446.376C176.877 402.357 163.504 358.338 150.141 314.319C177.915 311.322 205.681 308.324 233.456 305.335C235.415 346.934 237.375 388.533 239.334 430.132Z" fill="#8E3B32"/>
<path d="M77.7656 482.159C52.799 482.331 27.8413 482.502 2.87472 482.674C2.39615 482.277 0.97858 481.003 0.626429 478.918C0.2201 476.516 1.39395 473.987 3.60619 472.434C16.2656 468.931 28.9248 465.437 41.5932 461.933C43.3179 461.843 45.8371 461.942 48.4647 463.098C51.4896 464.434 52.6906 466.294 54.1714 467.378C56.6274 469.184 61.4041 469.96 71.5894 465.166C72.5736 465.879 78.2171 470.096 78.5421 476.976C78.6414 479.044 78.2351 480.823 77.7656 482.159Z" fill="#210B04"/>
<path d="M354.702 434.239C378.368 442.167 402.044 450.104 425.71 458.032C426.035 458.565 426.965 460.226 426.613 462.321C426.216 464.732 424.292 466.736 421.692 467.486C408.581 466.691 395.47 465.897 382.359 465.102C380.698 464.633 378.35 463.712 376.237 461.77C373.808 459.531 373.276 457.373 372.228 455.874C370.486 453.373 366.233 451.088 355.036 452.325C354.341 451.332 350.368 445.517 352.282 438.898C352.86 436.903 353.817 435.35 354.702 434.239Z" fill="#210B04"/>
<path d="M157.237 327.729C156.704 327.729 156.234 327.35 156.126 326.808C156.009 326.194 156.406 325.607 157.02 325.49L230.141 311.485C230.746 311.35 231.342 311.765 231.459 312.379C231.577 312.993 231.179 313.58 230.565 313.697L157.444 327.702C157.381 327.72 157.309 327.729 157.237 327.729Z" fill="#210B04"/>
<path d="M74.7922 434.548C74.0879 434.502 73.6183 433.961 73.6724 433.338C74.6296 420.633 74.9999 407.766 74.7741 395.098C74.2956 369.318 71.3157 343.386 65.9251 318.013C65.7987 317.444 66.1328 316.875 66.6927 316.694L188.727 278.897C186.216 278.364 183.354 277.271 180.654 275.095C173.756 269.515 173.485 261.28 173.494 259.691C173.503 259.059 173.891 258.58 174.631 258.571C175.255 258.571 175.76 259.086 175.751 259.709C175.742 261.118 175.986 268.413 182.072 273.344C187.291 277.56 193.259 277.217 194.966 276.992C195.508 276.919 196.086 277.299 196.203 277.876C196.329 278.445 195.995 279.014 195.436 279.195L68.3361 318.554C73.6184 343.747 76.5529 369.472 77.0224 395.052C77.2572 407.793 76.887 420.732 75.9118 433.5C75.8757 434.096 75.3791 434.548 74.7922 434.548Z" fill="#210B04"/>
<path d="M230.358 245.179C219.532 249.775 202.123 255.355 180.578 254.516C172.136 254.19 164.632 252.935 158.275 251.382C155.874 222.56 151.883 199.95 148.605 184.356C145.002 167.272 142.501 157.141 145.49 143.714C149.553 125.466 161.562 112.761 170.402 105.267C182.736 101.303 195.071 97.3477 207.414 93.3838C210.99 96.6073 216.299 101.971 221.031 109.664C232.417 128.193 231.83 146.225 231.198 182.966C230.99 193.991 230.647 215.327 230.358 245.179Z" fill="#C1DCE0"/>
<path d="M152.92 220.132L176.767 227.527C183.358 210.181 188.198 195.355 191.575 184.258C206.275 136.031 204.632 121.99 197.797 114.306C196.442 112.78 195.106 111.75 194.221 111.146C183.873 126.423 173.525 141.701 163.177 156.979C159.764 178.027 156.342 199.075 152.92 220.132Z" fill="#FC6454"/>
<path d="M124.746 138.09C119.996 141.467 115.255 144.835 110.506 148.212C115.165 158.651 118.416 167.436 120.538 173.612C128.475 196.683 129.504 208.701 140.348 218.914C144.701 223.013 149.125 225.406 152.168 226.787C160.268 235.284 171.672 235.103 176.34 229.857C180.927 224.692 177.938 215.834 177.803 215.455C172.457 207.085 167.69 200.629 164.475 196.448C148.665 175.906 138.136 168.276 129.242 149.54C126.921 144.664 125.513 140.519 124.746 138.09Z" fill="#FC6454"/>
<path d="M182.986 224.439C174.038 211.671 165.09 198.903 156.15 186.145C160.719 165.611 165.288 145.069 169.848 124.536C173.225 110.459 186.273 103.461 195.429 106.558C201.677 108.671 206.21 115.516 207.185 123.498C207.673 130.667 207.745 138.415 207.185 146.658C204.91 180.176 193.144 206.804 182.986 224.439Z" fill="#C1DCE0"/>
<path d="M183.905 223.971C182.938 223.691 182.631 223.05 182.839 222.463L205.602 159.771C205.81 159.193 206.487 158.904 207.047 159.094C207.634 159.31 207.941 159.951 207.724 160.538L184.961 223.23C184.798 223.682 184.365 223.971 183.905 223.971Z" fill="#6AA7AD"/>
<path d="M152.911 180.113C152.044 179.942 151.665 179.337 151.809 178.723L162.004 135.508C162.148 134.903 162.744 134.514 163.358 134.668C163.963 134.812 164.342 135.417 164.198 136.022L154.004 179.238C153.886 179.761 153.426 180.113 152.911 180.113Z" fill="#6AA7AD"/>
<path d="M163.115 136.898C162.763 136.898 162.411 136.727 162.194 136.411L158.221 130.704C157.86 130.189 157.995 129.494 158.501 129.133C158.998 128.781 159.711 128.898 160.072 129.413L164.045 135.119C164.406 135.634 164.271 136.329 163.765 136.69C163.567 136.835 163.341 136.898 163.115 136.898Z" fill="#6AA7AD"/>
<path d="M182.645 211.4C182.302 211.4 181.968 211.246 181.742 210.948L158.239 179.833C157.859 179.336 157.959 178.632 158.455 178.253C158.943 177.873 159.656 177.973 160.035 178.478L183.539 209.594C183.918 210.091 183.819 210.795 183.323 211.174C183.124 211.319 182.88 211.4 182.645 211.4Z" fill="#6AA7AD"/>
<path d="M184.719 205.35C184.394 205.35 184.078 205.215 183.852 204.953L177.017 196.826C176.619 196.348 176.673 195.635 177.152 195.237C177.631 194.84 178.335 194.894 178.741 195.373L185.577 203.499C185.974 203.978 185.92 204.691 185.441 205.088C185.234 205.26 184.972 205.35 184.719 205.35Z" fill="#6AA7AD"/>
<path d="M218.427 244.242C217.57 244.08 217.19 243.475 217.326 242.87L220.179 230.165C220.314 229.56 220.901 229.181 221.533 229.307C222.138 229.443 222.527 230.048 222.391 230.653L219.538 243.357C219.411 243.881 218.942 244.242 218.427 244.242Z" fill="#6AA7AD"/>
<path d="M214.274 244.241C213.606 244.214 213.119 243.691 213.146 243.068L213.407 236.711C213.434 236.088 214.076 235.555 214.581 235.627C215.204 235.654 215.692 236.178 215.665 236.801L215.403 243.158C215.376 243.763 214.879 244.241 214.274 244.241Z" fill="#6AA7AD"/>
<path d="M195.09 249.921C194.512 249.921 194.024 249.487 193.961 248.91L192.67 235.961C192.607 235.338 193.058 234.787 193.681 234.724C194.386 234.67 194.855 235.112 194.918 235.736L196.21 248.684C196.273 249.307 195.821 249.858 195.198 249.921C195.171 249.921 195.126 249.921 195.09 249.921Z" fill="#6AA7AD"/>
<path d="M184.453 251.238C184.038 251.238 183.631 251.004 183.433 250.597L180.841 245.152C180.57 244.584 180.814 243.915 181.374 243.645C181.925 243.383 182.611 243.626 182.882 244.177L185.473 249.622C185.744 250.191 185.501 250.859 184.941 251.13C184.787 251.202 184.616 251.238 184.453 251.238Z" fill="#6AA7AD"/>
<path d="M173.571 249.948C172.993 249.948 172.496 249.506 172.442 248.919L171.918 243.212C171.864 242.589 172.316 242.047 172.939 241.984C173.607 241.921 174.113 242.391 174.167 243.005L174.69 248.711C174.745 249.334 174.293 249.876 173.67 249.939C173.634 249.948 173.598 249.948 173.571 249.948Z" fill="#6AA7AD"/>
<path d="M164.91 250.164C164.287 250.164 163.781 249.659 163.781 249.036V242.318C163.781 241.695 164.287 241.189 164.91 241.189C165.533 241.189 166.039 241.695 166.039 242.318V249.036C166.039 249.659 165.524 250.164 164.91 250.164Z" fill="#6AA7AD"/>
<path d="M209.953 98.0892C195.668 103.272 181.375 108.464 167.09 113.647C168.643 108.347 170.205 103.046 171.758 97.746C183.298 94.9017 194.838 92.0574 206.377 89.2222C207.56 92.1748 208.752 95.1275 209.953 98.0892Z" fill="#6AA7AD"/>
<path d="M155.423 3.27974C154.285 4.16464 150.953 6.7832 151.269 9.76294C151.748 14.2145 159.955 15.3342 171.883 24.5443C173.229 25.5827 173.897 26.0973 174.601 26.7475C181.446 33.014 181.78 39.3436 185.617 39.8403C185.997 39.8854 186.304 39.8674 186.565 39.7951C187.532 39.5423 188.046 39.0637 188.489 38.8199C189.78 38.1066 191.92 39.3798 192.489 39.8403C194.575 41.5378 193.762 47.2896 190.24 53.8451C191.45 55.2356 194.981 59.0099 198.277 58.1792C200.037 57.7368 200.886 56.1927 203.252 52.6712C207.866 45.8088 208.607 45.8178 209.609 43.8584C213.979 35.2443 206.999 20.7609 198.205 12.4899C192.326 6.96379 186.331 4.86894 182.069 3.37907C176.461 1.41063 163.549 -3.01383 155.423 3.27974Z" fill="#682C23"/>
<path d="M123.872 136.545H99.7177C97.975 136.545 96.5664 135.127 96.5664 133.394V121.556C96.5664 119.813 97.984 118.405 99.7177 118.405H123.872C125.614 118.405 127.023 119.813 127.023 121.556V133.394C127.032 135.136 125.623 136.545 123.872 136.545Z" fill="url(#paint0_linear_13_24776)"/>
<path d="M119.452 121.936C116.942 121.213 115.515 118.64 116.228 116.175L121.159 99.0189C121.872 96.5538 124.436 95.1272 126.901 95.8405C129.412 96.5629 130.838 99.1363 130.125 101.601L125.195 118.757C124.49 121.222 121.917 122.649 119.452 121.936Z" fill="url(#paint1_linear_13_24776)"/>
<path d="M128.242 147.345C123.132 148.537 118.012 149.738 112.901 150.939C98.2552 141.765 89.7405 132.031 91.8985 126.306C92.3229 125.187 93.262 123.922 95.402 122.803C103.267 125.439 111.131 128.076 118.996 130.713C123.041 124.103 125.723 121.051 127.032 121.548C127.917 121.891 128.179 123.859 127.809 127.471C127.953 134.099 128.098 140.726 128.242 147.345Z" fill="#FC6454"/>
<defs>
<linearGradient id="paint0_linear_13_24776" x1="111.795" y1="118.405" x2="111.795" y2="136.545" gradientUnits="userSpaceOnUse">
<stop stop-color="#F65F51"/>
<stop offset="1" stop-color="#FB4967"/>
</linearGradient>
<linearGradient id="paint1_linear_13_24776" x1="123.177" y1="95.6567" x2="123.177" y2="122.12" gradientUnits="userSpaceOnUse">
<stop stop-color="#F65F51"/>
<stop offset="1" stop-color="#FB4967"/>
</linearGradient>
</defs>
</svg>
