<svg width="326" height="324" viewBox="0 0 326 324" fill="none" xmlns="http://www.w3.org/2000/svg">
<path d="M187.667 288.182H150.402C142.772 287.903 138.826 287.018 138.573 285.51C138.465 284.823 139.106 284.02 140.514 283.081C145.445 283.307 153.372 283.243 160.768 281.076C162.528 280.562 164.045 280.11 165.915 279.081C170.474 276.579 171.251 273.916 174.863 271.902C176.533 270.972 179.161 269.979 183.125 270.123C184.064 270.611 184.804 271.171 185.391 271.74C190.809 276.959 188.028 286.964 187.667 288.182Z" fill="#FC6454"/>
<path d="M210.728 56.8097C210.728 67.1123 202.962 75.4556 193.391 75.4556C183.82 75.4556 176.054 67.1033 176.054 56.8097C176.054 46.507 183.811 38.1638 193.391 38.1638C202.971 38.1638 210.728 46.507 210.728 56.8097Z" fill="#8E3B32"/>
<path d="M248.214 61.4061C248.214 69.939 241.785 76.8556 233.848 76.8556C225.911 76.8556 219.482 69.939 219.482 61.4061C219.482 52.8732 225.911 45.9566 233.848 45.9566C241.785 45.9566 248.214 52.8732 248.214 61.4061Z" fill="#8E3B32"/>
<path d="M280.878 257.917C278.44 258.504 276.002 259.091 273.564 259.678C264.616 244.382 255.225 223.434 251.18 197.528C250.205 191.307 249.627 185.347 249.347 179.704C255.857 178.71 262.367 177.708 268.887 176.715C271.018 182.548 272.174 187.297 272.788 190.115C277.835 213.302 271.966 225.556 277.655 247.777C278.837 252.436 280.165 256.057 280.878 257.917Z" fill="#FC6454"/>
<path d="M244.542 110.953C245.707 124.714 246.953 138.556 248.118 152.326C248.976 162.593 249.825 172.778 250.764 183.044C253.698 181.952 256.813 180.877 260.091 179.857C263.197 178.891 266.195 178.051 269.085 177.311C269.771 172.985 270.15 169.329 270.358 166.575C270.665 162.629 270.683 159.36 270.827 155.667C270.909 153.563 270.909 151.549 270.909 149.364C270.909 142.755 270.593 135.829 269.897 128.524C269.202 121.138 268.182 114.212 266.945 107.765C262.845 104.027 257.247 102.682 252.326 104.343C247.522 105.968 245.174 109.833 244.542 110.953Z" fill="#FC6454"/>
<path d="M248.124 152.325C255.664 153.418 263.284 154.582 270.833 155.666C270.914 153.562 270.914 151.548 270.914 149.363C270.219 149.21 269.515 148.975 268.811 148.74C261.966 149.995 255.041 151.16 248.124 152.325Z" fill="#210B04"/>
<path d="M243.8 152.479C253.849 152.1 263.89 151.721 273.931 151.341C271.8 136.704 269.669 122.068 267.529 107.44C263.123 99.1777 253.75 96.2341 247.357 99.5028C242.897 101.778 240.152 106.952 240.07 112.623C241.317 125.905 242.554 139.187 243.8 152.479Z" fill="#FFA1A1"/>
<path d="M266.524 258.061C258.397 262.124 241.485 269.194 219.182 268.535C193.303 267.776 174.82 257.04 167.208 252.002C168.328 244.896 170.784 234.765 176.554 223.785C184.139 209.356 193.972 200.109 200.274 195.044C193.159 178.727 186.17 161.309 179.524 142.808C175.551 131.765 171.931 120.957 168.608 110.419C170.775 99.9991 175.533 97.4166 177.032 96.5317C181.61 93.859 185.737 94.482 192.744 95.3579C204.717 96.8658 204.626 91.1953 221.936 89.886C225.421 89.6241 230.595 89.2629 236.744 90.0034C243.318 95.1953 251.589 93.2992 257.928 97.5159C261.079 101.904 261.413 107.701 260.844 112.857C260.682 114.311 260.456 115.719 260.194 117.029C256.889 130.185 256.42 153.111 254 171.829C252.113 186.457 249.241 196.904 254 207.712C254.415 208.669 254.641 209.04 255.499 210.981C257.585 215.667 261.169 224.57 263.67 236.083C265.666 245.257 266.298 252.968 266.524 258.061Z" fill="#FC6454"/>
<path d="M263.815 132.867C263.815 140.326 257.774 146.366 250.316 146.366C242.857 146.366 236.817 140.326 236.817 132.867C236.817 125.409 242.857 119.368 250.316 119.368C257.774 119.368 263.815 125.409 263.815 132.867Z" fill="#FC6454"/>
<path d="M221.86 132.867C221.86 140.326 215.819 146.366 208.361 146.366C200.903 146.366 194.862 140.326 194.862 132.867C194.862 125.409 200.903 119.368 208.361 119.368C215.81 119.368 221.86 125.409 221.86 132.867Z" fill="#FC6454"/>
<path d="M208.359 147.485C203.095 147.485 198.21 144.641 195.609 140.045C195.302 139.494 195.492 138.808 196.033 138.51C196.566 138.185 197.261 138.384 197.568 138.934C199.763 142.817 203.898 145.228 208.35 145.228C214.255 145.228 219.357 141.029 220.485 135.25C220.603 134.645 221.199 134.284 221.804 134.356C222.418 134.483 222.815 135.07 222.698 135.684C221.37 142.528 215.339 147.485 208.359 147.485Z" fill="#210B04"/>
<path d="M265.111 113.01C263.694 112.965 262.276 112.928 260.858 112.883C230.131 111.971 199.403 111.05 168.676 110.129C169.335 106.183 171.006 100.802 175.403 96.8379C182.834 90.147 191.503 93.6776 198.708 88.6933C203.25 85.551 207.729 78.6976 207.575 62.4535C207.675 57.0809 207.774 51.7084 207.873 46.3358C210.763 49.9567 215.35 54.7423 222.104 58.616C225.02 60.2864 227.756 61.4692 230.203 62.3361C229.743 67.3294 229.77 71.483 230.131 74.9413C231.007 83.3297 233.887 87.6368 236.74 90.0206C243.314 95.2126 251.585 93.3164 257.924 97.5332C258.908 98.1833 259.838 98.9779 260.714 99.9711C264.407 104.17 265.048 109.569 265.111 113.01Z" fill="#FC6454"/>
<path d="M230.145 74.9425C229.594 75.0238 229.034 75.0689 228.456 75.0689C222.75 75.0689 218.127 70.9515 218.127 65.8769C218.127 62.9242 219.689 60.3056 222.118 58.6171C225.034 60.2876 227.77 61.4704 230.217 62.3372C229.757 67.3396 229.784 71.4842 230.145 74.9425Z" fill="#210B04"/>
<path d="M246.532 48.5031C246.378 52.8554 244.663 55.9705 242.568 59.9345C242.18 60.6298 237.593 69.0362 232.617 70.5893C230.911 71.1311 229.123 71.2124 229.123 71.2124C227.958 71.2936 226.793 71.1311 225.701 70.9054C224.301 70.5894 213.728 67.6367 206.26 59.0857C197.005 48.5121 189.772 26.1912 201.357 13.279C208.509 5.26979 219.552 4.56552 223.913 4.56552C224.382 4.56552 224.924 4.56548 225.547 4.64674C225.547 4.64674 227.805 4.80027 229.899 5.35107C237.602 7.13892 241.638 11.5724 241.638 11.5724C245.53 15.9247 246.306 21.839 246.306 26.5794C246.387 27.2838 246.306 27.979 246.306 28.6833V29.1529C246.225 30.0107 246.153 30.7872 246.153 31.4825C245.999 33.6586 245.683 35.0582 245.683 38.1734C245.683 43.6724 246.613 45.0719 246.532 48.5031Z" fill="#FC6454"/>
<path d="M192.441 40.0526C192.441 44.2333 194.942 47.6193 198.021 47.6193C201.1 47.6193 203.601 44.2333 203.601 40.0526C203.601 35.872 201.1 32.4858 198.021 32.4858C194.942 32.4949 192.441 35.881 192.441 40.0526Z" fill="#FC6454"/>
<path d="M198.014 48.7481C195.72 48.7481 193.607 47.2673 192.37 44.7932C192.09 44.2333 192.316 43.5561 192.876 43.2762C193.445 43.0144 194.113 43.222 194.384 43.7909C195.621 46.2469 197.996 47.177 199.856 45.8948C200.37 45.5426 201.066 45.6871 201.418 46.1928C201.77 46.7075 201.634 47.4117 201.12 47.7639C200.19 48.405 199.106 48.7481 198.014 48.7481Z" fill="#210B04"/>
<path d="M192.99 44.4584C192.529 44.4584 192.087 44.1695 191.924 43.709C191.59 42.7699 191.392 41.7676 191.328 40.7292C191.292 40.1062 191.762 39.5644 192.394 39.5283C192.999 39.5012 193.541 39.9617 193.586 40.5848C193.631 41.4155 193.793 42.2101 194.055 42.9505C194.263 43.5374 193.956 44.1875 193.369 44.3952C193.243 44.4403 193.107 44.4584 192.99 44.4584Z" fill="#210B04"/>
<path d="M192.478 40.3691C191.764 40.315 191.304 39.7732 191.349 39.1501C191.701 34.7076 194.564 31.3577 198.022 31.3577C198.826 31.3577 199.62 31.5473 200.388 31.9085C200.947 32.1704 201.182 32.8566 200.92 33.4164C200.649 33.9763 199.981 34.2381 199.412 33.9401C196.758 32.7121 193.913 35.4661 193.606 39.3308C193.552 39.9177 193.065 40.3691 192.478 40.3691Z" fill="#210B04"/>
<path d="M199.179 44.802C198.737 44.802 198.313 44.5401 198.132 44.0976L195.333 37.172C195.098 36.5851 195.378 35.9349 195.956 35.7002C196.525 35.4835 197.193 35.7453 197.428 36.3232L200.227 43.2579C200.462 43.8358 200.182 44.4949 199.604 44.7297C199.459 44.7839 199.315 44.802 199.179 44.802Z" fill="#210B04"/>
<path d="M197.787 40.7393C197.589 40.7393 197.381 40.6851 197.191 40.5678C196.659 40.2427 196.496 39.5474 196.821 39.0146L198.157 36.8295C198.482 36.2968 199.178 36.1252 199.71 36.4593C200.243 36.7844 200.406 37.4796 200.081 38.0124L198.744 40.1976C198.537 40.5497 198.166 40.7393 197.787 40.7393Z" fill="#210B04"/>
<path d="M221.673 37.2525C221.592 38.7423 220.102 39.9071 218.341 39.853C216.58 39.7988 215.226 38.5437 215.307 37.0538C215.388 35.564 216.878 34.3991 218.639 34.4533C220.391 34.5165 221.754 35.7626 221.673 37.2525Z" fill="#210B04"/>
<path d="M212.314 37.506C217.605 34.9055 220.098 35.1854 221.362 36.1877C222.572 37.1448 222.806 38.9056 223.402 38.8063C224.035 38.6979 224.576 36.6482 223.782 35.2035C223.231 34.1922 222.201 33.8039 221.849 33.6685C218.174 32.2599 212.784 37.0726 212.314 37.506Z" fill="#D82E2E"/>
<path d="M245.367 36.2675C245.692 37.7213 244.564 39.2472 242.857 39.6716C241.151 40.096 239.507 39.2563 239.182 37.8025C238.857 36.3488 239.986 34.8228 241.692 34.3984C243.399 33.974 245.051 34.8138 245.367 36.2675Z" fill="#210B04"/>
<path d="M235.476 38.2089C239.865 34.281 242.339 33.8747 243.829 34.4887C245.255 35.0846 245.96 36.719 246.501 36.4571C247.079 36.1863 247.043 34.0644 245.887 32.8815C245.084 32.0598 243.991 31.9605 243.612 31.9243C239.711 31.5722 235.819 37.6581 235.476 38.2089Z" fill="#D82E2E"/>
<path d="M211.159 33.2883C213.254 32.8459 216.189 32.4305 219.674 32.584C222.663 32.7104 225.164 33.216 227.033 33.7307C227.033 33.3334 226.997 32.8729 226.88 32.3673C226.6 31.1483 225.995 30.2453 225.543 29.6945C223.168 29.6133 221.182 29.6765 219.737 29.7488C216.216 29.9294 215.241 30.2634 214.608 30.5343C212.839 31.2928 211.746 32.4937 211.159 33.2883Z" fill="#8E3B32"/>
<path d="M226.877 29.6668C227.085 30.037 227.347 30.5969 227.536 31.2921C227.862 32.5111 227.816 33.712 227.69 33.7301C227.536 33.7481 227.175 32.2944 227.076 31.87C226.913 31.2379 226.814 30.6781 226.444 29.9377C226.354 29.7571 226.263 29.6036 226.209 29.5133L226.877 29.6668Z" fill="#8E3B32"/>
<path d="M246.288 28.6652V29.1347C246.207 29.9925 246.135 30.769 246.135 31.4643C245.747 31.3831 245.277 31.4643 244.889 31.5456C241.936 31.9339 239.444 32.7104 237.656 33.3334C237.656 32.9452 237.575 32.4757 237.656 32.0152C237.891 30.7691 238.361 29.7577 238.749 29.216C241.16 28.8999 243.101 28.7465 244.582 28.7465C245.277 28.6652 245.828 28.6652 246.288 28.6652Z" fill="#8E3B32"/>
<path d="M237.45 29.2875C237.279 29.6758 237.062 30.2537 236.936 30.967C236.719 32.2131 236.873 33.405 237.008 33.405C237.161 33.414 237.387 31.9332 237.45 31.4998C237.55 30.8497 237.595 30.2898 237.902 29.5223C237.974 29.3327 238.046 29.1792 238.101 29.0798L237.45 29.2875Z" fill="#8E3B32"/>
<path d="M231.591 47.7711C232.404 47.3106 233.208 47.2113 234.011 47.1932C234.824 47.2113 235.628 47.3106 236.44 47.7711C235.628 48.2316 234.824 48.3309 234.011 48.349C233.208 48.3309 232.404 48.2316 231.591 47.7711Z" fill="#210B04"/>
<path d="M232.401 57.451C232.148 57.451 231.886 57.442 231.633 57.433C228.572 57.2885 226.143 56.4036 224.644 55.6722C224.085 55.4014 223.85 54.7332 224.121 54.1643C224.382 53.6045 225.069 53.3517 225.629 53.6406C226.938 54.2727 229.06 55.0582 231.733 55.1756C234.775 55.3111 237.259 54.5255 238.794 53.8483C239.371 53.6226 240.031 53.8483 240.283 54.4171C240.536 54.986 240.274 55.6542 239.706 55.907C238.08 56.6294 235.543 57.451 232.401 57.451Z" fill="#210B04"/>
<path d="M238.361 55.2302C238.243 56.2145 235.227 56.8194 232.789 56.8104C229.674 56.8013 226.64 55.781 226.694 55.3205C226.712 55.158 227.092 55.2122 227.805 54.9594C230.108 54.1377 230.541 51.9977 231.85 52.106C232.085 52.1241 232.717 52.2505 233.349 52.1963C233.62 52.1783 233.9 52.1331 233.9 52.1331C234.92 51.9796 234.966 51.799 235.363 51.8622C236.13 52.1241 237.205 53.6771 237.205 53.6771C238.054 54.9413 238.397 54.8962 238.361 55.2302Z" fill="#D82E2E"/>
<path d="M232.422 61.4787C231.067 61.4787 229.74 61.2348 228.467 60.7563C227.88 60.5396 227.591 59.8804 227.808 59.3025C228.025 58.7246 228.702 58.4447 229.262 58.6434C230.39 59.0768 231.6 59.3025 232.756 59.2122C233.325 59.1851 233.84 59.1219 234.282 59.0226C234.878 58.8872 235.501 59.2664 235.636 59.8804C235.772 60.4764 235.393 61.0904 234.788 61.2258C234.219 61.3523 233.578 61.4425 232.846 61.4696C232.702 61.4696 232.557 61.4787 232.422 61.4787Z" fill="#210B04"/>
<path d="M220.328 94.581C221.141 95.9174 222.45 96.5585 223.705 96.2244C225.484 95.7459 226.161 93.5968 226.207 93.4343L220.328 94.581Z" fill="#210B04"/>
<path d="M227.462 98.6C227.832 98.8619 228.41 99.2411 229.132 99.5842C231.561 100.731 233.593 100.505 235.011 100.325C240.157 99.6655 244.907 98.5729 246.505 98.1937C242.821 98.3833 239.128 98.5729 235.444 98.7716L227.462 98.6Z" fill="#210B04"/>
<path d="M220.328 98.6C219.759 98.8619 218.883 99.2411 217.79 99.5842C214.106 100.731 211.009 100.505 208.851 100.325C201.041 99.6655 193.817 98.5729 191.388 98.1937C196.986 98.3833 202.594 98.5729 208.192 98.7716L220.328 98.6Z" fill="#210B04"/>
<path d="M314.363 243.876C311.428 252.246 308.493 260.607 305.559 268.978C287.003 272.445 262.407 274.82 234.018 271.434C221.611 269.953 210.379 267.605 200.473 264.923C207.363 250.106 214.261 235.298 221.151 220.48C239.499 222.647 260.348 226.467 282.832 233.067C294.164 236.39 304.683 240.065 314.363 243.876Z" fill="#FC6454"/>
<path d="M277.511 260.869C273.619 260.355 269.736 259.84 265.845 259.326V237.212C270.657 235.587 275.479 233.952 280.301 232.318C279.371 241.844 278.441 251.352 277.511 260.869Z" fill="#210B04"/>
<path d="M268.762 268.283H191.478C181.546 260.499 177.04 247.885 180.056 236.49C183.74 222.566 198.025 212.76 213.835 214.376C236.192 219.722 258.549 225.067 280.907 230.413C276.861 243.036 272.816 255.659 268.762 268.283Z" fill="#6AA7AD"/>
<path d="M312.172 284.438C304.479 285.25 297.517 279.48 295.973 272.32C294.8 266.884 296.831 261.087 301.238 257.132C298.728 254.794 298.619 252.997 298.655 252.283C298.854 248.41 305.003 244.473 314.358 243.868C315.143 244.455 326.864 253.511 325.338 266.83C324.687 272.528 321.13 283.499 312.172 284.438Z" fill="#FC6454"/>
<path d="M184.686 286.876C183.638 283.662 182.6 280.447 181.553 277.232C187.232 275.625 196.217 272.971 207.097 269.223C240.705 257.638 250.89 249.909 269.148 249.693C276.742 249.602 288.092 250.776 302.106 257.476C304.616 266.478 307.126 275.472 309.636 284.474C287.063 283.409 262.936 283.084 237.427 283.842C219.052 284.384 201.454 285.44 184.686 286.876Z" fill="#FC6454"/>
<path d="M295.642 254.06C295.461 254.042 278.368 251.361 278.368 251.361C277.754 251.27 277.33 250.692 277.429 250.069C277.529 249.464 278.08 248.959 278.721 249.13L295.822 251.812C296.436 251.902 296.861 252.48 296.762 253.103C296.671 253.663 296.193 254.06 295.642 254.06Z" fill="#210B04"/>
<path d="M298.236 255.894C298.046 255.894 297.838 255.84 297.658 255.731L294.353 253.79C293.811 253.474 293.64 252.788 293.956 252.246C294.272 251.695 294.958 251.533 295.5 251.849L298.804 253.799C299.346 254.115 299.518 254.801 299.202 255.343C298.994 255.704 298.615 255.894 298.236 255.894Z" fill="#210B04"/>
<path d="M300.825 253.103C297.89 261.474 294.956 269.835 292.021 278.206C273.465 281.673 248.869 284.048 220.48 280.671C208.074 279.19 196.841 276.842 186.936 274.16C193.825 259.343 200.724 244.525 207.613 229.717C225.961 231.884 246.81 235.704 269.294 242.304C280.617 245.627 291.136 249.293 300.825 253.103Z" fill="#FC6454"/>
<path d="M263.978 270.106C260.086 269.592 256.204 269.077 252.312 268.562V246.449C257.134 244.824 261.947 243.189 266.768 241.555C265.838 251.081 264.908 260.589 263.978 270.106Z" fill="#210B04"/>
<path d="M255.229 277.519H177.945C168.013 269.735 163.507 257.121 166.523 245.726C170.207 231.802 184.492 221.996 200.302 223.613C222.66 228.958 245.017 234.304 267.374 239.649C263.328 252.272 259.274 264.896 255.229 277.519Z" fill="#6AA7AD"/>
<path d="M298.641 293.674C290.947 294.487 283.986 288.717 282.442 281.556C281.268 276.121 283.299 270.324 287.706 266.369C285.196 264.03 285.087 262.233 285.123 261.52C285.331 257.646 291.471 253.709 300.826 253.104C301.611 253.691 313.332 262.757 311.806 276.066C311.165 281.764 307.607 292.735 298.641 293.674Z" fill="#FC6454"/>
<path d="M171.159 296.112C170.111 292.898 169.073 289.683 168.026 286.469C173.705 284.862 182.69 282.207 193.57 278.46C227.178 266.875 237.363 259.146 255.621 258.929C263.215 258.839 274.565 260.012 288.579 266.712C291.089 275.715 293.599 284.708 296.109 293.711C273.536 292.645 249.409 292.32 223.9 293.078C205.525 293.62 187.918 294.677 171.159 296.112Z" fill="#FC6454"/>
<path d="M282.105 263.297C281.934 263.279 264.832 260.597 264.832 260.597C264.218 260.507 263.794 259.929 263.893 259.306C263.992 258.692 264.561 258.204 265.184 258.367L282.286 261.048C282.9 261.139 283.324 261.717 283.225 262.34C283.135 262.9 282.647 263.297 282.105 263.297Z" fill="#210B04"/>
<path d="M282.109 263.299C281.73 263.299 281.36 263.109 281.143 262.748C280.818 262.206 280.99 261.52 281.531 261.195L284.854 259.19C285.378 258.874 286.082 259.037 286.398 259.578C286.723 260.12 286.552 260.806 286.019 261.132L282.696 263.136C282.507 263.244 282.308 263.299 282.109 263.299Z" fill="#210B04"/>
<path d="M284.695 265.14C284.496 265.14 284.298 265.086 284.117 264.978L280.812 263.018C280.28 262.702 280.099 262.016 280.415 261.474C280.731 260.914 281.426 260.761 281.959 261.077L285.264 263.036C285.797 263.352 285.977 264.039 285.661 264.58C285.454 264.941 285.083 265.14 284.695 265.14Z" fill="#210B04"/>
<path d="M309.644 285.601C309.436 285.601 309.228 285.547 309.048 285.421C308.515 285.096 308.362 284.4 308.696 283.868C310.312 281.303 312.94 275.976 312.434 269.05C312.055 263.904 310.104 259.931 308.452 257.429L278.022 246.161C277.444 245.953 277.137 245.294 277.354 244.716C277.562 244.129 278.221 243.849 278.808 244.048L309.58 255.443C309.797 255.524 309.987 255.669 310.122 255.867C311.964 258.576 314.258 263.037 314.682 268.897C315.233 276.455 312.371 282.27 310.61 285.069C310.384 285.412 310.014 285.601 309.644 285.601Z" fill="#210B04"/>
<path d="M264.451 228.633C231.53 235.974 198.608 243.324 165.687 250.674C165.849 244.191 167.005 233.139 172.946 221.121C181.434 203.964 194.671 195.007 200.504 191.54C217.471 192.461 234.446 193.373 251.413 194.294C255.765 205.734 260.108 217.184 264.451 228.633Z" fill="#6AA7AD"/>
<path d="M266.763 242.693C266.447 242.648 219.178 228.824 219.178 228.824C218.582 228.643 218.239 228.02 218.41 227.424C218.591 226.828 219.205 226.494 219.81 226.657L267.07 240.481C267.666 240.662 268.009 241.285 267.838 241.881C267.702 242.377 267.251 242.693 266.763 242.693Z" fill="#C1DCE0"/>
<path d="M227.205 230.087C226.194 229.762 225.923 229.103 226.167 228.525L240.099 194.98C240.334 194.402 241.002 194.113 241.571 194.375C242.149 194.61 242.42 195.278 242.176 195.847L228.243 229.392C228.072 229.825 227.648 230.087 227.205 230.087Z" fill="#C1DCE0"/>
<path d="M231.4 201.727C231.319 201.727 198.433 199.298 198.433 199.298C197.81 199.244 197.341 198.711 197.395 198.088C197.44 197.465 197.928 197.068 198.605 197.041L231.49 199.469C232.113 199.524 232.583 200.056 232.529 200.679C232.484 201.284 231.987 201.727 231.4 201.727Z" fill="#C1DCE0"/>
<path d="M243.133 203.35C242.6 203.35 242.131 202.98 242.022 202.438C241.896 201.833 242.293 201.228 242.907 201.12L251.765 199.341C252.406 199.197 252.975 199.612 253.092 200.226C253.219 200.831 252.822 201.436 252.208 201.544L243.359 203.323C243.286 203.341 243.205 203.35 243.133 203.35Z" fill="#C1DCE0"/>
<path d="M259.594 256.985C259.468 256.976 174.094 247.739 174.094 247.739C173.768 247.702 173.479 247.531 173.299 247.269C173.109 246.998 173.046 246.673 173.118 246.348L179.917 218.32C180.053 217.788 180.54 217.453 181.082 217.453C185.416 217.751 189.696 216.894 193.507 215.124C200.333 211.946 203.918 206.564 205.453 203.647C205.751 203.088 206.437 202.898 206.979 203.169C207.53 203.449 207.746 204.135 207.458 204.686C205.787 207.864 201.886 213.715 194.464 217.174C190.599 218.98 186.301 219.964 181.904 219.747L175.629 245.617L259.729 254.727C260.343 254.791 260.795 255.341 260.732 255.973C260.65 256.551 260.163 256.985 259.594 256.985Z" fill="#C1DCE0"/>
<path d="M240.326 132C239.884 132 239.459 131.738 239.279 131.296L235.775 122.618C235.54 122.041 235.82 121.381 236.398 121.147C236.976 120.912 237.635 121.192 237.87 121.77L241.373 130.447C241.608 131.025 241.328 131.684 240.75 131.919C240.606 131.973 240.47 132 240.326 132Z" fill="#210B04"/>
<path d="M251.578 196.876C233.004 196.1 214.431 195.323 195.857 194.546C186.24 164.704 176.624 134.852 167.008 105.01C168.543 102.454 170.863 99.3482 174.294 96.5039C183.811 88.6301 194.99 88.5579 198.701 88.6934C222.106 119.457 236.49 133.398 241.853 130.527C246.205 128.197 244.607 114.78 237.068 90.2825C240.661 90.1019 256.463 89.6685 263.723 99.908C266.883 104.369 269.24 112.008 266.883 113.886C265.565 114.942 263 113.994 260.851 112.883C262.025 117.073 263.199 121.263 264.373 125.461C264.887 127.556 265.285 130.184 265.186 133.209C264.915 141.209 261.294 147.051 259.352 149.733C256.761 165.444 254.169 181.165 251.578 196.876Z" fill="#FFA1A1"/>
<path d="M189.998 108.532C188.833 122.293 187.587 136.135 186.422 149.905C185.564 160.171 184.716 170.357 183.776 180.623C177.555 178.529 171.334 176.343 165.112 174.248C164.336 167.792 163.866 160.795 163.713 153.255C163.632 151.151 163.632 149.137 163.632 146.952C163.632 140.343 163.948 133.417 164.643 126.112C165.338 118.726 166.35 111.8 167.596 105.353C171.713 101.624 177.311 100.297 182.214 101.931C187.045 103.556 189.375 107.448 189.998 108.532Z" fill="#FC6454"/>
<path d="M247.562 133.11C249.07 135.115 250.578 137.12 252.086 139.124C241.612 153.418 226.145 170.375 203.986 184.407C198.668 187.775 193.431 190.683 188.374 193.184C181.665 195.459 174.36 193.798 169.692 188.94C164.012 183.035 164.979 175.233 165.123 174.231C169.367 174.971 173.611 175.712 177.864 176.452C182.369 172.172 186.261 169.22 188.6 167.54C207.86 153.68 221.44 154.185 239.553 140.117C243.346 137.156 246.136 134.501 247.562 133.11Z" fill="#FC6454"/>
<path d="M186.422 149.904C178.882 150.997 171.262 152.162 163.713 153.245C163.632 151.141 163.632 149.128 163.632 146.943C164.336 146.789 165.031 146.554 165.735 146.32C172.58 147.575 179.496 148.739 186.422 149.904Z" fill="#210B04"/>
<path d="M190.744 150.059C180.704 149.68 170.654 149.301 160.613 148.922C162.744 134.285 164.875 119.648 167.015 105.02C171.421 96.7671 180.794 93.8144 187.187 97.0831C191.647 99.3585 194.392 104.532 194.473 110.203C193.227 123.485 191.981 136.768 190.744 150.059Z" fill="#FFA1A1"/>
<path d="M198.518 34.0564C200.956 35.9707 201.66 38.3996 202.085 38.2642C202.644 38.0836 200.423 34.0835 201.597 30.6523C202.166 29.009 203.511 27.4829 216.18 22.5528C220.83 20.7379 222.97 21.3609 225.904 19.3112C228.694 17.3518 230.32 14.8145 231.25 12.9906C232.631 14.8236 234.889 17.4963 238.212 20.1149C241.345 22.589 244.559 25.1262 246.248 24.1691C248.352 22.9862 247.81 16.5663 245.336 11.8529C241.011 3.61794 231.205 1.41473 228.649 0.836836C226.545 0.367301 214.058 -2.44991 204.026 5.85725C197.109 11.582 195.43 19.2209 195.114 20.765C194.093 25.8396 194.834 30.0654 195.43 32.4041C196.251 32.684 197.38 33.1625 198.518 34.0564Z" fill="#8E3B32"/>
<path d="M189.574 69.5333C184.725 69.5333 180.175 67.9802 176.662 65.0637C173.502 62.427 171.669 59.05 171.633 55.7903C171.569 50.1559 176.879 44.3861 184.247 42.0565C184.861 41.8849 185.484 42.21 185.665 42.7879C185.854 43.3838 185.52 44.0249 184.924 44.2055C178.576 46.21 173.827 51.1672 173.881 55.7542C173.908 58.3096 175.488 61.1448 178.098 63.321C182.035 66.5987 187.507 67.9079 193.132 66.9598C193.737 66.8786 194.333 67.2669 194.432 67.8809C194.541 68.4949 194.125 69.0818 193.511 69.1902C192.202 69.4159 190.875 69.5333 189.574 69.5333Z" fill="#8E3B32"/>
<path d="M212.349 28.1421C208.711 28.1421 204.891 27.212 201.352 25.3249C200.801 25.0359 200.593 24.3497 200.882 23.7989C201.171 23.2391 201.866 23.0494 202.408 23.3293C210.056 27.4107 219.022 26.5258 223.763 21.2616C227.022 17.6318 227.338 12.9725 227.239 10.5255C227.212 9.91149 227.7 9.37877 228.323 9.35168C228.973 9.35168 229.469 9.83027 229.496 10.4353C229.614 13.2344 229.244 18.5528 225.442 22.7786C222.264 26.3091 217.478 28.1421 212.349 28.1421Z" fill="#8E3B32"/>
<path d="M242.968 44.7304C248.449 44.7304 252.891 42.2725 252.891 39.2405C252.891 36.2085 248.449 33.7505 242.968 33.7505C237.487 33.7505 233.045 36.2085 233.045 39.2405C233.045 42.2725 237.487 44.7304 242.968 44.7304Z" fill="#210B04"/>
<path d="M221.083 45.5413C226.563 45.5413 231.006 43.0835 231.006 40.0515C231.006 37.0194 226.563 34.5615 221.083 34.5615C215.602 34.5615 211.159 37.0194 211.159 40.0515C211.159 43.0835 215.602 45.5413 221.083 45.5413Z" fill="#210B04"/>
<path d="M235.483 40.3679H228.865C228.242 40.3679 227.736 39.8623 227.736 39.2392C227.736 38.6162 228.242 38.1105 228.865 38.1105H235.483C236.106 38.1105 236.612 38.6162 236.612 39.2392C236.612 39.8713 236.106 40.3679 235.483 40.3679Z" fill="#210B04"/>
<path d="M211.624 41.7856C211.443 41.7856 211.245 41.7404 211.073 41.6411L197.475 34.0563C196.933 33.7493 196.734 33.0631 197.041 32.5213C197.348 31.9705 198.025 31.7809 198.585 32.0788L212.184 39.6637C212.725 39.9707 212.915 40.6569 212.617 41.1987C212.4 41.5779 212.021 41.7856 211.624 41.7856Z" fill="#210B04"/>
<path d="M171.151 296.11C159.376 296.11 147.593 296.11 135.818 296.11C128.179 295.83 124.242 294.945 123.99 293.437C123.872 292.751 124.523 291.947 125.931 291.008C130.852 291.225 138.789 291.171 146.184 289.004C147.945 288.489 149.462 288.038 151.331 287.008C155.9 284.507 156.667 281.843 160.279 279.83C161.95 278.9 164.577 277.906 168.541 278.051C169.517 278.52 170.257 279.098 170.808 279.667C175.864 284.895 171.377 295.586 171.151 296.11Z" fill="#FC6454"/>
<path d="M173.198 283.434C172.665 283.434 172.187 283.055 172.088 282.513C171.97 281.899 172.376 281.303 172.99 281.195L198.309 276.454C198.932 276.364 199.51 276.743 199.628 277.357C199.745 277.971 199.339 278.567 198.725 278.676L173.406 283.416C173.334 283.425 173.27 283.434 173.198 283.434Z" fill="#210B04"/>
<path d="M173.199 283.433C172.811 283.433 172.44 283.243 172.233 282.873L169.993 279.117C169.677 278.584 169.849 277.889 170.391 277.573C170.915 277.248 171.619 277.419 171.935 277.97L174.165 281.726C174.481 282.259 174.31 282.954 173.777 283.27C173.596 283.379 173.398 283.433 173.199 283.433Z" fill="#210B04"/>
<path d="M265.19 159.811H262.463C261.84 159.811 261.334 159.305 261.334 158.682V130.51C259.122 130.32 254.589 129.481 250.544 125.914C246.291 122.167 244.937 117.607 244.503 115.214L245.804 91.9267C245.84 91.3308 246.336 90.8613 246.932 90.8613H280.549C281.145 90.8613 281.642 91.3218 281.678 91.9177L283.159 114.844C282.68 117.544 281.262 122.158 276.937 125.923C273.046 129.291 268.802 130.248 266.319 130.492V158.682C266.319 159.305 265.813 159.811 265.19 159.811ZM263.592 157.553H264.061V129.417C264.061 128.794 264.567 128.289 265.19 128.289H265.696C267.709 128.144 271.772 127.422 275.456 124.216C279.186 120.975 280.468 117.011 280.901 114.853L279.493 93.1277H248.007L246.743 115.087C247.104 116.92 248.296 120.939 252.034 124.234C255.862 127.602 260.179 128.198 261.858 128.298H262.454C263.077 128.298 263.583 128.803 263.583 129.426V157.553H263.592Z" fill="#C1DCE0"/>
<path d="M263.823 162.186C250.188 162.186 250.188 160.795 250.188 159.865C250.188 158.935 250.188 157.545 263.823 157.545C277.457 157.545 277.457 158.935 277.457 159.865C277.457 160.795 277.457 162.186 263.823 162.186ZM259.841 159.874C262.252 159.946 265.394 159.946 267.805 159.874C265.376 159.802 262.279 159.802 259.841 159.874Z" fill="#C1DCE0"/>
<path d="M279.911 117.038C280.94 119.684 272.813 127.802 263.549 127.856C254.556 127.901 246.474 120.334 247.404 117.671C247.793 116.569 249.617 116.605 263.811 116.352C277.744 116.09 279.495 115.982 279.911 117.038Z" fill="url(#paint0_linear_17_3574)"/>
<path d="M268.834 139.195C268.59 146.654 268.464 150.383 267.199 151.593C262.594 155.972 243.912 143.177 239.542 140.116C240.743 138.337 244.987 132.513 253.123 129.967C260.5 127.665 266.703 129.416 268.834 130.13C268.906 132.26 268.96 135.403 268.834 139.195Z" fill="#FC6454"/>
<path d="M97.4073 323.788H66.9507C31.3383 323.788 2.47083 294.921 2.47083 259.308V224.852H161.896V259.308C161.896 294.921 133.02 323.788 97.4073 323.788Z" fill="#FFC392"/>
<path d="M58.9695 248.201C57.7685 243.677 47.9534 203.406 72.8929 180.227C76.4867 176.877 87.4305 166.674 99.3404 169.418C116.289 173.31 126.023 201.229 123.567 238.91L114.555 238.332C116.903 202.394 107.422 180.543 97.3178 178.222C92.5321 177.148 86.3831 180.019 79.0511 186.845C57.606 206.774 67.2766 244.291 67.701 245.88L58.9695 248.201Z" fill="#FFC392"/>
<path d="M80.1451 226.9L5.66978 217.275C2.82548 216.905 0.793764 214.277 1.16397 211.424C1.53418 208.57 4.16173 206.548 7.01506 206.918L81.4905 216.543C84.3439 216.914 86.3665 219.541 86.0053 222.394C85.6261 225.239 82.9894 227.261 80.1451 226.9Z" fill="#FFC392"/>
<path d="M156.21 199.369L86.5657 227.46C83.902 228.534 80.8409 227.234 79.7664 224.57C78.6919 221.906 79.9921 218.845 82.6558 217.771L152.301 189.68C154.964 188.605 158.025 189.906 159.1 192.569C160.174 195.233 158.874 198.294 156.21 199.369Z" fill="#FFC392"/>
<path d="M161.893 236.906H7.77701C7.15397 236.906 6.64832 236.4 6.64832 235.777C6.64832 235.154 7.15397 234.648 7.77701 234.648H161.893C162.516 234.648 163.022 235.154 163.022 235.777C163.022 236.4 162.516 236.906 161.893 236.906Z" fill="#210B04"/>
<path d="M92.9826 225.981H56.2054C55.5824 225.981 55.0767 225.475 55.0767 224.852C55.0767 224.229 55.5824 223.724 56.2054 223.724H92.9826C93.6057 223.724 94.1113 224.229 94.1113 224.852C94.1113 225.475 93.6057 225.981 92.9826 225.981Z" fill="#210B04"/>
<path d="M79.131 225.347C78.5531 225.347 78.0566 224.895 78.0114 224.308C77.9392 223.424 77.9843 222.069 78.6164 220.597C79.3027 218.999 80.5397 217.654 82.1199 216.787C82.6616 216.48 83.3478 216.688 83.6458 217.229C83.9438 217.78 83.7451 218.466 83.2034 218.764C82.5442 219.126 81.3523 219.965 80.6932 221.491C80.2507 222.53 80.2146 223.505 80.2688 224.137C80.323 224.751 79.8625 225.302 79.2395 225.356C79.1943 225.347 79.1671 225.347 79.131 225.347Z" fill="#210B04"/>
<path d="M149.69 262.431C133.816 255.948 117.933 249.474 102.059 242.991C98.1672 236.426 94.2845 229.871 90.3928 223.306C114.222 223.821 138.051 224.336 161.889 224.85C157.825 237.374 153.753 249.898 149.69 262.431Z" fill="url(#paint1_linear_17_3574)"/>
<path d="M58.4119 224.083C38.9443 233.89 19.4676 243.705 0 253.511C2.59147 243.443 5.18288 233.366 7.77435 223.298C24.6505 223.56 41.5267 223.831 58.4119 224.083Z" fill="url(#paint2_linear_17_3574)"/>
<path d="M131.701 238.938C131.701 240.283 130.618 241.367 129.272 241.367C127.927 241.367 126.844 240.274 126.844 238.938C126.844 237.592 127.927 236.509 129.272 236.509C130.618 236.509 131.701 237.592 131.701 238.938Z" fill="white"/>
<path d="M109.836 230.107C109.836 231.452 108.752 232.536 107.407 232.536C106.062 232.536 104.978 231.452 104.978 230.107C104.978 228.762 106.062 227.678 107.407 227.678C108.752 227.678 109.836 228.771 109.836 230.107Z" fill="white"/>
<path d="M23.3229 231.361C23.3229 232.707 22.2394 233.79 20.894 233.79C19.5486 233.79 18.4651 232.707 18.4651 231.361C18.4651 230.016 19.5486 228.932 20.894 228.932C22.2304 228.932 23.3229 230.016 23.3229 231.361Z" fill="white"/>
<path d="M10.9248 241.446C10.9248 242.792 9.84127 243.875 8.49587 243.875C7.15047 243.875 6.06696 242.792 6.06696 241.446C6.06696 240.101 7.15047 239.018 8.49587 239.018C9.84127 239.018 10.9248 240.11 10.9248 241.446Z" fill="white"/>
<path d="M144.765 229.673C144.765 231.018 143.681 232.102 142.336 232.102C140.991 232.102 139.907 231.018 139.907 229.673C139.907 228.327 140.991 227.244 142.336 227.244C143.681 227.244 144.765 228.327 144.765 229.673Z" fill="white"/>
<path d="M142.336 250.54C143.677 250.54 144.765 249.452 144.765 248.111C144.765 246.769 143.677 245.682 142.336 245.682C140.995 245.682 139.907 246.769 139.907 248.111C139.907 249.452 140.995 250.54 142.336 250.54Z" fill="white"/>
<defs>
<linearGradient id="paint0_linear_17_3574" x1="263.665" y1="116.176" x2="263.665" y2="127.856" gradientUnits="userSpaceOnUse">
<stop stop-color="#F65F51"/>
<stop offset="1" stop-color="#FB4967"/>
</linearGradient>
<linearGradient id="paint1_linear_17_3574" x1="126.141" y1="223.306" x2="126.141" y2="262.431" gradientUnits="userSpaceOnUse">
<stop stop-color="#F65F51"/>
<stop offset="1" stop-color="#FB4967"/>
</linearGradient>
<linearGradient id="paint2_linear_17_3574" x1="29.206" y1="223.298" x2="29.206" y2="253.511" gradientUnits="userSpaceOnUse">
<stop stop-color="#F65F51"/>
<stop offset="1" stop-color="#FB4967"/>
</linearGradient>
</defs>
</svg>
