<svg width="207" height="298" viewBox="0 0 207 298" fill="none" xmlns="http://www.w3.org/2000/svg">
<path d="M0 276.307C20.9575 276.37 41.915 276.424 62.8725 276.488C63.4865 274.131 63.9651 270.609 62.5204 266.826C61.9786 265.399 61.3556 264.451 61.0305 263.937C59.3691 261.282 57.4097 256.803 56.3532 248.893C52.5518 248.46 48.7504 248.027 44.958 247.584C30.565 266.952 22.4203 270.835 17.5986 270.546C14.1945 270.347 10.9257 272.235 7.51257 272.262C5.32742 272.28 2.62756 272.072 1.06545 273.815C0.352117 274.627 0.0993247 275.594 0 276.307Z" fill="#FC6454"/>
<path d="M96.2606 127.96C81.9308 114.163 67.4926 106.47 62.1651 110.317C56.4404 114.434 59.7543 132.927 72.7568 154.724C94.3915 181.496 116.035 208.269 137.67 235.05C156.65 257.064 183.937 257.073 193.463 246.238C201.166 237.47 199.838 218.68 188.145 202.734C181.599 193.298 173.273 182.932 162.781 172.575C138.952 149.053 114.067 135.608 96.2606 127.96Z" fill="#FC6454"/>
<path d="M41.9268 257.382C47.2452 257.472 52.5635 257.562 57.8819 257.652C64.1394 239.015 68.1665 222.961 70.8031 210.798C79.4895 170.734 76.0223 159.321 74.099 154.328C72.257 149.551 69.7106 145.804 67.8686 137.957C65.1778 126.49 66.1169 116.367 67.3901 109.46C64.8437 109.207 55.7058 108.593 47.6876 114.688C39.0373 121.262 35.1547 133.027 37.7281 144.72C38.9922 151.321 40.1118 158.147 41.0509 165.19C45.6108 199.204 44.9697 230.338 41.9268 257.382Z" fill="#FC6454"/>
<path d="M134.852 235.214C116.712 213.345 98.5624 191.475 80.413 169.597C77.8216 189.688 75.2302 209.778 72.6387 229.869C61.6227 231.81 50.6066 233.761 39.5906 235.702C38.7599 205.95 36.647 182.708 34.7328 166.202C33.3693 154.499 31.4912 140.892 38.1369 126.102C40.6923 120.404 46.1732 108.205 58.0651 104.955C69.4513 101.848 136.532 146.644 158.672 159.881C150.735 184.992 142.789 210.103 134.852 235.214Z" fill="#210B04"/>
<path d="M132.72 63.8715C133.686 68.6301 134.653 73.3977 135.637 78.1743C137.181 85.8042 138.734 93.4341 140.278 101.073L174.148 94.6802C169.046 79.0952 163.944 63.5103 158.843 47.9253C154.725 51.2843 149.723 54.8871 143.79 58.3003C139.908 60.5306 136.179 62.3636 132.72 63.8715Z" fill="#FC6454"/>
<path d="M132.72 63.87C133.686 68.6285 134.653 73.3961 135.637 78.1727C141.957 76.8093 145.632 68.0596 143.836 58.5064C140.106 60.1317 136.413 62.0008 132.72 63.87Z" fill="#210B04"/>
<path d="M193.346 221.951C188.524 227.703 183.621 233.463 178.799 239.215C169.002 250.953 159.205 262.62 149.327 274.286C146.293 260.444 143.259 246.601 140.225 232.759C137.661 220.786 135.088 208.885 132.523 196.912C129.489 182.988 126.537 168.993 123.584 154.997C123.114 154.293 122.726 153.597 122.419 152.893C121.173 141.615 120.631 131.583 124.126 119.529C126.618 111.05 130.428 104.134 134.076 98.761C136.794 95.7271 139.205 93.3975 140.839 91.8444C141.923 90.8331 142.708 90.21 143.016 89.903C150.329 87.1039 157.553 84.3769 164.867 81.6591C165.878 81.2708 166.89 80.8825 167.901 80.4943C170.312 82.2821 173.499 85.0813 176.84 88.8917C176.84 88.8917 183.215 96.3591 187.495 106.626C195.658 126.454 191.387 152.505 190.764 155.773C191.63 177.86 192.488 199.946 193.346 221.951Z" fill="#FC6454"/>
<path d="M156.881 226.519C136.555 229.391 122 245.337 124.365 262.132C126.74 278.927 145.142 290.223 165.468 287.351C185.793 284.48 200.349 268.543 197.983 251.739C195.608 234.935 177.206 223.648 156.881 226.519Z" fill="#FC6454"/>
<path d="M48.5031 259.532C29.3064 264.742 15.2926 273.176 15.8434 279.722C16.4394 286.747 34.0108 293.402 59.3928 293.447C93.4792 288.634 127.566 283.822 161.652 279.009C161.056 259.036 160.451 239.071 159.855 219.107C148.442 219.884 135.268 221.69 120.956 225.374C88.531 233.726 64.2235 248.182 48.5031 259.532Z" fill="#FC6454"/>
<path d="M187.736 224.695C174.833 208.731 153.677 204.433 140.485 215.088C127.293 225.752 127.058 247.341 139.961 263.305C152.864 279.27 174.021 283.568 187.213 272.913C200.405 262.249 200.64 240.668 187.736 224.695Z" fill="#FC6454"/>
<path d="M165.971 25.0521C165.89 28.4743 165.113 28.8626 163.713 36.8717C163.172 39.9057 162.856 42.1631 162.621 43.9509C162.151 44.881 161.763 45.3505 161.691 45.504C160.598 47.1383 159.433 48.6914 158.35 50.091C149.953 60.6646 141.474 64.791 136.652 66.5789C130.277 68.9897 122.891 69.9198 121.41 67.2019C120.399 65.4141 121.41 60.2763 120.48 59.888C120.327 59.8067 120.092 59.8067 119.704 59.581C119.622 59.4997 119.234 59.2649 119.162 58.9579C119.081 58.4884 119.631 57.9466 120.092 57.5584C119.081 57.8744 117.835 56.8631 117.681 56.7006C117.528 56.6193 116.67 55.8428 116.823 55.3823C116.977 55.0662 117.518 55.0662 117.6 54.687C117.6 54.5335 117.518 54.2987 117.365 54.1452C116.977 53.5222 116.977 52.6644 117.058 51.1113C117.058 49.793 116.742 46.5966 115.658 39.0569C115.117 37.9643 114.647 36.8808 114.105 35.7882C114.024 35.707 113.952 35.4722 113.871 35.2464C113.789 34.9304 113.871 34.6234 113.871 34.5512C113.952 34.3977 114.024 30.3524 114.34 21.4132C114.421 20.3206 114.575 19.0836 115.035 17.7563C117.916 9.66583 132.381 0.880111 146.295 4.4558C153.059 6.16238 160.526 11.0654 164.264 19.4628C165.113 21.3951 165.664 23.2643 165.971 25.0521Z" fill="#FC6454"/>
<path d="M111.84 49.1793C112.065 50.3983 113.492 51.0756 114.025 51.3284C115.479 52.0146 116.86 51.834 117.411 51.7257C117.736 51.3916 118.25 50.7414 118.232 49.9197C118.214 49.2425 117.763 48.9536 117.492 48.159C117.321 47.6533 117.194 46.8768 117.492 45.7662C116.905 43.2379 116.309 40.7097 115.722 38.1814C115.171 39.8519 114.729 41.2153 114.44 42.1453C113.474 45.2424 113.519 45.3057 113.158 46.0822C112.3 47.8972 111.677 48.2854 111.84 49.1793Z" fill="#FC6454"/>
<path d="M118.818 38.0647C118.403 38.0376 118.105 37.8751 117.915 37.6132L116.516 35.7441C116.136 35.2475 116.236 34.5432 116.732 34.164C117.238 33.7757 117.942 33.875 118.313 34.3806L119.017 35.3197C120.191 34.48 122.24 33.3513 124.922 33.6944C126.62 33.875 128.236 34.5974 129.581 35.7712C130.051 36.1776 130.096 36.8908 129.681 37.3604C129.274 37.8299 128.561 37.8931 128.091 37.4687C127.396 36.8638 126.25 36.1053 124.678 35.9337C121.906 35.6719 119.974 37.3875 119.613 37.7396C119.396 37.9473 119.107 38.0647 118.818 38.0647Z" fill="#210B04"/>
<path d="M118.979 37.8378C119.241 39.2464 120.505 40.1855 121.787 39.9417C123.069 39.6979 123.9 38.3616 123.638 36.962C123.376 35.5534 122.112 34.6143 120.83 34.8581C119.539 35.1019 118.708 36.4383 118.979 37.8378Z" fill="#210B04"/>
<path d="M129.942 30.7689C129.942 30.7689 128.786 30.3174 127.64 30.1729C125.771 29.9382 121.761 30.2 116.597 31.112C116.362 30.7418 115.793 29.7395 115.838 28.3489C115.874 27.1661 116.344 26.3173 116.579 25.9381C119.974 26.2993 122.484 26.3083 124.254 26.218C124.913 26.1819 126.89 26.0735 129.175 26.832C130.267 27.1932 130.737 27.5634 130.953 27.744C132.525 29.0442 132.678 31.121 132.705 31.8253C132.01 31.5093 131.08 31.1301 129.942 30.7689Z" fill="#210B04"/>
<path d="M121.703 58.8319C120.999 58.8319 120.412 58.7507 119.988 58.6694C119.374 58.543 118.976 57.9471 119.103 57.3421C119.22 56.7371 119.78 56.3578 120.43 56.4481C121.107 56.6016 122.895 56.8003 124.737 55.8341C126.651 54.8499 127.509 53.1885 127.78 52.5203C128.015 51.9424 128.683 51.6534 129.252 51.9153C129.83 52.1501 130.101 52.8183 129.857 53.3871C129.396 54.4978 128.25 56.5656 125.767 57.8477C124.286 58.6153 122.85 58.8319 121.703 58.8319Z" fill="#210B04"/>
<path d="M46.6258 198.998H43.8989C43.2759 198.998 42.7702 198.492 42.7702 197.869V169.697C40.2149 169.471 35.8898 168.541 31.98 165.092C27.7361 161.354 26.3726 156.794 25.9392 154.401L27.2485 131.114C27.2846 130.518 27.7813 130.048 28.3772 130.048H61.9851C62.581 130.048 63.0776 130.509 63.1047 131.105L64.5946 154.022C64.107 156.731 62.6712 161.345 58.3732 165.101C55.4386 167.656 51.6824 169.273 47.7545 169.679V197.869C47.7545 198.492 47.2398 198.998 46.6258 198.998ZM45.0186 196.74H45.4881V168.604C45.4881 167.981 45.9937 167.476 46.6167 167.476H47.1134C49.1451 167.313 53.2264 166.573 56.8834 163.394C60.5945 160.171 61.8857 156.198 62.3282 154.022L60.9195 132.315H29.4336L28.1694 154.274C28.5397 156.107 29.7315 160.117 33.4607 163.412C37.1177 166.627 41.19 167.349 43.2939 167.485H43.8809C44.5039 167.485 45.0095 167.99 45.0095 168.613V196.74H45.0186Z" fill="#C1DCE0"/>
<path d="M45.2511 201.382C31.6165 201.382 31.6165 199.991 31.6165 199.061C31.6165 198.131 31.6165 196.74 45.2511 196.74C58.8857 196.74 58.8856 198.131 58.8856 199.061C58.8856 199.982 58.8857 201.382 45.2511 201.382ZM41.269 199.061C43.707 199.133 46.7951 199.133 49.2331 199.061C46.8312 198.989 43.6799 198.989 41.269 199.061Z" fill="#C1DCE0"/>
<path d="M61.3435 156.216C62.3729 158.862 54.2462 166.979 44.9819 167.033C35.9885 167.088 27.9071 159.512 28.8372 156.848C29.2255 155.737 31.0494 155.783 45.2438 155.521C59.1854 155.268 60.9281 155.168 61.3435 156.216Z" fill="url(#paint0_linear_1_13645)"/>
<path d="M183.455 289.654C137.278 291.595 91.11 293.545 44.9331 295.487C29.0863 301.582 12.4719 292.028 9.45607 278.475C6.81042 266.619 14.8196 252.813 28.8966 248.822C64.5361 238.772 100.185 228.731 135.824 218.691C154.859 215.955 173.902 213.228 192.936 210.492C195.157 213.408 208.358 231.323 203.961 255.468C200.34 275.36 187.094 286.719 183.455 289.654Z" fill="#210B04"/>
<path d="M206.647 225.148C201.744 229.582 193.274 235.956 181.374 238.756C180.516 238.99 179.667 239.144 178.809 239.225C163.649 242.178 150.113 237.907 140.235 232.769C131.368 228.263 125.463 223.053 124.217 221.961C126.086 197.545 125.075 177.942 123.675 164.253C123.287 160.289 122.817 156.479 122.429 152.903C121.183 141.625 120.641 131.593 124.135 119.539C126.628 111.06 130.438 104.144 134.086 98.771C135.639 96.4413 137.192 94.491 138.592 92.7844C137.942 96.0711 138.483 97.1276 139.052 97.4978C141.725 99.2676 149.192 88.992 164.877 81.66C166.719 80.8022 168.254 80.1792 169.229 79.7909C173.969 83.1319 180.579 88.6579 186.105 97.0553C197.771 114.943 196.444 133.679 196.606 150.32C196.769 168.217 198.638 193.491 206.647 225.148Z" fill="#6AA7AD"/>
<path d="M165.973 24.7377C165.891 28.4669 165.115 28.8552 163.715 36.8643C163.174 39.8983 162.857 42.1557 162.623 43.9435C162.153 47.5192 161.927 48.9188 160.6 49.6231C160.365 49.7495 159.164 50.5531 158.343 50.0926C157.223 49.4606 158.189 47.2573 157.684 45.009C156.681 40.5574 151.056 41.2166 148.934 36.5574C147.173 32.6747 149.891 29.6588 147.688 27.1486C146.18 25.433 143.634 25.433 141.936 25.442C124.762 25.4781 118.071 27.2931 114.252 23.6181C112.563 21.9928 111.443 19.3109 112.066 17.2071C112.644 15.2115 114.595 14.3899 116.735 13.1799C124.952 8.5297 124.446 4.65604 130.189 2.63343C133.214 1.55891 135.805 1.99236 141.006 2.57928C148.546 3.43708 157.413 4.44839 162.316 11.365C165.9 16.4938 165.973 22.7964 165.973 24.7377Z" fill="#8E3B32"/>
<path d="M164.377 33.4325C147.528 29.2067 130.679 24.9809 113.83 20.746C112.755 19.2291 111.68 17.7121 110.615 16.1951C123.554 -1.34926 145.315 -4.00395 156.422 5.17004C163.763 11.2289 166.408 22.4255 164.377 33.4325Z" fill="#210B04"/>
<path d="M122.508 20.6291H84.548C83.0762 20.6291 81.8752 19.4372 81.8752 17.9563C81.8752 16.4845 83.0762 15.2836 84.548 15.2836H122.508C123.98 15.2836 125.181 16.4845 125.181 17.9563C125.181 19.4281 123.98 20.6291 122.508 20.6291Z" fill="#210B04"/>
<path d="M153.38 36.3951C152.973 40.8376 149.994 44.1876 146.716 43.8896C143.438 43.5916 141.109 39.7541 141.515 35.3116C141.921 30.8691 144.901 27.5191 148.179 27.8171C151.456 28.1151 153.786 31.9526 153.38 36.3951Z" fill="#FC6454"/>
<path d="M147.138 45.0351C146.966 45.0351 146.795 45.0261 146.632 45.0081C145.467 44.8997 144.393 44.4573 143.445 43.6808C142.966 43.2835 142.894 42.5701 143.291 42.0915C143.688 41.604 144.393 41.5498 144.88 41.929C145.476 42.4166 146.126 42.6965 146.84 42.7687C148.321 42.9042 149.937 41.9471 151.011 40.2044C151.327 39.6716 152.032 39.5001 152.564 39.8342C153.097 40.1592 153.26 40.8545 152.935 41.3872C151.499 43.7078 149.368 45.0351 147.138 45.0351Z" fill="#210B04"/>
<path d="M152.496 40.9549C152.333 40.9549 152.18 40.9188 152.026 40.8465C151.457 40.5937 151.213 39.9165 151.466 39.3566C151.818 38.5801 152.062 37.7403 152.198 36.8735C152.288 36.2685 152.803 35.799 153.48 35.9255C154.094 36.0248 154.518 36.5936 154.428 37.2167C154.265 38.3002 153.958 39.3386 153.516 40.3048C153.335 40.7111 152.92 40.9549 152.496 40.9549Z" fill="#210B04"/>
<path d="M153.426 36.6475C152.794 36.6385 152.289 36.1238 152.298 35.5008C152.334 32.0425 150.483 29.1621 148.081 28.9273C147.53 28.8641 147.043 28.9635 146.546 29.144C145.941 29.3337 145.309 29.0718 145.092 28.4939C144.866 27.916 145.164 27.2569 145.742 27.0311C146.555 26.7241 147.449 26.6338 148.28 26.679C151.919 27.0131 154.609 30.8235 154.555 35.5279C154.546 36.16 154.049 36.6475 153.426 36.6475Z" fill="#210B04"/>
<path d="M145.867 40.7195C145.686 40.7195 145.514 40.6743 145.352 40.593C144.801 40.3131 144.584 39.6269 144.864 39.0761L148.503 31.9879C148.792 31.419 149.451 31.2204 150.02 31.4913C150.58 31.7712 150.788 32.4574 150.508 33.0082L146.869 40.0964C146.67 40.4937 146.282 40.7195 145.867 40.7195Z" fill="#210B04"/>
<path d="M147.743 36.5298C147.327 36.5298 146.93 36.3041 146.731 35.9068L145.521 33.4598C145.242 32.8909 145.476 32.2227 146.036 31.9428C146.596 31.6719 147.273 31.8977 147.544 32.4575L148.754 34.9045C149.034 35.4734 148.799 36.1416 148.239 36.4215C148.086 36.4937 147.914 36.5298 147.743 36.5298Z" fill="#210B04"/>
<path d="M74.7336 180.098C74.0744 185.516 73.4153 190.934 72.7651 196.351C82.9414 199.71 91.077 203.006 96.7024 205.426C117.705 214.483 126.68 221.354 140.604 220.28C146.193 219.846 150.645 218.293 153.516 217.056C155.15 209.426 156.776 201.796 158.41 194.175C150.708 191.466 144.351 190.112 140.252 189.39C117.723 185.408 105.822 190.392 85.5148 184.216C80.666 182.744 76.9007 181.1 74.7336 180.098Z" fill="#FC6454"/>
<path d="M152.102 202.355H175.507C176.6 185.001 176.807 170.382 176.762 159.51C176.536 112.25 171.173 100.141 162.92 95.157C161.285 94.1638 159.796 93.622 158.839 93.315C153.818 109.866 148.789 126.417 143.768 142.959C146.549 162.761 149.321 182.554 152.102 202.355Z" fill="#FC6454"/>
<path d="M182.81 194.32C169.446 195.377 156.083 196.424 142.71 197.481C139.685 166.112 136.66 134.744 133.635 103.375C140.994 93.1538 152.913 87.6819 164.58 89.3343C176.435 91.0138 183.352 99.3841 184.995 101.488C184.264 132.432 183.542 163.376 182.81 194.32Z" fill="#6AA7AD"/>
<path d="M145.813 227.189C140.829 226.782 135.447 226.033 129.777 224.76C108.801 220.055 92.9906 210.349 82.6338 202.403C83.5909 196.344 84.5571 190.276 85.5142 184.217C107.555 182.827 129.605 181.436 151.646 180.046C162.03 184.804 172.423 189.563 182.807 194.321C182.861 197.761 182.509 206.069 176.92 213.825C166.337 228.525 147.068 227.288 145.813 227.189Z" fill="#6AA7AD"/>
<path d="M143.761 187.493C143.337 187.493 142.93 187.258 142.741 186.852L140.068 181.199C139.797 180.631 140.041 179.953 140.601 179.691C141.17 179.457 141.847 179.673 142.1 180.233L144.772 185.886C145.043 186.455 144.799 187.132 144.24 187.394C144.086 187.457 143.923 187.493 143.761 187.493Z" fill="#C1DCE0"/>
<path d="M147.669 184.667C147.452 184.667 147.235 184.604 147.037 184.477L142.63 181.507C142.116 181.164 141.98 180.459 142.323 179.936C142.676 179.43 143.371 179.285 143.886 179.638L148.292 182.608C148.807 182.951 148.942 183.656 148.599 184.179C148.391 184.486 148.03 184.667 147.669 184.667Z" fill="#C1DCE0"/>
<path d="M148.97 179.559C148.916 179.559 145.422 179.387 145.422 179.387C144.799 179.351 144.32 178.818 144.347 178.204C144.383 177.581 144.916 177.157 145.53 177.13L149.024 177.301C149.647 177.337 150.126 177.87 150.099 178.484C150.063 179.089 149.566 179.559 148.97 179.559Z" fill="#C1DCE0"/>
<path d="M140.59 176.676C140.013 176.676 139.525 176.234 139.462 175.656L132.915 107.736C132.861 107.122 133.313 106.562 133.927 106.508C134.604 106.373 135.1 106.905 135.164 107.519L141.71 175.439C141.764 176.053 141.313 176.613 140.699 176.667C140.663 176.676 140.627 176.676 140.59 176.676Z" fill="#C1DCE0"/>
<path d="M88.6864 185.147C88.0995 185.147 87.5939 184.686 87.5577 184.09C87.5216 183.476 87.9911 182.935 88.6141 182.89L139.36 179.684C139.983 179.72 140.516 180.126 140.552 180.74C140.588 181.355 140.119 181.896 139.496 181.942L88.7495 185.147C88.7495 185.147 88.7135 185.147 88.6864 185.147Z" fill="#C1DCE0"/>
<path d="M146.097 228.786C127.207 228.786 103.766 219.91 81.951 203.305C81.4544 202.926 81.355 202.221 81.7343 201.716C82.1135 201.21 82.8178 201.147 83.3145 201.508C116.633 226.881 153.582 233.96 171.172 218.357C176.273 213.833 179.732 207.242 181.456 198.763C181.583 198.158 182.206 197.761 182.784 197.878C183.389 198.004 183.786 198.591 183.669 199.196C181.845 208.172 178.151 215.188 172.671 220.045C166.016 225.933 156.779 228.786 146.097 228.786Z" fill="#C1DCE0"/>
<path d="M182.861 193.319C182.201 193.301 181.714 192.777 181.732 192.154L183.872 125.58C183.899 124.966 184.396 124.469 185.037 124.487C185.66 124.505 186.147 125.029 186.129 125.652L183.989 192.226C183.971 192.831 183.466 193.319 182.861 193.319Z" fill="#C1DCE0"/>
<path d="M73.6038 196.631C64.2131 195.936 54.8134 195.241 45.4227 194.545C40.4926 192.405 37.0523 187.882 36.5106 182.717C35.8695 176.559 39.4452 170.491 45.4227 167.809C52.258 171.574 57.4229 171.881 61.2966 170.888C63.3553 170.364 64.1681 169.696 65.8295 169.597C69.5858 169.362 74.4165 172.179 80.4392 182.482C78.1638 187.204 75.8883 191.918 73.6038 196.631Z" fill="#FC6454"/>
<defs>
<linearGradient id="paint0_linear_1_13645" x1="45.0979" y1="155.353" x2="45.0979" y2="167.034" gradientUnits="userSpaceOnUse">
<stop stop-color="#F65F51"/>
<stop offset="1" stop-color="#FB4967"/>
</linearGradient>
</defs>
</svg>
