<svg width="173" height="554" viewBox="0 0 173 554" fill="none" xmlns="http://www.w3.org/2000/svg">
<path d="M135.583 76.7082C139.99 80.311 143.249 79.0198 149.191 82.5413C155.728 86.4149 158.87 92.1667 161.669 97.2865C162.834 99.4084 166.934 107.39 168.803 121.91C170.888 138.145 166.861 145.486 170.094 165.333C171.205 172.141 172.306 172.791 172.035 176.349C170.961 190.796 154.798 200.422 148.703 204.051C115.709 223.7 17.4768 212.9 3.53526 175.699C2.14471 171.997 -1.77389 161.532 2.39775 151.554C6.62356 141.459 14.181 143.725 18.4339 134.055C23.6981 122.1 14.9937 112.185 23.1925 98.1984C23.644 97.4219 24.3032 96.519 25.5673 94.686C35.6894 80.013 40.5383 79.7782 54.7328 59.0465C76.4578 27.2987 76.2861 15.2623 85.1892 13.6821C99.5281 11.1358 124.892 39.5788 128.287 60.6627C128.811 63.8773 129.606 71.8232 135.583 76.7082Z" fill="#210B04"/>
<path d="M33.5469 118.866C74.5951 118.622 115.634 118.378 156.674 118.134C155.834 113.99 153.992 108.374 149.432 103.958C140.285 95.1002 128.79 99.4795 119.508 92.5268C114.605 88.8517 109.413 81.4566 108.736 65.1041C108.104 65.077 107.49 65.0228 106.867 64.9687C103.111 64.7068 99.3633 64.445 95.616 64.1831C91.8778 64.445 88.1304 64.7068 84.3831 64.9687C83.751 65.0228 83.1461 65.077 82.514 65.1041C81.8278 81.4476 76.6539 88.8517 71.7418 92.5268C62.5046 99.4343 51.4165 95.2266 41.8271 103.958C36.7887 108.545 34.6033 114.469 33.5469 118.866Z" fill="#FC6454"/>
<path d="M84.5918 70.9208C84.5918 76.3385 89.5307 80.7269 95.6166 80.7269C101.703 80.7269 106.642 76.3385 106.642 70.9208C106.642 65.5031 101.703 61.1147 95.6166 61.1147C89.5307 61.1238 84.5918 65.5121 84.5918 70.9208Z" fill="#210B04"/>
<path d="M95.5088 4.98608C97.9107 4.96802 99.9965 5.09444 101.965 5.32018C112.8 6.59334 120.963 15.7764 120.963 26.684V48.8334C120.394 51.6145 118.128 61.0504 109.387 67.7683C104.322 71.6691 99.1659 73.0596 96.1862 73.6104C95.9875 73.6104 95.8067 73.6014 95.6171 73.5924C95.4275 73.6014 95.238 73.6104 95.0484 73.6104C92.0596 73.0596 86.9127 71.6691 81.8472 67.7683C73.1066 61.0504 70.8403 51.6145 70.2715 48.8334V26.684C70.2715 15.7764 78.4339 6.59334 89.2694 5.32018C91.2378 5.09444 93.3147 4.96802 95.5088 4.98608Z" fill="#FC6454"/>
<path d="M122.364 49.5911C125.655 49.5911 128.323 45.9769 128.323 41.5187C128.323 37.0604 125.655 33.4463 122.364 33.4463C119.072 33.4463 116.404 37.0604 116.404 41.5187C116.404 45.9769 119.072 49.5911 122.364 49.5911Z" fill="#FC6454"/>
<path d="M68.8677 49.5911C72.159 49.5911 74.8272 45.9769 74.8272 41.5187C74.8272 37.0604 72.159 33.4463 68.8677 33.4463C65.5764 33.4463 62.9082 37.0604 62.9082 41.5187C62.9082 45.9769 65.5764 49.5911 68.8677 49.5911Z" fill="#FC6454"/>
<path d="M98.2078 51.6145C97.35 51.1269 96.483 51.0185 95.6252 51.0005C94.7674 51.0185 93.9008 51.1269 93.043 51.6145C93.9008 52.1021 94.7674 52.2104 95.6252 52.2375C96.483 52.2104 97.35 52.1021 98.2078 51.6145Z" fill="#210B04"/>
<path d="M58.8427 116.168C58.5808 116.159 57.9668 116.186 57.4431 116.61C56.7027 117.197 56.4409 118.326 56.8292 119.409C84.3602 119.409 111.882 119.409 139.413 119.409C139.738 118.542 139.522 117.594 138.89 117.043C138.212 116.466 137.363 116.583 137.228 116.61C126.266 113.739 117.706 113.811 111.864 114.425C107.087 114.93 105.85 115.617 100.577 115.87C91.2046 116.321 87.0962 114.542 79.4482 114.037C74.6986 113.702 67.6736 113.82 58.8427 116.168Z" fill="white"/>
<path d="M100.565 99.0207C99.4268 100.447 97.594 101.125 95.8423 100.772C93.3592 100.267 92.4109 97.9643 92.3477 97.8018L100.565 99.0207Z" fill="#210B04"/>
<path d="M91.8127 103.301C91.2077 103.581 90.2778 103.988 89.104 104.349C85.1671 105.568 81.8623 105.333 79.5688 105.134C71.2346 104.43 63.5321 103.265 60.9316 102.859C66.9092 103.067 72.8869 103.265 78.8645 103.473L91.8127 103.301Z" fill="#210B04"/>
<path d="M99.4121 103.301C100.017 103.581 100.947 103.988 102.121 104.349C106.058 105.568 109.363 105.333 111.656 105.134C119.99 104.43 127.692 103.265 130.284 102.859C124.306 103.067 118.329 103.265 112.351 103.473L99.4121 103.301Z" fill="#210B04"/>
<path d="M93.7675 332.956C93.6862 350.465 93.93 367.557 94.3454 384.397C104.305 383.323 114.256 382.239 124.215 381.165C131.105 366.98 138.4 348.722 143.963 326.907C144.459 325.083 144.874 323.259 145.209 321.516C149.859 301.687 151.845 284.016 152.514 269.497C144.793 266.923 116.26 258.21 98.7518 272.901C97.4245 274.066 96.1784 275.312 94.9323 276.802C94.5169 286.346 94.1827 296.053 94.0202 305.841V307.746C93.8486 316.198 93.7675 324.658 93.7675 332.956Z" fill="#FC6454"/>
<path d="M93.9109 387.16C93.1795 396.18 100.349 403.648 108.503 404.334C114.778 404.867 121 401.336 124.25 395.359C124.169 392.975 124.124 390.528 124.115 388.027C124.106 385.697 124.133 383.422 124.178 381.2C123.772 380.505 119.329 373.128 111.085 372.568C103.166 372.026 94.6513 377.995 93.9109 387.16Z" fill="#FC6454"/>
<path d="M83.9863 529.998C86.7223 529.583 89.4583 529.086 92.2032 528.671C93.9459 528.418 95.4359 528.174 96.9348 527.921C96.9348 527.425 97.0161 526.847 97.0161 526.179C97.269 523.443 97.594 519.795 98.1809 515.56C99.7611 504.526 102.244 495.397 105.152 487.352C112.863 465.78 123.319 451.676 125.974 428.443C126.805 420.895 127.139 409.689 123.978 395.585C113.937 393.093 103.897 390.691 93.8648 388.199C92.2034 404.461 91.2102 418.818 90.6323 431.089C90.0544 441.292 89.8014 449.924 89.7202 457.22C89.6389 463.938 89.5577 474.06 88.6458 487.334C88.3929 491.812 88.0679 496.706 87.5623 501.935C86.569 511.723 85.5755 520.021 84.5733 526.242C84.5733 526.486 84.492 526.739 84.492 526.991C84.3114 528.093 84.1489 529.095 83.9863 529.998Z" fill="#FC6454"/>
<path d="M80.2432 549.836C80.4057 550.829 80.4962 551.66 80.6587 552.328C91.3587 552.662 101.977 552.581 112.605 552.491C113.436 551.416 114.185 549.755 113.851 548.093C113.273 545.186 109.454 543.949 107.296 542.784C103.729 540.879 99.5757 536.644 97.0925 526.188C95.3498 526.35 93.6884 526.522 92.0269 526.684C91.8644 526.684 91.6926 526.684 91.5301 526.765C89.6249 526.928 87.7919 527.099 85.8867 527.343C85.4713 527.343 85.0559 527.343 84.6406 527.425C84.3877 528.255 84.1442 529.167 83.9726 529.998C82.9794 533.646 82.1486 537.131 81.2366 540.535C80.5774 543.028 79.9091 546.016 80.2432 549.836Z" fill="#FC6454"/>
<path d="M40.4237 305.823C40.8391 310.474 41.3357 315.368 42.1664 320.343C42.2476 321.174 42.3288 322.004 42.5004 322.835C46.2386 346.23 53.3719 364.985 59.512 378.087C69.3813 379.577 79.2595 381.157 89.1288 382.737C91.2869 367.387 92.8579 350.79 93.3636 332.957C93.6164 324.325 93.6164 315.368 93.2823 306.158C93.0295 297.029 92.5331 288.568 91.7926 280.441C91.2147 280.36 90.7179 280.279 90.131 280.189C74.8621 278.112 58.4375 273.796 41.2634 266.084C40.0083 276.532 39.2589 290.139 40.4237 305.823Z" fill="#FC6454"/>
<path d="M89.4496 385.518C89.7296 394.557 82.1988 401.663 74.0181 401.943C67.7245 402.16 61.6839 398.322 58.7402 392.191C58.9389 389.817 59.1104 387.379 59.2459 384.868C59.3723 382.539 59.4626 380.263 59.5168 378.042C59.9502 377.374 64.7629 370.213 73.0249 370.069C80.9619 369.952 89.1697 376.335 89.4496 385.518Z" fill="#FC6454"/>
<path d="M55.3491 425.131C56.9293 449.276 67.3764 464.121 74.0221 487.353C76.1801 494.902 77.923 503.453 78.835 513.575C79.3316 518.803 79.4127 523.201 79.503 525.937C81.1644 526.271 82.826 526.686 84.4785 527.011C84.9751 527.092 85.3902 527.174 85.8868 527.345C87.9636 527.76 90.1219 528.257 92.1897 528.673C92.1084 528.176 92.1084 527.679 92.0271 527.101C91.3589 520.212 90.6185 511.173 90.1219 500.555C89.9594 495.823 89.7876 491.426 89.7876 487.362C89.4536 473.34 89.9504 462.721 90.2032 455.75C90.447 448.861 90.6185 440.653 90.6185 431.271C90.6185 418.494 90.2844 403.641 89.4537 386.638C79.3316 388.543 69.1281 390.539 59.006 392.444C55.1053 406.467 54.9428 417.582 55.3491 425.131Z" fill="#FC6454"/>
<path d="M63.4 548.339C63.0659 550.001 63.8966 551.572 64.7273 552.737C70.0367 552.574 75.3461 552.493 80.6555 552.321C85.9648 552.159 91.2742 552.068 96.5836 551.906C96.7461 551.238 96.9176 550.244 96.9989 548.998C97.2517 545.179 96.421 542.28 95.7528 539.788C94.6693 536.14 93.5946 532.574 92.4298 528.673C92.3486 528.176 92.1861 527.68 92.0146 527.102C89.1883 526.605 86.8678 526.434 84.5472 526.271C82.8858 526.19 81.1431 526.018 79.4907 525.937C77.3326 536.393 73.2692 540.791 69.7838 542.777C67.7161 544.023 63.8966 545.441 63.4 548.339Z" fill="#FC6454"/>
<path d="M54.7187 225.695C59.4321 217.587 64.6422 211.149 69.3195 206.228C66.2765 190.39 63.2336 174.543 60.1817 158.705C54.3305 155.753 50.3304 149.865 50.3304 143.075C50.3304 138.597 52.0732 134.515 54.9265 131.409C54.1229 127.228 53.3192 123.048 52.5156 118.867C54.8091 116.167 58.2042 112.971 62.9808 110.596C78.1594 103.029 94.0152 110.343 96.5615 111.571C99.3516 110.343 115.207 103.029 130.386 110.596C135.163 112.971 138.558 116.167 140.851 118.867C140.048 123.048 139.244 127.228 138.44 131.409C141.303 134.524 143.036 138.606 143.036 143.075C143.036 149.865 139.045 155.753 133.185 158.705C130.142 174.543 127.099 190.381 124.057 206.228C128.734 211.149 133.944 217.587 138.657 225.695C148.59 242.788 151.56 259.141 152.526 269.497C143.407 273.254 131.867 277.01 118.214 279.231C110.72 280.45 103.767 281.01 97.5276 281.182C97.2477 277.597 96.11 277.597 95.8211 281.182C89.5817 281.01 82.6291 280.45 75.1346 279.231C61.491 277.01 49.9421 273.254 40.8223 269.497C41.8065 259.141 44.7862 242.788 54.7187 225.695Z" fill="#C1DCE0"/>
<path d="M53.535 158.146C46.8803 156.836 40.2343 155.536 33.5796 154.227C32.487 148.719 31.819 142.561 32.0086 135.852C32.0357 134.786 32.433 131.427 33.0921 124.7C33.372 121.892 33.6068 119.572 33.7603 118.001C34.4556 116.7 37.5436 111.246 43.7108 109.675C47.1962 108.79 50.2303 109.558 51.8285 109.865C56.9392 110.858 59.4402 113.233 60.0994 113.919C57.9233 128.664 55.7292 143.401 53.535 158.146Z" fill="#FC6454"/>
<path d="M136.797 158.146C143.452 156.836 150.097 155.536 156.752 154.227C157.845 148.719 158.513 142.561 158.323 135.852C158.296 134.786 157.899 131.427 157.24 124.7C156.96 121.892 156.734 119.572 156.571 118.001C155.876 116.7 152.788 111.246 146.621 109.675C143.136 108.79 140.102 109.558 138.504 109.865C133.393 110.858 130.892 113.233 130.232 113.919C132.418 128.664 134.612 143.401 136.797 158.146Z" fill="#FC6454"/>
<path d="M95.2698 66.1795C93.6716 66.1795 92.1004 65.8544 90.6015 65.2224C90.0327 64.9786 89.762 64.3104 90.0058 63.7415C90.2586 63.1727 90.9358 62.9018 91.4866 63.1456C92.7779 63.7054 94.0238 63.9582 95.5588 63.9221C97.1661 63.877 98.4573 63.4255 99.2519 63.0553C99.8298 62.7844 100.498 63.0372 100.751 63.6061C101.013 64.1749 100.769 64.8431 100.2 65.105C99.2159 65.5655 97.6084 66.1253 95.6219 66.1885C95.5136 66.1795 95.3962 66.1795 95.2698 66.1795Z" fill="#210B04"/>
<path d="M95.8793 61.575C95.5543 61.575 95.2291 61.566 94.895 61.5479C90.8588 61.3132 87.8069 59.724 85.9559 58.4237C85.4502 58.0625 85.3329 57.3582 85.685 56.8526C86.0462 56.3379 86.7414 56.2205 87.2651 56.5727C88.8723 57.7014 91.5271 59.0919 95.0215 59.2906C99.3828 59.5434 102.723 57.7917 104.295 56.7262C104.809 56.374 105.514 56.5095 105.866 57.0332C106.218 57.5479 106.074 58.2522 105.568 58.5953C103.861 59.742 100.439 61.575 95.8793 61.575Z" fill="#210B04"/>
<path d="M89.8906 59.5959C90.7484 60.1377 92.9156 61.3476 95.9314 61.3386C98.7486 61.3296 100.798 60.2641 101.674 59.7404C100.419 59.2528 98.4326 58.6568 95.9314 58.6027C93.2858 58.5485 91.1818 59.1264 89.8906 59.5959Z" fill="white"/>
<path d="M89.2305 59.5251C89.3749 59.6606 89.6276 59.8773 89.9888 60.0398C91.7947 60.8615 93.0408 58.9382 95.524 58.8569C98.1154 58.7666 99.2801 60.7893 101.574 59.9856C102.016 59.8321 102.341 59.6244 102.558 59.48C102.468 59.0195 101.935 56.6357 99.7227 55.2903C98.0251 54.2609 96.3275 54.4325 95.5149 54.5137C94.8557 54.577 92.4901 54.8569 90.7113 56.8434C89.8174 57.8456 89.4201 58.8931 89.2305 59.5251Z" fill="#D82E2E"/>
<path d="M73.9121 28.4814C76.1695 28.1202 79.3118 27.8313 83.0229 28.1744C86.2013 28.4634 88.847 29.1315 90.8064 29.7726C90.8244 29.3482 90.8153 28.8516 90.716 28.3098C90.4812 27.0006 89.8853 26.0073 89.4338 25.3933C86.9055 25.1856 84.7836 25.1405 83.2395 25.1495C79.4742 25.1585 78.4179 25.4655 77.7316 25.7184C75.7993 26.4407 74.5803 27.6597 73.9121 28.4814Z" fill="#210B04"/>
<path d="M90.841 25.4376C91.0397 25.844 91.3016 26.449 91.4641 27.1984C91.744 28.5167 91.6447 29.7899 91.5002 29.7989C91.3377 29.808 91.0308 28.2458 90.9405 27.7853C90.8051 27.0991 90.7236 26.5031 90.3624 25.6995C90.2721 25.5009 90.1909 25.3383 90.1367 25.23L90.841 25.4376Z" fill="#210B04"/>
<path d="M117.445 27.8491C115.187 27.4879 112.045 27.199 108.334 27.5421C105.156 27.8401 102.51 28.5082 100.55 29.1403C100.532 28.7159 100.541 28.2283 100.641 27.6775C100.875 26.3682 101.471 25.375 101.923 24.761C104.451 24.5533 106.564 24.5082 108.117 24.5172C111.882 24.5262 112.939 24.8332 113.625 25.086C115.558 25.8084 116.777 27.0274 117.445 27.8491Z" fill="#210B04"/>
<path d="M100.508 24.7966C100.309 25.2029 100.048 25.8079 99.8851 26.5573C99.6052 27.8756 99.7045 29.1488 99.849 29.1578C100.012 29.1668 100.318 27.6047 100.409 27.1442C100.544 26.458 100.626 25.862 100.987 25.0584C101.077 24.8598 101.158 24.6972 101.212 24.5889L100.508 24.7966Z" fill="#210B04"/>
<path d="M91.4756 61.8636C91.3582 62.3061 93.3899 63.6244 95.6111 63.6063C97.4622 63.5883 99.2138 62.6492 99.1416 62.2339C99.1235 62.1436 99.0153 61.963 95.6111 61.8095C92.9023 61.674 91.5478 61.6198 91.4756 61.8636Z" fill="#D82E2E"/>
<path d="M103.225 131.337C116.345 126.966 129.464 122.596 142.584 118.217C144.526 112.817 146.458 107.427 148.399 102.027C146.647 100.907 143.975 99.3632 140.507 98.0088C137.176 96.7085 134.729 96.2029 131.984 95.5347C128.67 94.7311 123.947 93.4489 118.187 91.4263C113.193 104.736 108.209 118.036 103.225 131.337Z" fill="#C1DCE0"/>
<path d="M89.9134 129.522C76.7484 125.63 63.5925 121.738 50.4275 117.846C48.5042 112.185 46.5717 106.532 44.6484 100.871C46.653 99.8506 49.5245 98.5413 53.1092 97.4217C58.9784 95.5887 61.7863 95.8144 66.581 93.846C68.7029 92.9701 71.4933 91.5525 74.5182 89.1597C79.656 102.614 84.7847 116.068 89.9134 129.522Z" fill="#C1DCE0"/>
<path d="M94.0154 307.728C93.8528 316.188 93.7715 324.658 93.7715 332.947C117.745 333.2 136.084 325.976 145.213 321.498C144.463 316.188 143.723 310.96 142.892 305.813H94.0242L94.0154 307.728Z" fill="#210B04"/>
<path d="M39.834 305.822C40.5834 310.635 41.3237 315.447 42.0732 320.341C51.2833 325.073 69.0354 332.54 92.6024 332.955H93.352C93.6048 324.323 93.6048 315.366 93.2707 306.156C93.2707 305.822 39.834 305.822 39.834 305.822Z" fill="#210B04"/>
<path d="M30.6797 317.58C41.4519 320.424 53.4882 322.862 66.6713 324.388C104.288 328.758 136.569 324.036 159.973 318.266C158.032 295.954 155.404 277.769 153.31 265.091C140.578 187.771 139.684 182.796 139.684 182.796C138.944 178.67 137.264 169.523 137.67 157.522C137.824 152.999 138.167 149.576 138.709 144.556C139.458 137.639 140.695 128.14 142.863 116.727C112.054 117.097 81.2451 117.476 50.4274 117.847C52.9737 124.592 56.0796 134.894 56.7749 147.662C57.5514 161.784 54.9148 172.304 53.6688 178.254C48.5039 202.814 46.1202 227.871 41.7409 252.576C39.0682 267.692 35.1944 289.967 30.6797 317.58Z" fill="#C1DCE0"/>
<path d="M63.4 548.337C63.0659 549.999 63.8966 551.57 64.7273 552.735C70.0367 552.572 75.3461 552.491 80.6555 552.319C91.3554 552.654 101.974 552.572 112.602 552.482C113.433 551.407 114.182 549.746 113.848 548.085C113.27 545.177 109.45 543.94 107.292 542.775C103.726 540.87 99.5724 536.635 97.0893 526.179C97.2518 523.443 97.5858 519.795 98.1637 515.56C99.7438 504.526 102.227 495.397 105.134 487.352H74.0186C76.1767 494.901 77.9196 503.452 78.8315 513.574C79.3282 518.802 79.4092 523.199 79.4995 525.935C77.3414 536.391 73.2783 540.789 69.7929 542.775C67.7161 544.021 63.8966 545.439 63.4 548.337Z" fill="#FFA1A1"/>
<path d="M63.3281 553.688H95.9336V548.09H63.3281V553.688Z" fill="#210B04"/>
<path d="M97.0533 552.736H117.975V547.138H97.0533V552.736Z" fill="#210B04"/>
<path d="M111.235 543.19C110.404 542.675 106.792 540.553 102.422 541.636C100.517 542.106 99.1261 543.027 98.2773 543.713L111.235 543.19Z" fill="#210B04"/>
<path d="M92.0481 543.453C89.7816 542.342 86.4226 541.024 82.1968 540.473C76.0297 539.661 71.0094 540.862 68.2012 541.774L92.0481 543.453Z" fill="#210B04"/>
<path d="M78.1212 531.119H94.5098V525.945H78.1212V531.119Z" fill="#210B04"/>
<path d="M94.5076 527.246H98.9141V524.004H94.5076V527.246Z" fill="#210B04"/>
<path d="M92.0428 523.704C91.4197 523.704 90.9141 523.198 90.9141 522.575V487.351C90.9141 486.728 91.4197 486.223 92.0428 486.223C92.6658 486.223 93.1714 486.728 93.1714 487.351V522.575C93.1714 523.198 92.6658 523.704 92.0428 523.704Z" fill="#210B04"/>
<path d="M74.622 62.2231C77.2225 62.8642 79.814 63.5144 82.4145 64.1555C83.3536 83.0362 81.9541 107.488 73.0419 134.008C70.9019 140.374 68.518 146.306 66.0168 151.787C66.0439 162.695 56.8789 170.65 48.0209 169.756C40.8876 169.033 34.5309 162.64 33.5918 154.225C40.4001 144.699 45.4748 136.419 48.9512 130.405C57.4209 115.75 67.028 97.8265 72.6986 73.4197C73.8544 68.4084 74.3872 64.3361 74.622 62.2231Z" fill="#FC6454"/>
<path d="M74.6209 62.2246C77.2214 62.8657 79.8129 63.5158 82.4134 64.1569C87.3706 56.4637 89.5737 49.7729 90.6482 44.8789C91.2441 42.161 91.9936 37.7094 91.5873 37.6101C91.2081 37.5108 89.9259 41.2671 88.7882 44.8428C90.3051 36.0661 90.3953 33.0773 89.8626 32.9419C89.2576 32.7884 87.768 36.2015 87.4429 36.057C87.0998 35.9035 88.9416 32.1653 87.9574 31.3888C87.4246 30.9734 86.4406 31.7319 84.3277 32.4272C82.5489 33.0141 81.0229 33.2127 80.0025 33.294C78.5578 35.5514 77.0317 38.4318 75.8578 41.9353C73.0045 50.4682 73.8172 58.0349 74.6209 62.2246Z" fill="#FC6454"/>
<path d="M79.4468 110.47C78.6251 110.334 78.2189 109.747 78.3363 109.133C80.8555 95.625 81.903 81.6202 81.4154 67.489C81.3973 66.866 81.8847 66.3423 82.5077 66.3242C83.1488 66.3242 83.6547 66.8028 83.6728 67.4168C84.1604 81.7105 83.1039 95.8869 80.5576 109.558C80.4583 110.09 79.9886 110.47 79.4468 110.47Z" fill="#210B04"/>
<path d="M74.4243 62.2526C73.8735 62.2526 73.4041 61.8643 73.3138 61.3135C72.2032 54.5955 72.7269 47.7782 74.7946 41.584C74.9481 41.1235 75.1017 40.681 75.2642 40.2476C75.4719 39.6607 76.1308 39.3537 76.7178 39.5885C77.2957 39.8052 77.6026 40.4553 77.3769 41.0422C77.2144 41.4485 77.079 41.8729 76.9255 42.3063C74.9661 48.1484 74.4876 54.5955 75.5351 60.9433C75.6434 61.5573 75.2279 62.1442 74.6139 62.2435C74.5416 62.2435 74.4875 62.2526 74.4243 62.2526Z" fill="#210B04"/>
<path d="M90.0353 37.3496C89.3039 37.2864 88.8525 36.7356 88.9157 36.1125C88.3558 36.9071 87.8322 37.467 86.9744 37.0877C85.945 36.6092 86.2609 35.5708 86.604 34.4511C86.7485 33.9906 87.0283 33.0515 87.1006 32.4646C86.938 32.5549 86.6853 32.6813 86.3783 32.8439C85.8004 33.1509 85.5024 33.4488 85.2044 33.7829C84.8613 34.1531 84.4731 34.5685 83.814 34.8484C83.1187 35.1554 82.2879 35.2186 81.3849 35.02C80.7799 34.8845 80.3916 34.2886 80.518 33.6836C80.6535 33.0786 81.2495 32.6904 81.8545 32.8168C82.2789 32.9071 82.6399 32.889 82.8928 32.7807C83.1275 32.6813 83.2722 32.5368 83.5431 32.2389C83.9043 31.8596 84.4008 31.3359 85.2857 30.8664C86.0894 30.442 87.534 29.6745 88.6175 30.4871C89.069 30.8393 89.2768 31.3269 89.3309 31.8867C89.5747 31.7964 89.8547 31.7874 90.1166 31.8506C91.3355 32.1666 91.4169 33.5482 91.137 36.3293C91.1099 36.9162 90.6132 37.3496 90.0353 37.3496Z" fill="#210B04"/>
<path d="M83.3549 63.7773C83.1562 63.7773 82.9485 63.7232 82.7679 63.6148C82.2352 63.2897 82.0725 62.5945 82.3976 62.0617C85.8469 56.4002 88.2487 50.5401 89.5489 44.6348C90.1719 41.7453 90.5874 38.901 90.5784 38.0974C90.461 37.8626 90.4249 37.5917 90.4971 37.3299C90.6596 36.7249 91.2015 36.3637 91.8697 36.5172C92.7546 36.743 93.531 36.9416 91.7432 45.1223C90.3978 51.2715 87.8876 57.3664 84.3119 63.2356C84.1042 63.5877 83.7341 63.7773 83.3549 63.7773Z" fill="#210B04"/>
<path d="M84.5975 53.357C84.4349 53.357 84.2632 53.3209 84.1006 53.2396C83.5318 52.9688 83.3062 52.2915 83.5771 51.7317L87.3605 44.0205C87.6404 43.4697 88.3266 43.244 88.8684 43.5058C89.4372 43.7767 89.6628 44.4539 89.3919 45.0138L85.6088 52.725C85.4191 53.1223 85.0128 53.357 84.5975 53.357Z" fill="#210B04"/>
<path d="M81.8998 50.7206C80.9066 50.4136 80.6176 49.7635 80.8524 49.1766L86.5138 34.7926C86.7485 34.2147 87.4078 33.9528 87.9767 34.1605C88.5636 34.3862 88.8436 35.0454 88.6088 35.6233L82.9472 50.0073C82.7756 50.4497 82.3513 50.7206 81.8998 50.7206Z" fill="#210B04"/>
<path d="M79.8858 46.8197C78.9648 46.603 78.6217 45.971 78.8023 45.375L82.2785 33.4922C82.4591 32.8962 83.0911 32.5441 83.678 32.7247C84.274 32.9053 84.6173 33.5283 84.4457 34.1242L80.9693 46.0071C80.8338 46.5037 80.3734 46.8197 79.8858 46.8197Z" fill="#210B04"/>
<path d="M116.63 59.8589C114.029 60.5 111.438 61.1501 108.837 61.7912C108.323 80.0037 109.849 104.429 118.21 131.644C121.804 143.364 126.093 153.712 130.463 162.66C136.386 167.084 144.007 167.698 149.633 164.285C154.879 161.098 156.414 155.608 156.757 154.226C150.599 143.535 145.723 134.524 142.301 128.041C124.982 95.2185 121.045 81.7916 118.553 71.0555C117.397 66.0531 116.865 61.9718 116.63 59.8589Z" fill="#FC6454"/>
<path d="M116.631 59.8587C114.03 60.4997 111.439 61.1499 108.838 61.791C103.881 54.0978 101.678 47.4069 100.604 42.5129C100.008 39.7951 99.2581 35.3435 99.6644 35.2442C100.044 35.1539 101.326 38.9102 102.464 42.4768C100.947 33.7001 100.856 30.7114 101.389 30.5759C101.994 30.4224 103.484 33.8356 103.809 33.6821C104.152 33.5286 102.31 29.7903 103.294 29.0138C103.827 28.5894 104.811 29.3569 106.924 30.0522C108.694 30.6391 110.229 30.8378 111.249 30.919C112.694 33.1764 114.22 36.0568 115.394 39.5603C118.247 48.1022 117.434 55.669 116.631 59.8587Z" fill="#FC6454"/>
<path d="M111.799 108.113C111.257 108.113 110.797 107.734 110.688 107.192C108.142 93.5482 107.095 79.3629 107.564 65.0511C107.582 64.4461 108.088 63.9585 108.693 63.9585C109.352 63.9856 109.84 64.5003 109.822 65.1233C109.343 79.2635 110.39 93.2773 112.909 106.767C113.027 107.381 112.62 107.968 112.006 108.086C111.943 108.104 111.871 108.113 111.799 108.113Z" fill="#210B04"/>
<path d="M116.824 59.8851C116.021 59.7677 115.605 59.1898 115.714 58.5668C116.752 52.219 116.283 45.772 114.323 39.9208C114.17 39.4874 114.034 39.0721 113.872 38.6567C113.655 38.0698 113.953 37.4197 114.531 37.203C115.118 36.9772 115.768 37.2752 115.985 37.8621C116.147 38.2955 116.301 38.747 116.454 39.1985C118.531 45.4017 119.046 52.219 117.935 58.937C117.845 59.4968 117.375 59.8851 116.824 59.8851Z" fill="#210B04"/>
<path d="M101.205 34.9919C100.627 34.9919 100.14 34.5494 100.086 33.9715C99.8238 31.1995 99.905 29.818 101.088 29.4929C101.386 29.4207 101.657 29.4477 101.891 29.529C101.946 28.9601 102.153 28.4725 102.614 28.1294C103.679 27.3348 105.124 28.0843 105.9 28.4816C106.831 28.9782 107.327 29.5019 107.688 29.8902C107.959 30.1882 108.104 30.3326 108.32 30.4229C108.6 30.5493 108.962 30.5584 109.377 30.4591C109.991 30.3236 110.596 30.7119 110.722 31.3169C110.858 31.9218 110.479 32.5268 109.856 32.6623C108.98 32.8609 108.149 32.8067 107.417 32.4907C106.767 32.2017 106.379 31.7864 106.036 31.4252C105.729 31.1001 105.44 30.7931 104.88 30.4861C104.582 30.3326 104.33 30.2152 104.14 30.134C104.221 30.7209 104.492 31.6419 104.637 32.0934C104.98 33.204 105.296 34.2514 104.266 34.721C103.39 35.1002 102.867 34.5314 102.316 33.6736C102.379 34.3779 101.918 34.9287 101.304 34.9828C101.277 34.9919 101.241 34.9919 101.205 34.9919Z" fill="#210B04"/>
<path d="M107.898 61.4208C107.519 61.4208 107.148 61.2312 106.932 60.8791C103.338 54.9828 100.828 48.8879 99.5004 42.7658C97.6945 34.5941 98.5161 34.3774 99.3739 34.1607C99.9969 34.0072 100.593 34.3774 100.746 34.9734C100.819 35.2443 100.783 35.5151 100.665 35.7409C100.656 36.5535 101.089 39.5333 101.694 42.2783C102.977 48.1565 105.379 54.0166 108.846 59.7052C109.171 60.238 109.008 60.9332 108.476 61.2583C108.304 61.3667 108.096 61.4208 107.898 61.4208Z" fill="#210B04"/>
<path d="M106.643 51.0016C106.228 51.0016 105.822 50.7668 105.632 50.3695L101.848 42.6583C101.578 42.0985 101.803 41.4212 102.372 41.1504C102.923 40.8885 103.618 41.1142 103.88 41.665L107.664 49.3762C107.935 49.9361 107.709 50.6133 107.14 50.8842C106.978 50.9654 106.815 51.0016 106.643 51.0016Z" fill="#210B04"/>
<path d="M109.346 48.3563C108.894 48.3563 108.47 48.0855 108.298 47.643L102.637 33.259C102.411 32.6811 102.691 32.0219 103.269 31.7962C103.856 31.5795 104.497 31.8413 104.731 32.4283L110.393 46.8123C110.619 47.3902 110.339 48.0493 109.761 48.2751C109.616 48.3292 109.49 48.3563 109.346 48.3563Z" fill="#210B04"/>
<path d="M111.353 44.4642C110.866 44.4642 110.414 44.1482 110.27 43.6516L106.794 31.7777C106.613 31.1818 106.965 30.5497 107.561 30.3782C108.157 30.2247 108.798 30.5497 108.961 31.1457L112.437 43.0195C112.618 43.6154 112.274 44.2475 111.67 44.4191C111.561 44.4462 111.453 44.4642 111.353 44.4642Z" fill="#210B04"/>
<path d="M89.6796 481.095C89.0385 481.077 88.5419 480.571 88.5509 479.948L89.4809 428.417C89.4899 427.803 89.9956 427.306 90.6096 427.306C91.2507 427.315 91.7473 427.83 91.7383 428.453L90.8083 479.975C90.7993 480.598 90.3026 481.095 89.6796 481.095Z" fill="#210B04"/>
<path d="M120.962 33.6735C119.743 34.0256 119.12 25.9171 112.095 21.4565C104.98 16.9508 99.4992 21.3843 92.1672 16.7612C87.3003 13.6911 83.0204 7.50592 84.5554 4.12888C86.8218 -0.891534 102.966 -2.1918 112.908 5.90768C124.366 15.2532 122.723 33.1588 120.962 33.6735Z" fill="#210B04"/>
<path d="M93.1331 14.3329C94.018 25.4392 78.4242 37.3491 71.4353 34.2429C67.5797 32.5273 66.3336 26.2608 66.5684 22.2698C66.8844 16.7437 70.1712 13.2583 71.7514 11.5788C74.7943 8.35531 82.0989 2.67575 87.7875 5.42072C91.1465 7.04604 92.8803 11.1003 93.1331 14.3329Z" fill="#210B04"/>
</svg>
