<svg width="329" height="582" viewBox="0 0 329 582" fill="none" xmlns="http://www.w3.org/2000/svg">
<path d="M212.569 201.966C212.253 207.781 211.928 213.596 211.612 219.411C200.298 221.045 191.133 222.986 184.777 224.485C167.007 228.675 153.986 231.375 135.891 231.898C123.909 232.251 115.665 231.239 110.744 225.406C108.396 222.625 107.448 219.51 107.023 217.271C112.035 211.898 117.046 206.525 122.058 201.153C130.645 199.744 137.579 199.5 142.022 199.51C166.429 199.537 178.005 206.986 200.488 204.277C205.843 203.636 210.095 202.616 212.569 201.966Z" fill="#FC6454"/>
<path d="M0.632557 581.042C23.0348 581.042 45.3558 580.961 67.749 580.88C67.5864 580.13 67.3336 579.137 66.5842 578.225C64.9227 576.401 62.0243 576.645 59.6946 576.564C56.0467 576.564 52.5613 574.568 48.9044 574.74C44.507 574.993 37.5362 572.004 25.9242 558.144C24.019 555.823 22.0235 553.25 19.7842 550.261C15.7209 550.676 11.6576 551.173 7.58529 551.669C6.75458 557.475 5.5085 561.629 4.26243 564.527C3.68454 565.773 3.09762 566.848 2.601 567.679C2.2669 568.257 1.60776 569.259 1.02084 570.749C-0.523211 574.821 -0.0265979 578.55 0.632557 581.042Z" fill="#FC6454"/>
<path d="M0.632557 581.043C23.0348 581.043 45.3558 580.962 67.749 580.88C67.5864 580.131 67.3336 579.138 66.5842 578.226C64.9227 576.402 62.0243 576.646 59.6946 576.564C56.0467 576.564 52.5613 574.569 48.9044 574.74C44.507 574.993 37.5362 572.004 25.9242 558.144C25.0123 558.397 24.5156 558.812 24.3441 559.309C24.01 560.302 23.1793 565.611 21.7707 565.693C18.8632 565.611 14.222 565.359 10.3212 565.025C7.74782 564.862 5.5085 564.69 4.26243 564.528C3.68454 565.774 3.09762 566.848 2.601 567.679C2.2669 568.257 1.60776 569.259 1.02084 570.749C-0.523211 574.822 -0.0265979 578.551 0.632557 581.043Z" fill="#210B04"/>
<path d="M41.1997 580.97H60.7758C63.286 580.988 65.7871 581.016 68.2973 581.034C67.2318 578.83 65.5162 576.167 62.7261 573.9C53.2722 566.243 40.2697 570.406 38.9062 570.866C39.6647 574.234 40.4322 577.602 41.1997 580.97Z" fill="#210B04"/>
<path d="M132.947 178.506C133.841 180.953 134.789 183.572 135.809 186.218C136.143 187.121 136.55 188.132 136.956 189.134C140.992 199.599 146.518 212.954 153.597 228.367L176.893 219.302C173.399 204.557 169.923 189.73 166.446 174.895C165.02 168.971 163.611 162.967 162.193 156.971C150.798 142.524 139.421 127.986 128.035 113.458C127.15 114.135 125.922 115.255 124.694 116.889C118.807 124.546 117.895 137.539 132.947 178.506Z" fill="#FC6454"/>
<path d="M132.941 178.506C133.835 180.953 134.783 183.572 135.804 186.217C136.138 187.12 136.544 188.132 136.951 189.134C146.784 184.384 156.617 179.644 166.45 174.894C158.396 175.075 150.332 175.346 142.359 175.544C139.217 176.556 136.093 177.486 132.941 178.506Z" fill="#210B04"/>
<path d="M118.721 187.536C135.461 183.103 152.202 178.669 168.943 174.236C165.521 158.651 162.107 143.066 158.685 127.481C157.376 116.528 147.778 108.438 137.087 108.943C126.91 109.422 118.369 117.567 117.402 128.014C117.854 147.852 118.287 167.698 118.721 187.536Z" fill="url(#paint0_linear_13_26010)"/>
<path d="M70.3711 420.67C64.6283 428.959 53.4678 444.797 46.3526 442.422C37.8106 439.569 40.1222 412.173 40.5014 408.037C42.2441 384.832 46.5061 355.576 56.4024 322.925C65.9466 291.448 78.0823 265.543 89.1073 245.678C97.8389 264.008 106.57 282.329 115.302 300.658C103.952 364.109 84.3578 400.498 70.3711 420.67Z" fill="#FC6454"/>
<path d="M21.8251 561.304C16.5609 560.699 11.2876 560.094 6.02344 559.489C6.73677 555.119 7.82032 548.13 8.85872 539.525C14.0958 496.165 10.1138 481.573 16.1184 459.658C18.9627 449.275 25.0577 434.286 39.9744 417.825C50.2861 418.267 60.6069 418.71 70.9186 419.143C64.1465 434.692 57.4827 451.117 51.0717 468.39C38.918 501.086 29.3738 532.256 21.8251 561.304Z" fill="#FC6454"/>
<path d="M66.4531 179.056C67.943 183.453 69.5232 187.688 71.2658 191.833C70.7692 202.533 70.3539 211.824 69.9385 222.614C71.8437 248.583 78.7333 269.496 87.4467 282.85C94.3363 293.469 102.382 299.447 109.93 299.447C117.145 299.528 125.615 294.137 132.332 286.751C136.567 282.191 140.044 276.882 142.373 271.573C143.204 269.667 143.701 268.168 148.676 246.85C151.827 233.242 153.489 226.443 154.238 223.12C154.238 223.12 161.868 188.113 161.037 132.852C160.956 128.373 160.703 120.075 156.64 110.369C155.891 108.626 155.565 107.795 154.897 106.639C150.662 99.2532 143.367 95.1086 137.145 92.8693C132.414 91.1266 128.269 90.3772 126.608 90.1334C125.028 89.8805 121.714 89.4742 118.228 89.0589C114.165 88.7248 110.598 88.5622 109.352 88.481C107.366 88.481 104.792 88.8151 101.551 89.9708C95.158 93.5375 83.7085 101.176 74.2546 114.946C66.3719 126.396 63.1393 137.511 61.7217 144.32C61.4688 150.541 61.3063 156.681 61.0625 162.902C62.5524 167.607 64.3763 172.916 66.4531 179.056Z" fill="#FC6454"/>
<path d="M124.562 287.537C124.562 309.443 109.889 327.195 91.7935 327.195C73.6984 327.195 59.0254 309.443 59.0254 287.537C59.0254 265.631 73.6984 247.879 91.7935 247.879C109.889 247.879 124.562 265.64 124.562 287.537Z" fill="#FC6454"/>
<path d="M156.642 403.621C155.007 412.47 151.287 432.534 143.612 433.292C134.646 434.177 125.562 408.226 124.217 404.307C112.578 385.156 91.539 254.381 94.8709 238.173C111.043 247.501 127.224 256.837 143.395 266.165C163.793 336.171 161.084 379.612 156.642 403.621Z" fill="#FC6454"/>
<path d="M168.587 554.099C163.512 554.523 158.438 554.938 153.363 555.363C152.532 551.254 151.142 544.897 149.083 537.231C138.419 497.628 126.753 485.23 123.06 461.374C121.408 450.738 120.848 434.557 127.728 413.446C137.327 409.626 146.916 405.816 156.505 402.005C156.776 419.143 157.427 436.841 158.519 455.063C160.623 490.115 164.144 523.191 168.587 554.099Z" fill="#FC6454"/>
<path d="M136.041 83.3883C135.959 81.9887 135.959 80.5892 136.041 79.1896C136.122 73.1217 137.052 67.7582 138.298 63.406C139.074 60.4533 139.932 57.8889 140.79 55.8663C140.871 55.4781 141.025 55.0898 141.178 54.7738L108.672 51.9746C105.638 68.3812 102.532 84.7969 99.498 101.122L140.555 104.779C138.921 100.499 137.061 94.4314 136.357 87.0452C136.194 85.8714 136.113 84.6254 136.041 83.3883Z" fill="#FC6454"/>
<path d="M136.039 79.1902C136.12 73.1224 137.05 67.7589 138.296 63.4066C139.073 60.454 139.931 57.8896 140.789 55.867L128.192 54.7744C122.748 56.4088 121.348 58.8919 120.96 60.0657C118.54 66.3593 127.172 77.1676 136.039 79.1902Z" fill="#210B04"/>
<path d="M153.71 29.6264L153.646 30.3307C153.403 33.0125 153.195 34.6649 152.996 35.9742C152.644 38.2948 152.373 38.674 152.301 40.1458C152.184 42.5296 152.68 43.2881 152.743 45.4552C152.798 47.5319 152.4 49.0399 151.877 50.9812C149.15 61.013 147.777 66.0786 144.138 69.0944C134.721 76.923 114.801 67.2795 108.67 60.2184C105.754 56.8594 103.912 52.9587 103.912 52.9587C102.837 50.6291 102.169 48.4259 101.754 46.7103C100.896 42.5296 100.219 37.2112 100.472 31.0531C100.896 20.5879 103.84 12.2988 106.214 7.07067C109.637 5.21059 119.253 0.542322 132.03 1.9419C143.696 3.22409 151.561 8.85851 154.649 11.3416C154.604 15.4862 154.432 20.4795 153.999 26.141C153.917 27.2787 153.818 28.4345 153.71 29.6264Z" fill="#FC6454"/>
<path d="M119.763 35.4596C119.393 35.4596 119.023 35.27 118.815 34.9359C118.481 34.4032 118.635 33.7079 119.159 33.3738C120.648 32.4257 123.7 30.9087 127.682 31.2338C129.687 31.4144 131.673 32.0736 133.425 33.139C133.958 33.4641 134.129 34.1594 133.804 34.6921C133.479 35.2249 132.775 35.3784 132.251 35.0714C130.789 34.1774 129.136 33.6357 127.475 33.4822C124.179 33.1571 121.615 34.4754 120.368 35.279C120.179 35.4054 119.971 35.4596 119.763 35.4596Z" fill="#210B04"/>
<path d="M125.696 34.3042C125.56 35.8212 126.581 37.1575 127.971 37.2749C129.362 37.3923 130.599 36.2636 130.734 34.7467C130.87 33.2297 129.849 31.8933 128.459 31.776C127.068 31.6495 125.831 32.7872 125.696 34.3042Z" fill="#210B04"/>
<path d="M142.07 36.6607C141.7 36.6607 141.33 36.4801 141.122 36.137C140.788 35.6133 140.941 34.918 141.465 34.5749C142.946 33.6268 146.025 32.0556 149.989 32.4349C152.003 32.6155 153.989 33.2746 155.732 34.3401C156.265 34.6652 156.436 35.3604 156.111 35.8842C155.786 36.4169 155.082 36.5885 154.567 36.2544C153.556 35.6404 151.903 34.8638 149.79 34.6742C146.44 34.3582 143.93 35.6674 142.684 36.4711C142.495 36.6065 142.278 36.6607 142.07 36.6607Z" fill="#210B04"/>
<path d="M148.002 35.5057C147.867 37.0227 148.887 38.359 150.278 38.4764C151.668 38.6028 152.905 37.4651 153.041 35.9482C153.176 34.4312 152.156 33.0948 150.765 32.9774C149.375 32.851 148.138 33.9797 148.002 35.5057Z" fill="#210B04"/>
<path d="M121.842 27.7229C121.842 27.7229 123.024 27.118 124.225 26.8561C126.185 26.4227 130.474 26.2963 136.054 26.7478C136.262 26.3324 136.767 25.2037 136.578 23.7409C136.415 22.4949 135.837 21.628 135.548 21.2578C131.973 21.9892 129.318 22.242 127.431 22.3233C126.726 22.3594 124.614 22.4317 122.266 23.4701C121.137 23.9667 120.686 24.4001 120.469 24.6168C118.934 26.1518 118.97 28.3731 119.024 29.1225C119.72 28.7162 120.677 28.2105 121.842 27.7229Z" fill="#210B04"/>
<path d="M153.71 29.6273L153.647 30.3317C151.407 30.4039 148.391 30.7109 144.861 31.3068C144.626 30.9005 144.039 29.826 144.093 28.3451C144.139 27.0991 144.653 26.1871 144.888 25.7988C148.518 26.2142 151.182 26.2413 153.078 26.16C153.285 26.151 153.583 26.1329 153.99 26.151C153.917 27.2797 153.818 28.4354 153.71 29.6273Z" fill="#210B04"/>
<path d="M140.387 50.9728C140.612 51.1624 142.111 52.3362 144.098 51.966C145.38 51.7313 146.193 50.9728 146.491 50.6567L140.387 50.9728Z" fill="#210B04"/>
<path d="M139.641 64.2207C139.036 64.2207 138.53 63.7331 138.512 63.1191C138.494 62.4961 138.991 61.9814 139.614 61.9633L142.919 61.873C143.56 61.873 144.056 62.3606 144.074 62.9746C144.092 63.5977 143.596 64.1214 142.973 64.1304L139.668 64.2207H139.641Z" fill="#210B04"/>
<path d="M33.378 405.67C27.572 418.312 21.9466 432.623 17.1339 448.533C5.36843 487.369 2.44287 522.44 2.61443 549.655C11.2557 551.56 19.8969 553.457 28.5382 555.362C50.3445 495.063 67.5096 450.872 79.871 420.018C87.1036 401.968 97.4424 376.631 106.318 340.685C112.206 316.847 115.393 296.666 117.208 282.607C102.941 272.133 88.6748 261.65 74.4081 251.175C71.2839 253.713 66.5795 258.083 62.7601 264.629C54.8773 278.128 55.8344 292.142 55.9969 296.088C56.5839 310.355 52.7553 339.656 33.378 405.67Z" fill="#6AA7AD"/>
<path d="M123.257 414.313C119.997 426.774 117.18 443.163 117.722 462.368C118.833 501.611 133.388 531.191 142.508 546.56C151.763 545.919 161.018 545.286 170.274 544.645C166.59 498.55 162.897 452.454 159.213 406.367C163.547 378.457 165.389 339.657 153.677 296.433C150.707 285.462 147.176 275.367 143.384 266.166C127.221 280.523 111.067 294.871 94.9043 309.228C104.358 344.253 113.812 379.288 123.257 414.313Z" fill="#6AA7AD"/>
<path d="M80.7448 301.614C101.946 303.339 123.147 305.072 144.358 306.797C144.042 293.253 143.717 279.699 143.401 266.155C120.258 260.53 97.1153 254.913 73.9727 249.297C76.221 266.742 78.4874 284.178 80.7448 301.614Z" fill="#6AA7AD"/>
<path d="M46.4844 274.11C58.5568 277.451 72.2727 280.548 87.4423 282.851C103.84 285.343 118.91 286.445 132.247 286.752C142.206 285.09 150.414 281.858 157.141 278.454C165.936 208.43 168.428 154.253 165.439 130.189C162.703 107.624 153.827 100.319 150.586 97.9987C145.52 94.432 140.301 93.2672 137.141 92.8518C136.798 95.028 135.29 102.866 129.538 105.773C122.052 109.556 108.788 104.283 101.546 89.9443C72.2727 90.4048 52.182 106.649 51.3423 122.46C51.2339 124.573 51.0804 133.765 61.7172 144.293C58.5297 158.469 55.6584 173.567 53.2836 189.531C48.7327 220.159 46.8185 248.566 46.4844 274.11Z" fill="url(#paint1_linear_13_26010)"/>
<path d="M12.6393 540.934C12.0163 540.934 11.5106 540.428 11.5106 539.814C11.4293 521.647 13.1179 503.425 16.5491 485.664C22.1203 456.743 30.8789 436.192 37.922 419.686L39.9536 414.918C54.2383 381.12 66.5455 344.307 76.5502 305.489C76.6947 304.938 77.2365 304.559 77.7963 304.649C85.2818 305.679 92.1984 302.609 94.221 297.408C95.2504 294.762 94.7808 292.026 94.203 290.211C94.0133 289.615 94.3474 288.983 94.9343 288.794C95.5393 288.631 96.1624 288.938 96.352 289.534C97.3362 292.64 97.3272 295.647 96.3249 298.239C94.0133 304.162 86.573 307.747 78.4826 307.006C68.4959 345.58 56.2338 382.177 42.0304 415.803L39.9988 420.579C33.0009 436.986 24.2964 457.42 18.7704 486.098C15.3753 503.723 13.6957 521.791 13.777 539.814C13.768 540.428 13.2623 540.934 12.6393 540.934Z" fill="#C1DCE0"/>
<path d="M117.213 328.324C116.59 328.324 116.084 327.818 116.084 327.195V293.669C116.084 293.046 116.59 292.54 117.213 292.54C117.836 292.54 118.341 293.046 118.341 293.669V327.195C118.341 327.818 117.836 328.324 117.213 328.324Z" fill="#C1DCE0"/>
<path d="M107.624 341.806C107.398 341.806 107.173 341.743 106.974 341.598C106.459 341.237 106.342 340.533 106.703 340.027L116.302 326.546C116.663 326.022 117.367 325.914 117.873 326.275C118.387 326.636 118.505 327.341 118.144 327.846L108.554 341.327C108.319 341.643 107.976 341.806 107.624 341.806Z" fill="#C1DCE0"/>
<path d="M59.9218 175.022C60.7344 177.496 61.5922 180.151 62.5313 182.824C62.5313 182.824 63.037 184.268 63.5787 185.776C64.9874 189.686 71.7144 206.129 81.1592 228.432C91.1007 223.899 101.033 219.357 110.966 214.824C104.627 203.88 98.0083 189.722 93.5206 172.512C91.8682 166.164 90.6854 160.114 89.8546 154.453C78.938 139.635 68.0303 124.746 57.1317 109.847C56.2197 110.497 54.9646 111.581 53.6824 113.161C47.5333 120.628 46.2059 133.595 59.9218 175.022Z" fill="#FC6454"/>
<path d="M59.9277 175.021C60.7404 177.495 61.5982 180.149 62.5373 182.822C62.8443 183.743 63.2145 184.754 63.5847 185.775C73.5713 181.35 83.549 176.926 93.5356 172.501C85.4813 172.42 77.4089 172.429 69.4358 172.366C66.2574 173.278 63.0971 174.109 59.9277 175.021Z" fill="#210B04"/>
<path d="M45.4102 183.59C62.2863 179.699 79.1625 175.816 96.0387 171.924C93.1312 156.24 90.2146 140.547 87.3071 124.862C86.35 113.873 77.0315 105.476 66.3316 105.63C56.1372 105.774 47.3425 113.639 46.0332 124.05C45.8255 143.897 45.6178 163.744 45.4102 183.59Z" fill="url(#paint2_linear_13_26010)"/>
<path d="M132.215 54.2319C137.064 58.5029 141.217 58.8912 143.15 58.8641C145.082 58.837 148.414 58.3584 148.567 57.2568C148.694 56.3719 146.843 55.0446 145.1 55.0626C144.089 55.0717 143.357 55.5322 143.15 55.6496C141.759 56.4442 138.852 56.688 132.215 54.2319Z" fill="white"/>
<path d="M98.98 23.8848C98.4563 35.1627 98.1854 40.8061 100.271 46.9642C102.971 54.9554 107.766 60.644 108.669 60.2196C109.581 59.7952 108.326 52.3549 106.745 43.0725C106.511 41.673 106.077 39.2079 107.441 37.8715C108.894 36.4449 111.034 37.9257 112.795 37.0047C118.339 34.1243 113.229 22.2053 118.33 17.6454C122.944 13.5189 129.987 20.7516 146.62 18.738C156.308 17.5641 159.378 14.458 160.679 12.1103C161.6 10.4489 161.834 8.78745 161.889 7.61361C160.318 4.6429 157.735 0.940786 153.934 0.353867C151.767 0.0197748 150.06 0.823408 149.094 1.22071C141.31 4.39007 135.306 -0.251112 124.028 0.0107443C118.908 0.128128 110.348 0.326778 104.118 6.65647C100.172 11.1441 99.3232 16.6522 98.98 23.8848Z" fill="#682C23"/>
<path d="M146.521 581.042C168.923 581.042 191.244 580.961 213.646 580.88C213.484 580.13 213.231 579.137 212.482 578.225C210.82 576.401 207.922 576.645 205.592 576.564C201.944 576.564 198.459 574.568 194.802 574.74C190.404 574.993 183.434 572.004 171.822 558.144C169.916 555.823 167.921 553.25 165.682 550.261C161.618 550.676 157.546 551.173 153.483 551.669C152.652 557.475 151.406 561.629 150.16 564.527C149.582 565.773 148.995 566.848 148.498 567.679C148.164 568.257 147.505 569.259 146.918 570.749C145.356 574.821 145.853 578.55 146.521 581.042Z" fill="#FC6454"/>
<path d="M146.521 581.043C168.923 581.043 191.244 580.962 213.646 580.88C213.484 580.131 213.231 579.138 212.482 578.226C210.82 576.402 207.922 576.646 205.592 576.564C201.944 576.564 198.459 574.569 194.802 574.74C190.404 574.993 183.434 572.004 171.822 558.144C170.91 558.397 170.413 558.812 170.241 559.309C169.907 560.302 169.077 565.611 167.668 565.693C164.761 565.611 160.119 565.359 156.219 565.025C153.645 564.862 151.406 564.69 150.16 564.528C149.582 565.774 148.995 566.848 148.498 567.679C148.164 568.257 147.505 569.259 146.918 570.749C145.356 574.822 145.853 578.551 146.521 581.043Z" fill="#210B04"/>
<path d="M187.088 580.97H206.664C209.175 580.988 211.676 581.016 214.186 581.034C213.12 578.83 211.405 576.167 208.615 573.9C199.161 566.243 186.158 570.406 184.795 570.866C185.553 574.234 186.321 577.602 187.088 580.97Z" fill="#210B04"/>
<path d="M210.455 311.788L213.498 311.384L206.993 262.422L203.95 262.826L210.455 311.788Z" fill="#E94057"/>
<path d="M205.673 314.374L208.717 313.969L202.212 265.007L199.169 265.412L205.673 314.374Z" fill="#E94057"/>
<path d="M198.947 325.052L202.016 324.943L200.257 275.581L197.189 275.691L198.947 325.052Z" fill="#E94057"/>
<path d="M189.055 309.751L192.107 310.085L197.481 260.985L194.429 260.651L189.055 309.751Z" fill="#E94057"/>
<path d="M177.011 308.425L179.934 309.366L195.072 262.351L192.15 261.41L177.011 308.425Z" fill="#E94057"/>
<path d="M159.531 94.6037C159.613 94.9378 159.694 95.2629 159.784 95.597C170.737 137.666 181.771 179.644 192.724 221.631C201.6 223.04 210.566 224.448 219.442 225.776C235.623 214.073 256.111 196.818 276.03 172.592C294.45 150.189 306.974 128.455 315.272 110.947C315.941 109.62 316.6 108.292 317.178 107.046C313.358 97.9176 309.548 88.7075 305.728 79.5876C257.023 84.5629 208.318 89.6285 159.531 94.6037Z" fill="#FFC392"/>
<path d="M174.742 288.74C180.846 280.324 186.959 271.918 193.063 263.502C193.171 265.751 193.984 278.491 204.82 288.044C215.203 297.2 227.294 296.812 229.714 296.686C226.599 272.441 223.493 248.188 220.377 223.944C211.158 223.185 201.939 222.427 192.72 221.668C186.724 244.026 180.729 266.383 174.742 288.74Z" fill="#FFC392"/>
<path d="M159.531 94.605C159.613 94.9391 159.694 95.2641 159.784 95.5982C160.534 95.9323 161.355 96.3477 162.357 96.9255C167.748 100.077 173.057 102.316 178.123 103.978C178.872 104.312 179.532 104.474 180.2 104.637C180.696 104.89 181.112 104.971 181.527 105.052C184.597 105.964 187.505 106.623 190.403 107.129C191.153 107.291 191.812 107.373 192.48 107.463C193.311 107.626 194.223 107.797 195.053 107.96C200.697 108.709 205.925 109.043 210.647 109.368C213.717 109.621 216.453 109.865 219.027 110.027C220.101 110.109 221.185 110.28 222.097 110.361C231.885 111.273 238.521 112.267 243.75 113.097C244.833 113.26 245.826 113.431 246.738 113.594C253.538 114.84 258.188 115.752 265.736 116.167C266.73 116.249 267.813 116.249 268.888 116.33C271.38 116.411 274.116 116.411 277.267 116.411C280.996 116.33 284.482 116.249 287.723 116.077C288.969 115.996 290.125 115.915 291.29 115.743C298.008 115.246 303.317 114.416 307.633 113.422C308.211 113.26 308.798 113.179 309.295 113.007C311.615 112.339 313.611 111.68 315.272 110.93C315.941 109.603 316.6 108.276 317.178 107.03C316.103 104.375 314.938 101.639 313.855 98.9843C313.105 97.2416 312.365 95.4989 311.615 93.7562C311.281 92.8442 310.866 91.851 310.451 90.939C309.539 88.6184 308.545 86.3791 307.543 84.0494C307.381 83.4716 307.128 82.9749 306.875 82.388C306.541 81.476 306.125 80.6453 305.8 79.7333C304.554 79.6521 303.561 79.8146 302.73 79.8959C300.654 80.0584 298.748 80.3112 296.753 80.4738C295.841 80.555 294.848 80.6363 293.936 80.8078C292.861 80.8891 292.112 80.9704 291.281 81.0607C290.532 81.1419 289.791 81.2232 289.042 81.3135C282.071 81.9727 275.1 82.7221 268.129 83.4715C266.802 83.5528 265.556 83.7244 264.31 83.8056C263.976 83.8869 263.317 83.8869 263.317 83.8869C257.592 84.5461 251.786 85.133 245.98 85.7109C243.741 85.9637 241.501 86.1262 239.262 86.37C237.6 86.5326 235.858 86.7854 234.115 86.9479C232.788 87.0292 231.46 87.2008 230.133 87.3633C222.584 88.1127 215.036 88.8532 207.397 89.6839C204.823 89.9367 202.25 90.1805 199.686 90.4333C190.394 91.4266 181.103 92.3385 171.721 93.3408C167.667 93.7742 163.595 94.1896 159.531 94.605Z" fill="#C1DCE0"/>
<path d="M265.771 64.6423C266.313 67.6401 268.986 71.3331 272.399 72.4979C273.979 73.0307 275.026 72.7959 278.385 73.744C281.112 74.5205 281.762 75.0533 282.891 75.3332C287.225 76.4077 293.961 72.5431 295.74 67.3511C298.214 60.1094 291.063 50.2311 282.232 49.4365C273.04 48.6149 264.543 57.8882 265.771 64.6423Z" fill="#F76F6F"/>
<path d="M267.293 61.8264C262.706 64.2192 262.128 77.0863 268.295 83.7591C269.054 84.5808 272.259 88.0391 276.783 88.0481C279.347 88.0572 281.289 86.9556 283.465 85.7185C285.144 84.7704 288.025 83.1361 290.174 79.8674C290.625 79.1902 294.869 72.6077 292.431 68.7792C290.788 66.1967 287.691 67.3435 279.537 65.2576C271.022 63.0906 269.614 60.6165 267.293 61.8264Z" fill="#F76F6F"/>
<path d="M275.652 70.4144C275.914 72.3016 282.515 73.2226 287.68 72.5183C291.924 71.9404 297.323 69.981 297.215 68.1841C297.116 66.5317 292.366 65.2857 288.7 65.1954C282.172 65.0328 275.381 68.4099 275.652 70.4144Z" fill="#FFA1A1"/>
<path d="M288.835 58.3768C291.192 61.4739 291.273 63.4604 292.979 63.6681C295.58 63.9842 297.955 62.1241 298.271 59.5236C298.56 57.1127 295.923 55.4151 294.126 54.2323C289.341 51.09 283.038 50.8643 282.559 52.1826C282.207 53.1578 285.458 53.9343 288.835 58.3768Z" fill="#FFA1A1"/>
<path d="M267.451 59.3619C268.905 64.3281 287.515 63.0821 287.614 62.1881C287.659 61.7096 282.359 62.2152 277.718 58.3867C274.711 55.9036 274.259 53.4747 272.282 53.4205C269.826 53.3573 266.774 57.0503 267.451 59.3619Z" fill="#FFA1A1"/>
<path d="M273.292 51.7028C271.847 49.8427 261.472 51.8021 260.551 58.0505C259.901 62.4389 264.262 66.5383 268.109 67.5225C270.881 68.2358 273.725 67.3961 273.734 66.9717C273.743 66.4661 269.707 67.044 268.407 65.1026C266.077 61.6262 274.917 53.7886 273.292 51.7028Z" fill="#FFA1A1"/>
<path d="M293.867 63.3425C292.359 65.8979 282.698 62.3583 282.526 62.9633C282.4 63.3877 286.887 65.7986 292.531 65.7895C293.208 65.7895 300.025 65.7805 300.657 63.4057C301.47 60.3447 291.556 54.8187 290.598 55.8842C289.831 56.742 295.104 61.2386 293.867 63.3425Z" fill="#FFA1A1"/>
<path d="M271.656 51.605C271.331 54.4854 276.848 57.3387 280.614 58.341C284.252 59.3071 287.359 58.8195 287.377 58.6028C287.395 58.3771 284.027 58.4493 280.361 56.4267C280.063 56.2642 276.686 54.368 277.011 53.3657C277.237 52.6704 279.232 52.4447 280.857 52.9865C282.736 53.6185 282.943 54.973 284.523 55.7585C286.943 56.9685 290.799 55.9752 291.232 54.4673C291.864 52.228 285.598 46.8103 279.187 47.2708C276.036 47.4965 271.927 49.2121 271.656 51.605Z" fill="#FFA1A1"/>
<path d="M268.665 84.1482C266.796 85.322 269.134 95.11 272.9 95.5344C273.478 95.5976 274.074 95.4441 275.446 94.5321C280.918 90.9023 283.889 85.2317 283.275 84.7261C282.914 84.4281 281.388 86.0354 280.467 85.4575C279.97 85.1414 280.15 84.5094 279.726 84.2746C278.922 83.8321 277.694 85.7825 276.006 86.3785C272.882 87.4801 270.028 83.2904 268.665 84.1482Z" fill="#E94057"/>
<path d="M283.028 91.1631C284.762 94.9555 289.385 95.8224 290.09 95.9397C289.25 94.6666 288.004 92.7162 286.622 90.2331C284.455 86.3323 283.886 84.6077 283.281 84.7251C282.451 84.8786 281.755 88.373 283.028 91.1631Z" fill="#E94057"/>
<path d="M264.51 84.4264C260.772 86.2774 260.058 90.9276 259.959 91.6319C261.196 90.7561 263.119 89.4378 265.557 87.984C269.386 85.6905 271.092 85.0765 270.957 84.4715C270.776 83.6408 267.255 83.0629 264.51 84.4264Z" fill="#E94057"/>
<path d="M276.715 89.7186C277.158 93.8721 281.266 96.1566 281.889 96.4907C281.492 95.0189 280.932 92.7705 280.408 89.9804C279.587 85.5921 279.605 83.7771 278.991 83.6959C278.16 83.5695 276.399 86.6666 276.715 89.7186Z" fill="#E94057"/>
<path d="M265.738 116.175C266.732 116.256 267.815 116.256 268.89 116.337L273.784 95.3437L274.036 94.1879L271.048 93.4385L270.885 94.2692C270.876 94.3595 265.738 116.175 265.738 116.175Z" fill="#E94057"/>
<path d="M235.443 81.169C236.346 84.0765 239.443 87.4264 242.964 88.1668C244.599 88.51 245.601 88.1398 249.059 88.6815C251.858 89.124 252.572 89.5755 253.727 89.7199C258.161 90.2617 264.382 85.6205 265.529 80.257C267.118 72.7715 258.829 63.8233 249.971 64.0941C240.734 64.3831 233.411 74.6045 235.443 81.169Z" fill="#F76F6F"/>
<path d="M236.611 78.189C232.34 81.1145 233.315 93.9636 240.241 99.8418C241.09 100.564 244.692 103.616 249.189 103.083C251.735 102.785 253.532 101.458 255.537 99.9682C257.09 98.8214 259.754 96.862 261.496 93.3586C261.857 92.6362 265.28 85.5842 262.408 82.0807C260.467 79.715 257.532 81.2229 249.18 80.1394C240.467 78.9926 238.769 76.7081 236.611 78.189Z" fill="#F76F6F"/>
<path d="M245.948 85.7015C246.436 87.5435 253.1 87.6609 258.138 86.3516C262.283 85.268 267.411 82.6766 267.077 80.9068C266.779 79.2725 261.922 78.6133 258.265 78.9655C251.772 79.5795 245.443 83.7511 245.948 85.7015Z" fill="#FFA1A1"/>
<path d="M257.593 72.1741C260.302 74.9643 260.618 76.9237 262.343 76.9237C264.97 76.9237 267.092 74.7927 267.092 72.1741C267.092 69.7452 264.266 68.3818 262.343 67.4246C257.214 64.8783 250.929 65.411 250.613 66.7745C250.379 67.7858 253.701 68.165 257.593 72.1741Z" fill="#FFA1A1"/>
<path d="M236.482 75.7239C238.523 80.4825 256.853 77.0061 256.835 76.1122C256.826 75.6336 251.616 76.7623 246.559 73.5207C243.272 71.4168 242.532 69.0601 240.564 69.2407C238.117 69.4665 235.534 73.5026 236.482 75.7239Z" fill="#FFA1A1"/>
<path d="M241.369 67.4173C239.707 65.7469 229.648 68.9433 229.477 75.255C229.359 79.6884 234.181 83.237 238.118 83.7517C240.962 84.1219 243.68 82.9571 243.635 82.5327C243.581 82.0271 239.644 83.0926 238.118 81.3138C235.391 78.1354 243.229 69.2955 241.369 67.4173Z" fill="#FFA1A1"/>
<path d="M263.194 76.4995C262.012 79.2174 251.989 76.8698 251.889 77.4838C251.817 77.9172 256.558 79.7773 262.165 79.091C262.833 79.0098 269.605 78.179 269.939 75.7501C270.382 72.6169 259.872 68.3188 259.05 69.4926C258.391 70.4317 264.161 74.2693 263.194 76.4995Z" fill="#FFA1A1"/>
<path d="M239.721 67.507C239.739 70.4055 245.563 72.5816 249.427 73.1143C253.157 73.638 256.182 72.7803 256.173 72.5635C256.164 72.3378 252.823 72.8164 248.949 71.2452C248.633 71.1188 245.048 69.647 245.256 68.6086C245.4 67.8953 247.351 67.4257 249.03 67.7689C250.972 68.1752 251.342 69.4935 253.003 70.0804C255.549 70.9924 259.261 69.5477 259.504 67.9856C259.866 65.683 252.994 61.0599 246.683 62.2879C243.576 62.911 239.703 65.1052 239.721 67.507Z" fill="#FFA1A1"/>
<path d="M240.649 100.175C238.942 101.566 242.427 111.001 246.22 110.974C246.807 110.974 247.376 110.74 248.631 109.674C253.633 105.412 255.89 99.4255 255.222 98.9921C254.825 98.7393 253.507 100.518 252.522 100.049C251.99 99.7957 252.089 99.1456 251.646 98.965C250.798 98.6219 249.813 100.708 248.206 101.502C245.236 102.983 241.904 99.1637 240.649 100.175Z" fill="#E94057"/>
<path d="M255.763 105.423C257.939 108.981 262.634 109.288 263.348 109.315C262.363 108.159 260.882 106.362 259.221 104.068C256.602 100.457 255.835 98.8133 255.239 98.9939C254.435 99.2557 254.164 102.804 255.763 105.423Z" fill="#E94057"/>
<path d="M236.561 100.952C233.067 103.237 232.922 107.941 232.904 108.655C234.033 107.634 235.776 106.099 238.024 104.357C241.555 101.621 243.171 100.808 242.963 100.221C242.692 99.4264 239.126 99.2729 236.561 100.952Z" fill="#E94057"/>
<path d="M249.324 104.744C250.254 108.807 254.606 110.586 255.274 110.848C254.705 109.439 253.875 107.272 253.026 104.554C251.69 100.301 251.482 98.4955 250.859 98.4865C250.019 98.4594 248.638 101.746 249.324 104.744Z" fill="#E94057"/>
<path d="M243.75 113.105C244.834 113.268 245.827 113.439 246.739 113.602C246.82 113.602 247.073 110.703 247.073 110.703L247.235 109.457L244.165 109.123L244.084 110.035L243.75 113.105Z" fill="#E94057"/>
<path d="M203.811 76.9061C205.31 79.5608 209.039 82.1793 212.642 82.1523C214.313 82.1432 215.216 81.5744 218.71 81.3667C221.536 81.2042 222.331 81.5021 223.487 81.3938C227.929 80.9875 233.031 75.1273 233.013 69.6464C232.986 61.9984 222.981 55.0005 214.385 57.1405C205.428 59.3889 200.434 70.9286 203.811 76.9061Z" fill="#F76F6F"/>
<path d="M204.32 73.7463C200.762 77.5116 204.437 89.855 212.456 94.135C213.44 94.6587 217.602 96.88 221.882 95.4082C224.302 94.5774 225.783 92.898 227.435 91.0198C228.709 89.5751 230.894 87.0829 231.869 83.2996C232.068 82.514 233.919 74.9021 230.37 72.0849C227.977 70.1887 225.422 72.2836 217.033 72.9879C208.257 73.7193 206.117 71.8501 204.32 73.7463Z" fill="#F76F6F"/>
<path d="M215.024 79.1183C215.891 80.8158 222.429 79.5246 227.07 77.1679C230.889 75.2356 235.35 71.6148 234.655 69.9533C234.013 68.4273 229.128 68.8066 225.625 69.9172C219.422 71.9037 214.112 77.3214 215.024 79.1183Z" fill="#FFA1A1"/>
<path d="M223.542 63.4331C226.784 65.5912 227.506 67.4332 229.195 67.072C231.759 66.5122 233.384 63.9839 232.834 61.4196C232.319 59.0448 229.267 58.3134 227.181 57.7807C221.628 56.3721 215.596 58.2321 215.578 59.6317C215.578 60.6701 218.892 60.345 223.542 63.4331Z" fill="#FFA1A1"/>
<path d="M203.662 71.3692C206.669 75.586 223.843 68.3082 223.635 67.4413C223.527 66.9718 218.678 69.184 213.044 67.0892C209.387 65.7257 208.159 63.5767 206.28 64.1727C203.933 64.9131 202.262 69.4007 203.662 71.3692Z" fill="#FFA1A1"/>
<path d="M206.682 62.2238C204.705 60.9416 195.549 66.1968 196.723 72.4C197.544 76.7613 203.007 79.1993 206.962 78.8742C209.815 78.6304 212.226 76.9148 212.091 76.5175C211.937 76.0299 208.308 77.9081 206.447 76.4904C203.107 73.9622 208.894 63.6595 206.682 62.2238Z" fill="#FFA1A1"/>
<path d="M229.93 66.4754C229.344 69.3829 219.05 69.2023 219.086 69.8344C219.113 70.2678 224.134 71.0895 229.461 69.2294C230.102 69.0037 236.54 66.7644 236.359 64.3174C236.125 61.157 224.946 59.1886 224.395 60.5069C223.953 61.5543 230.409 64.0826 229.93 66.4754Z" fill="#FFA1A1"/>
<path d="M205.094 62.6568C205.726 65.483 211.875 66.377 215.767 66.079C219.523 65.7991 222.295 64.3182 222.241 64.1196C222.187 63.9029 219.027 65.0767 214.9 64.3634C214.566 64.3092 210.755 63.623 210.728 62.5665C210.71 61.8351 212.525 60.9683 214.241 60.9502C216.218 60.9322 216.859 62.1421 218.62 62.3678C221.302 62.72 224.625 60.5168 224.535 58.9457C224.399 56.6251 216.706 53.555 210.801 56.0923C207.893 57.3384 204.57 60.3091 205.094 62.6568Z" fill="#FFA1A1"/>
<path d="M212.926 94.3873C211.544 96.1119 216.962 104.591 220.664 103.76C221.233 103.633 221.747 103.29 222.741 101.981C226.732 96.762 227.671 90.4323 226.93 90.1524C226.488 89.9899 225.576 92.0035 224.519 91.7597C223.951 91.6242 223.905 90.9651 223.427 90.8838C222.524 90.7303 222 92.9786 220.601 94.0893C218 96.157 213.937 93.1322 212.926 94.3873Z" fill="#E94057"/>
<path d="M228.797 96.3192C231.677 99.3351 236.327 98.6398 237.032 98.5225C235.822 97.6014 233.998 96.1567 231.885 94.2695C228.562 91.2988 227.46 89.8541 226.919 90.1611C226.187 90.5674 226.684 94.098 228.797 96.3192Z" fill="#E94057"/>
<path d="M209.097 96.0112C206.171 98.9819 207.02 103.605 207.155 104.309C208.04 103.072 209.422 101.203 211.246 99.0271C214.117 95.6049 215.526 94.4671 215.201 93.9344C214.758 93.2211 211.246 93.826 209.097 96.0112Z" fill="#E94057"/>
<path d="M222.359 97.0142C224.129 100.789 228.761 101.601 229.466 101.719C228.608 100.463 227.344 98.5131 225.935 96.048C223.723 92.1744 223.145 90.4497 222.531 90.5671C221.709 90.7297 221.059 94.2331 222.359 97.0142Z" fill="#E94057"/>
<path d="M218.199 102.405L218.281 103.236L219.03 110.035C220.104 110.116 221.188 110.288 222.1 110.369L221.441 103.48L221.278 102.071L218.199 102.405Z" fill="#E94057"/>
<path d="M171.292 86.0541C172.791 88.7088 176.52 91.3273 180.123 91.3002C181.784 91.2912 182.696 90.7223 186.19 90.5147C189.017 90.3521 189.811 90.6501 190.967 90.5418C195.41 90.1354 200.511 84.2753 200.493 78.7943C200.466 71.1463 190.461 64.1485 181.865 66.2885C172.908 68.5278 167.915 80.0675 171.292 86.0541Z" fill="#F76F6F"/>
<path d="M171.806 82.8943C168.249 86.6596 171.924 99.0029 179.942 103.283C180.926 103.807 185.089 106.028 189.369 104.556C191.789 103.725 193.269 102.046 194.922 100.168C196.195 98.723 198.38 96.2399 199.346 92.4475C199.545 91.662 201.405 84.0501 197.847 81.2329C195.455 79.3367 192.899 81.4315 184.511 82.1358C175.743 82.8672 173.603 80.9891 171.806 82.8943Z" fill="#F76F6F"/>
<path d="M182.521 88.2662C183.387 89.9638 189.925 88.6726 194.566 86.3159C198.385 84.3835 202.846 80.7627 202.151 79.1013C201.51 77.5753 196.625 77.9545 193.121 79.0652C186.909 81.0516 181.609 86.4694 182.521 88.2662Z" fill="#FFA1A1"/>
<path d="M191.038 72.5811C194.28 74.7391 195.002 76.5812 196.691 76.22C199.255 75.6602 200.88 73.1319 200.33 70.5675C199.815 68.1928 196.763 67.4614 194.677 66.9286C189.124 65.52 183.092 67.3801 183.074 68.7797C183.065 69.8181 186.388 69.484 191.038 72.5811Z" fill="#FFA1A1"/>
<path d="M171.148 80.5086C174.155 84.7254 191.329 77.4566 191.122 76.5808C191.013 76.1112 186.164 78.3234 180.53 76.2286C176.873 74.8651 175.645 72.7161 173.767 73.3121C171.419 74.0615 169.749 78.5492 171.148 80.5086Z" fill="#FFA1A1"/>
<path d="M174.169 71.3627C172.191 70.0805 163.035 75.3357 164.209 81.539C165.031 85.9002 170.494 88.3382 174.448 88.0131C177.302 87.7693 179.713 86.0628 179.577 85.6564C179.415 85.1688 175.794 87.047 173.925 85.6293C170.593 83.1101 176.381 72.8074 174.169 71.3627Z" fill="#FFA1A1"/>
<path d="M197.417 75.6233C196.83 78.5309 186.545 78.3503 186.572 78.9823C186.59 79.4157 191.62 80.2374 196.947 78.3774C197.588 78.1516 204.026 75.9123 203.846 73.4653C203.611 70.305 192.432 68.3365 191.882 69.6548C191.439 70.7023 197.895 73.2305 197.417 75.6233Z" fill="#FFA1A1"/>
<path d="M172.592 71.8055C173.224 74.6317 179.373 75.5256 183.265 75.2276C187.021 74.9477 189.793 73.4669 189.739 73.2592C189.685 73.0425 186.524 74.2163 182.398 73.503C182.064 73.4488 178.253 72.7626 178.235 71.7061C178.226 70.9747 180.032 70.1079 181.748 70.0899C183.725 70.0718 184.366 71.2818 186.127 71.5075C188.809 71.8596 192.132 69.6564 192.041 68.0853C191.906 65.7647 184.213 62.6947 178.308 65.232C175.382 66.4871 172.059 69.4578 172.592 71.8055Z" fill="#FFA1A1"/>
<path d="M180.188 104.645C180.684 104.898 181.099 104.98 181.515 105.061C184.585 105.973 187.492 106.632 190.391 107.138C191.14 107.3 191.799 107.381 192.468 107.472C192.883 106.722 193.217 105.982 193.461 105.232C193.876 104.068 194.21 103.074 194.373 102.162C194.535 101.413 194.626 100.916 194.626 100.501C194.626 99.8418 194.544 99.4264 194.373 99.3361C193.958 99.1736 193.046 101.16 191.962 100.916C191.384 100.754 191.384 100.086 190.887 100.004C190.228 100.167 189.813 100.998 189.226 101.828C188.892 102.325 188.567 102.822 188.061 103.237C186.481 104.483 184.323 103.815 182.671 103.49C181.677 103.237 180.847 103.074 180.431 103.571C180.269 103.815 180.188 104.149 180.188 104.645Z" fill="#E94057"/>
<path d="M196.289 105.459C199.169 108.475 203.819 107.779 204.524 107.662C203.314 106.741 201.49 105.296 199.377 103.409C196.054 100.438 194.952 98.9935 194.411 99.3005C193.67 99.7068 194.167 103.246 196.289 105.459Z" fill="#E94057"/>
<path d="M178.119 103.977C178.869 104.312 179.528 104.474 180.196 104.637C180.693 104.889 181.108 104.971 181.523 105.052C181.776 104.799 181.939 104.555 182.191 104.303C182.444 103.968 182.607 103.725 182.688 103.472C182.435 102.722 181.279 102.722 179.781 103.219C179.284 103.4 178.706 103.652 178.119 103.977Z" fill="#E94057"/>
<path d="M189.234 101.828C189.072 102.658 189.072 103.57 189.316 104.564C189.397 105.06 189.568 105.638 189.812 106.144C189.975 106.478 190.146 106.803 190.39 107.137C191.14 107.3 191.799 107.381 192.467 107.471C193.298 107.634 194.21 107.805 195.04 107.968C194.544 107.137 194.047 106.225 193.46 105.232C192.964 104.32 192.548 103.57 192.214 102.911C191.383 101.503 190.968 100.5 190.634 100.094C190.381 99.8411 190.219 99.6786 190.056 99.7599C189.65 99.8321 189.316 100.663 189.234 101.828Z" fill="#E94057"/>
<path d="M293.696 78.5144C293.506 81.5574 295.222 85.7832 298.256 87.7245C299.655 88.6185 300.739 88.6365 303.773 90.3612C306.238 91.7607 306.735 92.438 307.773 92.9797C311.728 95.0565 319.186 92.9075 322.157 88.2934C326.292 81.8553 321.696 70.5504 313.317 67.679C304.576 64.6812 294.12 71.661 293.696 78.5144Z" fill="#F76F6F"/>
<path d="M295.838 76.14C290.808 77.3681 287.178 89.7295 291.585 97.6754C292.127 98.6506 294.411 102.777 298.808 103.87C301.291 104.484 303.45 103.879 305.851 103.202C307.711 102.678 310.89 101.784 313.77 99.1292C314.366 98.5784 320.055 93.1968 318.601 88.8988C317.626 86.0003 314.339 86.3795 306.917 82.4065C299.161 78.2529 298.384 75.517 295.838 76.14Z" fill="#F76F6F"/>
<path d="M301.911 86.4697C301.712 88.3658 307.907 90.8309 313.08 91.3817C317.333 91.8332 323.049 91.2192 323.365 89.4494C323.663 87.815 319.347 85.4764 315.807 84.5193C309.523 82.8037 302.119 84.4651 301.911 86.4697Z" fill="#FFA1A1"/>
<path d="M317.589 77.9273C319.142 81.494 318.744 83.4443 320.352 84.0493C322.808 84.9794 325.553 83.7423 326.474 81.2863C327.331 79.0108 325.173 76.7444 323.711 75.1643C319.819 70.9655 313.742 69.2499 312.966 70.4147C312.397 71.2816 315.367 72.8076 317.589 77.9273Z" fill="#FFA1A1"/>
<path d="M296.59 73.7917C296.816 78.9656 315.191 82.1982 315.489 81.3494C315.651 80.898 310.378 80.1124 306.784 75.2906C304.455 72.1574 304.599 69.6923 302.694 69.1686C300.328 68.5185 296.49 71.3718 296.59 73.7917Z" fill="#FFA1A1"/>
<path d="M304.09 67.7428C303.133 65.5938 292.587 65.0249 290.203 70.867C288.523 74.9755 291.783 79.9959 295.286 81.865C297.815 83.2194 300.767 83.084 300.876 82.6777C301.002 82.181 296.948 81.7838 296.144 79.5896C294.708 75.6617 305.165 70.1628 304.09 67.7428Z" fill="#FFA1A1"/>
<path d="M321.3 83.9583C319.232 86.0893 310.681 80.3375 310.374 80.8883C310.157 81.2675 313.932 84.6807 319.413 86.0261C320.072 86.1886 326.69 87.8049 327.864 85.6558C329.381 82.8748 321.074 75.1455 319.891 75.9491C318.952 76.5812 322.997 82.2066 321.3 83.9583Z" fill="#FFA1A1"/>
<path d="M302.528 67.2544C301.526 69.9722 306.203 74.0626 309.626 75.9317C312.93 77.7376 316.064 78.0085 316.127 77.8008C316.199 77.5841 312.903 76.8527 309.833 74.0175C309.581 73.7917 306.754 71.1461 307.314 70.2431C307.702 69.6201 309.698 69.8729 311.143 70.7939C312.813 71.8504 312.696 73.2229 314.041 74.3606C316.1 76.1123 320.082 76.0672 320.858 74.7037C322.014 72.6811 317.219 65.927 310.881 64.8435C307.757 64.3107 303.359 64.997 302.528 67.2544Z" fill="#FFA1A1"/>
<path d="M291.858 98.1444C289.763 98.8397 289.7 108.908 293.258 110.217C293.808 110.416 294.422 110.407 295.967 109.847C302.152 107.634 306.387 102.831 305.908 102.19C305.628 101.81 303.759 103.011 303.01 102.226C302.603 101.801 302.928 101.224 302.567 100.898C301.89 100.275 300.237 101.883 298.45 102.054C295.154 102.388 293.384 97.6298 291.858 98.1444Z" fill="#E94057"/>
<path d="M304.129 108.382C304.906 112.482 309.186 114.423 309.845 114.703C309.33 113.267 308.59 111.073 307.84 108.337C306.666 104.03 306.531 102.224 305.908 102.188C305.068 102.143 303.56 105.376 304.129 108.382Z" fill="#E94057"/>
<path d="M287.746 97.4224C283.673 98.3253 281.867 102.669 281.605 103.337C283.023 102.777 285.199 101.964 287.908 101.134C292.17 99.8243 293.976 99.6346 293.994 99.0116C294.021 98.1628 290.743 96.7542 287.746 97.4224Z" fill="#E94057"/>
<path d="M298.342 105.477C297.774 109.612 301.223 112.809 301.756 113.287C301.719 111.761 301.71 109.441 301.873 106.605C302.126 102.154 302.568 100.393 301.99 100.158C301.205 99.8514 298.758 102.434 298.342 105.477Z" fill="#E94057"/>
<path d="M287.717 116.094C288.963 116.013 290.119 115.931 291.283 115.76L294.019 110.369L294.679 109.123L291.943 107.715L291.609 108.464L287.717 116.094Z" fill="#E94057"/>
<path d="M208.796 219.861C207.875 219.635 207.532 219.003 207.712 218.407L209.266 213.215C209.446 212.628 210.051 212.276 210.674 212.466C211.27 212.646 211.613 213.269 211.424 213.874L209.87 219.066C209.726 219.545 209.284 219.861 208.796 219.861Z" fill="#210B04"/>
<path d="M218.823 222.796C218.543 222.796 218.263 222.697 218.047 222.489C217.595 222.065 217.577 221.351 218.002 220.891L226.823 211.554C227.248 211.103 227.961 211.076 228.422 211.509C228.873 211.933 228.891 212.647 228.467 213.107L219.645 222.444C219.428 222.679 219.121 222.796 218.823 222.796Z" fill="#210B04"/>
<path d="M219.438 226.905C219.248 226.887 194.85 222.778 194.85 222.778C194.236 222.679 193.821 222.092 193.929 221.478C194.029 220.864 194.597 220.44 195.23 220.557L219.627 224.666C220.241 224.765 220.657 225.352 220.548 225.966C220.449 226.517 219.979 226.905 219.438 226.905Z" fill="#210B04"/>
<path d="M205.049 211.977C204.624 217.792 204.209 223.616 203.785 229.431C190.277 231.138 179.333 233.143 171.739 234.687C150.52 238.994 134.962 241.784 113.372 242.434C98.8075 242.867 89.5342 242.335 83.4212 236.104C81.6334 234.289 78.5002 230.298 77.6875 222.497C84.1526 218.921 90.6178 215.345 97.0829 211.77C107.34 210.307 115.611 210.018 120.912 209.991C150.023 209.846 163.784 217.224 190.629 214.37C197.013 213.693 202.105 212.646 205.049 211.977Z" fill="#FC6454"/>
<path d="M197.449 230.454C205.44 231.023 213.441 231.6 221.432 232.169C223.581 231.113 226.262 229.478 228.872 226.95C234.931 221.054 236.746 214.029 237.342 210.878C233.947 209.307 229.341 207.916 224.375 208.972C220.475 209.803 218.253 211.745 216.772 210.706C213.901 208.683 218.018 199.464 216.429 198.607C215.273 197.984 211.364 202.02 202.217 215.429C200.628 220.431 199.038 225.442 197.449 230.454Z" fill="#FC6454"/>
<path d="M190.87 215.645C190.798 215.645 163.908 213.975 163.908 213.975C163.285 213.939 162.815 213.397 162.852 212.774C162.888 212.178 163.384 211.717 163.98 211.717C164.052 211.717 190.942 213.388 190.942 213.388C191.565 213.424 192.035 213.966 191.999 214.589C191.963 215.185 191.457 215.645 190.87 215.645Z" fill="#210B04"/>
<defs>
<linearGradient id="paint0_linear_13_26010" x1="143.173" y1="108.921" x2="143.173" y2="187.536" gradientUnits="userSpaceOnUse">
<stop stop-color="#F65F51"/>
<stop offset="1" stop-color="#FB4967"/>
</linearGradient>
<linearGradient id="paint1_linear_13_26010" x1="106.565" y1="89.9443" x2="106.565" y2="286.752" gradientUnits="userSpaceOnUse">
<stop stop-color="#F65F51"/>
<stop offset="1" stop-color="#FB4967"/>
</linearGradient>
<linearGradient id="paint2_linear_13_26010" x1="70.7244" y1="105.627" x2="70.7244" y2="183.59" gradientUnits="userSpaceOnUse">
<stop stop-color="#F65F51"/>
<stop offset="1" stop-color="#FB4967"/>
</linearGradient>
</defs>
</svg>
