<svg width="265" height="604" viewBox="0 0 265 604" fill="none" xmlns="http://www.w3.org/2000/svg">
<path d="M95.1375 369.476C94.6138 369.476 94.1623 369.124 94.0359 368.6C90.2344 351.94 89.1871 335.245 90.9028 318.965C94.1534 288.147 106.208 267.505 117.856 247.532C121.422 241.437 124.781 235.676 127.824 229.717C145.739 194.782 152.683 152.415 148.448 103.8C148.394 103.177 148.854 102.635 149.477 102.581C150.109 102.5 150.642 102.979 150.705 103.611C154.967 152.659 147.942 195.432 129.829 230.755C126.741 236.769 123.373 242.548 119.797 248.67C108.266 268.426 96.3383 288.869 93.1329 319.199C91.4353 335.218 92.4829 351.67 96.2301 368.094C96.3746 368.699 95.9863 369.304 95.3723 369.449C95.3091 369.467 95.2188 369.476 95.1375 369.476Z" fill="#210B04"/>
<path d="M98.7688 345.618C98.2 345.618 97.7124 345.194 97.6492 344.616C95.8614 328.543 96.033 312.407 98.164 296.642C100.819 277.057 105.794 263.585 110.607 250.555C113.09 243.81 115.672 236.839 117.912 229.065C125.271 203.575 127.176 175.637 123.582 146.029C123.501 145.415 123.943 144.847 124.566 144.774C125.153 144.666 125.74 145.136 125.821 145.759C129.451 175.673 127.528 203.909 120.079 229.697C117.812 237.553 115.221 244.56 112.729 251.341C107.735 264.849 103.031 277.617 100.412 296.949C98.3084 312.534 98.1368 328.489 99.8975 344.381C99.9698 344.995 99.5184 345.555 98.9044 345.627C98.8502 345.618 98.814 345.618 98.7688 345.618Z" fill="#210B04"/>
<path d="M98.4071 365.5C97.8924 365.5 97.4412 365.157 97.3148 364.643C90.3169 336.173 92.4569 313.084 103.69 295.991C111.87 283.558 122.633 277.616 130.498 273.282C131.672 272.632 132.783 272.027 133.803 271.431C163.086 254.492 184.07 217.055 196.179 160.169C196.314 159.555 196.919 159.167 197.515 159.302C198.12 159.429 198.509 160.034 198.382 160.639C186.138 218.184 164.783 256.117 134.932 273.39C133.893 273.986 132.774 274.609 131.582 275.268C123.925 279.485 113.45 285.264 105.577 297.237C94.7051 313.77 92.6553 336.272 99.4997 364.101C99.6532 364.706 99.2833 365.32 98.6783 365.464C98.588 365.491 98.4974 365.5 98.4071 365.5Z" fill="#210B04"/>
<path d="M17.123 600.828C39.4801 600.891 61.8371 600.955 84.2032 601.018C84.8533 598.508 85.3681 594.742 83.824 590.715C83.2461 589.198 82.578 588.187 82.2349 587.636C80.4651 584.801 78.3702 580.024 77.2415 571.581C73.1872 571.121 69.1331 570.651 65.0789 570.191C49.7197 590.859 41.0332 594.995 35.8864 594.697C32.2565 594.48 28.762 596.494 25.1231 596.53C22.7844 596.548 19.9132 596.322 18.2517 598.192C17.4933 599.031 17.2224 600.061 17.123 600.828Z" fill="#FC6454"/>
<path d="M57.0689 88.1586C56.7439 93.3235 56.4186 98.5155 56.1116 103.698C55.597 111.987 55.0823 120.286 54.5586 128.575L91.2275 131.365C90.2794 113.893 89.3404 96.4206 88.3923 78.9575C83.2184 81.2871 77.0692 83.6077 70.0172 85.4768C65.4031 86.7048 61.051 87.5536 57.0689 88.1586Z" fill="#FC6454"/>
<path d="M57.0667 88.1591C56.7416 93.324 56.4164 98.516 56.1094 103.699C63.0079 104.042 69.2114 96.0419 69.997 85.7031C65.717 86.3533 61.3918 87.2562 57.0667 88.1591Z" fill="#210B04"/>
<path d="M15.9453 309.555C35.9005 295.658 55.8558 281.771 75.8111 267.875C81.0392 244.895 86.2763 221.905 91.5044 198.925C92.9762 195.747 104.606 170.094 101.681 147.403C100.164 135.61 95.6127 126.174 95.6127 126.174C93.2651 121.307 90.7007 117.56 88.7593 115.023C79.3325 115.953 69.9149 116.883 60.4881 117.813C57.418 119.222 22.8079 135.701 20.8304 165.344C20.5686 169.236 20.8302 174.04 22.4014 179.575C21.5887 194.763 20.7943 209.986 20.0178 225.237C18.6002 253.436 17.2365 281.545 15.9453 309.555Z" fill="#FC6454"/>
<path d="M61.4439 345.428C79.5412 345.428 94.212 327.673 94.212 305.77C94.212 283.868 79.5412 266.113 61.4439 266.113C43.3465 266.113 28.6758 283.868 28.6758 305.77C28.6758 327.673 43.3465 345.428 61.4439 345.428Z" fill="#FC6454"/>
<path d="M47.3828 427.67C50.0285 448.727 56.8457 464.79 63.8345 465.178C71.3471 465.594 80.9995 448.031 84.828 421.223C84.828 384.491 84.828 347.768 84.828 311.035C63.6448 308.688 42.4616 306.349 21.2783 304.001C20.3934 316.173 20.3393 330.368 22.1 346.034C26.1001 381.538 37.7393 409.376 47.3828 427.67Z" fill="#FC6454"/>
<path d="M61.8553 580.639C67.5348 580.739 73.2052 580.838 78.8757 580.928C85.5485 561.045 89.8467 543.916 92.6639 530.941C101.928 488.204 98.2352 476.023 96.1855 470.696C94.5151 466.353 92.1852 462.036 89.5396 453.224C85.991 441.431 84.7902 431.273 84.3387 424.456C75.3543 436.447 66.3699 448.447 57.3945 460.438C58.7399 467.481 59.9409 474.759 60.9432 482.281C65.792 518.561 65.0969 551.781 61.8553 580.639Z" fill="#FC6454"/>
<path d="M43.063 74.9753C42.7289 75.4719 43.3973 76.4651 43.5598 76.6367C43.6411 76.7992 44.5529 78.0453 45.6364 78.2169C45.0585 78.4697 44.5619 78.876 44.4716 79.2914C44.4716 79.7067 44.8059 80.0408 44.8872 80.2034C45.131 80.5375 45.3838 80.5375 45.5463 80.7C46.377 81.2779 43.966 86.3434 44.5529 88.5015C45.3024 91.6528 53.1852 92.7363 60.3998 92.0681C66.2058 91.4902 77.2398 89.3322 90.0166 78.876C90.766 78.2981 91.344 77.8015 92.0122 77.2146C92.8429 76.5554 104.211 66.343 101.881 51.1644C100.391 41.3764 93.9986 34.3244 87.5244 30.6764C74.0885 23.1278 56.5803 28.2656 51.6863 35.6517C50.7743 36.9791 50.1965 38.2251 49.8624 39.2996C47.1264 48.4285 45.8802 52.573 45.7086 52.7446C45.7086 52.8259 45.5463 53.0787 45.5463 53.494C45.5463 53.7469 45.6276 53.9094 45.6276 54.0719C45.8804 55.318 46.124 56.5641 46.3768 57.8011C45.3836 65.9367 44.887 69.2505 44.5529 70.2438C43.975 72.3206 43.7222 73.1513 43.9751 73.8917C44.0563 74.1445 44.1376 74.3071 43.9751 74.4696C43.8125 74.8127 43.3158 74.7315 43.063 74.9753Z" fill="#FC6454"/>
<path d="M39.6158 67.2468C39.5074 68.5651 40.7988 69.6577 41.2683 70.064C42.5776 71.1837 44.0494 71.3643 44.6453 71.4094C45.0697 71.1566 45.7829 70.6329 45.9906 69.7841C46.1621 69.0798 45.7738 68.6554 45.7106 67.7705C45.6745 67.2016 45.756 66.3619 46.37 65.3054C46.4603 62.5334 46.5506 59.7704 46.6409 57.0073C45.6115 58.5694 44.7808 59.8516 44.2209 60.7365C42.3609 63.6531 42.397 63.7433 41.8101 64.4386C40.4466 66.0549 39.6971 66.2806 39.6158 67.2468Z" fill="#FC6454"/>
<path d="M60.6022 60.1321C60.241 60.1321 59.8798 59.9515 59.6631 59.6265C59.2207 58.9583 58.2273 57.7303 56.5388 57.0802C53.7487 56.0147 51.2204 57.2788 50.7328 57.5407C50.4438 57.6942 50.0917 57.7213 49.8028 57.6129C49.5048 57.4955 49.252 57.2607 49.1436 56.9628L48.2227 54.6602C47.997 54.0824 48.2769 53.4232 48.8458 53.1884C49.4236 52.9537 50.0918 53.2336 50.3175 53.8205L50.8053 55.0395C52.25 54.4887 54.6877 53.9379 57.3514 54.9763C59.6178 55.8612 60.9454 57.4865 61.5504 58.3894C61.8935 58.9132 61.749 59.6084 61.2343 59.9515C61.0357 60.078 60.8099 60.1321 60.6022 60.1321Z" fill="#210B04"/>
<path d="M50.1184 57.5397C50.001 59.0567 51.0395 60.375 52.4301 60.4834C53.8206 60.5917 55.0487 59.445 55.1661 57.919C55.2835 56.402 54.245 55.0837 52.8544 54.9753C51.4549 54.867 50.2268 56.0137 50.1184 57.5397Z" fill="#210B04"/>
<path d="M64.4875 54.0723C64.4875 54.0723 63.4309 53.2687 62.2932 52.7992C60.4422 52.0226 56.2436 51.1287 50.6814 50.5869C50.546 50.1355 50.2569 48.9436 50.6993 47.535C51.0786 46.3341 51.801 45.5936 52.1532 45.2686C55.5393 46.623 58.1128 47.3453 59.9548 47.7697C60.6411 47.9232 62.7086 48.3838 64.8306 49.8194C65.8509 50.5057 66.2211 51.0204 66.3927 51.2642C67.6297 53.052 67.1963 55.2281 67.0157 55.9595C66.4017 55.4268 65.553 54.7586 64.4875 54.0723Z" fill="#8E3B32"/>
<path d="M47.7581 79.5284C47.0628 79.5284 46.3585 79.4472 45.6633 79.2846C45.0583 79.1492 44.6791 78.5352 44.8145 77.9302C44.959 77.3343 45.5278 76.937 46.1689 77.0905C46.792 77.2349 47.4602 77.2801 48.0471 77.262C49.8259 77.1898 51.2253 76.4584 52.0651 75.8534C52.5797 75.5013 53.2842 75.6187 53.6454 76.1334C53.9975 76.648 53.8711 77.3433 53.3745 77.7045C52.2729 78.472 50.4668 79.4201 48.1372 79.5194C48.0198 79.5285 47.8935 79.5284 47.7581 79.5284Z" fill="#210B04"/>
<path d="M56.7782 561.387C65.9883 565.595 75.1985 569.803 84.4176 574.001C92.3275 555.825 104.481 520.429 97.9528 477.25C95.6683 462.107 91.5509 449.096 87.1806 438.486C86.2596 408.066 85.3386 377.645 84.4176 347.216C86.982 343.198 99.6506 322.439 93.3118 296.614C89.393 280.659 80.1016 270.447 75.5237 266.022C56.2818 275.115 37.0398 284.199 17.7979 293.292C15.2606 316.633 14.5472 351.559 25.6535 391.461C31.3963 412.102 39.0262 429.457 46.3943 443.317C51.9746 466.026 56.5255 493.277 57.4555 524.213C57.8528 537.405 57.5457 549.82 56.7782 561.387Z" fill="#E94057"/>
<path d="M0.0606757 330.63C3.81696 329.664 9.67711 327.858 16.2506 324.39C24.7383 319.912 30.1381 314.9 31.8718 313.347C38.7793 307.108 52.8472 296.345 84.3242 276.498C90.0037 230.321 95.2409 196.081 100.839 169.182C103.313 157.29 108.803 132.712 95.8549 119.881C93.2905 117.344 90.5997 115.854 88.7667 115.005C76.0261 116.639 63.2854 118.283 50.5447 119.926C40.7838 127.52 28.0253 139.782 20.2057 158.04C13.5329 173.625 16.4312 179.647 13.4154 211.684C9.55074 252.813 3.06774 260.452 0.756187 302.286C0.0880023 314.304 0.0245576 324.183 0.0606757 330.63Z" fill="#C1DCE0"/>
<path d="M61.4863 175.458C65.4683 196.37 69.4504 217.273 73.5137 238.267L98.4892 237.021C98.5705 223.332 98.408 211.305 97.9927 201.345C97.8301 198.609 97.749 195.955 97.6587 193.544C97.5774 192.794 97.5774 192.054 97.4961 191.304C94.6789 140.938 88.3673 128.333 79.2475 123.439C77.5048 122.527 75.8434 121.949 74.8501 121.696C70.3624 139.61 65.8837 157.534 61.4863 175.458Z" fill="#FC6454"/>
<path d="M87.054 325.836C91.4424 330.648 98.8736 330.964 103.434 326.838C107.641 323.028 108.382 316.346 104.887 311.47C104.021 310.287 102.639 308.192 101.619 305.321C99.876 300.445 100.174 296.183 100.319 294.341C101.727 276.805 106.115 262.557 103.434 248.362C102.206 241.888 100.011 236.85 98.4222 233.689C90.1422 234.565 81.8711 235.441 73.5911 236.317C73.4014 245.022 74.1328 251.92 74.7558 256.317C78.1961 280.48 87.1896 290.9 87.6592 313.547C87.7675 318.937 87.3611 323.298 87.054 325.836Z" fill="#FC6454"/>
<path d="M65.9668 197.858C76.5855 199.023 87.2945 200.179 97.9945 201.344C97.8319 198.608 97.7508 195.953 97.6605 193.542C97.1639 193.38 96.5768 193.208 95.9989 193.045C85.9671 194.617 76.0076 196.278 65.9668 197.858Z" fill="#210B04"/>
<path d="M58.83 198.229C74.5052 197.885 90.1715 197.542 105.847 197.19C101.973 176.215 98.0904 155.248 94.2167 134.272C92.8262 124.773 84.4018 117.884 75.0833 118.372C66.2073 118.832 58.7669 125.875 57.8008 134.968C58.1349 156.052 58.4869 177.145 58.83 198.229Z" fill="#C1DCE0"/>
<path d="M83.0324 560.612C82.2197 560.485 81.8042 559.889 81.9216 559.284C85.0639 542.011 86.4544 524.412 86.0481 506.967C85.5695 486.389 82.7072 471.797 79.3933 454.912C77.7138 446.388 75.9893 437.576 74.3098 426.912C70.4271 402.27 68.3413 376.635 68.0794 350.712C65.506 349.502 63.05 348.03 60.7655 346.323C50.0656 338.368 45.307 327.163 43.2122 319.162C43.0496 318.557 43.4198 317.943 44.0248 317.781C44.5665 317.645 45.2438 317.98 45.3973 318.585C47.4019 326.233 51.9346 336.942 62.1108 344.508C64.4675 346.251 67.0049 347.75 69.6686 348.951C70.0659 349.131 70.3277 349.529 70.3277 349.971C70.5444 376.021 72.6394 401.792 76.5311 426.55C78.2016 437.169 79.935 445.964 81.5964 454.461C84.9283 471.454 87.8178 486.127 88.2964 506.904C88.7027 524.494 87.3031 542.255 84.1338 559.682C84.0525 560.232 83.5741 560.612 83.0324 560.612Z" fill="#6AA7AD"/>
<path d="M61.3274 36.979L54.6908 37.891C57.1017 38.5592 60.3342 39.7963 63.9008 41.7918C64.8941 42.2884 71.7023 46.1892 77.093 52.9071C87.3776 65.6026 83.8922 77.8828 88.3799 78.9573C88.8765 79.0385 89.4546 79.0385 90.0415 78.876C90.7909 78.2981 91.3686 77.8015 92.0368 77.2146C92.8675 76.5554 104.236 66.343 101.906 51.1644C100.416 41.3764 94.0235 34.3244 87.5493 30.6764C74.1134 23.1278 56.6049 28.2656 51.7109 35.6517C53.86 36.8165 57.1738 37.3131 61.3274 36.979Z" fill="#8E3B32"/>
<path d="M94.7067 49.459C95.402 49.2242 103.492 46.3528 103.953 41.1067C104.061 39.8335 102.896 37.5762 100.567 33.0524C98.1288 28.3209 97.2349 27.5173 96.1785 27.1019C93.9211 26.226 92.8195 27.8514 90.7337 26.8401C88.1332 25.585 87.7629 21.9009 86.3272 22.1718C85.4694 22.3343 85.2799 23.4991 84.5124 23.472C83.2663 23.4269 83.0495 20.3027 81.659 20.104C80.4851 19.9415 79.9344 22.0544 78.3181 22.0273C77.2255 22.0093 77.09 21.0431 75.7808 20.9528C74.3902 20.8625 73.6678 21.8919 73.0086 21.4856C72.3946 21.1153 72.9004 20.1221 72.3586 19.481C71.6994 18.6954 69.9657 19.0115 65.0356 20.5555C60.4667 21.9912 60.259 22.2531 58.8865 22.3163C55.6449 22.4517 53.4959 21.0973 53.1257 21.7294C52.6471 22.551 56.1596 25.0432 55.663 25.9281C55.2296 26.6956 52.5478 25.0071 49.9022 25.7294C46.3536 26.7046 43.0577 31.9508 44.4392 36.0321C45.9742 40.5649 52.4845 41.197 54.5883 41.3956C64.1867 42.3167 71.5368 34.8583 73.2343 33.0433L94.7067 49.459Z" fill="#8E3B32"/>
<path d="M17.123 603.221H79.0565C82.0363 602.923 83.4808 601.803 84.2032 601.018C87.7427 597.171 86.1176 588.124 79.0565 579.103C74.3702 586.453 72.0948 587.672 70.8848 587.266C68.8532 586.598 69.7923 581.361 65.8283 577.676C64.2391 576.196 62.4602 575.518 61.2502 575.175C50.0355 581.37 40.6719 585.686 34.1165 588.521C24.7077 592.584 15.2539 596.088 15.4887 600.377C15.5519 601.623 16.4097 602.589 17.123 603.221Z" fill="#210B04"/>
<path d="M102.341 4.38382C115.488 -4.19423 134.514 0.257331 150.794 13.8919C167.074 0.257331 186.099 -4.19423 199.246 4.38382C217.296 16.1583 217.432 47.9332 199.544 75.3649C189.828 90.2545 176.799 100.756 164.031 105.397C159.986 107.32 155.507 108.16 150.794 108.043C146.08 108.16 141.602 107.32 137.557 105.397C124.789 100.756 111.759 90.2545 102.043 75.3649C84.1649 47.9332 84.2915 16.1583 102.341 4.38382Z" fill="url(#paint0_linear_13_24563)"/>
<path d="M146.015 113.063C144.182 116.593 143.623 117.234 143.939 117.957C144.336 118.86 146.214 120.169 156.517 118.219C156.056 116.882 155.415 115.112 154.575 113.063C152.526 108.115 151.478 105.64 150.295 105.649C149.266 105.649 149.004 107.311 146.015 113.063Z" fill="url(#paint1_linear_13_24563)"/>
<path d="M185.866 49.8936C179.807 70.4629 167.644 79.8175 169.098 81.1809C171.094 83.0591 197.243 68.5125 199.004 46.0922C199.952 33.9927 193.586 22.1911 190.877 22.5884C188.295 22.9586 190.489 34.1823 185.866 49.8936Z" fill="#FFA1A1"/>
<path d="M161.359 87.78C176.005 82.1185 193.685 90.4256 206.787 107.148C225.55 97.1978 245.081 96.7915 256.16 107.916C271.375 123.185 264.901 154.291 241.704 177.407C229.108 189.958 214.182 197.516 200.728 199.412C196.376 200.45 191.816 200.342 187.229 199.249C182.597 198.383 178.389 196.631 174.831 193.913C163.31 186.716 152.745 173.741 146.334 157.154C134.524 126.607 141.251 95.5454 161.359 87.78Z" fill="#FFA1A1"/>
<path d="M181.501 203.16C178.973 206.23 178.296 206.736 178.458 207.512C178.657 208.479 180.228 210.149 190.702 210.375C190.531 208.966 190.278 207.106 189.871 204.93C188.896 199.666 188.382 197.029 187.226 196.794C186.214 196.596 185.618 198.158 181.501 203.16Z" fill="#FFA1A1"/>
<path d="M233.595 149.65C223.4 168.513 209.549 175.131 210.696 176.775C212.258 179.023 240.863 170.228 247.238 148.666C250.678 137.018 246.904 124.16 244.177 123.979C241.577 123.807 241.387 135.239 233.595 149.65Z" fill="white"/>
<path d="M73.2584 96.774C84.3105 87.7987 101.882 90.0109 117.855 100.774C131.255 86.9409 147.987 81.1259 160.664 87.6181C178.055 96.5302 181.179 125.181 167.635 151.61C160.285 165.958 149.522 176.658 138.442 182.058C134.975 184.171 131.011 185.354 126.758 185.697C122.514 186.248 118.397 185.913 114.568 184.559C102.613 181.579 89.8726 173.335 79.7054 160.829C60.9691 137.777 58.0888 109.099 73.2584 96.774Z" fill="url(#paint2_linear_13_24563)"/>
<path d="M122.923 190.662C121.605 194.021 121.162 194.644 121.515 195.276C121.957 196.053 123.781 197.055 132.883 194.319C132.341 193.154 131.6 191.619 130.643 189.858C128.332 185.587 127.149 183.457 126.084 183.583C125.154 183.682 125.072 185.199 122.923 190.662Z" fill="url(#paint3_linear_13_24563)"/>
<path d="M152.881 129.931C149.36 149.056 139.274 158.636 140.719 159.728C142.696 161.227 164.909 145.642 164.376 125.254C164.087 114.247 157.234 104.215 154.823 104.82C152.529 105.407 155.572 115.321 152.881 129.931Z" fill="#FFA1A1"/>
<path d="M121.377 97.5138C121.079 97.5138 120.79 97.3964 120.565 97.1707C120.131 96.7282 120.14 96.0149 120.592 95.5815C124.519 91.8071 135.084 83.0395 149.64 83.8611C153.775 84.0779 157.874 85.053 161.811 86.7596C162.389 87.0034 162.651 87.6716 162.389 88.2405C162.137 88.8093 161.487 89.0622 160.909 88.8274C157.225 87.2292 153.387 86.3172 149.513 86.1185C148.962 86.0914 148.421 86.0734 147.87 86.0734C135.147 86.0734 125.711 93.7846 122.154 97.2068C121.946 97.4054 121.657 97.5138 121.377 97.5138Z" fill="#210B04"/>
<defs>
<linearGradient id="paint0_linear_13_24563" x1="150.795" y1="0" x2="150.795" y2="108.053" gradientUnits="userSpaceOnUse">
<stop stop-color="#F65F51"/>
<stop offset="1" stop-color="#FB4967"/>
</linearGradient>
<linearGradient id="paint1_linear_13_24563" x1="150.186" y1="105.649" x2="150.186" y2="119.231" gradientUnits="userSpaceOnUse">
<stop stop-color="#F65F51"/>
<stop offset="1" stop-color="#FB4967"/>
</linearGradient>
<linearGradient id="paint2_linear_13_24563" x1="119.793" y1="84.9648" x2="119.793" y2="185.95" gradientUnits="userSpaceOnUse">
<stop stop-color="#F65F51"/>
<stop offset="1" stop-color="#FB4967"/>
</linearGradient>
<linearGradient id="paint3_linear_13_24563" x1="127.141" y1="183.578" x2="127.141" y2="196.115" gradientUnits="userSpaceOnUse">
<stop stop-color="#F65F51"/>
<stop offset="1" stop-color="#FB4967"/>
</linearGradient>
</defs>
</svg>
